<svg xmlns="http://www.w3.org/2000/svg" viewBox="0 0 387.7 308.5">
  <title>Asset 2</title>
  <g id="Layer_2" data-name="Layer 2">
    <g id="Layer_1-2" data-name="Layer 1">
      <g>
        <path d="M76,55h41.6c23.3,0,38.6,10.6,38.6,33.4,0,8.6-2.7,16.7-8.3,24.4s-12.5,12.5-20.8,14c11,2.8,19.9,8.2,26.4,16.5a43.8,43.8,0,0,1-5,60.2c-9.7,8.8-22.1,13.3-37.7,13.3A50.1,50.1,0,0,1,79.1,206c-9.2-7.3-13.7-17.2-13.7-29.7s8.1-27.1,21-32.3V69.6c.2-5.4,0-10.1-8.6-11H76Zm57.4,144.6c5.6-7.7,8.4-16.9,8.4-27.5,0-16.1-4.8-28.5-11.1-34s-11.3-8.1-14.9-8.1h-8.2v12.7a24.3,24.3,0,0,1,19,24.2c0,11.7-7.9,19.6-19,19.6-6.8,0-12.9-3.1-18.1-9.3q15,0,15-12.6c0-8.8-6.6-12.2-12-12.2-11.8,0-19.5,11.3-19.5,25.8q0,14.6,10.2,23.7a36.5,36.5,0,0,0,24.7,9.3C119.4,211.2,127.7,207.3,133.4,199.6Zm-26-74.8H116c10.6,0,19-14.2,19-33.5,0-14.2-3-23.5-8.4-27.1s-9-4.7-14.7-4.7h-4.5Z" fill="#b42400"/>
        <path d="M183.4,60.8a52,52,0,0,0,18.5-9.9l31.2,142.2c1.6,7.4,5.6,11.1,12.4,11.1V208H202.6v-3.8c7.9,0,9.7-2.1,8.8-8.6,0,.2-1.4-5.7-3.9-17.7l-9.2-45.2c-3.9-18.3-6.8-33.2-9.3-44.5L169.6,195.3c-.7,4.8,1.5,8.6,10.6,8.9V208H148.1v-3.8c9,0,12.2-4.1,14.2-12.5L185.6,71.9Z" fill="#b42400"/>
        <path d="M231.3,77.8a30.4,30.4,0,0,0,2,10.4c2.7,7,4.3,10.6,11.5,18.1l7.5,7.7,9.3,8.3,8.1,7c22.6,20.1,33.7,36.9,33.7,59.7,0,17.6-6.1,32.8-18.3,45.2S258.2,253,240.3,253s-30.3-5.4-40.4-16.5-15.6-24-15.6-39.1,4.5-25.8,13.3-35.5,20.3-14.7,34.4-14.7c11.9,0,21.4,3.6,28.9,10.6A34,34,0,0,1,272,183.4c0,14.6-9.3,25-21.1,25-6.1,0-11.7-3.6-16.9-10.6,10.6-2.5,15.8-8.3,15.8-17.4,0-13.3-9.9-22.1-24.4-22.1-10.4,0-18.8,4-24.9,12.4s-9.5,17.6-9.5,28.7c0,13.8,4.8,25.5,14.3,34.8s21.2,14.3,35.2,14.3,24.9-4.6,33.3-13.8,12.9-20.8,12.9-34.6c0-19.9-11.3-37.5-25.1-50.2-19.9-18.1-46.2-36.9-45.9-61.7A37.2,37.2,0,0,1,225.8,62c7.1-7.3,15.9-10.9,26.5-10.9a58.5,58.5,0,0,1,11.8,1.8,54.8,54.8,0,0,0,9.7,1.6c3.4,0,5.2-1.8,5.8-5.2h4.1v40h-4.1a38.5,38.5,0,0,0-8.3-22.8c-5-6.8-11.3-10.2-19.2-10.2C241,56.3,231.3,64,231.3,77.8Z" fill="#b42400"/>
        <path d="M329.6,154c-2.7-3-7-7-12.7-12.2s-10.8-10-15.1-14.3c-13.3-13.3-28.9-33.7-28-56.9q0-26.2,16.9-44.6T334.8,7.7c16.1,0,28.7,5.2,38.4,15.6s14.5,22.4,14.5,35.9a49,49,0,0,1-13.3,34.4c-8.8,9.3-19.7,14-32.8,14-11.1,0-19.9-3.1-26.9-9.2a30.7,30.7,0,0,1-10.2-23.3c0-13.6,9.1-22.4,20.1-22.4,6.1,0,11.3,2.7,15.2,8.1-9.1,1.6-14.5,7.5-14.5,15.9,0,12.4,9.7,20.3,22.6,20.3,10,0,17.7-3.8,23.3-11.8s8.4-17.1,8.4-28.2a43.9,43.9,0,0,0-12.2-31.2c-8-8.8-18.4-13.1-31-13.1-28.3,0-44.8,19.6-44.8,49.3,0,52,66.9,66.6,66.9,110.1a42.4,42.4,0,0,1-9.2,26.9c-6.1,7.6-14.5,11.5-25.1,11.5-3,0-6.8-.9-11.5-2.5s-7.7-2.3-9.3-2.3a8.3,8.3,0,0,0-6.8,3.2h-3.4V169.3h4.1a52,52,0,0,0,8.3,24.7c5,7.4,11.1,11.3,18.4,11.3,12.8,0,18.7-10,18.7-21.9C342.5,173.6,338.2,163.7,329.6,154Z" fill="#b42400"/>
      </g>
      <g>
        <path d="M39,41.5a4.4,4.4,0,0,0,4.1-2.6l.4.3a5.7,5.7,0,0,1-5.8,4.2,8,8,0,0,1-6.5-2.7,8.9,8.9,0,0,1-1.9-6.1c0-3.3,1.3-7.6,3.8-12.6q2.1-4,8.1-13.5L39.4,10l-3.5,4.5c-2,2.4-7.5,9-16.8,19.8a10.1,10.1,0,0,1-2.5.4,5.3,5.3,0,0,1-2-.3c2-4.8,3.8-9.3,5.1-13.3L23.5,8.6C14.6,21.8,8.1,30.5,3.9,34.5a5.6,5.6,0,0,1-2,.3A4.7,4.7,0,0,1,0,34.6c2.4-1.8,5.9-5.9,10.6-12.2S19.5,10.2,23,4.6a12.1,12.1,0,0,1,3-.4,11.4,11.4,0,0,1,2.8.2c.2.1.3.4.3.8-2.3,9.5-4.5,16.5-6.5,21l4.5-4.8c3.1-3.7,7.6-9.3,13.4-16.9,0-.1.4-.3,1.2-.4l2.4-.2,3.1.2L41.2,15a99.1,99.1,0,0,0-5.8,12.1C33.1,33,32.9,37.3,35,39.9A5.1,5.1,0,0,0,39,41.5Z" fill="#5d6130"/>
        <path d="M53.6,34a4.9,4.9,0,0,1-1-2.6c-2.2,2.4-4.3,3.6-6.4,3.6a4.1,4.1,0,0,1-4.4-4.5q0-5.1,4.8-10.5c3.1-3.5,6.4-5.3,9.8-5.3a5.4,5.4,0,0,1,2.2.5A2.7,2.7,0,0,1,60,16.8c.8-1.5,1.5-2.3,2-2.3l3.6.3c-4,6.9-6.8,11.8-8.2,14.7a1.3,1.3,0,0,0-.2.8c0,1,.4,1.5,1.3,1.5s1.7-.6,3.3-1.7a25.2,25.2,0,0,0,5.4-6.2,1,1,0,0,1,.9.4,30.7,30.7,0,0,1-5.3,6.5c-2.7,2.7-5,4.1-7,4.1A2.4,2.4,0,0,1,53.6,34Zm4.6-16.8a1.7,1.7,0,0,0-1.3-.5c-1.1,0-2.4.6-4,2a18.3,18.3,0,0,0-3.6,3.9,11.9,11.9,0,0,0-2.7,6.9q0,2.4,1.8,2.4a5,5,0,0,0,3.5-1.8,46.7,46.7,0,0,0,4.3-6.7c1.8-3.2,2.7-4.9,2.7-5A1.3,1.3,0,0,0,58.2,17.2Z" fill="#5d6130"/>
        <path d="M77.1,34.1a6.9,6.9,0,0,1-1-2.7c-2.3,2.5-4.4,3.7-6.5,3.7s-4.3-1.8-4.3-4.6,1.6-7,4.9-10.7,6.6-5.6,9.9-5.6a4.9,4.9,0,0,1,2.3.6,2.6,2.6,0,0,1,1.3,1.6L89.5,6.3c.9-1.6,1.6-2.5,2.2-2.6a6.1,6.1,0,0,1,3.9.3C87.7,17.4,82.9,25.9,81.1,29.5a2.6,2.6,0,0,0-.3,1c0,1,.4,1.4,1.2,1.4a6.5,6.5,0,0,0,4.2-1.8,39.5,39.5,0,0,0,5-6.2.9.9,0,0,1,.8.4,44.3,44.3,0,0,1-5,6.6c-2.7,2.7-5.2,4-7.7,4A2.7,2.7,0,0,1,77.1,34.1ZM82,16.7a2.4,2.4,0,0,0-1.4-.5c-2.2,0-4.8,2.1-7.8,6.2s-3,5.3-3,7.4.6,2.4,2,2.4,2.4-.7,3.7-2.3,2.4-3.4,5.1-7.9c.4-.8.9-1.5,1.4-2.3S82.8,17.4,82,16.7Z" fill="#5d6130"/>
        <path d="M89.2,30.4a12.4,12.4,0,0,1,1.6-6.1,29.7,29.7,0,0,1,5.6-7,11.4,11.4,0,0,1,7-3.1c2.5-.2,3.7.8,3.7,2.9a10.9,10.9,0,0,1-1.8,4.9c-2.1,3.6-5.8,5.9-11.3,6.8a4.1,4.1,0,0,0-.5,1.8c0,1.6.9,2.4,2.6,2.4s4.5-1.1,7.5-3.2a34.5,34.5,0,0,0,6.1-5.9.9.9,0,0,1,.8.4,35.9,35.9,0,0,1-6.9,7.1c-3.4,2.6-6.7,3.8-9.9,3.8S89.2,33.6,89.2,30.4Zm15.3-13.2c0-.5-.2-.8-.6-.8h-.4c-2.7,1-5.3,3.7-7.7,8a23.9,23.9,0,0,0-1.3,3,10.6,10.6,0,0,0,6.6-3.4,11,11,0,0,0,3.4-6.2Z" fill="#5d6130"/>
        <path d="M135.9,32.9c2.5-1.2,4.8-3.9,6.9-8.2a18,18,0,0,1-.2-2.2,11.4,11.4,0,0,1,1.3-5.5,9.6,9.6,0,0,1,3.3-4.2,3.2,3.2,0,0,1,1.7-.6c.5,0,.8.3.8.9a15.9,15.9,0,0,1-1.4,6.5,68.1,68.1,0,0,1-2.9,6.2,3.2,3.2,0,0,0,2,.6,5.3,5.3,0,0,0,4.2-2.5,1,1,0,0,1,.9.4,6.1,6.1,0,0,1-2.4,2.1,5.8,5.8,0,0,1-3,.9,4.8,4.8,0,0,1-2.4-.5,48.7,48.7,0,0,1-4.5,5.6,10.4,10.4,0,0,1-6.9,2.7c-2.4,0-3.6-1.4-3.5-4.3-2.7,2.8-5.2,4.3-7.2,4.3a2.9,2.9,0,0,1-2.3-1,3.7,3.7,0,0,1-1-2.3c0-1.6,1-4.2,3.1-7.8s4-6.8,5.7-9.2l2.4-.4a5.6,5.6,0,0,1,2.8.5,79.2,79.2,0,0,0-5.7,8.9c-2.4,4.1-3.5,6.5-3.5,7.4s.4,1.2,1.1,1.2,3.6-2.2,6.4-6.7c1.2-1.9,3.3-5.6,6.1-10.9l1.9-.3a6.8,6.8,0,0,1,3,.4c-1.4,2.1-4,6.6-7.8,13.7-1.5,2.8-1.4,4.5.1,4.5Zm8.4-14.3a10.5,10.5,0,0,0-.6,4.1c.8-2,1.5-3.4,1.8-4.3a8.4,8.4,0,0,0,.7-2.6A4.9,4.9,0,0,0,144.3,18.6Z" fill="#5d6130"/>
        <path d="M148.3,31.5a11.1,11.1,0,0,1,1.7-4.8c1.7-2.8,4-6.8,7-12l1.9-.3c1.4,0,2.1.3,2.3.8l-8.1,13.9a3.2,3.2,0,0,0-.6,1.8q0,1.5,1.2,1.5a4.9,4.9,0,0,0,3.5-1.3,39.4,39.4,0,0,0,6.3-7.2c.4,0,.7.1.8.3a82.8,82.8,0,0,1-6.1,7.4c-2.3,2.3-4.6,3.4-6.6,3.4a3.2,3.2,0,0,1-2.4-.9A3.4,3.4,0,0,1,148.3,31.5ZM165.1,8.8a3.5,3.5,0,0,1-1.2,2.3,3.5,3.5,0,0,1-2.6,1.2c-1.3,0-2-.7-2-2.2a3.2,3.2,0,0,1,.9-2.1,3.8,3.8,0,0,1,1.9-1.3h.9a2.7,2.7,0,0,1,1.4.5A1.9,1.9,0,0,1,165.1,8.8Z" fill="#5d6130"/>
        <path d="M178,15h1.6c.1.7-.3,1.3-1.2,1.9h-3.7l-4.5,8.1c-1.8,3-2.8,4.9-2.8,5.6s.6,1.8,1.9,1.8,3.2-1.2,5.6-3.5a62.6,62.6,0,0,0,4.7-5.2.9.9,0,0,1,.8.4,41.2,41.2,0,0,1-6.2,6.8c-3,2.6-5.6,3.9-7.9,3.9s-3.5-1.1-3.4-3.4a11,11,0,0,1,1.8-4.8c1.1-2.1,3-5.3,5.5-9.6-2.9,3.3-5,5.8-6.3,7.6h-.4c-.5,0-.7-.1-.4-.4a29.1,29.1,0,0,1,3.3-4l3.4-3.4H167a2.7,2.7,0,0,1,.7-1.8l2-.2a6.9,6.9,0,0,0,2-.2L177,5.7a10.2,10.2,0,0,1,4.4-.2L176,14.9Z" fill="#5d6130"/>
        <path d="M187.8,31.6a9.1,9.1,0,0,1,1.9-4.6l5.4-8.3a2.5,2.5,0,0,0,.4-1.6c0-.5-.4-.7-1.1-.7a7.1,7.1,0,0,0-4.1,1.6,24.9,24.9,0,0,0-4.2,3.8,46.3,46.3,0,0,0-4.2,6.5l-3.7,6.4a29.1,29.1,0,0,1-4.8-.2c3.3-5.9,8.1-14.4,14.5-25.4a32.3,32.3,0,0,1,4.3-5.8q3.5-3.4,6-3.3a2.1,2.1,0,0,1,2.1,2.4c0,4.4-4.2,9.9-12.8,16.4l-.7,1.2c3.6-3.6,6.9-5.5,10.1-5.5a3.2,3.2,0,0,1,2.1.8,2.5,2.5,0,0,1,.9,1.9,10.4,10.4,0,0,1-1.6,3.9l-3.7,6.2c-1.2,2.1-1.8,3.4-1.8,4.1s.4,1.3,1.3,1.3,2.9-1.1,4.9-3.4a51.7,51.7,0,0,0,4.6-5.4,1,1,0,0,1,.9.4,55.7,55.7,0,0,1-6.5,7.3c-2.3,2.3-4.7,3.4-6.9,3.4a3.2,3.2,0,0,1-2.4-.9A3.3,3.3,0,0,1,187.8,31.6ZM198.1,2.5c-1.3.6-4.5,5.3-9.6,14.4a49.2,49.2,0,0,0,6.6-6.3c2.7-3.1,4.1-5.6,4.1-7.5S198.8,2.2,198.1,2.5Z" fill="#5d6130"/>
        <path d="M229,15h1.7a2.4,2.4,0,0,1-1.2,1.9h-3.8l-4.5,8.1c-1.8,3-2.8,4.9-2.8,5.6a1.7,1.7,0,0,0,1.9,1.8c1.3,0,3.2-1.2,5.6-3.5a48.8,48.8,0,0,0,4.7-5.2.8.8,0,0,1,.8.4,40.8,40.8,0,0,1-6.1,6.8c-3,2.6-5.7,3.9-8,3.9s-3.4-1.1-3.4-3.4a11,11,0,0,1,1.8-4.8c1.1-2.1,3-5.3,5.5-9.6a84.4,84.4,0,0,0-6.2,7.6h-.5c-.5,0-.6-.1-.4-.4a29.1,29.1,0,0,1,3.3-4l3.4-3.4h-2.7a3.2,3.2,0,0,1,.6-1.8,7.8,7.8,0,0,1,2.1-.2,6.6,6.6,0,0,0,1.9-.2L228,5.7a10.6,10.6,0,0,1,4.5-.2c-1.7,2.7-3.5,5.9-5.5,9.4Z" fill="#5d6130"/>
        <path d="M238.8,31.6a9.1,9.1,0,0,1,1.9-4.6l5.4-8.3a2,2,0,0,0,.4-1.6c0-.5-.4-.7-1.1-.7a7.4,7.4,0,0,0-4.1,1.6,21,21,0,0,0-4.1,3.8,45.4,45.4,0,0,0-4.3,6.5l-3.7,6.4a29.1,29.1,0,0,1-4.8-.2c3.3-5.9,8.2-14.4,14.5-25.4a28.6,28.6,0,0,1,4.4-5.8c2.2-2.3,4.2-3.4,5.9-3.3a2.1,2.1,0,0,1,2.1,2.4c0,4.4-4.2,9.9-12.8,16.4l-.7,1.2c3.6-3.6,7-5.5,10.1-5.5a3.2,3.2,0,0,1,2.1.8,2.5,2.5,0,0,1,.9,1.9,10.4,10.4,0,0,1-1.6,3.9l-3.7,6.2c-1.2,2.1-1.8,3.4-1.8,4.1s.4,1.3,1.3,1.3,2.9-1.1,5-3.4a68,68,0,0,0,4.6-5.4.9.9,0,0,1,.8.4,63.1,63.1,0,0,1-6.4,7.3c-2.4,2.3-4.7,3.4-7,3.4a3.2,3.2,0,0,1-2.4-.9A3.3,3.3,0,0,1,238.8,31.6ZM249.1,2.5c-1.3.6-4.5,5.3-9.6,14.4a49.2,49.2,0,0,0,6.6-6.3c2.7-3.1,4.1-5.6,4.1-7.5S249.8,2.2,249.1,2.5Z" fill="#5d6130"/>
        <path d="M252.7,30.4a12.4,12.4,0,0,1,1.6-6.1,27.4,27.4,0,0,1,5.6-7,11.4,11.4,0,0,1,7-3.1c2.4-.2,3.7.8,3.7,2.9a10.9,10.9,0,0,1-1.8,4.9c-2.1,3.6-5.8,5.9-11.3,6.8a4.1,4.1,0,0,0-.5,1.8c0,1.6.9,2.4,2.6,2.4s4.5-1.1,7.5-3.2a30.6,30.6,0,0,0,6-5.9,1,1,0,0,1,.9.4,35.9,35.9,0,0,1-6.9,7.1c-3.5,2.6-6.7,3.8-9.9,3.8S252.7,33.6,252.7,30.4ZM268,17.2c0-.5-.2-.8-.6-.8H267c-2.8,1-5.3,3.7-7.7,8a14.7,14.7,0,0,0-1.3,3,10.1,10.1,0,0,0,6.5-3.4,10.6,10.6,0,0,0,3.5-6.2Z" fill="#5d6130"/>
      </g>
      <g>
        <path d="M127.7,297.1c-1.5-1.2-2.2-3-2.2-5.5a6.8,6.8,0,0,1,2-5.3q2-1.8,6-1.8h6.8l.3,3.8h-7.1a4.1,4.1,0,0,0-2.7.8,3.3,3.3,0,0,0-.9,2.5,3.2,3.2,0,0,0,1.2,2.7,7,7,0,0,0,3.7.8,13.5,13.5,0,0,0,4-.5,2,2,0,0,0,1.3-1.8l.5,3.3a6.1,6.1,0,0,1-1.6,1.6,6.7,6.7,0,0,1-2.1.9,10.9,10.9,0,0,1-2.6.3Q129.8,298.9,127.7,297.1Zm12.4-13.6a4.8,4.8,0,0,0-1.3-3.6,4.5,4.5,0,0,0-3.5-1.3,12.6,12.6,0,0,0-2.8.4,7,7,0,0,0-2.4,1.3l-3.4-2.4a9,9,0,0,1,3.5-2.5,13,13,0,0,1,4.9-.9,11.3,11.3,0,0,1,5.1,1,6.9,6.9,0,0,1,3.2,3.1,9.9,9.9,0,0,1,1.1,4.7v15.3h-4.4Z" fill="#b42400"/>
        <path d="M156.3,289.3a5.6,5.6,0,0,0,1.2,3.8,4.9,4.9,0,0,0,3.6,1.4,5.1,5.1,0,0,0,3.6-1.2,4.8,4.8,0,0,0,1.2-3.5l.4,5a6.2,6.2,0,0,1-2.4,2.9,6.9,6.9,0,0,1-4.1,1.2,7.6,7.6,0,0,1-6.1-2.5,10.9,10.9,0,0,1-2.1-7.1V274.8h4.7Zm9.6-14.5h4.7v23.8h-4.7Z" fill="#b42400"/>
        <path d="M180.8,297.9a6.9,6.9,0,0,1-2.8-3.3,12.2,12.2,0,0,1-1-5.3v-5.2a13.5,13.5,0,0,1,.9-5.2,7.1,7.1,0,0,1,2.8-3.3,7.5,7.5,0,0,1,4.3-1.2,7,7,0,0,1,3.8,1.1,9.6,9.6,0,0,1,2.9,3.1l-.5,4.9a5.3,5.3,0,0,0-.6-2.6,3.7,3.7,0,0,0-1.6-1.7,6.2,6.2,0,0,0-2.5-.5,4.9,4.9,0,0,0-3.6,1.4,6.3,6.3,0,0,0-1.2,4.1v5.1a5.8,5.8,0,0,0,1.2,4,4.6,4.6,0,0,0,3.6,1.5,4.9,4.9,0,0,0,2.5-.6,3.7,3.7,0,0,0,1.6-1.7,5.3,5.3,0,0,0,.6-2.6l.3,5a7.1,7.1,0,0,1-2.3,2.9,6.5,6.5,0,0,1-4,1.2A8.7,8.7,0,0,1,180.8,297.9Zm10.4-32.6h4.6v33.3h-4.6Z" fill="#b42400"/>
        <path d="M202.9,265.3h4.7V270h-4.7Zm0,9.5h4.7v23.8h-4.7Z" fill="#b42400"/>
        <path d="M218.5,297.7a8,8,0,0,1-3.3-3.5,12.2,12.2,0,0,1-1.2-5.6v-3.9a11.8,11.8,0,0,1,1.2-5.5,8,8,0,0,1,3.3-3.5,11.2,11.2,0,0,1,5.3-1.2,10.9,10.9,0,0,1,5.3,1.2,8.2,8.2,0,0,1,3.4,3.5,13.1,13.1,0,0,1,1.1,5.5v4a13.1,13.1,0,0,1-1.1,5.5,8.2,8.2,0,0,1-3.4,3.5,10.9,10.9,0,0,1-5.3,1.2A11.2,11.2,0,0,1,218.5,297.7Zm9.1-4.7a6.5,6.5,0,0,0,1.3-4.3v-4a6.5,6.5,0,0,0-1.3-4.3,4.8,4.8,0,0,0-3.8-1.5,4.9,4.9,0,0,0-3.8,1.5,6.5,6.5,0,0,0-1.3,4.3v4A6.5,6.5,0,0,0,220,293a4.9,4.9,0,0,0,3.8,1.5A4.8,4.8,0,0,0,227.6,293Z" fill="#b42400"/>
        <path d="M257.5,292.5a1.8,1.8,0,0,0,.4,1.3,1.3,1.3,0,0,0,1.1.5h2.1v4.4h-2.7a5.1,5.1,0,0,1-4.1-1.6,6.8,6.8,0,0,1-1.5-4.7V265.3h4.7Z" fill="#b42400"/>
        <path d="M266.4,265.3h4.7V270h-4.7Zm0,9.5h4.7v23.8h-4.7Z" fill="#b42400"/>
        <path d="M278.2,265.3h4.6v33.3h-4.6Zm6.8,32.6a6.2,6.2,0,0,1-2.5-3l.3-5a5.3,5.3,0,0,0,.6,2.6,4.4,4.4,0,0,0,1.6,1.7,6.2,6.2,0,0,0,2.5.5,4.4,4.4,0,0,0,3.6-1.4,5.8,5.8,0,0,0,1.3-4v-5.1a6.5,6.5,0,0,0-1.3-4.1,4.7,4.7,0,0,0-3.6-1.4,4.9,4.9,0,0,0-2.5.6,3.5,3.5,0,0,0-1.6,1.6,4.9,4.9,0,0,0-.6,2.5l-.4-4.6a8.7,8.7,0,0,1,2.8-3.2,7,7,0,0,1,3.8-1.1,8.7,8.7,0,0,1,4.4,1.1,7.3,7.3,0,0,1,2.7,3.3,14,14,0,0,1,.9,5.3v5.1a13.1,13.1,0,0,1-.9,5.2,7.1,7.1,0,0,1-2.8,3.3,8.4,8.4,0,0,1-4.5,1.1A6.5,6.5,0,0,1,285,297.9Z" fill="#b42400"/>
        <path d="M303.7,274.8h4.6v23.8h-4.6Zm11.5,4.5a7.2,7.2,0,0,0-2.2-.4,4.2,4.2,0,0,0-3.4,1.3,4.6,4.6,0,0,0-1.3,3.4l-.4-4.6a8.3,8.3,0,0,1,2.8-3.3,6.6,6.6,0,0,1,3.8-1.2,9.4,9.4,0,0,1,3,.5,6.5,6.5,0,0,1,2.3,1.3l-3.1,4.2A4.4,4.4,0,0,0,315.2,279.3Z" fill="#b42400"/>
        <path d="M324.7,297.1a8,8,0,0,1-.2-10.8,9,9,0,0,1,6-1.8h6.8l.3,3.8h-7a4.3,4.3,0,0,0-2.8.8,3.3,3.3,0,0,0-.9,2.5,3.2,3.2,0,0,0,1.2,2.7,7,7,0,0,0,3.7.8,13,13,0,0,0,4-.5,1.9,1.9,0,0,0,1.3-1.8l.5,3.3a4.1,4.1,0,0,1-1.6,1.6,7.2,7.2,0,0,1-2,.9,11.2,11.2,0,0,1-2.7.3C328.3,298.9,326.2,298.3,324.7,297.1Zm12.4-13.6a4.8,4.8,0,0,0-1.3-3.6,4.5,4.5,0,0,0-3.5-1.3,13.5,13.5,0,0,0-2.8.4,7,7,0,0,0-2.4,1.3l-3.4-2.4a8.6,8.6,0,0,1,3.6-2.5,12.6,12.6,0,0,1,4.9-.9,11.2,11.2,0,0,1,5,1,6.9,6.9,0,0,1,3.2,3.1,8.8,8.8,0,0,1,1.1,4.7v15.3h-4.4Z" fill="#b42400"/>
        <path d="M348.6,274.8h4.7v23.8h-4.7Zm11.5,4.5a6.5,6.5,0,0,0-2.1-.4,4.5,4.5,0,0,0-3.5,1.3,4.5,4.5,0,0,0-1.2,3.4l-.5-4.6a8.5,8.5,0,0,1,2.9-3.3,6.4,6.4,0,0,1,3.8-1.2,8.4,8.4,0,0,1,2.9.5,5.8,5.8,0,0,1,2.3,1.3l-3,4.2A4,4,0,0,0,360.1,279.3Z" fill="#b42400"/>
        <path d="M366.1,274.8h4.8l7.3,20.7-2.6,5Zm21,0L377,304.2a6.1,6.1,0,0,1-1.4,2.5,4.6,4.6,0,0,1-2.2,1.4,10,10,0,0,1-3.2.4h-1V304h1a4.3,4.3,0,0,0,2.1-.5,5.2,5.2,0,0,0,1.3-1.8l8.8-26.9Z" fill="#b42400"/>
      </g>
    </g>
  </g>
</svg>
