<svg id="Layer_1" data-name="Layer 1" xmlns="http://www.w3.org/2000/svg" viewBox="0 0 930 990">
  <title>beigelr35alpha-db</title>
  <g>
    <rect x="901" y="1" width="928" height="988" fill="#2f2620"/>
    <rect x="901" y="1" width="928" height="988" fill="none" stroke="#2f2620" stroke-miterlimit="10" stroke-width="2"/>
  </g>
  <g>
    <rect x="1" y="1" width="928" height="988" fill="#2f2620"/>
    <rect x="1" y="1" width="928" height="988" fill="none" stroke="#2f2620" stroke-miterlimit="10" stroke-width="2"/>
  </g>
  <rect x="870" y="218" width="30" height="30" fill="#668d82"/>
  <rect x="840" y="218" width="30" height="30" fill="#668d82"/>
  <rect x="810" y="218" width="30" height="30" fill="#668d82"/>
  <rect x="780" y="218" width="30" height="30" fill="#668d82"/>
  <rect x="750" y="218" width="30" height="30" fill="#668d82"/>
  <rect x="870" y="188" width="30" height="30" fill="#668d82"/>
  <rect x="840" y="188" width="30" height="30" fill="#668d82"/>
  <rect x="810" y="188" width="30" height="30" fill="#668d82"/>
  <rect x="780" y="188" width="30" height="30" fill="#668d82"/>
  <rect x="750" y="188" width="30" height="30" fill="#668d82"/>
  <rect x="870" y="158" width="30" height="30" fill="#668d82"/>
  <rect x="840" y="158" width="30" height="30" fill="#668d82"/>
  <rect x="810" y="158" width="30" height="30" fill="#668d82"/>
  <rect x="780" y="158" width="30" height="30" fill="#668d82"/>
  <rect x="750" y="158" width="30" height="30" fill="#668d82"/>
  <rect x="870" y="128" width="30" height="30" fill="#668d82"/>
  <rect x="840" y="128" width="30" height="30" fill="#668d82"/>
  <rect x="810" y="128" width="30" height="30" fill="#668d82"/>
  <rect x="780" y="128" width="30" height="30" fill="#668d82"/>
  <rect x="750" y="128" width="30" height="30" fill="#668d82"/>
  <rect x="870" y="98" width="30" height="30" fill="#668d82"/>
  <rect x="840" y="98" width="30" height="30" fill="#668d82"/>
  <rect x="810" y="98" width="30" height="30" fill="#668d82"/>
  <rect x="780" y="98" width="30" height="30" fill="#668d82"/>
  <rect x="750" y="98" width="30" height="30" fill="#668d82"/>
  <rect x="870" y="68" width="30" height="30" fill="#668d82"/>
  <rect x="840" y="68" width="30" height="30" fill="#668d82"/>
  <rect x="810" y="68" width="30" height="30" fill="#668d82"/>
  <rect x="780" y="68" width="30" height="30" fill="#668d82"/>
  <rect x="750" y="68" width="30" height="30" fill="#668d82"/>
  <rect x="870" y="38" width="30" height="30" fill="#668d82"/>
  <rect x="840" y="38" width="30" height="30" fill="#668d82"/>
  <rect x="810" y="38" width="30" height="30" fill="#668d82"/>
  <rect x="780" y="38" width="30" height="30" fill="#668d82"/>
  <rect x="750" y="38" width="30" height="30" fill="#668d82"/>
  <rect x="690" y="218" width="30" height="30" fill="#bf4d2a"/>
  <rect x="660" y="218" width="30" height="30" fill="#bf4d2a"/>
  <rect x="630" y="218" width="30" height="30" fill="#bf4d2a"/>
  <rect x="600" y="218" width="30" height="30" fill="#bf4d2a"/>
  <rect x="570" y="218" width="30" height="30" fill="#bf4d2a"/>
  <rect x="690" y="188" width="30" height="30" fill="#bf4d2a"/>
  <rect x="660" y="188" width="30" height="30" fill="#bf4d2a"/>
  <rect x="630" y="188" width="30" height="30" fill="#bf4d2a"/>
  <rect x="600" y="188" width="30" height="30" fill="#bf4d2a"/>
  <rect x="570" y="188" width="30" height="30" fill="#bf4d2a"/>
  <rect x="690" y="158" width="30" height="30" fill="#bf4d2a"/>
  <rect x="660" y="158" width="30" height="30" fill="#bf4d2a"/>
  <rect x="630" y="158" width="30" height="30" fill="#bf4d2a"/>
  <rect x="600" y="158" width="30" height="30" fill="#bf4d2a"/>
  <rect x="570" y="158" width="30" height="30" fill="#bf4d2a"/>
  <rect x="690" y="128" width="30" height="30" fill="#bf4d2a"/>
  <rect x="660" y="128" width="30" height="30" fill="#bf4d2a"/>
  <rect x="630" y="128" width="30" height="30" fill="#bf4d2a"/>
  <rect x="600" y="128" width="30" height="30" fill="#bf4d2a"/>
  <rect x="570" y="128" width="30" height="30" fill="#bf4d2a"/>
  <rect x="690" y="98" width="30" height="30" fill="#bf4d2a"/>
  <rect x="660" y="98" width="30" height="30" fill="#bf4d2a"/>
  <rect x="630" y="98" width="30" height="30" fill="#bf4d2a"/>
  <rect x="600" y="98" width="30" height="30" fill="#bf4d2a"/>
  <rect x="570" y="98" width="30" height="30" fill="#bf4d2a"/>
  <rect x="690" y="68" width="30" height="30" fill="#bf4d2a"/>
  <rect x="660" y="68" width="30" height="30" fill="#bf4d2a"/>
  <rect x="630" y="68" width="30" height="30" fill="#bf4d2a"/>
  <rect x="600" y="68" width="30" height="30" fill="#bf4d2a"/>
  <rect x="570" y="68" width="30" height="30" fill="#bf4d2a"/>
  <rect x="690" y="38" width="30" height="30" fill="#bf4d2a"/>
  <rect x="660" y="38" width="30" height="30" fill="#bf4d2a"/>
  <rect x="630" y="38" width="30" height="30" fill="#bf4d2a"/>
  <rect x="600" y="38" width="30" height="30" fill="#bf4d2a"/>
  <rect x="570" y="38" width="30" height="30" fill="#bf4d2a"/>
  <rect x="510" y="218" width="30" height="30" fill="#bf4d2a"/>
  <rect x="480" y="218" width="30" height="30" fill="#bf4d2a"/>
  <rect x="450" y="218" width="30" height="30" fill="#bf4d2a"/>
  <rect x="420" y="218" width="30" height="30" fill="#bf4d2a"/>
  <rect x="390" y="218" width="30" height="30" fill="#bf4d2a"/>
  <rect x="510" y="188" width="30" height="30" fill="#bf4d2a"/>
  <rect x="480" y="188" width="30" height="30" fill="#bf4d2a"/>
  <rect x="450" y="188" width="30" height="30" fill="#bf4d2a"/>
  <rect x="420" y="188" width="30" height="30" fill="#bf4d2a"/>
  <rect x="390" y="188" width="30" height="30" fill="#bf4d2a"/>
  <rect x="510" y="158" width="30" height="30" fill="#bf4d2a"/>
  <rect x="480" y="158" width="30" height="30" fill="#bf4d2a"/>
  <rect x="450" y="158" width="30" height="30" fill="#bf4d2a"/>
  <rect x="420" y="158" width="30" height="30" fill="#bf4d2a"/>
  <rect x="390" y="158" width="30" height="30" fill="#bf4d2a"/>
  <rect x="510" y="128" width="30" height="30" fill="#bf4d2a"/>
  <rect x="480" y="128" width="30" height="30" fill="#bf4d2a"/>
  <rect x="450" y="128" width="30" height="30" fill="#bf4d2a"/>
  <rect x="420" y="128" width="30" height="30" fill="#bf4d2a"/>
  <rect x="390" y="128" width="30" height="30" fill="#bf4d2a"/>
  <rect x="510" y="98" width="30" height="30" fill="#bf4d2a"/>
  <rect x="480" y="98" width="30" height="30" fill="#bf4d2a"/>
  <rect x="450" y="98" width="30" height="30" fill="#bf4d2a"/>
  <rect x="420" y="98" width="30" height="30" fill="#bf4d2a"/>
  <rect x="390" y="98" width="30" height="30" fill="#bf4d2a"/>
  <rect x="510" y="68" width="30" height="30" fill="#bf4d2a"/>
  <rect x="480" y="68" width="30" height="30" fill="#bf4d2a"/>
  <rect x="450" y="68" width="30" height="30" fill="#bf4d2a"/>
  <rect x="420" y="68" width="30" height="30" fill="#bf4d2a"/>
  <rect x="390" y="68" width="30" height="30" fill="#bf4d2a"/>
  <rect x="510" y="38" width="30" height="30" fill="#bf4d2a"/>
  <rect x="480" y="38" width="30" height="30" fill="#bf4d2a"/>
  <rect x="450" y="38" width="30" height="30" fill="#bf4d2a"/>
  <rect x="420" y="38" width="30" height="30" fill="#bf4d2a"/>
  <rect x="390" y="38" width="30" height="30" fill="#bf4d2a"/>
  <rect x="330" y="218" width="30" height="30" fill="#bf4d2a"/>
  <rect x="300" y="218" width="30" height="30" fill="#bf4d2a"/>
  <rect x="270" y="218" width="30" height="30" fill="#bf4d2a"/>
  <rect x="240" y="218" width="30" height="30" fill="#bf4d2a"/>
  <rect x="210" y="218" width="30" height="30" fill="#bf4d2a"/>
  <rect x="330" y="188" width="30" height="30" fill="#bf4d2a"/>
  <rect x="300" y="188" width="30" height="30" fill="#bf4d2a"/>
  <rect x="270" y="188" width="30" height="30" fill="#bf4d2a"/>
  <rect x="240" y="188" width="30" height="30" fill="#bf4d2a"/>
  <rect x="210" y="188" width="30" height="30" fill="#bf4d2a"/>
  <rect x="330" y="158" width="30" height="30" fill="#bf4d2a"/>
  <rect x="300" y="158" width="30" height="30" fill="#bf4d2a"/>
  <rect x="270" y="158" width="30" height="30" fill="#bf4d2a"/>
  <rect x="240" y="158" width="30" height="30" fill="#bf4d2a"/>
  <rect x="210" y="158" width="30" height="30" fill="#bf4d2a"/>
  <rect x="330" y="128" width="30" height="30" fill="#bf4d2a"/>
  <rect x="300" y="128" width="30" height="30" fill="#bf4d2a"/>
  <rect x="270" y="128" width="30" height="30" fill="#bf4d2a"/>
  <rect x="240" y="128" width="30" height="30" fill="#bf4d2a"/>
  <rect x="210" y="128" width="30" height="30" fill="#bf4d2a"/>
  <rect x="330" y="98" width="30" height="30" fill="#bf4d2a"/>
  <rect x="300" y="98" width="30" height="30" fill="#bf4d2a"/>
  <rect x="270" y="98" width="30" height="30" fill="#bf4d2a"/>
  <rect x="240" y="98" width="30" height="30" fill="#bf4d2a"/>
  <rect x="210" y="98" width="30" height="30" fill="#bf4d2a"/>
  <rect x="330" y="68" width="30" height="30" fill="#bf4d2a"/>
  <rect x="300" y="68" width="30" height="30" fill="#bf4d2a"/>
  <rect x="270" y="68" width="30" height="30" fill="#bf4d2a"/>
  <rect x="240" y="68" width="30" height="30" fill="#bf4d2a"/>
  <rect x="210" y="68" width="30" height="30" fill="#bf4d2a"/>
  <rect x="330" y="38" width="30" height="30" fill="#bf4d2a"/>
  <rect x="300" y="38" width="30" height="30" fill="#bf4d2a"/>
  <rect x="270" y="38" width="30" height="30" fill="#bf4d2a"/>
  <rect x="240" y="38" width="30" height="30" fill="#bf4d2a"/>
  <rect x="210" y="38" width="30" height="30" fill="#bf4d2a"/>
  <rect x="150" y="218" width="30" height="30" fill="#bf4d2a"/>
  <rect x="120" y="218" width="30" height="30" fill="#bf4d2a"/>
  <rect x="90" y="218" width="30" height="30" fill="#bf4d2a"/>
  <rect x="60" y="218" width="30" height="30" fill="#bf4d2a"/>
  <rect x="30" y="218" width="30" height="30" fill="#bf4d2a"/>
  <rect x="150" y="188" width="30" height="30" fill="#bf4d2a"/>
  <rect x="120" y="188" width="30" height="30" fill="#bf4d2a"/>
  <rect x="90" y="188" width="30" height="30" fill="#bf4d2a"/>
  <rect x="60" y="188" width="30" height="30" fill="#bf4d2a"/>
  <rect x="30" y="188" width="30" height="30" fill="#bf4d2a"/>
  <rect x="150" y="158" width="30" height="30" fill="#bf4d2a"/>
  <rect x="120" y="158" width="30" height="30" fill="#bf4d2a"/>
  <rect x="90" y="158" width="30" height="30" fill="#bf4d2a"/>
  <rect x="60" y="158" width="30" height="30" fill="#bf4d2a"/>
  <rect x="30" y="158" width="30" height="30" fill="#bf4d2a"/>
  <rect x="150" y="128" width="30" height="30" fill="#bf4d2a"/>
  <rect x="120" y="128" width="30" height="30" fill="#bf4d2a"/>
  <rect x="90" y="128" width="30" height="30" fill="#bf4d2a"/>
  <rect x="60" y="128" width="30" height="30" fill="#bf4d2a"/>
  <rect x="30" y="128" width="30" height="30" fill="#bf4d2a"/>
  <rect x="150" y="98" width="30" height="30" fill="#bf4d2a"/>
  <rect x="120" y="98" width="30" height="30" fill="#bf4d2a"/>
  <rect x="90" y="98" width="30" height="30" fill="#bf4d2a"/>
  <rect x="60" y="98" width="30" height="30" fill="#bf4d2a"/>
  <rect x="30" y="98" width="30" height="30" fill="#bf4d2a"/>
  <rect x="150" y="68" width="30" height="30" fill="#bf4d2a"/>
  <rect x="120" y="68" width="30" height="30" fill="#bf4d2a"/>
  <rect x="90" y="68" width="30" height="30" fill="#bf4d2a"/>
  <rect x="60" y="68" width="30" height="30" fill="#bf4d2a"/>
  <rect x="30" y="68" width="30" height="30" fill="#bf4d2a"/>
  <rect x="150" y="38" width="30" height="30" fill="#bf4d2a"/>
  <rect x="120" y="38" width="30" height="30" fill="#bf4d2a"/>
  <rect x="90" y="38" width="30" height="30" fill="#bf4d2a"/>
  <rect x="60" y="38" width="30" height="30" fill="#bf4d2a"/>
  <rect x="30" y="38" width="30" height="30" fill="#bf4d2a"/>
  <rect x="330" y="938" width="30" height="30" fill="#c0c0ad"/>
  <rect x="300" y="938" width="30" height="30" fill="#c0c0ad"/>
  <rect x="270" y="938" width="30" height="30" fill="#c0c0ad"/>
  <rect x="240" y="938" width="30" height="30" fill="#c0c0ad"/>
  <rect x="330" y="908" width="30" height="30" fill="#c0c0ad"/>
  <rect x="300" y="908" width="30" height="30" fill="#c0c0ad"/>
  <rect x="270" y="908" width="30" height="30" fill="#c0c0ad"/>
  <rect x="240" y="908" width="30" height="30" fill="#c0c0ad"/>
  <rect x="330" y="878" width="30" height="30" fill="#c0c0ad"/>
  <rect x="270" y="878" width="30" height="30" fill="#c0c0ad"/>
  <rect x="240" y="878" width="30" height="30" fill="#c0c0ad"/>
  <rect x="330" y="848" width="30" height="30" fill="#c0c0ad"/>
  <rect x="270" y="848" width="30" height="30" fill="#c0c0ad"/>
  <rect x="240" y="848" width="30" height="30" fill="#c0c0ad"/>
  <rect x="330" y="818" width="30" height="30" fill="#c0c0ad"/>
  <rect x="270" y="818" width="30" height="30" fill="#c0c0ad"/>
  <rect x="240" y="818" width="30" height="30" fill="#c0c0ad"/>
  <rect x="210" y="818" width="30" height="30" fill="#c0c0ad"/>
  <rect x="330" y="788" width="30" height="30" fill="#c0c0ad"/>
  <rect x="270" y="788" width="30" height="30" fill="#c0c0ad"/>
  <rect x="240" y="788" width="30" height="30" fill="#c0c0ad"/>
  <rect x="210" y="788" width="30" height="30" fill="#c0c0ad"/>
  <rect x="330" y="758" width="30" height="30" fill="#c0c0ad"/>
  <rect x="270" y="758" width="30" height="30" fill="#c0c0ad"/>
  <rect x="240" y="758" width="30" height="30" fill="#c0c0ad"/>
  <rect x="210" y="758" width="30" height="30" fill="#c0c0ad"/>
  <rect x="150" y="938" width="30" height="30" fill="#668d82"/>
  <rect x="120" y="938" width="30" height="30" fill="#668d82"/>
  <rect x="90" y="938" width="30" height="30" fill="#668d82"/>
  <rect x="60" y="938" width="30" height="30" fill="#668d82"/>
  <rect x="30" y="938" width="30" height="30" fill="#668d82"/>
  <rect x="150" y="908" width="30" height="30" fill="#668d82"/>
  <rect x="120" y="908" width="30" height="30" fill="#668d82"/>
  <rect x="90" y="908" width="30" height="30" fill="#668d82"/>
  <rect x="60" y="908" width="30" height="30" fill="#668d82"/>
  <rect x="30" y="908" width="30" height="30" fill="#668d82"/>
  <rect x="150" y="878" width="30" height="30" fill="#668d82"/>
  <rect x="90" y="878" width="30" height="30" fill="#668d82"/>
  <rect x="60" y="878" width="30" height="30" fill="#668d82"/>
  <rect x="30" y="878" width="30" height="30" fill="#668d82"/>
  <rect x="150" y="848" width="30" height="30" fill="#668d82"/>
  <rect x="90" y="848" width="30" height="30" fill="#668d82"/>
  <rect x="60" y="848" width="30" height="30" fill="#668d82"/>
  <rect x="30" y="848" width="30" height="30" fill="#668d82"/>
  <rect x="150" y="818" width="30" height="30" fill="#668d82"/>
  <rect x="90" y="818" width="30" height="30" fill="#668d82"/>
  <rect x="60" y="818" width="30" height="30" fill="#668d82"/>
  <rect x="30" y="818" width="30" height="30" fill="#668d82"/>
  <rect x="150" y="788" width="30" height="30" fill="#668d82"/>
  <rect x="90" y="788" width="30" height="30" fill="#668d82"/>
  <rect x="60" y="788" width="30" height="30" fill="#668d82"/>
  <rect x="30" y="788" width="30" height="30" fill="#668d82"/>
  <rect x="150" y="758" width="30" height="30" fill="#668d82"/>
  <rect x="90" y="758" width="30" height="30" fill="#668d82"/>
  <rect x="60" y="758" width="30" height="30" fill="#668d82"/>
  <rect x="30" y="758" width="30" height="30" fill="#668d82"/>
  <rect x="870" y="938" width="30" height="30" fill="#bf4d2a"/>
  <rect x="840" y="938" width="30" height="30" fill="#bf4d2a"/>
  <rect x="810" y="938" width="30" height="30" fill="#bf4d2a"/>
  <rect x="870" y="908" width="30" height="30" fill="#bf4d2a"/>
  <rect x="870" y="878" width="30" height="30" fill="#bf4d2a"/>
  <rect x="840" y="878" width="30" height="30" fill="#bf4d2a"/>
  <rect x="810" y="878" width="30" height="30" fill="#bf4d2a"/>
  <rect x="780" y="878" width="30" height="30" fill="#bf4d2a"/>
  <rect x="750" y="878" width="30" height="30" fill="#bf4d2a"/>
  <rect x="870" y="848" width="30" height="30" fill="#bf4d2a"/>
  <rect x="810" y="848" width="30" height="30" fill="#bf4d2a"/>
  <rect x="780" y="848" width="30" height="30" fill="#bf4d2a"/>
  <rect x="750" y="848" width="30" height="30" fill="#bf4d2a"/>
  <rect x="870" y="818" width="30" height="30" fill="#bf4d2a"/>
  <rect x="810" y="818" width="30" height="30" fill="#bf4d2a"/>
  <rect x="780" y="818" width="30" height="30" fill="#bf4d2a"/>
  <rect x="750" y="818" width="30" height="30" fill="#bf4d2a"/>
  <rect x="870" y="788" width="30" height="30" fill="#bf4d2a"/>
  <rect x="810" y="788" width="30" height="30" fill="#bf4d2a"/>
  <rect x="780" y="788" width="30" height="30" fill="#bf4d2a"/>
  <rect x="750" y="788" width="30" height="30" fill="#bf4d2a"/>
  <rect x="870" y="758" width="30" height="30" fill="#bf4d2a"/>
  <rect x="810" y="758" width="30" height="30" fill="#bf4d2a"/>
  <rect x="780" y="758" width="30" height="30" fill="#bf4d2a"/>
  <rect x="750" y="758" width="30" height="30" fill="#bf4d2a"/>
  <rect x="660" y="938" width="30" height="30" fill="#bf4d2a"/>
  <rect x="660" y="908" width="30" height="30" fill="#bf4d2a"/>
  <rect x="690" y="878" width="30" height="30" fill="#bf4d2a"/>
  <rect x="660" y="878" width="30" height="30" fill="#bf4d2a"/>
  <rect x="660" y="848" width="30" height="30" fill="#bf4d2a"/>
  <rect x="630" y="878" width="30" height="30" fill="#bf4d2a"/>
  <rect x="630" y="908" width="30" height="30" fill="#bf4d2a"/>
  <rect x="660" y="818" width="30" height="30" fill="#bf4d2a"/>
  <rect x="660" y="788" width="30" height="30" fill="#bf4d2a"/>
  <rect x="660" y="758" width="30" height="30" fill="#bf4d2a"/>
  <rect x="690" y="938" width="30" height="30" fill="#bf4d2a"/>
  <rect x="600" y="938" width="30" height="30" fill="#bf4d2a"/>
  <rect x="570" y="938" width="30" height="30" fill="#bf4d2a"/>
  <rect x="600" y="908" width="30" height="30" fill="#bf4d2a"/>
  <rect x="690" y="848" width="30" height="30" fill="#bf4d2a"/>
  <rect x="570" y="878" width="30" height="30" fill="#bf4d2a"/>
  <rect x="600" y="878" width="30" height="30" fill="#bf4d2a"/>
  <rect x="570" y="848" width="30" height="30" fill="#bf4d2a"/>
  <rect x="660" y="848" width="30" height="30" fill="#bf4d2a"/>
  <rect x="600" y="848" width="30" height="30" fill="#bf4d2a"/>
  <rect x="690" y="818" width="30" height="30" fill="#bf4d2a"/>
  <rect x="600" y="818" width="30" height="30" fill="#bf4d2a"/>
  <rect x="570" y="818" width="30" height="30" fill="#bf4d2a"/>
  <rect x="690" y="788" width="30" height="30" fill="#bf4d2a"/>
  <rect x="600" y="788" width="30" height="30" fill="#bf4d2a"/>
  <rect x="570" y="788" width="30" height="30" fill="#bf4d2a"/>
  <rect x="690" y="758" width="30" height="30" fill="#bf4d2a"/>
  <rect x="600" y="758" width="30" height="30" fill="#bf4d2a"/>
  <rect x="570" y="758" width="30" height="30" fill="#bf4d2a"/>
  <rect x="510" y="938" width="30" height="30" fill="#c0c0ad"/>
  <rect x="480" y="938" width="30" height="30" fill="#c0c0ad"/>
  <rect x="420" y="938" width="30" height="30" fill="#c0c0ad"/>
  <rect x="390" y="938" width="30" height="30" fill="#c0c0ad"/>
  <rect x="510" y="908" width="30" height="30" fill="#c0c0ad"/>
  <rect x="480" y="908" width="30" height="30" fill="#c0c0ad"/>
  <rect x="450" y="908" width="30" height="30" fill="#c0c0ad"/>
  <rect x="420" y="908" width="30" height="30" fill="#c0c0ad"/>
  <rect x="390" y="908" width="30" height="30" fill="#c0c0ad"/>
  <rect x="510" y="878" width="30" height="30" fill="#c0c0ad"/>
  <rect x="450" y="878" width="30" height="30" fill="#c0c0ad"/>
  <rect x="390" y="878" width="30" height="30" fill="#c0c0ad"/>
  <rect x="510" y="848" width="30" height="30" fill="#c0c0ad"/>
  <rect x="450" y="848" width="30" height="30" fill="#c0c0ad"/>
  <rect x="390" y="848" width="30" height="30" fill="#c0c0ad"/>
  <rect x="510" y="818" width="30" height="30" fill="#c0c0ad"/>
  <rect x="450" y="818" width="30" height="30" fill="#c0c0ad"/>
  <rect x="390" y="818" width="30" height="30" fill="#c0c0ad"/>
  <rect x="510" y="788" width="30" height="30" fill="#c0c0ad"/>
  <rect x="450" y="788" width="30" height="30" fill="#c0c0ad"/>
  <rect x="390" y="788" width="30" height="30" fill="#c0c0ad"/>
  <rect x="510" y="758" width="30" height="30" fill="#c0c0ad"/>
  <rect x="450" y="758" width="30" height="30" fill="#c0c0ad"/>
  <rect x="390" y="758" width="30" height="30" fill="#c0c0ad"/>
  <rect x="330" y="698" width="30" height="30" fill="#c0c0ad"/>
  <rect x="300" y="698" width="30" height="30" fill="#c0c0ad"/>
  <rect x="270" y="698" width="30" height="30" fill="#c0c0ad"/>
  <rect x="240" y="698" width="30" height="30" fill="#c0c0ad"/>
  <rect x="210" y="698" width="30" height="30" fill="#c0c0ad"/>
  <rect x="330" y="668" width="30" height="30" fill="#c0c0ad"/>
  <rect x="270" y="668" width="30" height="30" fill="#c0c0ad"/>
  <rect x="240" y="668" width="30" height="30" fill="#c0c0ad"/>
  <rect x="210" y="668" width="30" height="30" fill="#c0c0ad"/>
  <rect x="270" y="638" width="30" height="30" fill="#c0c0ad"/>
  <rect x="240" y="638" width="30" height="30" fill="#c0c0ad"/>
  <rect x="210" y="638" width="30" height="30" fill="#c0c0ad"/>
  <rect x="270" y="608" width="30" height="30" fill="#c0c0ad"/>
  <rect x="240" y="608" width="30" height="30" fill="#c0c0ad"/>
  <rect x="210" y="608" width="30" height="30" fill="#c0c0ad"/>
  <rect x="270" y="578" width="30" height="30" fill="#c0c0ad"/>
  <rect x="240" y="578" width="30" height="30" fill="#c0c0ad"/>
  <rect x="210" y="578" width="30" height="30" fill="#c0c0ad"/>
  <rect x="270" y="548" width="30" height="30" fill="#c0c0ad"/>
  <rect x="240" y="548" width="30" height="30" fill="#c0c0ad"/>
  <rect x="210" y="548" width="30" height="30" fill="#c0c0ad"/>
  <rect x="270" y="518" width="30" height="30" fill="#c0c0ad"/>
  <rect x="240" y="518" width="30" height="30" fill="#c0c0ad"/>
  <rect x="210" y="518" width="30" height="30" fill="#c0c0ad"/>
  <rect x="90" y="698" width="30" height="30" fill="#c0c0ad"/>
  <rect x="120" y="668" width="30" height="30" fill="#c0c0ad"/>
  <rect x="150" y="698" width="30" height="30" fill="#c0c0ad"/>
  <rect x="60" y="698" width="30" height="30" fill="#c0c0ad"/>
  <rect x="30" y="698" width="30" height="30" fill="#c0c0ad"/>
  <rect x="150" y="668" width="30" height="30" fill="#c0c0ad"/>
  <rect x="60" y="668" width="30" height="30" fill="#c0c0ad"/>
  <rect x="30" y="668" width="30" height="30" fill="#c0c0ad"/>
  <rect x="90" y="668" width="30" height="30" fill="#c0c0ad"/>
  <rect x="90" y="638" width="30" height="30" fill="#c0c0ad"/>
  <rect x="60" y="638" width="30" height="30" fill="#c0c0ad"/>
  <rect x="30" y="638" width="30" height="30" fill="#c0c0ad"/>
  <rect x="90" y="608" width="30" height="30" fill="#c0c0ad"/>
  <rect x="120" y="608" width="30" height="30" fill="#c0c0ad"/>
  <rect x="120" y="638" width="30" height="30" fill="#c0c0ad"/>
  <rect x="60" y="608" width="30" height="30" fill="#c0c0ad"/>
  <rect x="30" y="608" width="30" height="30" fill="#c0c0ad"/>
  <rect x="150" y="608" width="30" height="30" fill="#c0c0ad"/>
  <rect x="150" y="578" width="30" height="30" fill="#c0c0ad"/>
  <rect x="90" y="578" width="30" height="30" fill="#c0c0ad"/>
  <rect x="60" y="578" width="30" height="30" fill="#c0c0ad"/>
  <rect x="30" y="578" width="30" height="30" fill="#c0c0ad"/>
  <rect x="90" y="548" width="30" height="30" fill="#c0c0ad"/>
  <rect x="90" y="518" width="30" height="30" fill="#c0c0ad"/>
  <rect x="150" y="548" width="30" height="30" fill="#c0c0ad"/>
  <rect x="60" y="548" width="30" height="30" fill="#c0c0ad"/>
  <rect x="30" y="548" width="30" height="30" fill="#c0c0ad"/>
  <rect x="150" y="518" width="30" height="30" fill="#c0c0ad"/>
  <rect x="60" y="518" width="30" height="30" fill="#c0c0ad"/>
  <rect x="30" y="518" width="30" height="30" fill="#c0c0ad"/>
  <rect x="870" y="698" width="30" height="30" fill="#668d82"/>
  <rect x="840" y="698" width="30" height="30" fill="#668d82"/>
  <rect x="810" y="698" width="30" height="30" fill="#668d82"/>
  <rect x="780" y="698" width="30" height="30" fill="#668d82"/>
  <rect x="750" y="698" width="30" height="30" fill="#668d82"/>
  <rect x="870" y="668" width="30" height="30" fill="#668d82"/>
  <rect x="810" y="668" width="30" height="30" fill="#668d82"/>
  <rect x="780" y="668" width="30" height="30" fill="#668d82"/>
  <rect x="750" y="668" width="30" height="30" fill="#668d82"/>
  <rect x="870" y="638" width="30" height="30" fill="#668d82"/>
  <rect x="810" y="638" width="30" height="30" fill="#668d82"/>
  <rect x="780" y="638" width="30" height="30" fill="#668d82"/>
  <rect x="750" y="638" width="30" height="30" fill="#668d82"/>
  <rect x="870" y="608" width="30" height="30" fill="#668d82"/>
  <rect x="810" y="608" width="30" height="30" fill="#668d82"/>
  <rect x="780" y="608" width="30" height="30" fill="#668d82"/>
  <rect x="750" y="608" width="30" height="30" fill="#668d82"/>
  <rect x="870" y="578" width="30" height="30" fill="#668d82"/>
  <rect x="810" y="578" width="30" height="30" fill="#668d82"/>
  <rect x="780" y="578" width="30" height="30" fill="#668d82"/>
  <rect x="750" y="578" width="30" height="30" fill="#668d82"/>
  <rect x="870" y="548" width="30" height="30" fill="#668d82"/>
  <rect x="840" y="548" width="30" height="30" fill="#668d82"/>
  <rect x="810" y="548" width="30" height="30" fill="#668d82"/>
  <rect x="780" y="548" width="30" height="30" fill="#668d82"/>
  <rect x="750" y="548" width="30" height="30" fill="#668d82"/>
  <rect x="870" y="518" width="30" height="30" fill="#668d82"/>
  <rect x="840" y="518" width="30" height="30" fill="#668d82"/>
  <rect x="810" y="518" width="30" height="30" fill="#668d82"/>
  <rect x="780" y="518" width="30" height="30" fill="#668d82"/>
  <rect x="750" y="518" width="30" height="30" fill="#668d82"/>
  <rect x="690" y="698" width="30" height="30" fill="#bf4d2a"/>
  <rect x="600" y="698" width="30" height="30" fill="#bf4d2a"/>
  <rect x="570" y="698" width="30" height="30" fill="#bf4d2a"/>
  <rect x="690" y="668" width="30" height="30" fill="#bf4d2a"/>
  <rect x="630" y="668" width="30" height="30" fill="#bf4d2a"/>
  <rect x="630" y="698" width="30" height="30" fill="#bf4d2a"/>
  <rect x="600" y="668" width="30" height="30" fill="#bf4d2a"/>
  <rect x="570" y="668" width="30" height="30" fill="#bf4d2a"/>
  <rect x="690" y="638" width="30" height="30" fill="#bf4d2a"/>
  <rect x="660" y="668" width="30" height="30" fill="#bf4d2a"/>
  <rect x="660" y="638" width="30" height="30" fill="#bf4d2a"/>
  <rect x="630" y="638" width="30" height="30" fill="#bf4d2a"/>
  <rect x="600" y="638" width="30" height="30" fill="#bf4d2a"/>
  <rect x="570" y="638" width="30" height="30" fill="#bf4d2a"/>
  <rect x="690" y="608" width="30" height="30" fill="#bf4d2a"/>
  <rect x="660" y="608" width="30" height="30" fill="#bf4d2a"/>
  <rect x="600" y="608" width="30" height="30" fill="#bf4d2a"/>
  <rect x="570" y="608" width="30" height="30" fill="#bf4d2a"/>
  <rect x="660" y="578" width="30" height="30" fill="#bf4d2a"/>
  <rect x="660" y="548" width="30" height="30" fill="#bf4d2a"/>
  <rect x="660" y="518" width="30" height="30" fill="#bf4d2a"/>
  <rect x="690" y="578" width="30" height="30" fill="#bf4d2a"/>
  <rect x="600" y="578" width="30" height="30" fill="#bf4d2a"/>
  <rect x="570" y="578" width="30" height="30" fill="#bf4d2a"/>
  <rect x="690" y="548" width="30" height="30" fill="#bf4d2a"/>
  <rect x="600" y="548" width="30" height="30" fill="#bf4d2a"/>
  <rect x="570" y="548" width="30" height="30" fill="#bf4d2a"/>
  <rect x="690" y="518" width="30" height="30" fill="#bf4d2a"/>
  <rect x="600" y="518" width="30" height="30" fill="#bf4d2a"/>
  <rect x="570" y="518" width="30" height="30" fill="#bf4d2a"/>
  <rect x="510" y="698" width="30" height="30" fill="#c0c0ad"/>
  <rect x="450" y="698" width="30" height="30" fill="#c0c0ad"/>
  <rect x="390" y="698" width="30" height="30" fill="#c0c0ad"/>
  <rect x="510" y="668" width="30" height="30" fill="#c0c0ad"/>
  <rect x="450" y="668" width="30" height="30" fill="#c0c0ad"/>
  <rect x="390" y="668" width="30" height="30" fill="#c0c0ad"/>
  <rect x="510" y="638" width="30" height="30" fill="#c0c0ad"/>
  <rect x="450" y="638" width="30" height="30" fill="#c0c0ad"/>
  <rect x="390" y="638" width="30" height="30" fill="#c0c0ad"/>
  <rect x="510" y="608" width="30" height="30" fill="#c0c0ad"/>
  <rect x="480" y="668" width="30" height="30" fill="#c0c0ad"/>
  <rect x="420" y="668" width="30" height="30" fill="#c0c0ad"/>
  <rect x="480" y="638" width="30" height="30" fill="#c0c0ad"/>
  <rect x="420" y="638" width="30" height="30" fill="#c0c0ad"/>
  <rect x="480" y="608" width="30" height="30" fill="#c0c0ad"/>
  <rect x="420" y="608" width="30" height="30" fill="#c0c0ad"/>
  <rect x="390" y="608" width="30" height="30" fill="#c0c0ad"/>
  <rect x="510" y="578" width="30" height="30" fill="#c0c0ad"/>
  <rect x="480" y="578" width="30" height="30" fill="#c0c0ad"/>
  <rect x="420" y="578" width="30" height="30" fill="#c0c0ad"/>
  <rect x="390" y="578" width="30" height="30" fill="#c0c0ad"/>
  <rect x="510" y="548" width="30" height="30" fill="#c0c0ad"/>
  <rect x="480" y="548" width="30" height="30" fill="#c0c0ad"/>
  <rect x="420" y="548" width="30" height="30" fill="#c0c0ad"/>
  <rect x="390" y="548" width="30" height="30" fill="#c0c0ad"/>
  <rect x="510" y="518" width="30" height="30" fill="#c0c0ad"/>
  <rect x="480" y="518" width="30" height="30" fill="#c0c0ad"/>
  <rect x="420" y="518" width="30" height="30" fill="#c0c0ad"/>
  <rect x="390" y="518" width="30" height="30" fill="#c0c0ad"/>
  <rect x="330" y="458" width="30" height="30" fill="#bf4d2a"/>
  <rect x="300" y="458" width="30" height="30" fill="#bf4d2a"/>
  <rect x="270" y="458" width="30" height="30" fill="#bf4d2a"/>
  <rect x="240" y="458" width="30" height="30" fill="#bf4d2a"/>
  <rect x="210" y="458" width="30" height="30" fill="#bf4d2a"/>
  <rect x="330" y="428" width="30" height="30" fill="#bf4d2a"/>
  <rect x="270" y="428" width="30" height="30" fill="#bf4d2a"/>
  <rect x="240" y="428" width="30" height="30" fill="#bf4d2a"/>
  <rect x="210" y="428" width="30" height="30" fill="#bf4d2a"/>
  <rect x="330" y="398" width="30" height="30" fill="#bf4d2a"/>
  <rect x="270" y="398" width="30" height="30" fill="#bf4d2a"/>
  <rect x="240" y="398" width="30" height="30" fill="#bf4d2a"/>
  <rect x="210" y="398" width="30" height="30" fill="#bf4d2a"/>
  <rect x="330" y="368" width="30" height="30" fill="#bf4d2a"/>
  <rect x="300" y="368" width="30" height="30" fill="#bf4d2a"/>
  <rect x="270" y="278" width="30" height="30" fill="#bf4d2a"/>
  <rect x="270" y="308" width="30" height="30" fill="#bf4d2a"/>
  <rect x="270" y="338" width="30" height="30" fill="#bf4d2a"/>
  <rect x="270" y="368" width="30" height="30" fill="#bf4d2a"/>
  <rect x="240" y="368" width="30" height="30" fill="#bf4d2a"/>
  <rect x="210" y="368" width="30" height="30" fill="#bf4d2a"/>
  <rect x="240" y="338" width="30" height="30" fill="#bf4d2a"/>
  <rect x="210" y="338" width="30" height="30" fill="#bf4d2a"/>
  <rect x="240" y="308" width="30" height="30" fill="#bf4d2a"/>
  <rect x="210" y="308" width="30" height="30" fill="#bf4d2a"/>
  <rect x="240" y="278" width="30" height="30" fill="#bf4d2a"/>
  <rect x="210" y="278" width="30" height="30" fill="#bf4d2a"/>
  <rect x="150" y="458" width="30" height="30" fill="#bf4d2a"/>
  <rect x="120" y="458" width="30" height="30" fill="#bf4d2a"/>
  <rect x="90" y="458" width="30" height="30" fill="#bf4d2a"/>
  <rect x="60" y="458" width="30" height="30" fill="#bf4d2a"/>
  <rect x="30" y="458" width="30" height="30" fill="#bf4d2a"/>
  <rect x="150" y="428" width="30" height="30" fill="#bf4d2a"/>
  <rect x="90" y="428" width="30" height="30" fill="#bf4d2a"/>
  <rect x="60" y="428" width="30" height="30" fill="#bf4d2a"/>
  <rect x="30" y="428" width="30" height="30" fill="#bf4d2a"/>
  <rect x="150" y="398" width="30" height="30" fill="#bf4d2a"/>
  <rect x="90" y="398" width="30" height="30" fill="#bf4d2a"/>
  <rect x="60" y="398" width="30" height="30" fill="#bf4d2a"/>
  <rect x="30" y="398" width="30" height="30" fill="#bf4d2a"/>
  <rect x="150" y="368" width="30" height="30" fill="#bf4d2a"/>
  <rect x="120" y="368" width="30" height="30" fill="#bf4d2a"/>
  <rect x="90" y="368" width="30" height="30" fill="#bf4d2a"/>
  <rect x="60" y="368" width="30" height="30" fill="#bf4d2a"/>
  <rect x="30" y="368" width="30" height="30" fill="#bf4d2a"/>
  <rect x="150" y="338" width="30" height="30" fill="#bf4d2a"/>
  <rect x="150" y="308" width="30" height="30" fill="#bf4d2a"/>
  <rect x="120" y="308" width="30" height="30" fill="#bf4d2a"/>
  <rect x="90" y="308" width="30" height="30" fill="#bf4d2a"/>
  <rect x="60" y="308" width="30" height="30" fill="#bf4d2a"/>
  <rect x="150" y="278" width="30" height="30" fill="#bf4d2a"/>
  <rect x="120" y="278" width="30" height="30" fill="#bf4d2a"/>
  <rect x="90" y="278" width="30" height="30" fill="#bf4d2a"/>
  <rect x="60" y="278" width="30" height="30" fill="#bf4d2a"/>
  <rect x="840" y="458" width="30" height="30" fill="#668d82"/>
  <rect x="810" y="458" width="30" height="30" fill="#668d82"/>
  <rect x="780" y="458" width="30" height="30" fill="#668d82"/>
  <rect x="750" y="458" width="30" height="30" fill="#668d82"/>
  <rect x="810" y="428" width="30" height="30" fill="#668d82"/>
  <rect x="780" y="428" width="30" height="30" fill="#668d82"/>
  <rect x="750" y="428" width="30" height="30" fill="#668d82"/>
  <rect x="810" y="398" width="30" height="30" fill="#668d82"/>
  <rect x="780" y="398" width="30" height="30" fill="#668d82"/>
  <rect x="750" y="398" width="30" height="30" fill="#668d82"/>
  <rect x="870" y="398" width="30" height="30" fill="#668d82"/>
  <rect x="840" y="398" width="30" height="30" fill="#668d82"/>
  <rect x="810" y="368" width="30" height="30" fill="#668d82"/>
  <rect x="780" y="368" width="30" height="30" fill="#668d82"/>
  <rect x="750" y="368" width="30" height="30" fill="#668d82"/>
  <rect x="870" y="368" width="30" height="30" fill="#668d82"/>
  <rect x="870" y="338" width="30" height="30" fill="#668d82"/>
  <rect x="810" y="338" width="30" height="30" fill="#668d82"/>
  <rect x="780" y="338" width="30" height="30" fill="#668d82"/>
  <rect x="750" y="338" width="30" height="30" fill="#668d82"/>
  <rect x="870" y="308" width="30" height="30" fill="#668d82"/>
  <rect x="840" y="308" width="30" height="30" fill="#668d82"/>
  <rect x="810" y="308" width="30" height="30" fill="#668d82"/>
  <rect x="780" y="308" width="30" height="30" fill="#668d82"/>
  <rect x="750" y="308" width="30" height="30" fill="#668d82"/>
  <rect x="870" y="278" width="30" height="30" fill="#668d82"/>
  <rect x="840" y="278" width="30" height="30" fill="#668d82"/>
  <rect x="810" y="278" width="30" height="30" fill="#668d82"/>
  <rect x="780" y="278" width="30" height="30" fill="#668d82"/>
  <rect x="750" y="278" width="30" height="30" fill="#668d82"/>
  <rect x="690" y="458" width="30" height="30" fill="#bf4d2a"/>
  <rect x="660" y="458" width="30" height="30" fill="#bf4d2a"/>
  <rect x="630" y="458" width="30" height="30" fill="#bf4d2a"/>
  <rect x="600" y="458" width="30" height="30" fill="#bf4d2a"/>
  <rect x="570" y="458" width="30" height="30" fill="#bf4d2a"/>
  <rect x="690" y="428" width="30" height="30" fill="#bf4d2a"/>
  <rect x="630" y="428" width="30" height="30" fill="#bf4d2a"/>
  <rect x="600" y="428" width="30" height="30" fill="#bf4d2a"/>
  <rect x="570" y="428" width="30" height="30" fill="#bf4d2a"/>
  <rect x="690" y="398" width="30" height="30" fill="#bf4d2a"/>
  <rect x="630" y="398" width="30" height="30" fill="#bf4d2a"/>
  <rect x="600" y="398" width="30" height="30" fill="#bf4d2a"/>
  <rect x="570" y="398" width="30" height="30" fill="#bf4d2a"/>
  <rect x="690" y="368" width="30" height="30" fill="#bf4d2a"/>
  <rect x="660" y="368" width="30" height="30" fill="#bf4d2a"/>
  <rect x="630" y="368" width="30" height="30" fill="#bf4d2a"/>
  <rect x="600" y="368" width="30" height="30" fill="#bf4d2a"/>
  <rect x="570" y="368" width="30" height="30" fill="#bf4d2a"/>
  <rect x="690" y="338" width="30" height="30" fill="#bf4d2a"/>
  <rect x="690" y="308" width="30" height="30" fill="#bf4d2a"/>
  <rect x="690" y="278" width="30" height="30" fill="#bf4d2a"/>
  <rect x="510" y="458" width="30" height="30" fill="#bf4d2a"/>
  <rect x="480" y="458" width="30" height="30" fill="#bf4d2a"/>
  <rect x="450" y="458" width="30" height="30" fill="#bf4d2a"/>
  <rect x="420" y="458" width="30" height="30" fill="#bf4d2a"/>
  <rect x="390" y="458" width="30" height="30" fill="#bf4d2a"/>
  <rect x="450" y="398" width="30" height="30" fill="#bf4d2a"/>
  <rect x="510" y="428" width="30" height="30" fill="#bf4d2a"/>
  <rect x="450" y="428" width="30" height="30" fill="#bf4d2a"/>
  <rect x="420" y="428" width="30" height="30" fill="#bf4d2a"/>
  <rect x="390" y="428" width="30" height="30" fill="#bf4d2a"/>
  <rect x="420" y="398" width="30" height="30" fill="#bf4d2a"/>
  <rect x="390" y="398" width="30" height="30" fill="#bf4d2a"/>
  <rect x="420" y="368" width="30" height="30" fill="#bf4d2a"/>
  <rect x="390" y="368" width="30" height="30" fill="#bf4d2a"/>
  <rect x="510" y="368" width="30" height="30" fill="#bf4d2a"/>
  <rect x="480" y="338" width="30" height="30" fill="#bf4d2a"/>
  <rect x="510" y="338" width="30" height="30" fill="#bf4d2a"/>
  <rect x="450" y="368" width="30" height="30" fill="#bf4d2a"/>
  <rect x="450" y="338" width="30" height="30" fill="#bf4d2a"/>
  <rect x="420" y="338" width="30" height="30" fill="#bf4d2a"/>
  <rect x="390" y="338" width="30" height="30" fill="#bf4d2a"/>
  <rect x="510" y="308" width="30" height="30" fill="#bf4d2a"/>
  <rect x="480" y="308" width="30" height="30" fill="#bf4d2a"/>
  <rect x="450" y="308" width="30" height="30" fill="#bf4d2a"/>
  <rect x="420" y="308" width="30" height="30" fill="#bf4d2a"/>
  <rect x="390" y="308" width="30" height="30" fill="#bf4d2a"/>
  <rect x="510" y="278" width="30" height="30" fill="#bf4d2a"/>
  <rect x="480" y="278" width="30" height="30" fill="#bf4d2a"/>
  <rect x="450" y="278" width="30" height="30" fill="#bf4d2a"/>
  <rect x="420" y="278" width="30" height="30" fill="#bf4d2a"/>
  <rect x="390" y="278" width="30" height="30" fill="#bf4d2a"/>
</svg>
