<svg id="Layer_1" data-name="Layer 1" xmlns="http://www.w3.org/2000/svg" viewBox="0 0 1080 765.8">
  <title>beigewotangreen</title>
  <rect width="1080" height="765.75" fill="#c2b60e"/>
  <path d="M540,486.3a1.5,1.5,0,0,0,0-3,1.5,1.5,0,0,0,0,3Z" fill="#fefe14"/>
  <g>
    <rect x="282.6" y="229" width="514.9" height="307.7" fill="#84be14" stroke="#fefe14" stroke-miterlimit="10" stroke-width="5"/>
    <g>
      <g>
        <g>
          <path d="M507.7,266.3,483.4,417l-11.6-72.8L460,417,436.1,266.3h9.1L460,369.5l11.8-80.4,11.6,80.4,15-103.2Z" fill="#fefe14"/>
          <path d="M584.3,338.5c0,3.1-.1,7-.4,11.9s-.8,10-1.6,15.5a167.2,167.2,0,0,1-3.2,16.6,77.9,77.9,0,0,1-5.6,15,34.4,34.4,0,0,1-8.6,10.7,19.4,19.4,0,0,1-24.1,0,34.1,34.1,0,0,1-8.5-10.7,71.8,71.8,0,0,1-5.6-15,167.9,167.9,0,0,1-3.3-16.6c-.7-5.5-1.3-10.6-1.6-15.5s-.4-8.8-.4-11.9.2-7.1.4-12,.9-10,1.6-15.5a160.5,160.5,0,0,1,3.3-16.5,67.8,67.8,0,0,1,5.6-15,34.6,34.6,0,0,1,8.5-10.8,19.8,19.8,0,0,1,24.1,0,34.8,34.8,0,0,1,8.6,10.8,73.2,73.2,0,0,1,5.6,15,160,160,0,0,1,3.2,16.5c.8,5.5,1.3,10.7,1.6,15.5S584.3,335.4,584.3,338.5Zm-9.3,0c0-2.1-.1-5.2-.3-9.2s-.5-8.4-1-13.2a132.1,132.1,0,0,0-2.4-14.7,75.9,75.9,0,0,0-4-13.7,31.8,31.8,0,0,0-6-10.1,11.1,11.1,0,0,0-16.9,0,31.8,31.8,0,0,0-6,10.1,96.4,96.4,0,0,0-4,13.7c-1,5-1.8,9.9-2.3,14.7s-.9,9.2-1.1,13.2-.3,7.1-.3,9.2.1,5.1.3,9.2.6,8.4,1.1,13.1,1.3,9.7,2.3,14.7a92.7,92.7,0,0,0,4,13.7,31.3,31.3,0,0,0,6,10.2,11.1,11.1,0,0,0,16.9,0,31.3,31.3,0,0,0,6-10.2,73.5,73.5,0,0,0,4-13.7,132.1,132.1,0,0,0,2.4-14.7c.5-4.7.8-9.1,1-13.1S575,340.6,575,338.5Z" fill="#fefe14"/>
          <path d="M636.7,274.5H622.1V410.7H613V274.5H598.5v-8.2h38.2Z" fill="#fefe14"/>
          <path d="M696.8,410.7h-9.1l-3.8-27.3H661.8l-4,27.3h-9.1L673,259.9Zm-14.1-35.5L673,307.4l-10,67.8Z" fill="#fefe14"/>
          <path d="M759.1,414.3l-32.9-99.9v96.3h-9.1v-148L750,360.6V266.3h9.1Z" fill="#fefe14"/>
        </g>
        <rect x="390.6" y="336.4" width="10.8" height="10.96" transform="translate(-125.7 380.2) rotate(-45)" fill="#fefe14"/>
        <polygon points="373.6 266.7 320.9 319.4 340.2 338.7 353.5 352 340.2 338.7 373.6 372.1 393.9 351.8 386.1 344 373.6 356.6 361.6 344.6 347.9 330.9 336.4 319.4 373.6 282.2 410.8 319.4 398.2 332 405.9 339.7 426.3 319.4 373.6 266.7" fill="#fefe14"/>
        <path d="M373.6,311.7l-20.3,20.2,7.8,7.8,12.5-12.5,37.2,37.1-37.2,37.2-37.2-37.2,12.5-12.5-7.7-7.7-20.3,20.2L373.6,417l52.7-52.7Zm13.1,28.5,12.1,12.1Z" fill="#fefe14"/>
        <rect x="345.6" y="336.4" width="11" height="10.96" transform="translate(-138.9 348.4) rotate(-45)" fill="#fefe14"/>
      </g>
      <g>
        <rect x="282.6" y="437.4" width="514.9" height="97.17" fill="#fefe14"/>
        <g>
          <path d="M327.2,499.1a7.3,7.3,0,0,1-1.1-2.9c-2.4,2.6-4.8,4-7.1,3.9s-5-1.8-5-5,1.8-7.7,5.4-11.7,7.2-6,11-6a5.4,5.4,0,0,1,2.5.6,3.5,3.5,0,0,1,1.6,1.8c.9-1.7,1.6-2.5,2.1-2.6a21,21,0,0,1,4.1.4c-4.5,7.6-7.6,13.2-9.2,16.5a1.5,1.5,0,0,0-.2.9c0,1.1.5,1.7,1.5,1.6s1.8-.6,3.6-1.9a29.3,29.3,0,0,0,6.1-6.9,1.1,1.1,0,0,1,1,.4,35.6,35.6,0,0,1-5.9,7.3c-3.1,3-5.7,4.5-7.9,4.5A3,3,0,0,1,327.2,499.1Zm5.2-18.9a2.2,2.2,0,0,0-1.5-.6c-1.2,0-2.7.8-4.4,2.3a26.8,26.8,0,0,0-4.1,4.3c-2,2.8-3,5.4-3,7.9s.7,2.6,2,2.6a5.5,5.5,0,0,0,3.9-2,48.4,48.4,0,0,0,4.9-7.5c2-3.6,3-5.5,3-5.6A1.7,1.7,0,0,0,332.4,480.2Z" fill="#84be14"/>
          <path d="M376.4,488.9a3.5,3.5,0,0,1-2.8.9,4.5,4.5,0,0,1-3.3-1.4,35.9,35.9,0,0,1-6.5,7.8c-3,2.7-5.7,4.1-8.2,4.1s-3.7-1.8-3.7-4.8c0-1.5.7-3.6,2-6.3.1-.3,1.3-2.4,3.5-6.3.7-1,1.8-2.8,3.5-5.5a14.5,14.5,0,0,1,2.7-.3,7,7,0,0,1,2.8.5,99.9,99.9,0,0,0-5.7,9.2c-2.3,4-3.4,6.7-3.4,8.2s.6,2.2,1.6,2.2a4.2,4.2,0,0,0,2.2-.9,21.8,21.8,0,0,0,7.6-9.8,13.2,13.2,0,0,1-.5-3.1,11.2,11.2,0,0,1,2.3-6.8,4.5,4.5,0,0,1,3.5-2.2c.5,0,.7.4.6,1.3,0,3.4-1.1,7.2-3.5,11.4a2.6,2.6,0,0,0,2.5,1.6,3,3,0,0,0,2.4-.7Zm-6.8-4.7a19.1,19.1,0,0,0,2.1-5.6c-1.4.5-2.1,2.3-2.1,5.2Z" fill="#84be14"/>
          <path d="M375.4,498.6a7,7,0,0,1-1.5-3.6,7.9,7.9,0,0,1,.3-2.6,22,22,0,0,1,9.3-13.5,12.1,12.1,0,0,1,6.8-2.1q4.8,0,4.8,5.4a16.3,16.3,0,0,1-2.8,8.3h0a6.6,6.6,0,0,0,3-.3,6,6,0,0,0,3.2-2.5.8.8,0,0,1,.8.4c-1.3,1.7-2.6,2.8-3.8,3.1a8.2,8.2,0,0,1-3.9.4c-3.5,5.8-7.5,8.7-12.2,8.7A5.1,5.1,0,0,1,375.4,498.6Zm13.9-11.4a2.3,2.3,0,0,0,.9,2.1c1.7-3,2.6-5.5,2.6-7.4a2,2,0,0,0-2.2-2.2,6,6,0,0,0-2.4.5,18.4,18.4,0,0,0-6,6.1,15.5,15.5,0,0,0-2.5,7.9c0,1.9.7,2.9,1.9,2.9a6.5,6.5,0,0,0,4.1-1.8,17,17,0,0,0,3.5-4.5,4.3,4.3,0,0,1-3.3-4.5q0-2.1,1.8-2.1c1.1,0,1.7.8,1.7,2.2Z" fill="#84be14"/>
          <path d="M394.8,496.2a12.2,12.2,0,0,1,1.8-5.3c1.9-3.1,4.5-7.6,7.9-13.5l2.1-.3c1.6,0,2.4.3,2.6.9l-9.1,15.6a4.1,4.1,0,0,0-.6,2c0,1.1.5,1.7,1.4,1.7a5.2,5.2,0,0,0,3.8-1.5,49.2,49.2,0,0,0,7.1-8,1.2,1.2,0,0,1,.9.3,90.1,90.1,0,0,1-6.9,8.3c-2.6,2.5-5,3.8-7.4,3.8a3.4,3.4,0,0,1-2.6-1A3.8,3.8,0,0,1,394.8,496.2Zm18.8-25.4a4,4,0,0,1-1.4,2.6,3.7,3.7,0,0,1-2.9,1.3c-1.4,0-2.2-.8-2.2-2.4a3.8,3.8,0,0,1,1-2.4,3.6,3.6,0,0,1,2.1-1.4h1.1a3,3,0,0,1,1.5.5A2.2,2.2,0,0,1,413.6,470.8Z" fill="#84be14"/>
          <path d="M427.5,482.5a2.3,2.3,0,0,0-2.6-2.6c-2.2,0-4.4,1.6-6.7,4.6a15.9,15.9,0,0,0-3.4,9.7,3,3,0,0,0,1,2.4,3.6,3.6,0,0,0,2.4.9c2.5,0,5.2-1,8.1-3.1a37.2,37.2,0,0,0,7-6.6.8.8,0,0,1,.7.5,44.8,44.8,0,0,1-7.1,7.9,17.2,17.2,0,0,1-11,4.2,6.2,6.2,0,0,1-4.3-1.6,4.7,4.7,0,0,1-1.9-3.9,13.8,13.8,0,0,1,2.1-7.6,28,28,0,0,1,5.7-6.6,18.2,18.2,0,0,1,4.1-2.7,9.4,9.4,0,0,1,4.4-1.2q4.5,0,4.5,3.6a4.5,4.5,0,0,1-1,2.7,3.8,3.8,0,0,1-2.4,1.5Z" fill="#84be14"/>
          <path d="M431,495a14.4,14.4,0,0,1,1.8-6.8,30,30,0,0,1,6.3-7.8,12.8,12.8,0,0,1,7.8-3.6q4.2-.2,4.2,3.3c0,1.4-.7,3.2-2,5.5-2.4,4-6.6,6.6-12.7,7.7a3.5,3.5,0,0,0-.5,2c0,1.8.9,2.7,2.8,2.7s5.1-1.2,8.5-3.7a37.9,37.9,0,0,0,6.7-6.5,1.1,1.1,0,0,1,1,.4,37.1,37.1,0,0,1-7.8,8q-5.7,4.2-11.1,4.2C432.7,500.4,431,498.6,431,495Zm17.2-14.8c0-.6-.2-.9-.7-.9h-.4q-4.7,1.8-8.7,9c-.4.8-.9,1.9-1.5,3.4a12.4,12.4,0,0,0,7.4-3.8,12.7,12.7,0,0,0,3.9-7Z" fill="#84be14"/>
          <path d="M470.6,486.1l-1.8,3.4H457.3l1.9-3.4Z" fill="#84be14"/>
          <path d="M492.1,482.5c0-1.7-.8-2.6-2.5-2.6s-4.5,1.6-6.8,4.6a16.6,16.6,0,0,0-3.4,9.7,3.3,3.3,0,0,0,1,2.4,3.6,3.6,0,0,0,2.4.9c2.5,0,5.2-1,8.1-3.1a34.4,34.4,0,0,0,7-6.6c.3,0,.5.1.8.5a49.1,49.1,0,0,1-7.1,7.9,17.5,17.5,0,0,1-11.1,4.2,6.4,6.4,0,0,1-4.3-1.6,4.7,4.7,0,0,1-1.9-3.9,13.8,13.8,0,0,1,2.1-7.6,28,28,0,0,1,5.7-6.6,20.8,20.8,0,0,1,4.1-2.7,10.1,10.1,0,0,1,4.4-1.2q4.5,0,4.5,3.6a4.4,4.4,0,0,1-.9,2.7,4.5,4.5,0,0,1-2.4,1.5Z" fill="#84be14"/>
          <path d="M507.2,496.3q0-1.8,2.1-5.1l6-9.3a2.6,2.6,0,0,0,.5-1.8c0-.5-.5-.8-1.2-.8a8.2,8.2,0,0,0-4.6,1.8,24,24,0,0,0-4.7,4.3,66.1,66.1,0,0,0-4.8,7.3l-4.1,7.2-5.4-.3c3.7-6.6,9.2-16.1,16.3-28.4a32.9,32.9,0,0,1,4.8-6.6c2.6-2.5,4.8-3.8,6.7-3.6a2.3,2.3,0,0,1,2.4,2.6c0,5-4.8,11.1-14.3,18.4l-.9,1.4c4-4.1,7.8-6.2,11.3-6.2a3.6,3.6,0,0,1,2.4.9,2.7,2.7,0,0,1,1,2.2c0,.8-.6,2.3-1.8,4.4l-4.1,6.9c-1.4,2.3-2.1,3.8-2.1,4.6s.5,1.4,1.5,1.4,3.2-1.3,5.6-3.8a61.2,61.2,0,0,0,5.1-6,1.2,1.2,0,0,1,1,.4,79.7,79.7,0,0,1-7.2,8.2c-2.7,2.5-5.3,3.8-7.9,3.8a3.5,3.5,0,0,1-2.6-1A3.8,3.8,0,0,1,507.2,496.3Zm11.5-32.5c-1.5.6-5,6-10.7,16.1a60.4,60.4,0,0,0,7.3-7c3.1-3.5,4.6-6.3,4.6-8.4S519.5,463.4,518.7,463.8Z" fill="#84be14"/>
          <path d="M535.8,499.1a9.2,9.2,0,0,1-1.1-2.9c-2.4,2.6-4.8,4-7.1,3.9s-5-1.8-5-5,1.8-7.7,5.4-11.7,7.2-6,11-6a5.4,5.4,0,0,1,2.5.6,3.5,3.5,0,0,1,1.6,1.8c.9-1.7,1.6-2.5,2.1-2.6a21,21,0,0,1,4.1.4c-4.5,7.6-7.6,13.2-9.2,16.5a1.5,1.5,0,0,0-.2.9c0,1.1.5,1.7,1.5,1.6s1.8-.6,3.6-1.9a31.6,31.6,0,0,0,6.2-6.9,1.3,1.3,0,0,1,1,.4,39.6,39.6,0,0,1-6,7.3q-4.7,4.5-7.8,4.5A3.1,3.1,0,0,1,535.8,499.1Zm5.3-18.9a2.4,2.4,0,0,0-1.5-.6c-1.3,0-2.8.8-4.5,2.3a26.8,26.8,0,0,0-4.1,4.3c-2,2.8-3,5.4-3,7.9s.7,2.6,2,2.6a5.3,5.3,0,0,0,3.9-2,42,42,0,0,0,4.9-7.5c2-3.6,3-5.5,3-5.6A1.9,1.9,0,0,0,541.1,480.2Z" fill="#84be14"/>
          <path d="M562.2,488.8c.4-.6,1.2-2,2.6-4.1s1.9-3.5,1.9-4-.5-1-1.4-1a5.8,5.8,0,0,0-3.3,1.4,17.6,17.6,0,0,0-3.1,2.9c-.7.9-3.7,6.2-9,15.7l-4.2.2-1.3-.2,12.7-22.2a13.1,13.1,0,0,1,5.3-.3c.1.1.1.2.1.4a31.1,31.1,0,0,1-1.8,3.2c2.5-2.3,5-3.5,7.4-3.5s3.5,1,3.5,2.8a9,9,0,0,1-1.1,4.1c-1.5,2.5-3.1,4.9-4.5,7.2a7.8,7.8,0,0,0-1.3,3.8c0,1,.5,1.5,1.4,1.5s2.7-1.2,4.9-3.8l4-5.1a1.1,1.1,0,0,1,1,.4c-2,2.7-3.7,4.8-5.3,6.6a25.7,25.7,0,0,1-3.4,3.4,6.5,6.5,0,0,1-5.1,1.8,3.1,3.1,0,0,1-2.2-1.1,3.8,3.8,0,0,1-.8-2.3Q559.2,493.6,562.2,488.8Z" fill="#84be14"/>
          <path d="M573.1,506.6a41,41,0,0,1,10.5-6.6l3-5.4a18.8,18.8,0,0,1-4.4,4,7.7,7.7,0,0,1-4.6,1.7,4.5,4.5,0,0,1-3.5-1.3c-1.8-1.7-1.8-4.7-.2-8.9a22.9,22.9,0,0,1,5.6-8c3.3-3.1,6.8-4.7,10.5-4.7a4.6,4.6,0,0,1,2.5.8,4.8,4.8,0,0,1,1.6,2.2c.4-.6.9-1.6,1.5-2.7l2.6-.2a13.6,13.6,0,0,1,3,.4c-2.5,4.6-6.3,11.2-11.2,20a21.6,21.6,0,0,0,6.6-4.1,24.9,24.9,0,0,0,5.4-6,.8.8,0,0,1,.8.5,28.2,28.2,0,0,1-13.9,11.6l-4.1,7.4a45.7,45.7,0,0,1-5.5,7.9c-2.3,2.5-4.5,3.7-6.5,3.7a3.3,3.3,0,0,1-2.8-1.3,5.5,5.5,0,0,1-1-3.2C569,511.8,570.4,509.2,573.1,506.6Zm.4,9.4q1.9,0,5.1-5.7c1.3-2.7,2.6-5.4,4-8a21.4,21.4,0,0,0-4.9,3c-3.5,3-5.2,5.8-5.2,8.5S572.8,516,573.5,516Zm18-35.8a3.2,3.2,0,0,0-1.7-.6c-1.3,0-2.8.8-4.5,2.3-4.7,4-7,8.2-7,12.6,0,1.5.5,2.2,1.6,2.2,3.4,0,7.1-3.6,11-10.8a9.8,9.8,0,0,0,1.4-4.2A2.1,2.1,0,0,0,591.5,480.2Z" fill="#84be14"/>
          <path d="M599.8,495a14.4,14.4,0,0,1,1.8-6.8,30,30,0,0,1,6.3-7.8,12.8,12.8,0,0,1,7.8-3.6q4.2-.2,4.2,3.3c0,1.4-.7,3.2-2,5.5-2.4,4-6.6,6.6-12.7,7.7a3.5,3.5,0,0,0-.5,2c0,1.8.9,2.7,2.8,2.7s5.1-1.2,8.5-3.7a37.9,37.9,0,0,0,6.7-6.5,1.1,1.1,0,0,1,1,.4,37.1,37.1,0,0,1-7.8,8q-5.7,4.2-11.1,4.2C601.5,500.4,599.8,498.6,599.8,495ZM617,480.2c0-.6-.2-.9-.7-.9h-.4q-4.6,1.8-8.7,9c-.4.8-.9,1.9-1.5,3.4a12.4,12.4,0,0,0,7.4-3.8,12.7,12.7,0,0,0,3.9-7Z" fill="#84be14"/>
          <path d="M641,479.8c-.7.7-1.6,1.8-2.8,3.2-4.3,5.7-6.5,10-6.4,13a1.3,1.3,0,0,0,.5,1.1,2.1,2.1,0,0,0,1.2.5c1.3,0,3.2-1.3,5.7-4,.8-.9,2.4-2.8,4.7-5.8a1.2,1.2,0,0,1,1,.4,57.6,57.6,0,0,1-6.7,7.9c-3.1,2.9-5.9,4.2-8.7,4.1s-3.3-1.3-3.3-3.6,2.9-8.4,8.8-15.5h-.5l-2.6-.2a5.6,5.6,0,0,0-4.2,2.4c-1,1.3-2.5,3.2-4.6,5.7l-.6-.5,2.5-3.6a6.4,6.4,0,0,0,1.3-3.1v-2a4.1,4.1,0,0,1,1.2-3,6.4,6.4,0,0,1,2.9-1.9l1-.2c.3,0,.4.1.5.4a1.9,1.9,0,0,0-.5,1.3,1.5,1.5,0,0,0,.9,1.3,3.7,3.7,0,0,0,2,.5l4.4-.4c1.8,0,2.7.3,2.7,1.1A1.6,1.6,0,0,1,641,479.8Z" fill="#84be14"/>
          <path d="M672.2,477.7l1.8.2h.1c0,.8-.4,1.4-1.4,2.1h-4.1l-5.1,9.1c-2.1,3.4-3.1,5.5-3.1,6.3a1.8,1.8,0,0,0,2.1,2c1.5,0,3.5-1.3,6.2-3.9a50.1,50.1,0,0,0,5.3-5.8,1,1,0,0,1,.9.4,46.7,46.7,0,0,1-6.9,7.6c-3.3,2.9-6.3,4.4-8.9,4.4s-3.8-1.3-3.8-3.8.7-3,2-5.4l6.2-10.7a76.8,76.8,0,0,0-7,8.5H656c-.6,0-.7-.1-.5-.4a30.4,30.4,0,0,1,3.7-4.5l3.8-3.9h-3a3.1,3.1,0,0,1,.7-2,9.2,9.2,0,0,1,2.3-.2l2.2-.2,5.9-10.3a13,13,0,0,1,5-.2c-1.8,3.1-3.9,6.6-6.1,10.5Z" fill="#84be14"/>
          <path d="M683.2,496.3q0-1.8,2.1-5.1l6.1-9.3a2.6,2.6,0,0,0,.5-1.8c-.1-.5-.5-.8-1.3-.8a8.7,8.7,0,0,0-4.6,1.8,23.5,23.5,0,0,0-4.6,4.3,46,46,0,0,0-4.8,7.3l-4.1,7.2-5.4-.3c3.7-6.6,9.1-16.1,16.2-28.4a37.7,37.7,0,0,1,4.9-6.6c2.5-2.5,4.7-3.8,6.7-3.6a2.4,2.4,0,0,1,2.4,2.6c0,5-4.8,11.1-14.4,18.4-.2.3-.4.8-.8,1.4,4-4.1,7.8-6.2,11.3-6.2a3.6,3.6,0,0,1,2.4.9,3,3,0,0,1,1,2.2c0,.8-.6,2.3-1.9,4.4l-4.1,6.9c-1.3,2.3-2,3.8-2,4.6s.5,1.4,1.5,1.4,3.2-1.3,5.5-3.8a52.4,52.4,0,0,0,5.2-6,1,1,0,0,1,.9.4,61.3,61.3,0,0,1-7.2,8.2c-2.7,2.5-5.3,3.8-7.8,3.8a3.3,3.3,0,0,1-2.6-1A3.8,3.8,0,0,1,683.2,496.3Zm11.6-32.5c-1.5.6-5.1,6-10.8,16.1a61.3,61.3,0,0,0,7.4-7c3-3.5,4.6-6.3,4.6-8.4S695.6,463.4,694.8,463.8Z" fill="#84be14"/>
          <path d="M697.3,496.2a12.6,12.6,0,0,1,1.9-5.3c1.9-3.1,4.5-7.6,7.9-13.5l2.1-.3c1.6,0,2.4.3,2.6.9-2,3.5-5.1,8.6-9.1,15.6a4.1,4.1,0,0,0-.6,2c0,1.1.4,1.7,1.3,1.7a5.4,5.4,0,0,0,3.9-1.5,49.2,49.2,0,0,0,7.1-8,1.2,1.2,0,0,1,.9.3,90.1,90.1,0,0,1-6.9,8.3c-2.6,2.5-5.1,3.8-7.4,3.8a3.4,3.4,0,0,1-2.6-1A3.8,3.8,0,0,1,697.3,496.2Zm18.8-25.4a3.8,3.8,0,0,1-1.3,2.6,3.7,3.7,0,0,1-2.9,1.3c-1.4,0-2.2-.8-2.2-2.4a3.8,3.8,0,0,1,1-2.4,3.6,3.6,0,0,1,2.1-1.4h1.1a3,3,0,0,1,1.5.5A2.1,2.1,0,0,1,716.1,470.8Z" fill="#84be14"/>
          <path d="M725.3,488.8l2.6-4.1c1.3-2.2,1.9-3.5,1.9-4s-.4-1-1.4-1a6.4,6.4,0,0,0-3.3,1.4,13.9,13.9,0,0,0-3,2.9c-.8.9-3.8,6.2-9.1,15.7l-4.2.2-1.3-.2c2.9-5,7.2-12.4,12.7-22.2a13.6,13.6,0,0,1,5.4-.3c0,.1.1.2,0,.4a31.1,31.1,0,0,1-1.8,3.2c2.6-2.3,5-3.5,7.4-3.5s3.5,1,3.5,2.8a7.9,7.9,0,0,1-1.1,4.1q-2.2,3.8-4.5,7.2a8.6,8.6,0,0,0-1.2,3.8c0,1,.4,1.5,1.3,1.5s2.7-1.2,4.9-3.8l4-5.1a1.1,1.1,0,0,1,1,.4,72.1,72.1,0,0,1-5.3,6.6,27.1,27.1,0,0,1-3.3,3.4,6.8,6.8,0,0,1-5.2,1.8,2.7,2.7,0,0,1-2.1-1.1,3.3,3.3,0,0,1-.9-2.3Q722.3,493.6,725.3,488.8Z" fill="#84be14"/>
          <path d="M736.3,506.6a38.7,38.7,0,0,1,10.4-6.6q.6-.9,3-5.4a20.4,20.4,0,0,1-4.3,4,8,8,0,0,1-4.7,1.7,4.6,4.6,0,0,1-3.5-1.3c-1.7-1.7-1.8-4.7-.1-8.9a22.6,22.6,0,0,1,5.5-8c3.3-3.1,6.8-4.7,10.6-4.7a4.6,4.6,0,0,1,2.4.8,4.2,4.2,0,0,1,1.6,2.2l1.6-2.7,2.5-.2a12.8,12.8,0,0,1,3,.4c-2.5,4.6-6.2,11.2-11.2,20a21.6,21.6,0,0,0,6.6-4.1,24.9,24.9,0,0,0,5.4-6c.5,0,.8.2.9.5a29.1,29.1,0,0,1-13.9,11.6l-4.2,7.4a45.7,45.7,0,0,1-5.5,7.9c-2.3,2.5-4.5,3.7-6.5,3.7a3.4,3.4,0,0,1-2.8-1.3,5.5,5.5,0,0,1-1-3.2Q732.1,510.5,736.3,506.6Zm.3,9.4c1.3,0,3.1-1.9,5.2-5.7l3.9-8a18.7,18.7,0,0,0-4.8,3c-3.5,3-5.3,5.8-5.3,8.5S735.9,516,736.6,516Zm18-35.8a2.9,2.9,0,0,0-1.7-.6c-1.3,0-2.8.8-4.5,2.3-4.7,4-7,8.2-7,12.6,0,1.5.5,2.2,1.6,2.2,3.5,0,7.1-3.6,11.1-10.8a9.4,9.4,0,0,0,1.3-4.2A2.1,2.1,0,0,0,754.6,480.2Z" fill="#84be14"/>
        </g>
      </g>
    </g>
  </g>
</svg>
