<svg xmlns="http://www.w3.org/2000/svg" viewBox="0 0 930 990">
  <title>grapelr35alpha-da</title>
  <g style="isolation: isolate">
    <g id="Layer_1" data-name="Layer 1">
      <rect x="1" y="1" width="928" height="988" fill="#344465"/>
      <g style="mix-blend-mode: overlay">
        <g>
          <polygon points="880 768 850 768 850 798 850 828 880 828 880 858 880 888 910 888 910 858 910 828 910 798 910 768 880 768" fill="#261c2c" fill-rule="evenodd"/>
          <polygon points="760 768 760 798 760 828 790 828 790 858 790 888 820 888 820 858 820 828 820 798 820 768 790 768 760 768" fill="#261c2c" fill-rule="evenodd"/>
        </g>
        <g>
          <polygon points="700 828 700 798 700 768 670 768 670 798 670 828 670 858 670 888 700 888 730 888 730 858 730 828 700 828" fill="#261c2c" fill-rule="evenodd"/>
          <polygon points="610 798 610 768 580 768 580 798 580 828 580 858 580 888 610 888 640 888 640 858 640 828 610 828 610 798" fill="#261c2c" fill-rule="evenodd"/>
        </g>
        <g>
          <polygon points="460 948 430 948 430 978 460 978 490 978 520 978 520 948 490 948 460 948" fill="#261c2c" fill-rule="evenodd"/>
          <polygon points="490 768 460 768 430 768 430 798 430 828 430 858 430 888 430 918 460 918 490 918 520 918 520 888 520 858 520 828 520 798 520 768 490 768" fill="#261c2c" fill-rule="evenodd"/>
        </g>
        <g>
          <polygon points="250 948 250 978 280 978 310 978 310 948 280 948 250 948" fill="#261c2c" fill-rule="evenodd"/>
          <polygon points="340 768 310 768 280 768 250 768 220 768 220 798 220 828 220 858 250 858 280 858 310 858 340 858 340 888 310 888 280 888 250 888 250 918 280 918 310 918 340 918 370 918 370 888 370 858 370 828 370 798 370 768 340 768" fill="#261c2c" fill-rule="evenodd"/>
        </g>
        <polygon points="700 528 670 528 640 528 610 528 580 528 580 558 580 588 580 618 580 648 580 678 610 678 640 678 670 678 700 678 700 708 670 708 640 708 640 738 670 738 700 738 730 738 730 708 730 678 730 648 700 648 670 648 670 618 670 588 700 588 700 618 730 618 730 588 730 558 730 528 700 528" fill="#261c2c" fill-rule="evenodd"/>
        <polygon points="160 768 130 768 100 768 70 768 40 768 40 798 40 828 40 858 70 858 100 858 130 858 160 858 160 888 130 888 100 888 70 888 40 888 40 918 40 948 40 978 70 978 100 978 130 978 160 978 160 948 130 948 130 918 160 918 190 918 190 888 190 858 190 828 190 798 190 768 160 768" fill="#261c2c" fill-rule="evenodd"/>
        <polygon points="880 528 850 528 820 528 790 528 760 528 760 558 760 588 760 618 760 648 790 648 790 678 790 708 790 738 820 738 850 738 880 738 880 708 880 678 880 648 910 648 910 618 910 588 910 558 910 528 880 528" fill="#261c2c" fill-rule="evenodd"/>
        <path d="M520,528H400V738h90V708h30v30h30V528Zm0,90v60H490V588h30Z" fill="#261c2c" fill-rule="evenodd"/>
        <path d="M340,528H220V708H340v30h30V528Zm0,90v60H310V588h30Z" fill="#261c2c" fill-rule="evenodd"/>
        <path d="M160,528H40V738h90V708h60V528Zm0,90v60H130V588h30Z" fill="#261c2c" fill-rule="evenodd"/>
        <polygon points="880 288 850 288 820 288 820 318 820 348 820 378 820 408 850 408 880 408 880 438 880 468 850 468 850 438 820 438 790 438 760 438 760 468 760 498 790 498 820 498 850 498 880 498 910 498 910 468 910 438 910 408 910 378 910 348 910 318 910 288 880 288" fill="#261c2c" fill-rule="evenodd"/>
        <polygon points="700 288 670 288 640 288 610 288 580 288 580 318 580 348 580 378 580 408 610 408 610 438 610 468 580 468 580 498 610 498 640 498 670 498 700 498 730 498 730 468 700 468 700 438 700 408 730 408 730 378 730 348 730 318 730 288 700 288" fill="#261c2c" fill-rule="evenodd"/>
        <polygon points="520 288 520 318 520 348 520 378 520 408 490 408 490 378 490 348 490 318 490 288 460 288 430 288 400 288 400 318 400 348 400 378 400 408 400 438 400 468 400 498 430 498 460 498 490 498 490 468 520 468 520 498 550 498 550 468 550 438 550 408 550 378 550 348 550 318 550 288 520 288" fill="#261c2c" fill-rule="evenodd"/>
        <path d="M340,288H220V438H340v30H280v30h90V288Zm0,90v30H310V348h30Z" fill="#261c2c" fill-rule="evenodd"/>
        <polygon points="160 288 130 288 100 288 70 288 40 288 40 318 40 348 40 378 40 408 40 438 40 468 40 498 70 498 100 498 130 498 130 468 160 468 160 438 130 438 130 408 130 378 130 348 160 348 160 378 160 408 190 408 190 378 190 348 190 318 190 288 160 288" fill="#261c2c" fill-rule="evenodd"/>
        <g>
          <path d="M880,40H760V190H880v30H820v30h90V40Zm0,120H820V130h60Z" fill="#261c2c" fill-rule="evenodd"/>
          <path d="M700,40H580V250H730V40Zm0,180H640V190h60Zm0-60H640V130h60Z" fill="#261c2c" fill-rule="evenodd"/>
          <polygon points="520 40 490 40 460 40 430 40 400 40 400 70 400 100 400 130 430 130 460 130 490 130 520 130 520 160 520 190 520 220 520 250 550 250 550 220 550 190 550 160 550 130 550 100 550 70 550 40 520 40" fill="#261c2c" fill-rule="evenodd"/>
          <path d="M340,40H220V250H370V160H280V130h90V40ZM310,190h30v30H280V190Z" fill="#261c2c" fill-rule="evenodd"/>
          <polygon points="160 40 130 40 100 40 70 40 40 40 40 70 40 100 40 130 40 160 40 190 70 190 100 190 130 190 160 190 160 220 130 220 100 220 100 250 130 250 160 250 190 250 190 220 190 190 190 160 160 160 130 160 100 160 100 130 130 130 160 130 190 130 190 100 190 70 190 40 160 40" fill="#261c2c" fill-rule="evenodd"/>
        </g>
      </g>
      <g>
        <polygon points="870 758 840 758 840 788 840 818 870 818 870 848 870 878 900 878 900 848 900 818 900 788 900 758 870 758" fill="#3e2c41" fill-rule="evenodd"/>
        <polygon points="750 758 750 788 750 818 780 818 780 848 780 878 810 878 810 848 810 818 810 788 810 758 780 758 750 758" fill="#3e2c41" fill-rule="evenodd"/>
      </g>
      <g>
        <polygon points="690 818 690 788 690 758 660 758 660 788 660 818 660 848 660 878 690 878 720 878 720 848 720 818 690 818" fill="#3e2c41" fill-rule="evenodd"/>
        <polygon points="600 788 600 758 570 758 570 788 570 818 570 848 570 878 600 878 630 878 630 848 630 818 600 818 600 788" fill="#3e2c41" fill-rule="evenodd"/>
      </g>
      <g>
        <polygon points="450 938 420 938 420 968 450 968 480 968 510 968 510 938 480 938 450 938" fill="#6e84b1" fill-rule="evenodd"/>
        <polygon points="480 758 450 758 420 758 420 788 420 818 420 848 420 878 420 908 450 908 480 908 510 908 510 878 510 848 510 818 510 788 510 758 480 758" fill="#6e84b1" fill-rule="evenodd"/>
      </g>
      <g>
        <polygon points="240 938 240 968 270 968 300 968 300 938 270 938 240 938" fill="#6e84b1" fill-rule="evenodd"/>
        <polygon points="330 758 300 758 270 758 240 758 210 758 210 788 210 818 210 848 240 848 270 848 300 848 330 848 330 878 300 878 270 878 240 878 240 908 270 908 300 908 330 908 360 908 360 878 360 848 360 818 360 788 360 758 330 758" fill="#6e84b1" fill-rule="evenodd"/>
      </g>
      <polygon points="690 518 660 518 630 518 600 518 570 518 570 548 570 578 570 608 570 638 570 668 600 668 630 668 660 668 690 668 690 698 660 698 630 698 630 728 660 728 690 728 720 728 720 698 720 668 720 638 690 638 660 638 660 608 660 578 690 578 690 608 720 608 720 578 720 548 720 518 690 518" fill="#6e84b1" fill-rule="evenodd"/>
      <polygon points="150 758 120 758 90 758 60 758 30 758 30 788 30 818 30 848 60 848 90 848 120 848 150 848 150 878 120 878 90 878 60 878 30 878 30 908 30 938 30 968 60 968 90 968 120 968 150 968 150 938 120 938 120 908 150 908 180 908 180 878 180 848 180 818 180 788 180 758 150 758" fill="#636756" fill-rule="evenodd"/>
      <polygon points="870 518 840 518 810 518 780 518 750 518 750 548 750 578 750 608 750 638 780 638 780 668 780 698 780 728 810 728 840 728 870 728 870 698 870 668 870 638 900 638 900 608 900 578 900 548 900 518 870 518" fill="#3e2c41" fill-rule="evenodd"/>
      <path d="M510,518H390V728h90V698h30v30h30V518Zm0,90v60H480V578h30Z" fill="#6e84b1" fill-rule="evenodd"/>
      <path d="M330,518H210V698H330v30h30V518Zm0,90v60H300V578h30Z" fill="#636756" fill-rule="evenodd"/>
      <path d="M150,518H30V728h90V698h60V518Zm0,90v60H120V578h30Z" fill="#636756" fill-rule="evenodd"/>
      <polygon points="870 278 840 278 810 278 810 308 810 338 810 368 810 398 840 398 870 398 870 428 870 458 840 458 840 428 810 428 780 428 750 428 750 458 750 488 780 488 810 488 840 488 870 488 900 488 900 458 900 428 900 398 900 368 900 338 900 308 900 278 870 278" fill="#3e2c41" fill-rule="evenodd"/>
      <polygon points="700 278 670 278 640 278 610 278 580 278 580 308 580 338 580 368 580 398 610 398 610 428 610 458 580 458 580 488 610 488 640 488 670 488 700 488 730 488 730 458 700 458 700 428 700 398 730 398 730 368 730 338 730 308 730 278 700 278" fill="#3e2c41" fill-rule="evenodd"/>
      <polygon points="510 278 510 308 510 338 510 368 510 398 480 398 480 368 480 338 480 308 480 278 450 278 420 278 390 278 390 308 390 338 390 368 390 398 390 428 390 458 390 488 420 488 450 488 480 488 480 458 510 458 510 488 540 488 540 458 540 428 540 398 540 368 540 338 540 308 540 278 510 278" fill="#6e84b1" fill-rule="evenodd"/>
      <path d="M330,278H210V428H330v30H270v30h90V278Zm0,90v30H300V338h30Z" fill="#636756" fill-rule="evenodd"/>
      <g>
        <rect x="241.6" y="29" width="6" height="2" fill="#3e2c41"/>
        <rect x="241.6" y="29" width="6" height="2" fill="none" stroke="#261c2c" stroke-miterlimit="10" stroke-width="2"/>
      </g>
      <polygon points="150 278 120 278 90 278 60 278 30 278 30 308 30 338 30 368 30 398 30 428 30 458 30 488 60 488 90 488 120 488 120 458 150 458 150 428 120 428 120 398 120 368 120 338 150 338 150 368 150 398 180 398 180 368 180 338 180 308 180 278 150 278" fill="#636756" fill-rule="evenodd"/>
      <g>
        <path d="M870,30H750V180H870v30H810v30h90V30Zm0,120H810V120h60Z" fill="#3e2c41" fill-rule="evenodd"/>
        <path d="M700,30H580V240H730V30Zm0,180H640V180h60Zm0-60H640V120h60Z" fill="#3e2c41" fill-rule="evenodd"/>
        <polygon points="510 30 480 30 450 30 420 30 390 30 390 60 390 90 390 120 420 120 450 120 480 120 510 120 510 150 510 180 510 210 510 240 540 240 540 210 540 180 540 150 540 120 540 90 540 60 540 30 510 30" fill="#6e84b1" fill-rule="evenodd"/>
        <path d="M330,30H210V240H360V150H270V120h90V30ZM300,180h30v30H270V180Z" fill="#636756" fill-rule="evenodd"/>
        <polygon points="150 30 120 30 90 30 60 30 30 30 30 60 30 90 30 120 30 150 30 180 60 180 90 180 120 180 150 180 150 210 120 210 90 210 90 240 120 240 150 240 180 240 180 210 180 180 180 150 150 150 120 150 90 150 90 120 120 120 150 120 180 120 180 90 180 60 180 30 150 30" fill="#636756" fill-rule="evenodd"/>
      </g>
    </g>
  </g>
</svg>
