<svg xmlns="http://www.w3.org/2000/svg" viewBox="0 0 930 990">
  <title>grapelr35alpha-db</title>
  <g style="isolation: isolate">
    <g id="Layer_1" data-name="Layer 1">
      <rect x="1" y="1" width="928" height="988" fill="#344465"/>
      <g style="mix-blend-mode: overlay">
        <polygon points="340 768 340 798 340 828 340 858 340 888 340 918 310 918 310 888 310 858 310 828 310 798 310 768 280 768 250 768 220 768 220 798 220 828 220 858 250 858 250 888 250 918 250 948 250 978 280 978 310 978 340 978 370 978 370 948 370 918 370 888 370 858 370 828 370 798 370 768 340 768" fill="#261c2c" fill-rule="evenodd"/>
        <polygon points="160 768 160 798 160 828 160 858 160 888 160 918 130 918 130 888 130 858 130 828 130 798 130 768 100 768 70 768 40 768 40 798 40 828 40 858 40 888 40 918 40 948 40 978 70 978 100 978 130 978 160 978 190 978 190 948 190 918 190 888 190 858 190 828 190 798 190 768 160 768" fill="#261c2c" fill-rule="evenodd"/>
        <polygon points="880 768 880 798 880 828 880 858 880 888 850 888 850 858 850 828 850 798 850 768 820 768 790 768 760 768 760 798 760 828 760 858 760 888 760 918 790 918 820 918 850 918 880 918 880 948 850 948 820 948 820 978 850 978 880 978 910 978 910 948 910 918 910 888 910 858 910 828 910 798 910 768 880 768" fill="#261c2c" fill-rule="evenodd"/>
        <polygon points="700 768 670 768 670 798 670 828 670 858 670 888 640 888 640 858 640 828 640 798 640 768 610 768 580 768 580 798 580 828 580 858 580 888 580 918 610 918 610 948 580 948 580 978 610 978 640 978 640 948 670 948 670 978 700 978 730 978 730 948 700 948 700 918 730 918 730 888 730 858 730 828 730 798 730 768 700 768" fill="#261c2c" fill-rule="evenodd"/>
        <polygon points="520 768 520 798 520 828 520 858 520 888 520 918 490 918 490 888 490 858 490 828 490 798 490 768 460 768 460 798 460 828 460 858 460 888 460 918 430 918 430 888 430 858 430 828 430 798 430 768 400 768 400 798 400 828 400 858 400 888 400 918 400 948 400 978 430 978 460 978 460 948 490 948 490 978 520 978 550 978 550 948 550 918 550 888 550 858 550 828 550 798 550 768 520 768" fill="#261c2c" fill-rule="evenodd"/>
        <polygon points="340 678 340 708 310 708 310 678 310 648 310 618 310 588 310 558 310 528 280 528 250 528 220 528 220 558 220 588 220 618 220 648 220 678 220 708 220 738 250 738 280 738 310 738 340 738 370 738 370 708 370 678 340 678" fill="#261c2c" fill-rule="evenodd"/>
        <polygon points="160 528 160 558 160 588 160 618 130 618 130 588 130 558 130 528 100 528 70 528 40 528 40 558 40 588 40 618 40 648 40 678 40 708 40 738 70 738 100 738 130 738 130 708 160 708 160 738 190 738 190 708 190 678 160 678 160 648 190 648 190 618 190 588 190 558 190 528 160 528" fill="#261c2c" fill-rule="evenodd"/>
        <path d="M880,528H760V738H910V528Zm0,90v90H850V588h30Z" fill="#261c2c" fill-rule="evenodd"/>
        <polygon points="520 528 490 528 490 558 490 588 490 618 490 648 460 648 460 618 460 588 460 558 460 528 430 528 400 528 400 558 400 588 400 618 400 648 400 678 400 708 400 738 430 738 430 708 460 708 460 738 490 738 490 708 520 708 520 738 550 738 550 708 550 678 550 648 550 618 550 588 550 558 550 528 520 528" fill="#261c2c" fill-rule="evenodd"/>
        <path d="M340,378H310V288H220V498H370V378Zm0,60v30H310V408h30Z" fill="#261c2c" fill-rule="evenodd"/>
        <path d="M160,288H70v60h90v30H40V498H190V288Zm0,150v30H130V408h30Z" fill="#261c2c" fill-rule="evenodd"/>
        <path d="M880,288H760V498H880V468H850V438h60V288Zm0,90v30H850V348h30Z" fill="#261c2c" fill-rule="evenodd"/>
        <path d="M700,288v90H580V498H730V288Zm0,150v30H670V408h30Z" fill="#261c2c" fill-rule="evenodd"/>
        <polygon points="520 288 490 288 460 288 430 288 400 288 400 318 400 348 400 378 400 408 400 438 400 468 400 498 430 498 460 498 490 498 520 498 550 498 550 468 550 438 520 438 520 468 490 468 490 438 490 408 490 378 520 378 520 408 550 408 550 378 550 348 550 318 550 288 520 288" fill="#261c2c" fill-rule="evenodd"/>
        <polygon points="880 40 880 70 880 100 880 130 880 160 850 160 850 130 850 100 850 70 850 40 820 40 790 40 760 40 760 70 760 100 760 130 760 160 760 190 790 190 820 190 850 190 880 190 880 220 880 250 910 250 910 220 910 190 910 160 910 130 910 100 910 70 910 40 880 40" fill="#261c2c" fill-rule="evenodd"/>
        <polygon points="700 40 670 40 640 40 610 40 580 40 580 70 580 100 580 130 610 130 640 130 670 130 700 130 700 160 670 160 640 160 610 160 580 160 580 190 610 190 640 190 670 190 700 190 700 220 670 220 640 220 640 250 670 250 700 250 730 250 730 220 730 190 730 160 730 130 730 100 730 70 730 40 700 40" fill="#261c2c" fill-rule="evenodd"/>
        <polygon points="520 40 490 40 460 40 430 40 400 40 400 70 400 100 400 130 430 130 460 130 490 130 520 130 520 160 490 160 460 160 430 160 400 160 400 190 400 220 400 250 430 250 460 250 490 250 520 250 520 220 490 220 460 220 460 190 490 190 520 190 550 190 550 160 550 130 550 100 550 70 550 40 520 40" fill="#261c2c" fill-rule="evenodd"/>
        <polygon points="340 220 340 190 340 160 340 130 340 100 340 70 340 40 310 40 280 40 250 40 250 70 250 100 250 130 280 130 280 160 280 190 280 220 250 220 250 250 280 250 310 250 340 250 370 250 370 220 340 220" fill="#261c2c" fill-rule="evenodd"/>
        <path d="M160,40H40V250H190V40Zm0,120v60H130V130h30Z" fill="#261c2c" fill-rule="evenodd"/>
      </g>
      <g style="mix-blend-mode: overlay">
        <polygon points="700 528 700 558 700 588 700 618 700 648 700 678 670 678 670 648 670 618 670 588 670 558 670 528 640 528 610 528 580 528 580 558 580 588 580 618 580 648 580 678 580 708 580 738 610 738 610 708 640 708 640 738 670 738 700 738 730 738 730 708 730 678 730 648 730 618 730 588 730 558 730 528 700 528" fill="#261c2c" fill-rule="evenodd"/>
      </g>
      <polygon points="690 518 690 548 690 578 690 608 690 638 690 668 660 668 660 638 660 608 660 578 660 548 660 518 630 518 600 518 570 518 570 548 570 578 570 608 570 638 570 668 570 698 570 728 600 728 600 698 630 698 630 728 660 728 690 728 720 728 720 698 720 668 720 638 720 608 720 578 720 548 720 518 690 518" fill="#6e84b1" fill-rule="evenodd"/>
      <polygon points="330 758 330 788 330 818 330 848 330 878 330 908 300 908 300 878 300 848 300 818 300 788 300 758 270 758 240 758 210 758 210 788 210 818 210 848 240 848 240 878 240 908 240 938 240 968 270 968 300 968 330 968 360 968 360 938 360 908 360 878 360 848 360 818 360 788 360 758 330 758" fill="#3e2c41" fill-rule="evenodd"/>
      <polygon points="150 758 150 788 150 818 150 848 150 878 150 908 120 908 120 878 120 848 120 818 120 788 120 758 90 758 60 758 30 758 30 788 30 818 30 848 30 878 30 908 30 938 30 968 60 968 90 968 120 968 150 968 180 968 180 938 180 908 180 878 180 848 180 818 180 788 180 758 150 758" fill="#3e2c41" fill-rule="evenodd"/>
      <polygon points="870 758 870 788 870 818 870 848 870 878 840 878 840 848 840 818 840 788 840 758 810 758 780 758 750 758 750 788 750 818 750 848 750 878 750 908 780 908 810 908 840 908 870 908 870 938 840 938 810 938 810 968 840 968 870 968 900 968 900 938 900 908 900 878 900 848 900 818 900 788 900 758 870 758" fill="#6e84b1" fill-rule="evenodd"/>
      <polygon points="690 758 660 758 660 788 660 818 660 848 660 878 630 878 630 848 630 818 630 788 630 758 600 758 570 758 570 788 570 818 570 848 570 878 570 908 600 908 600 938 570 938 570 968 600 968 630 968 630 938 660 938 660 968 690 968 720 968 720 938 690 938 690 908 720 908 720 878 720 848 720 818 720 788 720 758 690 758" fill="#6e84b1" fill-rule="evenodd"/>
      <polygon points="510 758 510 788 510 818 510 848 510 878 510 908 480 908 480 878 480 848 480 818 480 788 480 758 450 758 450 788 450 818 450 848 450 878 450 908 420 908 420 878 420 848 420 818 420 788 420 758 390 758 390 788 390 818 390 848 390 878 390 908 390 938 390 968 420 968 450 968 450 938 480 938 480 968 510 968 540 968 540 938 540 908 540 878 540 848 540 818 540 788 540 758 510 758" fill="#636756" fill-rule="evenodd"/>
      <polygon points="330 668 330 698 300 698 300 668 300 638 300 608 300 578 300 548 300 518 270 518 240 518 210 518 210 548 210 578 210 608 210 638 210 668 210 698 210 728 240 728 270 728 300 728 330 728 360 728 360 698 360 668 330 668" fill="#3e2c41" fill-rule="evenodd"/>
      <polygon points="150 518 150 548 150 578 150 608 120 608 120 578 120 548 120 518 90 518 60 518 30 518 30 548 30 578 30 608 30 638 30 668 30 698 30 728 60 728 90 728 120 728 120 698 150 698 150 728 180 728 180 698 180 668 150 668 150 638 180 638 180 608 180 578 180 548 180 518 150 518" fill="#3e2c41" fill-rule="evenodd"/>
      <path d="M870,518H750V728H900V518Zm0,90v90H840V578h30Z" fill="#6e84b1" fill-rule="evenodd"/>
      <polygon points="510 518 480 518 480 548 480 578 480 608 480 638 450 638 450 608 450 578 450 548 450 518 420 518 390 518 390 548 390 578 390 608 390 638 390 668 390 698 390 728 420 728 420 698 450 698 450 728 480 728 480 698 510 698 510 728 540 728 540 698 540 668 540 638 540 608 540 578 540 548 540 518 510 518" fill="#636756" fill-rule="evenodd"/>
      <path d="M330,368H300V278H210V488H360V368Zm0,60v30H300V398h30Z" fill="#636756" fill-rule="evenodd"/>
      <path d="M150,278H60v60h90v30H30V488H180V278Zm0,150v30H120V398h30Z" fill="#3e2c41" fill-rule="evenodd"/>
      <path d="M870,278H750V488H870V458H840V428h60V278Zm0,90v30H840V338h30Z" fill="#6e84b1" fill-rule="evenodd"/>
      <path d="M690,278v90H570V488H720V278Zm0,150v30H660V398h30Z" fill="#6e84b1" fill-rule="evenodd"/>
      <polygon points="510 278 480 278 450 278 420 278 390 278 390 308 390 338 390 368 390 398 390 428 390 458 390 488 420 488 450 488 480 488 510 488 540 488 540 458 540 428 510 428 510 458 480 458 480 428 480 398 480 368 510 368 510 398 540 398 540 368 540 338 540 308 540 278 510 278" fill="#636756" fill-rule="evenodd"/>
      <polygon points="870 30 870 60 870 90 870 120 870 150 840 150 840 120 840 90 840 60 840 30 810 30 780 30 750 30 750 60 750 90 750 120 750 150 750 180 780 180 810 180 840 180 870 180 870 210 870 240 900 240 900 210 900 180 900 150 900 120 900 90 900 60 900 30 870 30" fill="#636756" fill-rule="evenodd"/>
      <polygon points="690 30 660 30 630 30 600 30 570 30 570 60 570 90 570 120 600 120 630 120 660 120 690 120 690 150 660 150 630 150 600 150 570 150 570 180 600 180 630 180 660 180 690 180 690 210 660 210 630 210 630 240 660 240 690 240 720 240 720 210 720 180 720 150 720 120 720 90 720 60 720 30 690 30" fill="#636756" fill-rule="evenodd"/>
      <polygon points="510 30 480 30 450 30 420 30 390 30 390 60 390 90 390 120 420 120 450 120 480 120 510 120 510 150 480 150 450 150 420 150 390 150 390 180 390 210 390 240 420 240 450 240 480 240 510 240 510 210 480 210 450 210 450 180 480 180 510 180 540 180 540 150 540 120 540 90 540 60 540 30 510 30" fill="#636756" fill-rule="evenodd"/>
      <polygon points="330 210 330 180 330 150 330 120 330 90 330 60 330 30 300 30 270 30 240 30 240 60 240 90 240 120 270 120 270 150 270 180 270 210 240 210 240 240 270 240 300 240 330 240 360 240 360 210 330 210" fill="#636756" fill-rule="evenodd"/>
      <path d="M150,30H30V240H180V30Zm0,120v60H120V120h30Z" fill="#3e2c41" fill-rule="evenodd"/>
    </g>
  </g>
</svg>
