<svg xmlns="http://www.w3.org/2000/svg" viewBox="0 0 1020 1020">
  <title>highitelr35alpha-db</title>
  <g style="isolation: isolate">
    <g id="Layer_1" data-name="Layer 1">
      <rect x="1" y="1" width="1018" height="1018" fill="#96aea5"/>
      <g>
        <g>
          <polygon points="744.5 539 744.5 569 744.5 599 744.5 629 744.5 659 744.5 689 714.5 689 714.5 659 714.5 629 714.5 599 714.5 569 714.5 539 684.5 539 654.5 539 624.5 539 624.5 569 624.5 599 624.5 629 624.5 659 624.5 689 624.5 719 624.5 749 654.5 749 654.5 719 684.5 719 684.5 749 714.5 749 744.5 749 774.5 749 774.5 719 774.5 689 774.5 659 774.5 629 774.5 599 774.5 569 774.5 539 744.5 539" fill="#0d1612" fill-rule="evenodd"/>
          <polygon points="384.5 779 384.5 809 384.5 839 384.5 869 384.5 899 384.5 929 354.5 929 354.5 899 354.5 869 354.5 839 354.5 809 354.5 779 324.5 779 294.5 779 264.5 779 264.5 809 264.5 839 264.5 869 294.5 869 294.5 899 294.5 929 294.5 959 294.5 989 324.5 989 354.5 989 384.5 989 414.5 989 414.5 959 414.5 929 414.5 899 414.5 869 414.5 839 414.5 809 414.5 779 384.5 779" fill="#5b796a" fill-rule="evenodd"/>
          <polygon points="204.5 779 204.5 809 204.5 839 204.5 869 204.5 899 204.5 929 174.5 929 174.5 899 174.5 869 174.5 839 174.5 809 174.5 779 144.5 779 114.5 779 84.5 779 84.5 809 84.5 839 84.5 869 84.5 899 84.5 929 84.5 959 84.5 989 114.5 989 144.5 989 174.5 989 204.5 989 234.5 989 234.5 959 234.5 929 234.5 899 234.5 869 234.5 839 234.5 809 234.5 779 204.5 779" fill="#5b796a" fill-rule="evenodd"/>
          <polygon points="924.5 779 924.5 809 924.5 839 924.5 869 924.5 899 894.5 899 894.5 869 894.5 839 894.5 809 894.5 779 864.5 779 834.5 779 804.5 779 804.5 809 804.5 839 804.5 869 804.5 899 804.5 929 834.5 929 864.5 929 894.5 929 924.5 929 924.5 959 894.5 959 864.5 959 864.5 989 894.5 989 924.5 989 954.5 989 954.5 959 954.5 929 954.5 899 954.5 869 954.5 839 954.5 809 954.5 779 924.5 779" fill="#0d1612" fill-rule="evenodd"/>
          <polygon points="744.5 779 714.5 779 714.5 809 714.5 839 714.5 869 714.5 899 684.5 899 684.5 869 684.5 839 684.5 809 684.5 779 654.5 779 624.5 779 624.5 809 624.5 839 624.5 869 624.5 899 624.5 929 654.5 929 654.5 959 624.5 959 624.5 989 654.5 989 684.5 989 684.5 959 714.5 959 714.5 989 744.5 989 774.5 989 774.5 959 744.5 959 744.5 929 774.5 929 774.5 899 774.5 869 774.5 839 774.5 809 774.5 779 744.5 779" fill="#0d1612" fill-rule="evenodd"/>
          <polygon points="564.5 779 564.5 809 564.5 839 564.5 869 564.5 899 564.5 929 534.5 929 534.5 899 534.5 869 534.5 839 534.5 809 534.5 779 504.5 779 504.5 809 504.5 839 504.5 869 504.5 899 504.5 929 474.5 929 474.5 899 474.5 869 474.5 839 474.5 809 474.5 779 444.5 779 444.5 809 444.5 839 444.5 869 444.5 899 444.5 929 444.5 959 444.5 989 474.5 989 504.5 989 504.5 959 534.5 959 534.5 989 564.5 989 594.5 989 594.5 959 594.5 929 594.5 899 594.5 869 594.5 839 594.5 809 594.5 779 564.5 779" fill="#0d1612" fill-rule="evenodd"/>
          <polygon points="384.5 689 384.5 719 354.5 719 354.5 689 354.5 659 354.5 629 354.5 599 354.5 569 354.5 539 324.5 539 294.5 539 264.5 539 264.5 569 264.5 599 264.5 629 264.5 659 264.5 689 264.5 719 264.5 749 294.5 749 324.5 749 354.5 749 384.5 749 414.5 749 414.5 719 414.5 689 384.5 689" fill="#0d1612" fill-rule="evenodd"/>
          <polygon points="204.5 539 204.5 569 204.5 599 204.5 629 174.5 629 174.5 599 174.5 569 174.5 539 144.5 539 114.5 539 84.5 539 84.5 569 84.5 599 84.5 629 84.5 659 84.5 689 84.5 719 84.5 749 114.5 749 144.5 749 174.5 749 174.5 719 204.5 719 204.5 749 234.5 749 234.5 719 234.5 689 204.5 689 204.5 659 234.5 659 234.5 629 234.5 599 234.5 569 234.5 539 204.5 539" fill="#5b796a" fill-rule="evenodd"/>
          <path d="M924.5,539h-120V749h150V539Zm0,90v90h-30V599h30Z" fill="#0d1612" fill-rule="evenodd"/>
          <polygon points="564.5 539 534.5 539 534.5 569 534.5 599 534.5 629 534.5 659 504.5 659 504.5 629 504.5 599 504.5 569 504.5 539 474.5 539 444.5 539 444.5 569 444.5 599 444.5 629 444.5 659 444.5 689 444.5 719 444.5 749 474.5 749 474.5 719 504.5 719 504.5 749 534.5 749 534.5 719 564.5 719 564.5 749 594.5 749 594.5 719 594.5 689 594.5 659 594.5 629 594.5 599 594.5 569 594.5 539 564.5 539" fill="#0d1612" fill-rule="evenodd"/>
          <path d="M384.5,389h-30V299h-90V509h150V389Zm0,60v30h-30V419h30Z" fill="#0d1612" fill-rule="evenodd"/>
          <path d="M204.5,299h-90v60h90v30H84.5V509h150V299Zm0,150v30h-30V419h30Z" fill="#0d1612" fill-rule="evenodd"/>
          <path d="M924.5,299h-120V509h120V479h-30V449h60V299Zm0,90v30h-30V359h30Z" fill="#0d1612" fill-rule="evenodd"/>
          <path d="M744.5,299v90h-120V509h150V299Zm0,150v30h-30V419h30Z" fill="#0d1612" fill-rule="evenodd"/>
          <polygon points="564.5 299 534.5 299 504.5 299 474.5 299 444.5 299 444.5 329 444.5 359 444.5 389 444.5 419 444.5 449 444.5 479 444.5 509 474.5 509 504.5 509 534.5 509 564.5 509 594.5 509 594.5 479 594.5 449 564.5 449 564.5 479 534.5 479 534.5 449 534.5 419 534.5 389 564.5 389 564.5 419 594.5 419 594.5 389 594.5 359 594.5 329 594.5 299 564.5 299" fill="#0d1612" fill-rule="evenodd"/>
          <polygon points="924.5 51 924.5 81 924.5 111 924.5 141 924.5 171 894.5 171 894.5 141 894.5 111 894.5 81 894.5 51 864.5 51 834.5 51 804.5 51 804.5 81 804.5 111 804.5 141 804.5 171 804.5 201 834.5 201 864.5 201 894.5 201 924.5 201 924.5 231 924.5 261 954.5 261 954.5 231 954.5 201 954.5 171 954.5 141 954.5 111 954.5 81 954.5 51 924.5 51" fill="#0d1612" fill-rule="evenodd"/>
          <polygon points="744.5 51 714.5 51 684.5 51 654.5 51 624.5 51 624.5 81 624.5 111 624.5 141 654.5 141 684.5 141 714.5 141 744.5 141 744.5 171 714.5 171 684.5 171 654.5 171 624.5 171 624.5 201 654.5 201 684.5 201 714.5 201 744.5 201 744.5 231 714.5 231 684.5 231 684.5 261 714.5 261 744.5 261 774.5 261 774.5 231 774.5 201 774.5 171 774.5 141 774.5 111 774.5 81 774.5 51 744.5 51" fill="#0d1612" fill-rule="evenodd"/>
          <polygon points="564.5 51 534.5 51 504.5 51 474.5 51 444.5 51 444.5 81 444.5 111 444.5 141 474.5 141 504.5 141 534.5 141 564.5 141 564.5 171 534.5 171 504.5 171 474.5 171 444.5 171 444.5 201 444.5 231 444.5 261 474.5 261 504.5 261 534.5 261 564.5 261 564.5 231 534.5 231 504.5 231 504.5 201 534.5 201 564.5 201 594.5 201 594.5 171 594.5 141 594.5 111 594.5 81 594.5 51 564.5 51" fill="#0d1612" fill-rule="evenodd"/>
          <polygon points="384.5 231 384.5 201 384.5 171 384.5 141 384.5 111 384.5 81 384.5 51 354.5 51 324.5 51 294.5 51 294.5 81 294.5 111 294.5 141 324.5 141 324.5 171 324.5 201 324.5 231 294.5 231 294.5 261 324.5 261 354.5 261 384.5 261 414.5 261 414.5 231 384.5 231" fill="#0d1612" fill-rule="evenodd"/>
          <path d="M204.5,51H84.5V261h150V51Zm0,120v60h-30V141h30Z" fill="#0d1612" fill-rule="evenodd"/>
        </g>
        <polygon points="734.5 529 734.5 559 734.5 589 734.5 619 734.5 649 734.5 679 704.5 679 704.5 649 704.5 619 704.5 589 704.5 559 704.5 529 674.5 529 644.5 529 614.5 529 614.5 559 614.5 589 614.5 619 614.5 649 614.5 679 614.5 709 614.5 739 644.5 739 644.5 709 674.5 709 674.5 739 704.5 739 734.5 739 764.5 739 764.5 709 764.5 679 764.5 649 764.5 619 764.5 589 764.5 559 764.5 529 734.5 529" fill="#92271f" fill-rule="evenodd"/>
        <polygon points="374.5 769 374.5 799 374.5 829 374.5 859 374.5 889 374.5 919 344.5 919 344.5 889 344.5 859 344.5 829 344.5 799 344.5 769 314.5 769 284.5 769 254.5 769 254.5 799 254.5 829 254.5 859 284.5 859 284.5 889 284.5 919 284.5 949 284.5 979 314.5 979 344.5 979 374.5 979 404.5 979 404.5 949 404.5 919 404.5 889 404.5 859 404.5 829 404.5 799 404.5 769 374.5 769" fill="#0d1612" fill-rule="evenodd"/>
        <polygon points="194.5 769 194.5 799 194.5 829 194.5 859 194.5 889 194.5 919 164.5 919 164.5 889 164.5 859 164.5 829 164.5 799 164.5 769 134.5 769 104.5 769 74.5 769 74.5 799 74.5 829 74.5 859 74.5 889 74.5 919 74.5 949 74.5 979 104.5 979 134.5 979 164.5 979 194.5 979 224.5 979 224.5 949 224.5 919 224.5 889 224.5 859 224.5 829 224.5 799 224.5 769 194.5 769" fill="#0d1612" fill-rule="evenodd"/>
        <polygon points="914.5 769 914.5 799 914.5 829 914.5 859 914.5 889 884.5 889 884.5 859 884.5 829 884.5 799 884.5 769 854.5 769 824.5 769 794.5 769 794.5 799 794.5 829 794.5 859 794.5 889 794.5 919 824.5 919 854.5 919 884.5 919 914.5 919 914.5 949 884.5 949 854.5 949 854.5 979 884.5 979 914.5 979 944.5 979 944.5 949 944.5 919 944.5 889 944.5 859 944.5 829 944.5 799 944.5 769 914.5 769" fill="#176f78" fill-rule="evenodd"/>
        <polygon points="734.5 769 704.5 769 704.5 799 704.5 829 704.5 859 704.5 889 674.5 889 674.5 859 674.5 829 674.5 799 674.5 769 644.5 769 614.5 769 614.5 799 614.5 829 614.5 859 614.5 889 614.5 919 644.5 919 644.5 949 614.5 949 614.5 979 644.5 979 674.5 979 674.5 949 704.5 949 704.5 979 734.5 979 764.5 979 764.5 949 734.5 949 734.5 919 764.5 919 764.5 889 764.5 859 764.5 829 764.5 799 764.5 769 734.5 769" fill="#92271f" fill-rule="evenodd"/>
        <polygon points="554.5 769 554.5 799 554.5 829 554.5 859 554.5 889 554.5 919 524.5 919 524.5 889 524.5 859 524.5 829 524.5 799 524.5 769 494.5 769 494.5 799 494.5 829 494.5 859 494.5 889 494.5 919 464.5 919 464.5 889 464.5 859 464.5 829 464.5 799 464.5 769 434.5 769 434.5 799 434.5 829 434.5 859 434.5 889 434.5 919 434.5 949 434.5 979 464.5 979 494.5 979 494.5 949 524.5 949 524.5 979 554.5 979 584.5 979 584.5 949 584.5 919 584.5 889 584.5 859 584.5 829 584.5 799 584.5 769 554.5 769" fill="#92271f" fill-rule="evenodd"/>
        <polygon points="374.5 679 374.5 709 344.5 709 344.5 679 344.5 649 344.5 619 344.5 589 344.5 559 344.5 529 314.5 529 284.5 529 254.5 529 254.5 559 254.5 589 254.5 619 254.5 649 254.5 679 254.5 709 254.5 739 284.5 739 314.5 739 344.5 739 374.5 739 404.5 739 404.5 709 404.5 679 374.5 679" fill="#92271f" fill-rule="evenodd"/>
        <polygon points="194.5 529 194.5 559 194.5 589 194.5 619 164.5 619 164.5 589 164.5 559 164.5 529 134.5 529 104.5 529 74.5 529 74.5 559 74.5 589 74.5 619 74.5 649 74.5 679 74.5 709 74.5 739 104.5 739 134.5 739 164.5 739 164.5 709 194.5 709 194.5 739 224.5 739 224.5 709 224.5 679 194.5 679 194.5 649 224.5 649 224.5 619 224.5 589 224.5 559 224.5 529 194.5 529" fill="#0d1612" fill-rule="evenodd"/>
        <path d="M914.5,529h-120V739h150V529Zm0,90v90h-30V589h30Z" fill="#176f78" fill-rule="evenodd"/>
        <polygon points="554.5 529 524.5 529 524.5 559 524.5 589 524.5 619 524.5 649 494.5 649 494.5 619 494.5 589 494.5 559 494.5 529 464.5 529 434.5 529 434.5 559 434.5 589 434.5 619 434.5 649 434.5 679 434.5 709 434.5 739 464.5 739 464.5 709 494.5 709 494.5 739 524.5 739 524.5 709 554.5 709 554.5 739 584.5 739 584.5 709 584.5 679 584.5 649 584.5 619 584.5 589 584.5 559 584.5 529 554.5 529" fill="#92271f" fill-rule="evenodd"/>
        <path d="M374.5,379h-30V289h-90V499h150V379Zm0,60v30h-30V409h30Z" fill="#92271f" fill-rule="evenodd"/>
        <path d="M194.5,289h-90v60h90v30H74.5V499h150V289Zm0,150v30h-30V409h30Z" fill="#92271f" fill-rule="evenodd"/>
        <path d="M914.5,289h-120V499h120V469h-30V439h60V289Zm0,90v30h-30V349h30Z" fill="#176f78" fill-rule="evenodd"/>
        <path d="M734.5,289v90h-120V499h150V289Zm0,150v30h-30V409h30Z" fill="#176f78" fill-rule="evenodd"/>
        <polygon points="554.5 289 524.5 289 494.5 289 464.5 289 434.5 289 434.5 319 434.5 349 434.5 379 434.5 409 434.5 439 434.5 469 434.5 499 464.5 499 494.5 499 524.5 499 554.5 499 584.5 499 584.5 469 584.5 439 554.5 439 554.5 469 524.5 469 524.5 439 524.5 409 524.5 379 554.5 379 554.5 409 584.5 409 584.5 379 584.5 349 584.5 319 584.5 289 554.5 289" fill="#176f78" fill-rule="evenodd"/>
        <polygon points="914.5 41 914.5 71 914.5 101 914.5 131 914.5 161 884.5 161 884.5 131 884.5 101 884.5 71 884.5 41 854.5 41 824.5 41 794.5 41 794.5 71 794.5 101 794.5 131 794.5 161 794.5 191 824.5 191 854.5 191 884.5 191 914.5 191 914.5 221 914.5 251 944.5 251 944.5 221 944.5 191 944.5 161 944.5 131 944.5 101 944.5 71 944.5 41 914.5 41" fill="#176f78" fill-rule="evenodd"/>
        <polygon points="734.5 41 704.5 41 674.5 41 644.5 41 614.5 41 614.5 71 614.5 101 614.5 131 644.5 131 674.5 131 704.5 131 734.5 131 734.5 161 704.5 161 674.5 161 644.5 161 614.5 161 614.5 191 644.5 191 674.5 191 704.5 191 734.5 191 734.5 221 704.5 221 674.5 221 674.5 251 704.5 251 734.5 251 764.5 251 764.5 221 764.5 191 764.5 161 764.5 131 764.5 101 764.5 71 764.5 41 734.5 41" fill="#176f78" fill-rule="evenodd"/>
        <polygon points="554.5 41 524.5 41 494.5 41 464.5 41 434.5 41 434.5 71 434.5 101 434.5 131 464.5 131 494.5 131 524.5 131 554.5 131 554.5 161 524.5 161 494.5 161 464.5 161 434.5 161 434.5 191 434.5 221 434.5 251 464.5 251 494.5 251 524.5 251 554.5 251 554.5 221 524.5 221 494.5 221 494.5 191 524.5 191 554.5 191 584.5 191 584.5 161 584.5 131 584.5 101 584.5 71 584.5 41 554.5 41" fill="#176f78" fill-rule="evenodd"/>
        <polygon points="374.5 221 374.5 191 374.5 161 374.5 131 374.5 101 374.5 71 374.5 41 344.5 41 314.5 41 284.5 41 284.5 71 284.5 101 284.5 131 314.5 131 314.5 161 314.5 191 314.5 221 284.5 221 284.5 251 314.5 251 344.5 251 374.5 251 404.5 251 404.5 221 374.5 221" fill="#92271f" fill-rule="evenodd"/>
        <path d="M194.5,41H74.5V251h150V41Zm0,120v60h-30V131h30Z" fill="#92271f" fill-rule="evenodd"/>
        <g style="mix-blend-mode: overlay">
          <polygon points="615.5 889 615.5 859 615.5 829 615.5 799 615.5 769 645.5 769 665.5 769 665.5 759 635.5 759 605.5 759 605.5 789 605.5 819 605.5 849 605.5 879 605.5 909 615.5 909 615.5 889" fill="#96aea5"/>
          <polygon points="615.5 709 615.5 679 615.5 649 615.5 619 615.5 589 615.5 559 615.5 529 645.5 529 675.5 529 695.5 529 695.5 519 665.5 519 635.5 519 605.5 519 605.5 549 605.5 579 605.5 609 605.5 639 605.5 669 605.5 699 605.5 729 615.5 729 615.5 709" fill="#96aea5"/>
          <polygon points="435.5 101 435.5 71 435.5 41 465.5 41 495.5 41 525.5 41 555.5 41 575.5 41 575.5 31 545.5 31 515.5 31 485.5 31 455.5 31 425.5 31 425.5 61 425.5 91 425.5 121 435.5 121 435.5 101" fill="#96aea5"/>
          <rect x="665.5" y="709" width="10" height="20" fill="#96aea5"/>
          <rect x="735.5" y="939" width="20" height="10" fill="#96aea5"/>
          <polygon points="725.5 429 725.5 459 705.5 459 705.5 469 735.5 469 735.5 439 735.5 409 725.5 409 725.5 429" fill="#96aea5"/>
          <polygon points="495.5 211 495.5 221 525.5 221 545.5 221 545.5 211 515.5 211 495.5 211" fill="#96aea5"/>
          <polygon points="435.5 469 435.5 439 435.5 409 435.5 379 435.5 349 435.5 319 435.5 289 465.5 289 495.5 289 525.5 289 555.5 289 575.5 289 575.5 279 545.5 279 515.5 279 485.5 279 455.5 279 425.5 279 425.5 309 425.5 339 425.5 369 425.5 399 425.5 429 425.5 459 425.5 489 435.5 489 435.5 469" fill="#96aea5"/>
          <polygon points="545.5 789 545.5 819 545.5 849 545.5 879 545.5 909 525.5 909 525.5 919 555.5 919 555.5 889 555.5 859 555.5 829 555.5 799 555.5 769 575.5 769 575.5 759 545.5 759 545.5 789" fill="#96aea5"/>
          <polygon points="515.5 759 485.5 759 485.5 789 485.5 819 485.5 849 485.5 879 485.5 909 465.5 909 465.5 919 495.5 919 495.5 889 495.5 859 495.5 829 495.5 799 495.5 769 515.5 769 515.5 759" fill="#96aea5"/>
          <rect x="485.5" y="709" width="10" height="20" fill="#96aea5"/>
          <polygon points="435.5 221 435.5 191 435.5 161 465.5 161 495.5 161 525.5 161 555.5 161 555.5 131 545.5 131 545.5 151 515.5 151 485.5 151 455.5 151 425.5 151 425.5 181 425.5 211 425.5 241 435.5 241 435.5 221" fill="#96aea5"/>
          <polygon points="515.5 519 515.5 549 515.5 579 515.5 609 515.5 639 495.5 639 495.5 649 525.5 649 525.5 619 525.5 589 525.5 559 525.5 529 555.5 529 575.5 529 575.5 519 545.5 519 515.5 519" fill="#96aea5"/>
          <polygon points="695.5 759 695.5 789 695.5 819 695.5 849 695.5 879 675.5 879 675.5 889 705.5 889 705.5 859 705.5 829 705.5 799 705.5 769 735.5 769 755.5 769 755.5 759 725.5 759 695.5 759" fill="#96aea5"/>
          <polygon points="545.5 459 525.5 459 525.5 469 555.5 469 555.5 439 575.5 439 575.5 429 545.5 429 545.5 459" fill="#96aea5"/>
          <polygon points="915.5 221 915.5 191 905.5 191 905.5 211 905.5 241 915.5 241 915.5 221" fill="#96aea5"/>
          <polygon points="795.5 709 795.5 679 795.5 649 795.5 619 795.5 589 795.5 559 795.5 529 825.5 529 855.5 529 885.5 529 915.5 529 935.5 529 935.5 519 905.5 519 875.5 519 845.5 519 815.5 519 785.5 519 785.5 549 785.5 579 785.5 609 785.5 639 785.5 669 785.5 699 785.5 729 795.5 729 795.5 709" fill="#96aea5"/>
          <polygon points="905.5 369 905.5 399 885.5 399 885.5 409 915.5 409 915.5 379 915.5 349 905.5 349 905.5 369" fill="#96aea5"/>
          <rect x="885.5" y="459" width="20" height="10" fill="#96aea5"/>
          <rect x="545.5" y="709" width="10" height="20" fill="#96aea5"/>
          <polygon points="885.5 161 915.5 161 915.5 131 915.5 101 915.5 71 915.5 41 935.5 41 935.5 31 905.5 31 905.5 61 905.5 91 905.5 121 905.5 151 885.5 151 885.5 161" fill="#96aea5"/>
          <polygon points="795.5 469 795.5 439 795.5 409 795.5 379 795.5 349 795.5 319 795.5 289 825.5 289 855.5 289 885.5 289 915.5 289 935.5 289 935.5 279 905.5 279 875.5 279 845.5 279 815.5 279 785.5 279 785.5 309 785.5 339 785.5 369 785.5 399 785.5 429 785.5 459 785.5 489 795.5 489 795.5 469" fill="#96aea5"/>
          <polygon points="795.5 161 795.5 131 795.5 101 795.5 71 795.5 41 825.5 41 855.5 41 875.5 41 875.5 31 845.5 31 815.5 31 785.5 31 785.5 61 785.5 91 785.5 121 785.5 151 785.5 181 795.5 181 795.5 161" fill="#96aea5"/>
          <polygon points="615.5 101 615.5 71 615.5 41 645.5 41 675.5 41 705.5 41 735.5 41 755.5 41 755.5 31 725.5 31 695.5 31 665.5 31 635.5 31 605.5 31 605.5 61 605.5 91 605.5 121 615.5 121 615.5 101" fill="#96aea5"/>
          <polygon points="615.5 161 645.5 161 675.5 161 705.5 161 735.5 161 735.5 131 725.5 131 725.5 151 695.5 151 665.5 151 635.5 151 605.5 151 605.5 181 615.5 181 615.5 161" fill="#96aea5"/>
          <polygon points="615.5 469 615.5 439 615.5 409 615.5 379 645.5 379 675.5 379 705.5 379 735.5 379 735.5 349 735.5 319 735.5 289 755.5 289 755.5 279 725.5 279 725.5 309 725.5 339 725.5 369 695.5 369 665.5 369 635.5 369 605.5 369 605.5 399 605.5 429 605.5 459 605.5 489 615.5 489 615.5 469" fill="#96aea5"/>
          <polygon points="675.5 221 705.5 221 735.5 221 735.5 191 725.5 191 725.5 211 695.5 211 665.5 211 665.5 241 675.5 241 675.5 221" fill="#96aea5"/>
          <polygon points="725.5 549 725.5 579 725.5 609 725.5 639 725.5 669 705.5 669 705.5 679 735.5 679 735.5 649 735.5 619 735.5 589 735.5 559 735.5 529 755.5 529 755.5 519 725.5 519 725.5 549" fill="#96aea5"/>
          <polygon points="905.5 609 905.5 639 905.5 669 905.5 699 885.5 699 885.5 709 915.5 709 915.5 679 915.5 649 915.5 619 915.5 589 905.5 589 905.5 609" fill="#96aea5"/>
          <polygon points="905.5 789 905.5 819 905.5 849 905.5 879 885.5 879 885.5 889 915.5 889 915.5 859 915.5 829 915.5 799 915.5 769 935.5 769 935.5 759 905.5 759 905.5 789" fill="#96aea5"/>
          <polygon points="435.5 949 435.5 919 435.5 889 435.5 859 435.5 829 435.5 799 435.5 769 455.5 769 455.5 759 425.5 759 425.5 789 425.5 819 425.5 849 425.5 879 425.5 909 425.5 939 425.5 969 435.5 969 435.5 949" fill="#96aea5"/>
          <polygon points="75.5 469 75.5 439 75.5 409 75.5 379 105.5 379 135.5 379 165.5 379 195.5 379 195.5 349 185.5 349 185.5 369 155.5 369 125.5 369 95.5 369 65.5 369 65.5 399 65.5 429 65.5 459 65.5 489 75.5 489 75.5 469" fill="#96aea5"/>
          <polygon points="185.5 789 185.5 819 185.5 849 185.5 879 185.5 909 165.5 909 165.5 919 195.5 919 195.5 889 195.5 859 195.5 829 195.5 799 195.5 769 215.5 769 215.5 759 185.5 759 185.5 789" fill="#96aea5"/>
          <rect x="545.5" y="379" width="10" height="20" fill="#96aea5"/>
          <polygon points="185.5 429 185.5 459 165.5 459 165.5 469 195.5 469 195.5 439 195.5 409 185.5 409 185.5 429" fill="#96aea5"/>
          <rect x="185.5" y="709" width="10" height="20" fill="#96aea5"/>
          <polygon points="255.5 829 255.5 799 255.5 769 285.5 769 315.5 769 335.5 769 335.5 759 305.5 759 275.5 759 245.5 759 245.5 789 245.5 819 245.5 849 255.5 849 255.5 829" fill="#96aea5"/>
          <polygon points="185.5 151 185.5 181 185.5 211 165.5 211 165.5 221 195.5 221 195.5 191 195.5 161 195.5 131 185.5 131 185.5 151" fill="#96aea5"/>
          <polygon points="75.5 709 75.5 679 75.5 649 75.5 619 75.5 589 75.5 559 75.5 529 105.5 529 135.5 529 155.5 529 155.5 519 125.5 519 95.5 519 65.5 519 65.5 549 65.5 579 65.5 609 65.5 639 65.5 669 65.5 699 65.5 729 75.5 729 75.5 709" fill="#96aea5"/>
          <polygon points="285.5 949 285.5 919 285.5 889 285.5 859 275.5 859 275.5 879 275.5 909 275.5 939 275.5 969 285.5 969 285.5 949" fill="#96aea5"/>
          <rect x="695.5" y="949" width="10" height="20" fill="#96aea5"/>
          <polygon points="855.5 949 885.5 949 915.5 949 915.5 919 905.5 919 905.5 939 875.5 939 845.5 939 845.5 969 855.5 969 855.5 949" fill="#96aea5"/>
          <polygon points="795.5 889 795.5 859 795.5 829 795.5 799 795.5 769 825.5 769 855.5 769 875.5 769 875.5 759 845.5 759 815.5 759 785.5 759 785.5 789 785.5 819 785.5 849 785.5 879 785.5 909 795.5 909 795.5 889" fill="#96aea5"/>
          <rect x="515.5" y="949" width="10" height="20" fill="#96aea5"/>
          <polygon points="615.5 949 645.5 949 645.5 919 635.5 919 635.5 939 605.5 939 605.5 969 615.5 969 615.5 949" fill="#96aea5"/>
          <polygon points="75.5 949 75.5 919 75.5 889 75.5 859 75.5 829 75.5 799 75.5 769 105.5 769 135.5 769 155.5 769 155.5 759 125.5 759 95.5 759 65.5 759 65.5 789 65.5 819 65.5 849 65.5 879 65.5 909 65.5 939 65.5 969 75.5 969 75.5 949" fill="#96aea5"/>
          <polygon points="365.5 699 345.5 699 345.5 709 375.5 709 375.5 679 395.5 679 395.5 669 365.5 669 365.5 699" fill="#96aea5"/>
          <polygon points="365.5 789 365.5 819 365.5 849 365.5 879 365.5 909 345.5 909 345.5 919 375.5 919 375.5 889 375.5 859 375.5 829 375.5 799 375.5 769 395.5 769 395.5 759 365.5 759 365.5 789" fill="#96aea5"/>
          <polygon points="365.5 429 365.5 459 345.5 459 345.5 469 375.5 469 375.5 439 375.5 409 365.5 409 365.5 429" fill="#96aea5"/>
          <rect x="375.5" y="211" width="20" height="10" fill="#96aea5"/>
          <polygon points="435.5 709 435.5 679 435.5 649 435.5 619 435.5 589 435.5 559 435.5 529 465.5 529 485.5 529 485.5 519 455.5 519 425.5 519 425.5 549 425.5 579 425.5 609 425.5 639 425.5 669 425.5 699 425.5 729 435.5 729 435.5 709" fill="#96aea5"/>
          <polygon points="345.5 369 345.5 379 375.5 379 395.5 379 395.5 369 365.5 369 345.5 369" fill="#96aea5"/>
          <polygon points="285.5 101 285.5 71 285.5 41 315.5 41 345.5 41 365.5 41 365.5 31 335.5 31 305.5 31 275.5 31 275.5 61 275.5 91 275.5 121 285.5 121 285.5 101" fill="#96aea5"/>
          <polygon points="255.5 709 255.5 679 255.5 649 255.5 619 255.5 589 255.5 559 255.5 529 285.5 529 315.5 529 335.5 529 335.5 519 305.5 519 275.5 519 245.5 519 245.5 549 245.5 579 245.5 609 245.5 639 245.5 669 245.5 699 245.5 729 255.5 729 255.5 709" fill="#96aea5"/>
          <polygon points="155.5 279 125.5 279 95.5 279 95.5 309 95.5 339 105.5 339 105.5 319 105.5 289 135.5 289 165.5 289 195.5 289 215.5 289 215.5 279 185.5 279 155.5 279" fill="#96aea5"/>
          <polygon points="285.5 221 315.5 221 315.5 191 315.5 161 315.5 131 305.5 131 305.5 151 305.5 181 305.5 211 275.5 211 275.5 241 285.5 241 285.5 221" fill="#96aea5"/>
          <polygon points="185.5 549 185.5 579 185.5 609 165.5 609 165.5 619 195.5 619 195.5 589 195.5 559 195.5 529 215.5 529 215.5 519 185.5 519 185.5 549" fill="#96aea5"/>
          <polygon points="75.5 221 75.5 191 75.5 161 75.5 131 75.5 101 75.5 71 75.5 41 105.5 41 135.5 41 165.5 41 195.5 41 215.5 41 215.5 31 185.5 31 155.5 31 125.5 31 95.5 31 65.5 31 65.5 61 65.5 91 65.5 121 65.5 151 65.5 181 65.5 211 65.5 241 75.5 241 75.5 221" fill="#96aea5"/>
          <polygon points="255.5 469 255.5 439 255.5 409 255.5 379 255.5 349 255.5 319 255.5 289 285.5 289 315.5 289 335.5 289 335.5 279 305.5 279 275.5 279 245.5 279 245.5 309 245.5 339 245.5 369 245.5 399 245.5 429 245.5 459 245.5 489 255.5 489 255.5 469" fill="#96aea5"/>
          <rect x="195.5" y="669" width="20" height="10" fill="#96aea5"/>
        </g>
      </g>
    </g>
  </g>
</svg>
