<svg xmlns="http://www.w3.org/2000/svg" viewBox="0 0 1020 1020">
  <title>highitelr35alpha-da</title>
  <g style="isolation: isolate">
    <g id="Layer_1" data-name="Layer 1">
      <rect x="1" y="1" width="1018" height="1018" fill="#96aea5"/>
      <g>
        <g>
          <g>
            <polygon points="925 779 895 779 895 809 895 839 925 839 925 869 925 899 955 899 955 869 955 839 955 809 955 779 925 779" fill="#0d1612" fill-rule="evenodd"/>
            <polygon points="805 779 805 809 805 839 835 839 835 869 835 899 865 899 865 869 865 839 865 809 865 779 835 779 805 779" fill="#0d1612" fill-rule="evenodd"/>
          </g>
          <g>
            <polygon points="745 839 745 809 745 779 715 779 715 809 715 839 715 869 715 899 745 899 775 899 775 869 775 839 745 839" fill="#0d1612" fill-rule="evenodd"/>
            <polygon points="655 809 655 779 625 779 625 809 625 839 625 869 625 899 655 899 685 899 685 869 685 839 655 839 655 809" fill="#0d1612" fill-rule="evenodd"/>
          </g>
          <g>
            <polygon points="505 959 475 959 475 989 505 989 535 989 565 989 565 959 535 959 505 959" fill="#0d1612" fill-rule="evenodd"/>
            <polygon points="535 779 505 779 475 779 475 809 475 839 475 869 475 899 475 929 505 929 535 929 565 929 565 899 565 869 565 839 565 809 565 779 535 779" fill="#0d1612" fill-rule="evenodd"/>
          </g>
          <g>
            <polygon points="295 959 295 989 325 989 355 989 355 959 325 959 295 959" fill="#0d1612" fill-rule="evenodd"/>
            <polygon points="385 779 355 779 325 779 295 779 265 779 265 809 265 839 265 869 295 869 325 869 355 869 385 869 385 899 355 899 325 899 295 899 295 929 325 929 355 929 385 929 415 929 415 899 415 869 415 839 415 809 415 779 385 779" fill="#0d1612" fill-rule="evenodd"/>
          </g>
          <polygon points="745 539 715 539 685 539 655 539 625 539 625 569 625 599 625 629 625 659 625 689 655 689 685 689 715 689 745 689 745 719 715 719 685 719 685 749 715 749 745 749 775 749 775 719 775 689 775 659 745 659 715 659 715 629 715 599 745 599 745 629 775 629 775 599 775 569 775 539 745 539" fill="#0d1612" fill-rule="evenodd"/>
          <polygon points="205 779 175 779 145 779 115 779 85 779 85 809 85 839 85 869 115 869 145 869 175 869 205 869 205 899 175 899 145 899 115 899 85 899 85 929 85 959 85 989 115 989 145 989 175 989 205 989 205 959 175 959 175 929 205 929 235 929 235 899 235 869 235 839 235 809 235 779 205 779" fill="#5b796a" fill-rule="evenodd"/>
          <polygon points="925 539 895 539 865 539 835 539 805 539 805 569 805 599 805 629 805 659 835 659 835 689 835 719 835 749 865 749 895 749 925 749 925 719 925 689 925 659 955 659 955 629 955 599 955 569 955 539 925 539" fill="#0d1612" fill-rule="evenodd"/>
          <path d="M565,539H445V749h90V719h30v30h30V539Zm0,90v60H535V599h30Z" fill="#0d1612" fill-rule="evenodd"/>
          <path d="M385,539H265V719H385v30h30V539Zm0,90v60H355V599h30Z" fill="#5b796a" fill-rule="evenodd"/>
          <path d="M205,539H85V749h90V719h60V539Zm0,90v60H175V599h30Z" fill="#5b796a" fill-rule="evenodd"/>
          <polygon points="925 299 895 299 865 299 865 329 865 359 865 389 865 419 895 419 925 419 925 449 925 479 895 479 895 449 865 449 835 449 805 449 805 479 805 509 835 509 865 509 895 509 925 509 955 509 955 479 955 449 955 419 955 389 955 359 955 329 955 299 925 299" fill="#0d1612" fill-rule="evenodd"/>
          <polygon points="755 299 725 299 695 299 665 299 635 299 635 329 635 359 635 389 635 419 665 419 665 449 665 479 635 479 635 509 665 509 695 509 725 509 755 509 785 509 785 479 755 479 755 449 755 419 785 419 785 389 785 359 785 329 785 299 755 299" fill="#0d1612" fill-rule="evenodd"/>
          <polygon points="565 299 565 329 565 359 565 389 565 419 535 419 535 389 535 359 535 329 535 299 505 299 475 299 445 299 445 329 445 359 445 389 445 419 445 449 445 479 445 509 475 509 505 509 535 509 535 479 565 479 565 509 595 509 595 479 595 449 595 419 595 389 595 359 595 329 595 299 565 299" fill="#0d1612" fill-rule="evenodd"/>
          <path d="M385,299H265V449H385v30H325v30h90V299Zm0,90v30H355V359h30Z" fill="#5b796a" fill-rule="evenodd"/>
          <polygon points="205 299 175 299 145 299 115 299 85 299 85 329 85 359 85 389 85 419 85 449 85 479 85 509 115 509 145 509 175 509 175 479 205 479 205 449 175 449 175 419 175 389 175 359 205 359 205 389 205 419 235 419 235 389 235 359 235 329 235 299 205 299" fill="#5b796a" fill-rule="evenodd"/>
          <g>
            <path d="M925,51H805V201H925v30H865v30h90V51Zm0,120H865V141h60Z" fill="#0d1612" fill-rule="evenodd"/>
            <path d="M755,51H635V261H785V51Zm0,180H695V201h60Zm0-60H695V141h60Z" fill="#0d1612" fill-rule="evenodd"/>
            <polygon points="565 51 535 51 505 51 475 51 445 51 445 81 445 111 445 141 475 141 505 141 535 141 565 141 565 171 565 201 565 231 565 261 595 261 595 231 595 201 595 171 595 141 595 111 595 81 595 51 565 51" fill="#0d1612" fill-rule="evenodd"/>
            <path d="M385,51H265V261H415V171H325V141h90V51ZM355,201h30v30H325V201Z" fill="#0d1612" fill-rule="evenodd"/>
            <polygon points="205 51 175 51 145 51 115 51 85 51 85 81 85 111 85 141 85 171 85 201 115 201 145 201 175 201 205 201 205 231 175 231 145 231 145 261 175 261 205 261 235 261 235 231 235 201 235 171 205 171 175 171 145 171 145 141 175 141 205 141 235 141 235 111 235 81 235 51 205 51" fill="#0d1612" fill-rule="evenodd"/>
          </g>
        </g>
        <g>
          <g>
            <polygon points="915 769 885 769 885 799 885 829 915 829 915 859 915 889 945 889 945 859 945 829 945 799 945 769 915 769" fill="#176f78" fill-rule="evenodd"/>
            <polygon points="795 769 795 799 795 829 825 829 825 859 825 889 855 889 855 859 855 829 855 799 855 769 825 769 795 769" fill="#176f78" fill-rule="evenodd"/>
          </g>
          <g>
            <polygon points="735 829 735 799 735 769 705 769 705 799 705 829 705 859 705 889 735 889 765 889 765 859 765 829 735 829" fill="#176f78" fill-rule="evenodd"/>
            <polygon points="645 799 645 769 615 769 615 799 615 829 615 859 615 889 645 889 675 889 675 859 675 829 645 829 645 799" fill="#176f78" fill-rule="evenodd"/>
          </g>
          <g>
            <polygon points="495 949 465 949 465 979 495 979 525 979 555 979 555 949 525 949 495 949" fill="#92271f" fill-rule="evenodd"/>
            <polygon points="525 769 495 769 465 769 465 799 465 829 465 859 465 889 465 919 495 919 525 919 555 919 555 889 555 859 555 829 555 799 555 769 525 769" fill="#92271f" fill-rule="evenodd"/>
          </g>
          <g>
            <polygon points="285 949 285 979 315 979 345 979 345 949 315 949 285 949" fill="#92271f" fill-rule="evenodd"/>
            <polygon points="375 769 345 769 315 769 285 769 255 769 255 799 255 829 255 859 285 859 315 859 345 859 375 859 375 889 345 889 315 889 285 889 285 919 315 919 345 919 375 919 405 919 405 889 405 859 405 829 405 799 405 769 375 769" fill="#92271f" fill-rule="evenodd"/>
          </g>
          <polygon points="735 529 705 529 675 529 645 529 615 529 615 559 615 589 615 619 615 649 615 679 645 679 675 679 705 679 735 679 735 709 705 709 675 709 675 739 705 739 735 739 765 739 765 709 765 679 765 649 735 649 705 649 705 619 705 589 735 589 735 619 765 619 765 589 765 559 765 529 735 529" fill="#92271f" fill-rule="evenodd"/>
          <polygon points="195 769 165 769 135 769 105 769 75 769 75 799 75 829 75 859 105 859 135 859 165 859 195 859 195 889 165 889 135 889 105 889 75 889 75 919 75 949 75 979 105 979 135 979 165 979 195 979 195 949 165 949 165 919 195 919 225 919 225 889 225 859 225 829 225 799 225 769 195 769" fill="#0d1612" fill-rule="evenodd"/>
          <polygon points="915 529 885 529 855 529 825 529 795 529 795 559 795 589 795 619 795 649 825 649 825 679 825 709 825 739 855 739 885 739 915 739 915 709 915 679 915 649 945 649 945 619 945 589 945 559 945 529 915 529" fill="#176f78" fill-rule="evenodd"/>
          <path d="M555,529H435V739h90V709h30v30h30V529Zm0,90v60H525V589h30Z" fill="#92271f" fill-rule="evenodd"/>
          <path d="M375,529H255V709H375v30h30V529Zm0,90v60H345V589h30Z" fill="#0d1612" fill-rule="evenodd"/>
          <path d="M195,529H75V739h90V709h60V529Zm0,90v60H165V589h30Z" fill="#0d1612" fill-rule="evenodd"/>
          <polygon points="915 289 885 289 855 289 855 319 855 349 855 379 855 409 885 409 915 409 915 439 915 469 885 469 885 439 855 439 825 439 795 439 795 469 795 499 825 499 855 499 885 499 915 499 945 499 945 469 945 439 945 409 945 379 945 349 945 319 945 289 915 289" fill="#176f78" fill-rule="evenodd"/>
          <polygon points="745 289 715 289 685 289 655 289 625 289 625 319 625 349 625 379 625 409 655 409 655 439 655 469 625 469 625 499 655 499 685 499 715 499 745 499 775 499 775 469 745 469 745 439 745 409 775 409 775 379 775 349 775 319 775 289 745 289" fill="#176f78" fill-rule="evenodd"/>
          <polygon points="555 289 555 319 555 349 555 379 555 409 525 409 525 379 525 349 525 319 525 289 495 289 465 289 435 289 435 319 435 349 435 379 435 409 435 439 435 469 435 499 465 499 495 499 525 499 525 469 555 469 555 499 585 499 585 469 585 439 585 409 585 379 585 349 585 319 585 289 555 289" fill="#92271f" fill-rule="evenodd"/>
          <path d="M375,289H255V439H375v30H315v30h90V289Zm0,90v30H345V349h30Z" fill="#0d1612" fill-rule="evenodd"/>
          <polygon points="195 289 165 289 135 289 105 289 75 289 75 319 75 349 75 379 75 409 75 439 75 469 75 499 105 499 135 499 165 499 165 469 195 469 195 439 165 439 165 409 165 379 165 349 195 349 195 379 195 409 225 409 225 379 225 349 225 319 225 289 195 289" fill="#0d1612" fill-rule="evenodd"/>
          <g>
            <path d="M915,41H795V191H915v30H855v30h90V41Zm0,120H855V131h60Z" fill="#176f78" fill-rule="evenodd"/>
            <path d="M745,41H625V251H775V41Zm0,180H685V191h60Zm0-60H685V131h60Z" fill="#176f78" fill-rule="evenodd"/>
            <polygon points="555 41 525 41 495 41 465 41 435 41 435 71 435 101 435 131 465 131 495 131 525 131 555 131 555 161 555 191 555 221 555 251 585 251 585 221 585 191 585 161 585 131 585 101 585 71 585 41 555 41" fill="#92271f" fill-rule="evenodd"/>
            <path d="M375,41H255V251H405V161H315V131h90V41ZM345,191h30v30H315V191Z" fill="#176f78" fill-rule="evenodd"/>
            <polygon points="195 41 165 41 135 41 105 41 75 41 75 71 75 101 75 131 75 161 75 191 105 191 135 191 165 191 195 191 195 221 165 221 135 221 135 251 165 251 195 251 225 251 225 221 225 191 225 161 195 161 165 161 135 161 135 131 165 131 195 131 225 131 225 101 225 71 225 41 195 41" fill="#176f78" fill-rule="evenodd"/>
          </g>
        </g>
        <g style="mix-blend-mode: overlay">
          <rect x="725" y="589" width="10" height="20" fill="#96aea5"/>
          <polygon points="675 709 705 709 735 709 735 679 725 679 725 699 695 699 665 699 665 729 675 729 675 709" fill="#96aea5"/>
          <polygon points="435 101 435 71 435 41 465 41 495 41 525 41 555 41 575 41 575 31 545 31 515 31 485 31 455 31 425 31 425 61 425 91 425 121 435 121 435 101" fill="#96aea5"/>
          <rect x="645" y="819" width="20" height="10" fill="#96aea5"/>
          <polygon points="545 309 545 339 545 369 545 399 525 399 525 409 555 409 555 379 555 349 555 319 555 289 575 289 575 279 545 279 545 309" fill="#96aea5"/>
          <polygon points="705 639 705 649 735 649 755 649 755 639 725 639 705 639" fill="#96aea5"/>
          <rect x="735" y="819" width="20" height="10" fill="#96aea5"/>
          <polygon points="545 151 545 181 545 211 545 241 555 241 555 221 555 191 555 161 555 131 545 131 545 151" fill="#96aea5"/>
          <polygon points="255 221 255 191 255 161 255 131 255 101 255 71 255 41 285 41 315 41 345 41 375 41 395 41 395 31 365 31 335 31 305 31 275 31 245 31 245 61 245 91 245 121 245 151 245 181 245 211 245 241 255 241 255 221" fill="#96aea5"/>
          <polygon points="335 151 315 151 315 161 345 161 375 161 395 161 395 151 365 151 335 151" fill="#96aea5"/>
          <polygon points="365 211 335 211 315 211 315 221 345 221 375 221 375 191 365 191 365 211" fill="#96aea5"/>
          <polygon points="435 469 435 439 435 409 435 379 435 349 435 319 435 289 465 289 495 289 515 289 515 279 485 279 455 279 425 279 425 309 425 339 425 369 425 399 425 429 425 459 425 489 435 489 435 469" fill="#96aea5"/>
          <rect x="545" y="469" width="10" height="20" fill="#96aea5"/>
          <polygon points="615 649 615 619 615 589 615 559 615 529 645 529 675 529 705 529 735 529 755 529 755 519 725 519 695 519 665 519 635 519 605 519 605 549 605 579 605 609 605 639 605 669 615 669 615 649" fill="#96aea5"/>
          <polygon points="625 379 625 349 625 319 625 289 655 289 685 289 715 289 745 289 765 289 765 279 735 279 705 279 675 279 645 279 615 279 615 309 615 339 615 369 615 399 625 399 625 379" fill="#96aea5"/>
          <polygon points="845 241 855 241 855 221 885 221 915 221 915 191 905 191 905 211 875 211 845 211 845 241" fill="#96aea5"/>
          <polygon points="905 151 875 151 855 151 855 161 885 161 915 161 915 131 905 131 905 151" fill="#96aea5"/>
          <polygon points="795 469 795 439 825 439 855 439 875 439 875 429 845 429 815 429 785 429 785 459 785 489 795 489 795 469" fill="#96aea5"/>
          <polygon points="915 469 915 439 915 409 905 409 905 429 905 459 885 459 885 469 915 469" fill="#96aea5"/>
          <polygon points="795 161 795 131 795 101 795 71 795 41 825 41 855 41 885 41 915 41 935 41 935 31 905 31 875 31 845 31 815 31 785 31 785 61 785 91 785 121 785 151 785 181 795 181 795 161" fill="#96aea5"/>
          <polygon points="875 279 845 279 845 309 845 339 845 369 845 399 855 399 855 379 855 349 855 319 855 289 885 289 915 289 935 289 935 279 905 279 875 279" fill="#96aea5"/>
          <polygon points="795 619 795 589 795 559 795 529 825 529 855 529 885 529 915 529 935 529 935 519 905 519 875 519 845 519 815 519 785 519 785 549 785 579 785 609 785 639 795 639 795 619" fill="#96aea5"/>
          <polygon points="625 469 655 469 655 439 655 409 645 409 645 429 645 459 615 459 615 489 625 489 625 469" fill="#96aea5"/>
          <polygon points="255 409 255 379 255 349 255 319 255 289 285 289 315 289 345 289 375 289 395 289 395 279 365 279 335 279 305 279 275 279 245 279 245 309 245 339 245 369 245 399 245 429 255 429 255 409" fill="#96aea5"/>
          <polygon points="825 709 825 679 825 649 815 649 815 669 815 699 815 729 825 729 825 709" fill="#96aea5"/>
          <polygon points="735 151 705 151 685 151 685 161 715 161 745 161 745 131 735 131 735 151" fill="#96aea5"/>
          <rect x="745" y="459" width="20" height="10" fill="#96aea5"/>
          <polygon points="745 221 745 191 735 191 735 211 705 211 685 211 685 221 715 221 745 221" fill="#96aea5"/>
          <polygon points="625 221 625 191 625 161 625 131 625 101 625 71 625 41 655 41 685 41 715 41 745 41 765 41 765 31 735 31 705 31 675 31 645 31 615 31 615 61 615 91 615 121 615 151 615 181 615 211 615 241 625 241 625 221" fill="#96aea5"/>
          <polygon points="885 799 885 769 915 769 935 769 935 759 905 759 875 759 875 789 875 819 885 819 885 799" fill="#96aea5"/>
          <polygon points="435 709 435 679 435 649 435 619 435 589 435 559 435 529 465 529 495 529 525 529 555 529 575 529 575 519 545 519 515 519 485 519 455 519 425 519 425 549 425 579 425 609 425 639 425 669 425 699 425 729 435 729 435 709" fill="#96aea5"/>
          <polygon points="515 759 485 759 455 759 455 789 455 819 455 849 455 879 455 909 465 909 465 889 465 859 465 829 465 799 465 769 495 769 525 769 545 769 545 759 515 759" fill="#96aea5"/>
          <polygon points="555 649 555 619 555 589 545 589 545 609 545 639 545 669 525 669 525 679 555 679 555 649" fill="#96aea5"/>
          <polygon points="285 889 315 889 345 889 375 889 375 859 365 859 365 879 335 879 305 879 275 879 275 909 285 909 285 889" fill="#96aea5"/>
          <polygon points="255 829 255 799 255 769 285 769 315 769 345 769 375 769 395 769 395 759 365 759 335 759 305 759 275 759 245 759 245 789 245 819 245 849 255 849 255 829" fill="#96aea5"/>
          <polygon points="285 949 315 949 335 949 335 939 305 939 275 939 275 969 285 969 285 949" fill="#96aea5"/>
          <rect x="545" y="709" width="10" height="20" fill="#96aea5"/>
          <polygon points="705 859 705 829 705 799 705 769 725 769 725 759 695 759 695 789 695 819 695 849 695 879 705 879 705 859" fill="#96aea5"/>
          <polygon points="465 949 495 949 525 949 545 949 545 939 515 939 485 939 455 939 455 969 465 969 465 949" fill="#96aea5"/>
          <polygon points="825 859 825 829 815 829 815 849 815 879 825 879 825 859" fill="#96aea5"/>
          <polygon points="915 859 915 829 905 829 905 849 905 879 915 879 915 859" fill="#96aea5"/>
          <polygon points="795 799 795 769 825 769 845 769 845 759 815 759 785 759 785 789 785 819 795 819 795 799" fill="#96aea5"/>
          <polygon points="75 949 75 919 75 889 105 889 135 889 165 889 195 889 195 859 185 859 185 879 155 879 125 879 95 879 65 879 65 909 65 939 65 969 75 969 75 949" fill="#96aea5"/>
          <polygon points="615 859 615 829 615 799 615 769 635 769 635 759 605 759 605 789 605 819 605 849 605 879 615 879 615 859" fill="#96aea5"/>
          <polygon points="155 151 135 151 135 161 165 161 195 161 215 161 215 151 185 151 155 151" fill="#96aea5"/>
          <rect x="365" y="709" width="10" height="20" fill="#96aea5"/>
          <polygon points="135 221 165 221 195 221 195 191 185 191 185 211 155 211 125 211 125 241 135 241 135 221" fill="#96aea5"/>
          <polygon points="365 369 365 399 345 399 345 409 375 409 375 379 375 349 365 349 365 369" fill="#96aea5"/>
          <polygon points="75 161 75 131 75 101 75 71 75 41 105 41 135 41 165 41 195 41 215 41 215 31 185 31 155 31 125 31 95 31 65 31 65 61 65 91 65 121 65 151 65 181 75 181 75 161" fill="#96aea5"/>
          <polygon points="315 469 345 469 375 469 375 439 365 439 365 459 335 459 305 459 305 489 315 489 315 469" fill="#96aea5"/>
          <polygon points="255 679 255 649 255 619 255 589 255 559 255 529 285 529 315 529 345 529 375 529 395 529 395 519 365 519 335 519 305 519 275 519 245 519 245 549 245 579 245 609 245 639 245 669 245 699 255 699 255 679" fill="#96aea5"/>
          <polygon points="365 609 365 639 365 669 345 669 345 679 375 679 375 649 375 619 375 589 365 589 365 609" fill="#96aea5"/>
          <rect x="165" y="429" width="20" height="10" fill="#96aea5"/>
          <polygon points="185 609 185 639 185 669 165 669 165 679 195 679 195 649 195 619 195 589 185 589 185 609" fill="#96aea5"/>
          <polygon points="75 709 75 679 75 649 75 619 75 589 75 559 75 529 105 529 135 529 165 529 195 529 215 529 215 519 185 519 155 519 125 519 95 519 65 519 65 549 65 579 65 609 65 639 65 669 65 699 65 729 75 729 75 709" fill="#96aea5"/>
          <polygon points="75 829 75 799 75 769 105 769 135 769 165 769 195 769 215 769 215 759 185 759 155 759 125 759 95 759 65 759 65 789 65 819 65 849 75 849 75 829" fill="#96aea5"/>
          <polygon points="75 469 75 439 75 409 75 379 75 349 75 319 75 289 105 289 135 289 165 289 195 289 215 289 215 279 185 279 155 279 125 279 95 279 65 279 65 309 65 339 65 369 65 399 65 429 65 459 65 489 75 489 75 469" fill="#96aea5"/>
          <polygon points="195 379 195 349 185 349 185 369 185 399 195 399 195 379" fill="#96aea5"/>
          <rect x="165" y="939" width="20" height="10" fill="#96aea5"/>
        </g>
      </g>
    </g>
  </g>
</svg>
