<svg xmlns="http://www.w3.org/2000/svg" viewBox="0 0 1080 1080">
  <title>Artboard 6</title>
  <g id="Layer_6" data-name="Layer 6">
    <g id="Layer_2" data-name="Layer 2">
      <circle cx="571" cy="519" r="370" fill="#161616"/>
      <circle cx="535" cy="540" r="370" fill="#c84b31"/>
      <g>
        <g>
          <polygon points="43.8 812.9 63.7 809.4 63.7 789.6 43.8 793.1 43.8 812.9" fill="#161616"/>
          <path d="M63.7,690.4l-19.9,3.5L24,697.4v19.8l19.8-3.5,19.9-3.5v13.3L43.8,727,24,730.5v52.9l19.8-3.5,19.9-3.5,19.8-3.5v-86Zm0,66.1L43.8,760V746.8l19.9-3.5Z" fill="#161616"/>
        </g>
        <g>
          <polygon points="123.2 798.9 143 795.4 143 775.6 123.2 779.1 123.2 798.9" fill="#161616"/>
          <path d="M143,676.4l-19.8,3.5-19.8,3.5v86l19.8-3.5,19.8-3.5,19.9-3.5V739L143,742.5,123.2,746V732.8l19.8-3.5,19.9-3.5V672.9Zm0,33.1L123.2,713V699.7l19.8-3.5Z" fill="#161616"/>
        </g>
        <g>
          <polygon points="202.5 784.9 222.4 781.4 222.4 761.6 202.5 765.1 202.5 784.9" fill="#161616"/>
          <polygon points="222.4 695.5 222.4 682.2 242.2 678.8 242.2 658.9 222.4 662.4 202.5 665.9 182.7 669.4 182.7 689.2 202.5 685.7 202.5 699 202.5 718.8 202.5 732 182.7 735.5 182.7 755.4 202.5 751.9 222.4 748.4 242.2 744.9 242.2 725 222.4 728.5 222.4 715.3 222.4 695.5" fill="#161616"/>
        </g>
        <g>
          <polygon points="281.9 770.9 301.7 767.4 301.7 747.6 281.9 751.1 281.9 770.9" fill="#161616"/>
          <path d="M301.7,648.4l-19.8,3.5-19.8,3.5v86l19.8-3.5,19.8-3.5,19.9-3.5v-86Zm0,33.1v33L281.9,718V671.8l19.8-3.5Z" fill="#161616"/>
        </g>
        <g>
          <polygon points="361.3 757 381.1 753.5 381.1 733.6 361.3 737.1 361.3 757" fill="#161616"/>
          <polygon points="381.1 634.4 381.1 654.3 381.1 667.5 381.1 687.3 381.1 700.6 361.3 704.1 361.3 690.8 361.3 671 361.3 657.8 361.3 637.9 341.4 641.4 341.4 661.3 341.4 674.5 341.4 694.3 341.4 707.5 341.4 727.4 361.3 723.9 381.1 720.4 400.9 716.9 400.9 697.1 400.9 683.8 400.9 664 400.9 650.8 400.9 630.9 381.1 634.4" fill="#161616"/>
        </g>
        <g>
          <path d="M460.4,620.4l-19.8,3.5-19.8,3.5v19.9l19.8-3.5,19.8-3.5v13.2L440.6,657l-19.8,3.5v52.9l19.8-3.5,19.8-3.5,19.9-3.5v-86Zm0,66.2-19.8,3.5V676.8l19.8-3.5Z" fill="#161616"/>
          <polygon points="440.6 723.1 420.8 726.6 420.8 746.5 440.6 743 460.4 739.5 480.3 736 480.3 716.1 460.4 719.6 440.6 723.1" fill="#161616"/>
        </g>
        <g>
          <path d="M539.8,606.4,520,609.9l-19.9,3.5v86l19.9-3.5,19.8-3.5,19.8-3.5V669.1l-19.8,3.5L520,676.1V662.8l19.8-3.5,19.8-3.5V602.9Zm0,33.1L520,643V629.8l19.8-3.5Z" fill="#161616"/>
          <polygon points="520 709.1 500.1 712.6 500.1 732.5 520 729 539.8 725.5 559.6 722 559.6 702.1 539.8 705.6 520 709.1" fill="#161616"/>
        </g>
        <g>
          <polygon points="619.1 625.5 619.1 612.3 639 608.8 639 589 619.1 592.4 599.3 595.9 579.5 599.4 579.5 619.3 599.3 615.8 599.3 629 599.3 648.8 599.3 662.1 579.5 665.6 579.5 685.4 599.3 681.9 619.1 678.4 639 674.9 639 655.1 619.1 658.6 619.1 645.4 619.1 625.5" fill="#161616"/>
          <polygon points="599.3 695.1 579.5 698.6 579.5 718.5 599.3 715 619.1 711.5 639 708 639 688.1 619.1 691.6 599.3 695.1" fill="#161616"/>
        </g>
        <g>
          <path d="M698.5,578.5,678.7,582l-19.9,3.5v85.9l19.9-3.5,19.8-3.5,19.8-3.5V575Zm0,33v33.1l-19.8,3.5V601.8l19.8-3.5Z" fill="#161616"/>
          <polygon points="678.7 681.1 658.8 684.6 658.8 704.5 678.7 701 698.5 697.5 718.3 694 718.3 674.1 698.5 677.6 678.7 681.1" fill="#161616"/>
        </g>
        <g>
          <polygon points="777.9 564.5 777.9 584.3 777.9 597.5 777.9 617.4 777.9 630.6 758 634.1 758 620.9 758 601 758 587.8 758 568 738.2 571.5 738.2 591.3 738.2 604.5 738.2 624.4 738.2 637.6 738.2 657.4 758 653.9 777.9 650.4 797.7 646.9 797.7 627.1 797.7 613.9 797.7 594 797.7 580.8 797.7 561 777.9 564.5" fill="#161616"/>
          <polygon points="758 667.2 738.2 670.7 738.2 690.5 758 687 777.9 683.5 797.7 680 797.7 660.2 777.9 663.7 758 667.2" fill="#161616"/>
        </g>
        <polygon points="857.2 550.5 857.2 570.3 857.2 583.5 857.2 603.4 857.2 616.6 837.4 620.1 837.4 606.9 837.4 587 837.4 573.8 837.4 554 817.5 557.5 817.5 577.3 817.5 590.5 817.5 610.4 817.5 623.6 817.5 643.4 837.4 639.9 857.2 636.4 857.2 649.7 837.4 653.2 817.5 656.7 817.5 676.5 837.4 673 857.2 669.5 877 666 877 646.2 877 632.9 877 613.1 877 599.9 877 580 877 566.8 877 547 857.2 550.5" fill="#161616"/>
        <g>
          <polygon points="916.7 639.2 896.9 642.7 896.9 662.5 916.7 659 936.6 655.5 956.4 652 956.4 632.2 936.6 635.7 916.7 639.2" fill="#161616"/>
          <polygon points="936.6 536.5 936.6 556.3 916.7 559.8 916.7 540 896.9 543.5 896.9 563.3 896.9 576.5 916.7 573 916.7 592.9 896.9 596.4 896.9 609.6 896.9 629.4 916.7 625.9 916.7 606.1 936.6 602.6 936.6 622.4 956.4 618.9 956.4 599.1 956.4 585.9 936.6 589.4 936.6 569.5 956.4 566 956.4 552.8 956.4 533 936.6 536.5" fill="#161616"/>
        </g>
      </g>
      <g>
        <g>
          <path d="M93.1,455.4l-34.6,6.1L24,467.6v34.5L58.5,496l34.6-6.1v23L58.5,519,24,525.1v92.1l34.5-6.1L93.1,605l34.5-6.1V449.3Zm0,115.1-34.6,6.1v-23l34.6-6.1Z" fill="#161616"/>
          <polygon points="58.5 634.1 24 640.2 24 674.8 58.5 668.7 93.1 662.6 127.6 656.5 127.6 622 93.1 628.1 58.5 634.1" fill="#161616"/>
        </g>
        <g>
          <path d="M231.2,431l-34.5,6.1-34.6,6.1V592.9l34.6-6.1,34.5-6.1,34.5-6.1V540.1l-34.5,6-34.5,6.1v-23l34.5-6.1,34.5-6.1V424.9Zm0,57.6-34.5,6.1v-23l34.5-6.1Z" fill="#161616"/>
          <polygon points="196.7 609.8 162.1 615.9 162.1 650.4 196.7 644.3 231.2 638.2 265.7 632.1 265.7 597.6 231.2 603.7 196.7 609.8" fill="#161616"/>
        </g>
        <g>
          <polygon points="369.3 464.2 369.3 441.2 403.9 435.1 403.9 400.6 369.3 406.7 334.8 412.8 300.3 418.9 300.3 453.4 334.8 447.3 334.8 470.3 334.8 504.9 334.8 527.9 300.3 534 300.3 568.5 334.8 562.4 369.3 556.3 403.9 550.2 403.9 515.7 369.3 521.8 369.3 498.8 369.3 464.2" fill="#161616"/>
          <polygon points="334.8 585.4 300.3 591.5 300.3 626.1 334.8 620 369.3 613.9 403.9 607.8 403.9 573.3 369.3 579.3 334.8 585.4" fill="#161616"/>
        </g>
        <g>
          <path d="M507.5,382.3l-34.6,6.1-34.5,6.1V544.1l34.5-6,34.6-6.1,34.5-6.1V376.2Zm0,57.6v57.5l-34.6,6.1V422.9l34.6-6Z" fill="#161616"/>
          <polygon points="472.9 561.1 438.4 567.2 438.4 601.7 472.9 595.6 507.5 589.5 542 583.4 542 548.9 507.5 555 472.9 561.1" fill="#161616"/>
        </g>
        <g>
          <polygon points="645.6 358 645.6 392.5 645.6 415.5 645.6 450.1 645.6 473.1 611.1 479.2 611.1 456.1 611.1 421.6 611.1 398.6 611.1 364.1 576.5 370.1 576.5 404.7 576.5 427.7 576.5 462.2 576.5 485.3 576.5 519.8 611.1 513.7 645.6 507.6 680.1 501.5 680.1 467 680.1 444 680.1 409.4 680.1 386.4 680.1 351.9 645.6 358" fill="#161616"/>
          <polygon points="611.1 536.7 576.5 542.8 576.5 577.3 611.1 571.3 645.6 565.2 680.1 559.1 680.1 524.5 645.6 530.6 611.1 536.7" fill="#161616"/>
        </g>
        <polygon points="783.7 333.6 783.7 368.1 783.7 391.2 783.7 425.7 783.7 448.7 749.2 454.8 749.2 431.8 749.2 397.3 749.2 374.2 749.2 339.7 714.7 345.8 714.7 380.3 714.7 403.3 714.7 437.9 714.7 460.9 714.7 495.4 749.2 489.3 783.7 483.3 783.7 506.3 749.2 512.4 714.7 518.5 714.7 553 749.2 546.9 783.7 540.8 818.3 534.7 818.3 500.2 818.3 477.2 818.3 442.6 818.3 419.6 818.3 385.1 818.3 362.1 818.3 327.5 783.7 333.6" fill="#161616"/>
        <g>
          <polygon points="887.3 488 852.8 494.1 852.8 528.6 887.3 522.5 921.9 516.5 956.4 510.4 956.4 475.8 921.9 481.9 887.3 488" fill="#161616"/>
          <polygon points="921.9 309.3 921.9 343.8 887.3 349.9 887.3 315.3 852.8 321.4 852.8 356 852.8 379 887.3 372.9 887.3 407.4 852.8 413.5 852.8 436.5 852.8 471.1 887.3 465 887.3 430.5 921.9 424.4 921.9 458.9 956.4 452.8 956.4 418.3 956.4 395.3 921.9 401.3 921.9 366.8 956.4 360.7 956.4 337.7 956.4 303.2 921.9 309.3" fill="#161616"/>
        </g>
      </g>
      <g>
        <polygon points="36.8 803.9 56.7 800.4 56.7 780.6 36.8 784.1 36.8 803.9" fill="#346751"/>
        <path d="M56.7,681.4l-19.9,3.5L17,688.4v19.8l19.8-3.5,19.9-3.5v13.3L36.8,718,17,721.5v52.9l19.8-3.5,19.9-3.5,19.8-3.5v-86Zm0,66.1L36.8,751V737.8l19.9-3.5Z" fill="#346751"/>
      </g>
      <g>
        <polygon points="116.2 789.9 136 786.4 136 766.6 116.2 770.1 116.2 789.9" fill="#346751"/>
        <path d="M136,667.4l-19.8,3.5-19.8,3.5v86l19.8-3.5,19.8-3.5,19.9-3.5V730L136,733.5,116.2,737V723.8l19.8-3.5,19.9-3.5V663.9Zm0,33.1L116.2,704V690.7l19.8-3.5Z" fill="#346751"/>
      </g>
      <g>
        <polygon points="195.5 775.9 215.4 772.4 215.4 752.6 195.5 756.1 195.5 775.9" fill="#346751"/>
        <polygon points="215.4 686.5 215.4 673.2 235.2 669.8 235.2 649.9 215.4 653.4 195.5 656.9 175.7 660.4 175.7 680.2 195.5 676.7 195.5 690 195.5 709.8 195.5 723 175.7 726.5 175.7 746.4 195.5 742.9 215.4 739.4 235.2 735.9 235.2 716 215.4 719.5 215.4 706.3 215.4 686.5" fill="#346751"/>
      </g>
      <g>
        <polygon points="274.9 761.9 294.7 758.4 294.7 738.6 274.9 742.1 274.9 761.9" fill="#346751"/>
        <path d="M294.7,639.4l-19.8,3.5-19.8,3.5v86l19.8-3.5,19.8-3.5,19.9-3.5v-86Zm0,33.1v33L274.9,709V662.8l19.8-3.5Z" fill="#346751"/>
      </g>
      <g>
        <polygon points="354.3 748 374.1 744.5 374.1 724.6 354.3 728.1 354.3 748" fill="#346751"/>
        <polygon points="374.1 625.4 374.1 645.3 374.1 658.5 374.1 678.3 374.1 691.6 354.3 695.1 354.3 681.8 354.3 662 354.3 648.8 354.3 628.9 334.4 632.4 334.4 652.3 334.4 665.5 334.4 685.3 334.4 698.5 334.4 718.4 354.3 714.9 374.1 711.4 393.9 707.9 393.9 688.1 393.9 674.8 393.9 655 393.9 641.8 393.9 621.9 374.1 625.4" fill="#346751"/>
      </g>
      <g>
        <path d="M453.4,611.4l-19.8,3.5-19.8,3.5v19.9l19.8-3.5,19.8-3.5v13.2L433.6,648l-19.8,3.5v52.9l19.8-3.5,19.8-3.5,19.9-3.5v-86Zm0,66.2-19.8,3.5V667.8l19.8-3.5Z" fill="#346751"/>
        <polygon points="433.6 714.1 413.8 717.6 413.8 737.5 433.6 734 453.4 730.5 473.3 727 473.3 707.1 453.4 710.6 433.6 714.1" fill="#346751"/>
      </g>
      <g>
        <path d="M532.8,597.4,513,600.9l-19.9,3.5v86l19.9-3.5,19.8-3.5,19.8-3.5V660.1l-19.8,3.5L513,667.1V653.8l19.8-3.5,19.8-3.5V593.9Zm0,33.1L513,634V620.8l19.8-3.5Z" fill="#346751"/>
        <polygon points="513 700.1 493.1 703.6 493.1 723.5 513 720 532.8 716.5 552.6 713 552.6 693.1 532.8 696.6 513 700.1" fill="#346751"/>
      </g>
      <g>
        <polygon points="612.1 616.5 612.1 603.3 632 599.8 632 580 612.1 583.4 592.3 586.9 572.5 590.4 572.5 610.3 592.3 606.8 592.3 620 592.3 639.8 592.3 653.1 572.5 656.6 572.5 676.4 592.3 672.9 612.1 669.4 632 665.9 632 646.1 612.1 649.6 612.1 636.4 612.1 616.5" fill="#346751"/>
        <polygon points="592.3 686.1 572.5 689.6 572.5 709.5 592.3 706 612.1 702.5 632 699 632 679.1 612.1 682.6 592.3 686.1" fill="#346751"/>
      </g>
      <g>
        <path d="M691.5,569.5,671.7,573l-19.9,3.5v85.9l19.9-3.5,19.8-3.5,19.8-3.5V566Zm0,33v33.1l-19.8,3.5V592.8l19.8-3.5Z" fill="#346751"/>
        <polygon points="671.7 672.1 651.8 675.6 651.8 695.5 671.7 692 691.5 688.5 711.3 685 711.3 665.1 691.5 668.6 671.7 672.1" fill="#346751"/>
      </g>
      <g>
        <polygon points="770.9 555.5 770.9 575.3 770.9 588.5 770.9 608.4 770.9 621.6 751 625.1 751 611.9 751 592 751 578.8 751 559 731.2 562.5 731.2 582.3 731.2 595.5 731.2 615.4 731.2 628.6 731.2 648.4 751 644.9 770.9 641.4 790.7 637.9 790.7 618.1 790.7 604.9 790.7 585 790.7 571.8 790.7 552 770.9 555.5" fill="#346751"/>
        <polygon points="751 658.2 731.2 661.7 731.2 681.5 751 678 770.9 674.5 790.7 671 790.7 651.2 770.9 654.7 751 658.2" fill="#346751"/>
      </g>
      <polygon points="850.2 541.5 850.2 561.3 850.2 574.5 850.2 594.4 850.2 607.6 830.4 611.1 830.4 597.9 830.4 578 830.4 564.8 830.4 545 810.5 548.5 810.5 568.3 810.5 581.5 810.5 601.4 810.5 614.6 810.5 634.4 830.4 630.9 850.2 627.4 850.2 640.7 830.4 644.2 810.5 647.7 810.5 667.5 830.4 664 850.2 660.5 870 657 870 637.2 870 623.9 870 604.1 870 590.9 870 571 870 557.8 870 538 850.2 541.5" fill="#346751"/>
      <g>
        <polygon points="909.7 630.2 889.9 633.7 889.9 653.5 909.7 650 929.6 646.5 949.4 643 949.4 623.2 929.6 626.7 909.7 630.2" fill="#346751"/>
        <polygon points="929.6 527.5 929.6 547.3 909.7 550.8 909.7 531 889.9 534.5 889.9 554.3 889.9 567.5 909.7 564 909.7 583.9 889.9 587.4 889.9 600.6 889.9 620.4 909.7 616.9 909.7 597.1 929.6 593.6 929.6 613.4 949.4 609.9 949.4 590.1 949.4 576.9 929.6 580.4 929.6 560.5 949.4 557 949.4 543.8 949.4 524 929.6 527.5" fill="#346751"/>
      </g>
      <g>
        <path d="M86.1,446.4l-34.6,6.1L17,458.6v34.5L51.5,487l34.6-6.1v23L51.5,510,17,516.1v92.1l34.5-6.1L86.1,596l34.5-6.1V440.3Zm0,115.1-34.6,6.1v-23l34.6-6.1Z" fill="#c84b31"/>
        <polygon points="51.5 625.1 17 631.2 17 665.8 51.5 659.7 86.1 653.6 120.6 647.5 120.6 613 86.1 619.1 51.5 625.1" fill="#c84b31"/>
      </g>
      <g>
        <path d="M224.2,422l-34.5,6.1-34.6,6.1V583.9l34.6-6.1,34.5-6.1,34.5-6.1V531.1l-34.5,6-34.5,6.1v-23l34.5-6.1,34.5-6.1V415.9Zm0,57.6-34.5,6.1v-23l34.5-6.1Z" fill="#ecdbba"/>
        <polygon points="189.7 600.8 155.1 606.9 155.1 641.4 189.7 635.3 224.2 629.2 258.7 623.1 258.7 588.6 224.2 594.7 189.7 600.8" fill="#ecdbba"/>
      </g>
      <g>
        <polygon points="362.3 455.2 362.3 432.2 396.9 426.1 396.9 391.6 362.3 397.7 327.8 403.8 293.3 409.9 293.3 444.4 327.8 438.3 327.8 461.3 327.8 495.9 327.8 518.9 293.3 525 293.3 559.5 327.8 553.4 362.3 547.3 396.9 541.2 396.9 506.7 362.3 512.8 362.3 489.8 362.3 455.2" fill="#ecdbba"/>
        <polygon points="327.8 576.4 293.3 582.5 293.3 617.1 327.8 611 362.3 604.9 396.9 598.8 396.9 564.3 362.3 570.3 327.8 576.4" fill="#ecdbba"/>
      </g>
      <g>
        <path d="M500.5,373.3l-34.6,6.1-34.5,6.1V535.1l34.5-6,34.6-6.1,34.5-6.1V367.2Zm0,57.6v57.5l-34.6,6.1V413.9l34.6-6Z" fill="#ecdbba"/>
        <polygon points="465.9 552.1 431.4 558.2 431.4 592.7 465.9 586.6 500.5 580.5 535 574.4 535 539.9 500.5 546 465.9 552.1" fill="#ecdbba"/>
      </g>
      <g>
        <polygon points="638.6 349 638.6 383.5 638.6 406.5 638.6 441.1 638.6 464.1 604.1 470.2 604.1 447.1 604.1 412.6 604.1 389.6 604.1 355.1 569.5 361.1 569.5 395.7 569.5 418.7 569.5 453.2 569.5 476.3 569.5 510.8 604.1 504.7 638.6 498.6 673.1 492.5 673.1 458 673.1 435 673.1 400.4 673.1 377.4 673.1 342.9 638.6 349" fill="#ecdbba"/>
        <polygon points="604.1 527.7 569.5 533.8 569.5 568.3 604.1 562.3 638.6 556.2 673.1 550.1 673.1 515.5 638.6 521.6 604.1 527.7" fill="#ecdbba"/>
      </g>
      <polygon points="776.7 324.6 776.7 359.1 776.7 382.2 776.7 416.7 776.7 439.7 742.2 445.8 742.2 422.8 742.2 388.3 742.2 365.2 742.2 330.7 707.7 336.8 707.7 371.3 707.7 394.3 707.7 428.9 707.7 451.9 707.7 486.4 742.2 480.3 776.7 474.3 776.7 497.3 742.2 503.4 707.7 509.5 707.7 544 742.2 537.9 776.7 531.8 811.3 525.7 811.3 491.2 811.3 468.2 811.3 433.6 811.3 410.6 811.3 376.1 811.3 353.1 811.3 318.5 776.7 324.6" fill="#ecdbba"/>
      <g>
        <polygon points="880.3 479 845.8 485.1 845.8 519.6 880.3 513.5 914.9 507.5 949.4 501.4 949.4 466.8 914.9 472.9 880.3 479" fill="#ecdbba"/>
        <polygon points="914.9 300.3 914.9 334.8 880.3 340.9 880.3 306.3 845.8 312.4 845.8 347 845.8 370 880.3 363.9 880.3 398.4 845.8 404.5 845.8 427.5 845.8 462.1 880.3 456 880.3 421.5 914.9 415.4 914.9 449.9 949.4 443.8 949.4 409.3 949.4 386.3 914.9 392.3 914.9 357.8 949.4 351.7 949.4 328.7 949.4 294.2 914.9 300.3" fill="#ecdbba"/>
      </g>
      <polygon points="1053 520.4 983.9 532.6 983.9 285.3 1053 273.1 1053 520.4" fill="#c84b31"/>
      <polygon points="1053 621.2 983.9 633.4 983.9 564.3 1053 552.2 1053 621.2" fill="#c84b31"/>
    </g>
  </g>
</svg>
