<svg id="Layer_1" data-name="Layer 1" xmlns="http://www.w3.org/2000/svg" viewBox="0 0 930 990">
  <title>playeronelr35alpha-da</title>
  <g>
    <path d="M642.4,1022.6l-7.7,20.2-7.8,20.1-7.7,20.2-7.7,20.2-7.8,20.1-7.7,20.2-7.7,20.2-5.6-2.2-5.6-1.9c-3.8-1.2-7.5-2.6-11.3-3.7l-11.4-3.3-2.9-.8-2.8-.8-5.8-1.3-5.8-1.3-2.9-.7-1.5-.3-1.4-.3-11.7-2.1c-3.9-.8-7.9-1.2-11.8-1.7l-5.9-.7-3-.4-1.4-.2H496l-11.9-.9-2.9-.2-3-.2-5.9-.2.6-21.5.7-21.6.7-21.6.6-21.6.7-21.6.7-21.6.6-21.6,8.4.3,4.3.2,4.2.3,16.8,1.3,2.1.2,2.1.2,4.3.5,8.4,1.1c5.6.7,11.2,1.4,16.7,2.4l16.7,3.1,2.1.3,2.1.5,4.1.9,8.3,1.9,8.3,2,4.1,1,4.1,1.2,16.3,4.6c5.4,1.7,10.8,3.6,16.1,5.4l8.1,2.8Zm-44.8,30.1-14.9-4.2-3.8-1.1-3.7-.9-7.6-1.8-4.9,21-5,21-4.9,21.1-5,21,6.2,1.4,3,.8,3,.9,12.2,3.4,6.3-20.6,6.4-20.7,6.3-20.6Z" fill="#1a2c2b" fill-rule="evenodd"/>
    <path d="M634.2,1011.8l-7.3,20.4-7.2,20.3-7.3,20.4-7.3,20.3-7.3,20.3-7.2,20.4-7.3,20.3-11.5-3.9-2.9-1-2.9-.8-5.8-1.6-5.9-1.7-2.9-.8-2.9-.7-11.9-2.7-2.9-.7-3-.5-6-1.1c-4-.6-7.9-1.5-12-1.9l-12-1.6-3-.3-3-.2-6.1-.5-6-.5-3-.2h-3.1l-12.1-.3.2-21.6.2-21.6.2-21.6.2-21.6.2-21.6.2-21.6V981.9l17.1.5h4.3l4.3.3,8.5.6,8.6.7,4.3.3,4.2.5,17.1,2.2c5.7.6,11.3,1.8,17,2.7l8.4,1.6,4.3.8c1.4.2,2.8.6,4.2.9l16.8,3.8,4.1,1,4.2,1.2,8.3,2.3,8.3,2.4,4.1,1.2,4.1,1.3ZM589.6,1043l-7.6-2.2-3.8-1-3.8-.9-15.4-3.6-4.5,21.2-4.4,21.1-4.5,21.1-4.5,21.2,12.5,2.8,3.2.8,3.1.8,6.2,1.8,5.8-20.8,5.9-20.8,5.9-20.8Z" fill="#c05936" fill-rule="evenodd"/>
  </g>
  <g>
    <rect x="1" y="1" width="928" height="988" fill="#230000"/>
    <rect x="1" y="1" width="928" height="988" fill="none" stroke="#920e20" stroke-miterlimit="10" stroke-width="2"/>
  </g>
  <rect x="870" y="938" width="30" height="30" fill="#927620"/>
  <rect x="840" y="938" width="30" height="30" fill="#927620"/>
  <rect x="810" y="938" width="30" height="30" fill="#927620"/>
  <rect x="780" y="938" width="30" height="30" fill="#927620"/>
  <rect x="750" y="938" width="30" height="30" fill="#927620"/>
  <rect x="870" y="908" width="30" height="30" fill="#927620"/>
  <rect x="840" y="908" width="30" height="30" fill="#927620"/>
  <rect x="810" y="908" width="30" height="30" fill="#927620"/>
  <rect x="780" y="908" width="30" height="30" fill="#927620"/>
  <rect x="750" y="908" width="30" height="30" fill="#927620"/>
  <rect x="870" y="878" width="30" height="30" fill="#927620"/>
  <rect x="840" y="878" width="30" height="30" fill="#927620"/>
  <rect x="810" y="878" width="30" height="30" fill="#927620"/>
  <rect x="780" y="878" width="30" height="30" fill="#927620"/>
  <rect x="750" y="878" width="30" height="30" fill="#927620"/>
  <rect x="870" y="848" width="30" height="30" fill="#927620"/>
  <rect x="840" y="848" width="30" height="30" fill="#927620"/>
  <rect x="810" y="848" width="30" height="30" fill="#927620"/>
  <rect x="780" y="848" width="30" height="30" fill="#927620"/>
  <rect x="750" y="848" width="30" height="30" fill="#927620"/>
  <rect x="870" y="818" width="30" height="30" fill="#927620"/>
  <rect x="840" y="818" width="30" height="30" fill="#927620"/>
  <rect x="810" y="818" width="30" height="30" fill="#927620"/>
  <rect x="780" y="818" width="30" height="30" fill="#927620"/>
  <rect x="750" y="818" width="30" height="30" fill="#927620"/>
  <rect x="870" y="788" width="30" height="30" fill="#927620"/>
  <rect x="840" y="788" width="30" height="30" fill="#927620"/>
  <rect x="810" y="788" width="30" height="30" fill="#927620"/>
  <rect x="780" y="788" width="30" height="30" fill="#927620"/>
  <rect x="750" y="788" width="30" height="30" fill="#927620"/>
  <rect x="870" y="758" width="30" height="30" fill="#927620"/>
  <rect x="840" y="758" width="30" height="30" fill="#927620"/>
  <rect x="810" y="758" width="30" height="30" fill="#927620"/>
  <rect x="780" y="758" width="30" height="30" fill="#927620"/>
  <rect x="750" y="758" width="30" height="30" fill="#927620"/>
  <rect x="690" y="938" width="30" height="30" fill="#927620"/>
  <rect x="660" y="938" width="30" height="30" fill="#927620"/>
  <rect x="630" y="938" width="30" height="30" fill="#927620"/>
  <rect x="600" y="938" width="30" height="30" fill="#927620"/>
  <rect x="570" y="938" width="30" height="30" fill="#927620"/>
  <rect x="690" y="908" width="30" height="30" fill="#927620"/>
  <rect x="660" y="908" width="30" height="30" fill="#927620"/>
  <rect x="630" y="908" width="30" height="30" fill="#927620"/>
  <rect x="600" y="908" width="30" height="30" fill="#927620"/>
  <rect x="570" y="908" width="30" height="30" fill="#927620"/>
  <rect x="690" y="878" width="30" height="30" fill="#927620"/>
  <rect x="660" y="878" width="30" height="30" fill="#927620"/>
  <rect x="630" y="878" width="30" height="30" fill="#927620"/>
  <rect x="600" y="878" width="30" height="30" fill="#927620"/>
  <rect x="570" y="878" width="30" height="30" fill="#927620"/>
  <rect x="690" y="848" width="30" height="30" fill="#927620"/>
  <rect x="660" y="848" width="30" height="30" fill="#927620"/>
  <rect x="630" y="848" width="30" height="30" fill="#927620"/>
  <rect x="600" y="848" width="30" height="30" fill="#927620"/>
  <rect x="570" y="848" width="30" height="30" fill="#927620"/>
  <rect x="690" y="818" width="30" height="30" fill="#927620"/>
  <rect x="660" y="818" width="30" height="30" fill="#927620"/>
  <rect x="630" y="818" width="30" height="30" fill="#927620"/>
  <rect x="600" y="818" width="30" height="30" fill="#927620"/>
  <rect x="570" y="818" width="30" height="30" fill="#927620"/>
  <rect x="690" y="788" width="30" height="30" fill="#927620"/>
  <rect x="660" y="788" width="30" height="30" fill="#927620"/>
  <rect x="630" y="788" width="30" height="30" fill="#927620"/>
  <rect x="600" y="788" width="30" height="30" fill="#927620"/>
  <rect x="570" y="788" width="30" height="30" fill="#927620"/>
  <rect x="690" y="758" width="30" height="30" fill="#927620"/>
  <rect x="660" y="758" width="30" height="30" fill="#927620"/>
  <rect x="630" y="758" width="30" height="30" fill="#927620"/>
  <rect x="600" y="758" width="30" height="30" fill="#927620"/>
  <rect x="570" y="758" width="30" height="30" fill="#927620"/>
  <rect x="510" y="938" width="30" height="30" fill="#920e20"/>
  <rect x="480" y="938" width="30" height="30" fill="#920e20"/>
  <rect x="450" y="938" width="30" height="30" fill="#920e20"/>
  <rect x="420" y="938" width="30" height="30" fill="#920e20"/>
  <rect x="390" y="938" width="30" height="30" fill="#920e20"/>
  <rect x="510" y="908" width="30" height="30" fill="#920e20"/>
  <rect x="480" y="908" width="30" height="30" fill="#920e20"/>
  <rect x="450" y="908" width="30" height="30" fill="#920e20"/>
  <rect x="420" y="908" width="30" height="30" fill="#920e20"/>
  <rect x="390" y="908" width="30" height="30" fill="#920e20"/>
  <rect x="510" y="878" width="30" height="30" fill="#920e20"/>
  <rect x="480" y="878" width="30" height="30" fill="#920e20"/>
  <rect x="450" y="878" width="30" height="30" fill="#920e20"/>
  <rect x="420" y="878" width="30" height="30" fill="#920e20"/>
  <rect x="390" y="878" width="30" height="30" fill="#920e20"/>
  <rect x="510" y="848" width="30" height="30" fill="#920e20"/>
  <rect x="480" y="848" width="30" height="30" fill="#920e20"/>
  <rect x="450" y="848" width="30" height="30" fill="#920e20"/>
  <rect x="420" y="848" width="30" height="30" fill="#920e20"/>
  <rect x="390" y="848" width="30" height="30" fill="#920e20"/>
  <rect x="510" y="818" width="30" height="30" fill="#920e20"/>
  <rect x="480" y="818" width="30" height="30" fill="#920e20"/>
  <rect x="450" y="818" width="30" height="30" fill="#920e20"/>
  <rect x="420" y="818" width="30" height="30" fill="#920e20"/>
  <rect x="390" y="818" width="30" height="30" fill="#920e20"/>
  <rect x="510" y="788" width="30" height="30" fill="#920e20"/>
  <rect x="480" y="788" width="30" height="30" fill="#920e20"/>
  <rect x="450" y="788" width="30" height="30" fill="#920e20"/>
  <rect x="420" y="788" width="30" height="30" fill="#920e20"/>
  <rect x="390" y="788" width="30" height="30" fill="#920e20"/>
  <rect x="510" y="758" width="30" height="30" fill="#920e20"/>
  <rect x="480" y="758" width="30" height="30" fill="#920e20"/>
  <rect x="450" y="758" width="30" height="30" fill="#920e20"/>
  <rect x="420" y="758" width="30" height="30" fill="#920e20"/>
  <rect x="390" y="758" width="30" height="30" fill="#920e20"/>
  <polygon points="330 758 300 758 270 758 240 758 210 758 210 788 210 818 210 848 210 878 210 908 210 938 210 968 240 968 270 968 300 968 330 968 360 968 360 938 360 908 360 878 360 848 360 818 360 788 360 758 330 758" fill="#920e20" fill-rule="evenodd"/>
  <polygon points="150 758 120 758 90 758 60 758 30 758 30 788 30 818 30 848 60 848 90 848 120 848 150 848 150 878 120 878 90 878 60 878 30 878 30 908 30 938 30 968 60 968 90 968 120 968 150 968 150 938 120 938 120 908 150 908 180 908 180 878 180 848 180 818 180 788 180 758 150 758" fill="#920e20" fill-rule="evenodd"/>
  <polygon points="870 518 840 518 810 518 780 518 750 518 750 548 750 578 750 608 750 638 780 638 780 668 780 698 780 728 810 728 840 728 870 728 870 698 870 668 870 638 900 638 900 608 900 578 900 548 900 518 870 518" fill="#920e20" fill-rule="evenodd"/>
  <polygon points="690 518 660 518 630 518 600 518 570 518 570 548 570 578 570 608 570 638 570 668 600 668 630 668 660 668 690 668 690 698 660 698 630 698 630 728 660 728 690 728 720 728 720 698 720 668 720 638 690 638 660 638 660 608 690 608 720 608 720 578 720 548 720 518 690 518" fill="#920e20" fill-rule="evenodd"/>
  <path d="M510,518H390V728h90V698h30v30h30V518Zm0,90v60H480V578h30Z" fill="#920e20" fill-rule="evenodd"/>
  <path d="M330,518H210V698H330v30h30V518Zm0,90v60H300V578h30Z" fill="#927620" fill-rule="evenodd"/>
  <path d="M150,518H30V728h90V698h60V518Zm0,90v60H120V578h30Z" fill="#927620" fill-rule="evenodd"/>
  <polygon points="870 278 840 278 810 278 810 308 810 338 810 368 810 398 840 398 870 398 870 428 870 458 840 458 840 428 810 428 780 428 750 428 750 458 750 488 780 488 810 488 840 488 870 488 900 488 900 458 900 428 900 398 900 368 900 338 900 308 900 278 870 278" fill="#c2760e" fill-rule="evenodd"/>
  <polygon points="690 278 660 278 630 278 600 278 570 278 570 308 570 338 570 368 570 398 600 398 600 428 600 458 570 458 570 488 600 488 630 488 660 488 690 488 720 488 720 458 690 458 690 428 690 398 720 398 720 368 720 338 720 308 720 278 690 278" fill="#c2760e" fill-rule="evenodd"/>
  <polygon points="510 278 510 308 510 338 510 368 510 398 480 398 480 368 480 338 480 308 480 278 450 278 420 278 390 278 390 308 390 338 390 368 390 398 390 428 390 458 390 488 420 488 450 488 480 488 480 458 510 458 510 488 540 488 540 458 540 428 540 398 540 368 540 338 540 308 540 278 510 278" fill="#c2760e" fill-rule="evenodd"/>
  <path d="M330,278H210V428H330v30H270v30h90V278Zm0,90v30H300V338h30Z" fill="#c2760e" fill-rule="evenodd"/>
  <g>
    <rect x="241.6" y="29" width="6" height="2" fill="#eb0000"/>
    <rect x="241.6" y="29" width="6" height="2" fill="none" stroke="#920e20" stroke-miterlimit="10" stroke-width="2"/>
  </g>
  <polygon points="150 278 120 278 90 278 60 278 30 278 30 308 30 338 30 368 30 398 30 428 30 458 30 488 60 488 90 488 120 488 120 458 150 458 150 428 120 428 120 398 120 368 120 338 150 338 150 368 150 398 180 398 180 368 180 338 180 308 180 278 150 278" fill="#927620" fill-rule="evenodd"/>
  <g>
    <path d="M870,30H750V180H870v30H810v30h90V30Zm0,120H810V120h60Z" fill="#ea5c00" fill-rule="evenodd"/>
    <path d="M690,30H570V240H720V30Zm0,180H630V180h60Zm0-60H630V120h60Z" fill="#ea5c00" fill-rule="evenodd"/>
    <polygon points="510 30 480 30 450 30 420 30 390 30 390 60 390 90 390 120 420 120 450 120 480 120 510 120 510 150 510 180 510 210 510 240 540 240 540 210 540 180 540 150 540 120 540 90 540 60 540 30 510 30" fill="#ea5c00" fill-rule="evenodd"/>
    <path d="M330,30H210V240H360V150H270V120h90V30ZM300,180h30v30H270V180Z" fill="#ea5c00" fill-rule="evenodd"/>
    <polygon points="150 30 120 30 90 30 60 30 30 30 30 60 30 90 30 120 30 150 30 180 60 180 90 180 120 180 150 180 150 210 120 210 90 210 90 240 120 240 150 240 180 240 180 210 180 180 180 150 150 150 120 150 90 150 90 120 120 120 150 120 180 120 180 90 180 60 180 30 150 30" fill="#ea5c00" fill-rule="evenodd"/>
  </g>
</svg>
