<svg xmlns="http://www.w3.org/2000/svg" viewBox="0 0 901.7 901.7">
  <title>rondel</title>
  <g style="isolation: isolate">
    <g id="Layer_2" data-name="Layer 2">
      <g id="Layer_7" data-name="Layer 7">
        <g style="mix-blend-mode: hard-light">
          <g>
            <path d="M473.1,895.3l-.9-18-.9-18-.9-17.9-.9-18,18.6-1.4,1.8,17.9,1.8,17.9,1.8,17.9,1.7,17.9c7.4-.8,14.8-1.8,22.1-2.7s14.7-2.6,22-3.9,14.5-3.3,21.7-4.9l-4.4-17.5-4.5-17.4-4.4-17.5-4.5-17.4-4.4-17.4c-5.8,1.2-11.5,2.7-17.3,3.9L504,801.9l-17.6,2.2-17.8,1.3-.9-18-.8-18-16.1.4v126Z" fill="#3d6200" fill-rule="evenodd"/>
            <path d="M603.6,868.9c6.9-2.7,13.9-5.4,20.7-8.2s13.6-6,20.3-9.2l10-5.1,4.9-2.5,4.9-2.6,9.7-5.6,4.8-2.7,2.4-1.4,2.4-1.5-9.4-15.3-9.5-15.4-9.4-15.3-2.1,1.3-2.1,1.2-4.2,2.5-8.5,4.8a45,45,0,0,1-4.3,2.3l-4.4,2.3-8.7,4.4c-5.9,2.8-11.9,5.4-17.8,8.1l-18.2,7.2-6.2-16.9,17.4-6.9,16.9-7.7,8.4-4.2,4.1-2.2a32.3,32.3,0,0,0,4.1-2.2l8.1-4.6,4.1-2.3,2-1.2,2-1.2-9.5-15.4-1.8,1.2-2,1.1-3.8,2.2-7.7,4.5-3.9,2-4,2.1-7.9,4-16.2,7.4-16.5,6.5-6.2-16.9,15.7-6.2,15.4-7-7.9-16.2-14.5,6.6-14.8,5.9-15.2,5,5.4,17.2,5.3,17.2,5.3,17.2,5.3,17.2,5.3,17.2,5.4,17.2,5.3,17.2Z" fill="#3d6200" fill-rule="evenodd"/>
            <path d="M720.4,804.9l8.7-6.9,4.4-3.4,4.2-3.7,8.4-7.2,4.2-3.7,4.1-3.8,8-7.7c1.3-1.3,2.7-2.5,4-3.9l3.8-4c5.1-5.4,10.3-10.7,15.1-16.4l-13.5-11.8-13.5-11.9-13.6-11.9c-4.1,5-8.7,9.6-13.2,14.4l-3.4,3.5c-1.1,1.2-2.3,2.3-3.5,3.4l-7.1,6.8-3.5,3.4-3.7,3.2-7.4,6.4c-1.3,1-2.5,2.1-3.7,3.2l-3.9,3-7.7,6-10.9-14.3,7.4-5.7,3.6-2.9,3.6-3.1,7-6.1,3.5-3,3.4-3.3,6.8-6.4c1.1-1.1,2.3-2.1,3.3-3.3l3.2-3.3c4.3-4.6,8.7-9,12.7-13.8l-13.5-11.8L704.1,673l-13.5-11.9c-3.4,4.1-7.2,7.9-10.8,11.8l-2.8,2.9-2.8,2.7-5.8,5.6-2.9,2.7-3,2.6-6.1,5.3-3,2.6-3.1,2.4-6.3,5L654.9,719l6.6-5.2,3.4-2.6,3.1-2.8,6.4-5.5c1.1-.9,2.2-1.8,3.2-2.8l3.1-2.9,12.2,13.2-3.2,3-3.3,3-6.7,5.8c-1.2.9-2.3,1.9-3.4,2.9l-3.5,2.7-7,5.5c-2.3,1.9-4.7,3.6-7.1,5.3l-7.3,5.1,10.2,14.9,10.2,14.8L682,788.3l10.2,14.8,10.1,14.8,9.1-6.4C714.4,809.3,717.5,807.2,720.4,804.9Z" fill="#141f00" fill-rule="evenodd"/>
            <path d="M725.1,646.5,739.7,657l14.7,10.5L769,678l14.7,10.4,14.6,10.5L813,709.4l6.4-9.1c2.1-3.1,4-6.2,6-9.4l6-9.3,5.6-9.7c1.8-3.2,3.7-6.4,5.5-9.7l5.1-9.9-16-8.1L815.5,636l-16-8.2-4.5,8.7-4.8,8.5-15.7-8.9-15.6-9-15.6-8.9c1.4-2.5,2.9-4.9,4.2-7.3l3.8-7.6-16-8.1-3.6,7.1-4,6.9-4,6.9-4.3,6.8c-1.4,2.2-2.8,4.5-4.3,6.7l-4.6,6.5-2.3,3.2c-.8,1.1-1.5,2.2-2.4,3.3l-4.9,6.2L715,660l5.2-6.6c.9-1.1,1.6-2.3,2.5-3.4Z" fill="#141f00" fill-rule="evenodd"/>
            <path d="M865.8,611.6,849,605.1l-16.8-6.5-16.8-6.5-16.8-6.5-16.7-6.5-16.8-6.5-16.8-6.5,1.5-3.7.7-1.9.6-1.9,2.6-7.5,1.3-3.8.6-1.9.5-1.9,2.2-7.7c1.6-5,2.6-10.3,3.9-15.4s2-10.4,3-15.7,1.6-10.5,2.3-15.8l17.9,2.2,17.8,2.1,17.9,2.1,17.9,2.1,17.9,2.2,17.8,2.1,17.9,2.1c-1,7.4-1.7,14.7-3.2,22s-2.4,14.7-4.2,21.9-3.3,14.5-5.4,21.6l-3.1,10.8-.7,2.6-.9,2.7-1.8,5.3-3.6,10.5-.9,2.7-1,2.6ZM822,573.7l1.6-4.6.8-2.4.6-2.3,2.7-9.4-17.3-4.8L793,545.4l-17.3-4.8-2.3,8.1-.6,2.1c-.2.6-.5,1.3-.7,2l-1.3,3.9,17.1,5.7L805,568Z" fill="#141f00" fill-rule="evenodd"/>
            <path d="M480.9,900.8l-1.2-18-1.2-18-1.2-17.9-1.2-18,9.5-.7,4.7-.4,4.7-.6,2.1,17.9,2.1,17.9,2,17.8,2.1,17.9,11.2-1.4,5.6-.8,5.6-.9,11.1-2,5.5-1.1,5.5-1.2,11-2.6,5.5-1.3,5.5-1.5L565,868.5l-4.7-17.3-4.7-17.4-4.8-17.4-4.7-17.3-4.4,1.2-4.4,1-8.8,2.1-4.4,1-4.4.8-8.9,1.6-4.4.8-4.5.6-9,1.1-4.4.6-4.6.4-9,.7-1.1-18-1.2-18-4.1.4h-4.1l-8.1.2.3,18,.3,18,.3,18,.3,18,.3,18,.3,18,.3,18,11.2-.3,5.6-.2Z" fill="#213500" fill-rule="evenodd"/>
            <path d="M612.7,871.8c7-2.8,14-5.4,20.9-8.6l10.2-4.7,2.6-1.2,2.5-1.2,5.1-2.6,10-5.2c1.7-.8,3.3-1.8,4.9-2.7l4.9-2.8,9.8-5.6,9.6-6.1L683.5,816l-9.7-15.2-9.7-15.2c-2.8,1.8-5.5,3.6-8.4,5.3l-8.6,5-4.3,2.5-4.4,2.4-8.8,4.5-4.4,2.3-2.2,1.1-2.3,1-9,4.1c-6,2.9-12.2,5.2-18.4,7.6l-6.5-16.8c5.9-2.3,11.8-4.5,17.6-7.2l8.6-4,2.2-.9,2.1-1.1,4.2-2.2,8.4-4.3c1.5-.7,2.8-1.5,4.2-2.3l4.1-2.3,8.2-4.8,8-5-9.7-15.2c-2.5,1.6-5,3.3-7.6,4.8l-7.8,4.5-3.9,2.3-4,2.2-8,4.1-4,2-2.1,1.1-2,.9-8.2,3.7c-5.5,2.6-11.1,4.7-16.7,6.9L573.9,771c5.3-2.1,10.7-4.1,15.9-6.6l7.8-3.5,1.9-.9,1.9-.9,3.9-2L597.1,741l-3.6,1.9-1.8.9-1.8.9-7.4,3.3c-4.9,2.4-10,4.2-15,6.2s-10.2,3.7-15.3,5.5l5.6,17.1,5.6,17.1L569,811l5.6,17.1,5.6,17.1,5.6,17.1,5.6,17.1C598.5,876.9,605.7,874.7,612.7,871.8Z" fill="#598e00" fill-rule="evenodd"/>
            <path d="M729.9,805c3-2.3,6-4.6,8.8-7l8.6-7.4,4.2-3.7a37.9,37.9,0,0,0,4.2-3.8l8.2-7.7,4.1-3.9c.6-.7,1.3-1.3,2-2l1.9-2,7.8-8.2c5.3-5.3,10.1-11.1,15-16.8L781,730.9l-13.7-11.7-13.7-11.6c-4.4,4.9-8.6,10.1-13.3,14.8l-6.8,7.2-1.7,1.8-1.8,1.7-3.6,3.4-7.2,6.9-3.7,3.3-3.7,3.2-7.6,6.5c-2.5,2.2-5.1,4.2-7.7,6.2l-11.2-14.1,7.5-5.9,7.1-6.2,3.6-3.1,3.5-3.2,6.9-6.5,3.4-3.3c.6-.6,1.2-1.1,1.7-1.7l1.7-1.7,6.5-6.8c4.5-4.5,8.5-9.4,12.7-14.2l-13.8-11.6-13.7-11.7L698.7,661c-3.6,4-7,8.3-10.9,12.1l-5.6,5.9-1.4,1.5a18.5,18.5,0,0,0-1.4,1.4l-3,2.8-5.9,5.6a25.2,25.2,0,0,1-3,2.7l-3.1,2.7-6.1,5.3c-2.1,1.8-4.3,3.4-6.4,5.1L663,720.2l6.8-5.3,6.4-5.6,3.3-2.9c1.1-.9,2.2-1.8,3.2-2.8l6.2-6,12.5,13-6.5,6.2-3.4,3.1-3.4,2.9-6.8,5.9c-2.3,2-4.8,3.8-7.1,5.7l-7.1,5.5-7.4,5.3,10.5,14.7,10.4,14.6L691,789.2l10.4,14.7,10.5,14.6L721,812Z" fill="#598e00" fill-rule="evenodd"/>
            <path d="M733.3,645.4l14.8,10.2,14.8,10.2L777.7,676l14.9,10.3,14.8,10.2,14.8,10.2c1.1-1.5,2.2-3,3.2-4.6l3.1-4.8,6-9.5c2.1-3.1,3.9-6.4,5.8-9.6l5.6-9.8,1.4-2.5,1.3-2.5,2.6-5,5.2-10.1-16.2-7.9L824,632.5l-16.2-7.8-4.5,8.8-2.3,4.4-1.1,2.2-1.2,2.2-15.8-8.7-15.8-8.7-15.7-8.7,1.1-1.9.9-1.9,2-3.8,3.9-7.6-16.2-7.9-3.7,7.2-1.8,3.6-1,1.9-1,1.7-4,7.1c-1.4,2.3-2.7,4.7-4.2,6.9l-4.4,6.9-2.2,3.4a38.8,38.8,0,0,1-2.3,3.3l-4.7,6.7-2.4,3.3-2.5,3.2,14.3,11,2.6-3.4,2.5-3.5Z" fill="#598e00" fill-rule="evenodd"/>
            <path d="M874.1,606.8l-16.9-6.2-16.9-6.3-16.9-6.2-16.8-6.2-16.9-6.2-16.9-6.3-16.9-6.2,5.2-15.3,4.5-15.7,3.6-15.8,2.9-16,2.1-16.1,17.9,1.8,17.9,1.8,17.9,1.8,17.9,1.9,17.9,1.8,17.9,1.8,17.9,1.8-2.8,22.4-4,22.3-5.1,22c-2,7.2-4.1,14.5-6.2,21.7S876.6,599.7,874.1,606.8Zm-44.2-37.5,5.4-19.1-17.4-4.5-17.5-4.5L783,536.7l-4.7,16.5,17.2,5.4,17.2,5.3Z" fill="#497500" fill-rule="evenodd"/>
            <g style="mix-blend-mode: hard-light">
              <path d="M757.8,721l13.5,11.9,13.5,11.9c-4.7,5.7-10,10.9-15.1,16.3l-3.8,4-4,3.9-8.1,7.7-4,3.8-4.2,3.6-8.4,7.3c-1.5,1.2-2.8,2.5-4.3,3.6l-4.4,3.5-8.7,6.8-2.9,2.3-3.1,2.2-6,4.3,3.5,4.9,9.1-6.6,8.9-6.9,8.9-7,8.5-7.4,8.5-7.4,8.1-7.8,4.1-3.9,2.1-2,1.9-2,7.8-8.1c5.3-5.4,10.1-11.2,15.1-16.8l-13.8-11.7-13.7-11.7-13.7-11.6-4.3,5Z" fill="#b6e567"/>
            </g>
            <g style="mix-blend-mode: hard-light">
              <path d="M684.3,702l-4-4.4-3.1,2.9-3.2,2.8-6.4,5.5-2.1,1.8-2.2,1.8-4.4,3.5,3.7,4.7,6.7-5.3,6.5-5.7C678.7,707.1,681.6,704.7,684.3,702Z" fill="#b6e567"/>
            </g>
            <g style="mix-blend-mode: hard-light">
              <path d="M703.8,673.4l13.5,11.9,13.5,11.9c-4,4.8-8.4,9.2-12.7,13.7l-3.2,3.4-3.4,3.2-6.7,6.5c-1.2,1-2.3,2.1-3.4,3.2l-3.5,3-7.1,6.1c-1.2,1-2.3,2.1-3.6,3.1l-3.6,2.8-7.4,5.8,10.9,14.3,5.1-4-7.4-9.4,7.5-5.9,7.1-6.2c2.4-2.1,4.9-4.1,7.2-6.3l6.8-6.5,3.5-3.3,1.7-1.6,1.6-1.7,6.6-6.9c4.4-4.5,8.5-9.3,12.6-14.1l-13.7-11.7L712,673l-13.7-11.6-3.5,4.1Z" fill="#b6e567"/>
            </g>
            <g style="mix-blend-mode: hard-light">
              <path d="M467.2,787.4l.8,18c2,0,4-.3,6-.4l-.8-12L472,775.1c-1.8.1-3.6.3-5.4.3Z" fill="#b6e567"/>
            </g>
            <g style="mix-blend-mode: hard-light">
              <path d="M487.5,822l-18.6,1.4.9,18,.8,17.9.9,18,.8,18-14.8.4v6l11.3-.3,5.6-.2,5.6-.4-1.1-18-1.2-17.9-1.2-18L475.5,829l12.6-1Z" fill="#b6e567"/>
            </g>
            <g style="mix-blend-mode: hard-light">
              <path d="M542.6,812.4l4.5,17.5,4.4,17.4,4.4,17.5,4.4,17.4-10.9,2.6L544,886l-5.4,1.2-11,1.9-5.5,1c-1.8.3-3.6.7-5.5.9l-14.7,1.9.7,5.9,11.2-1.4,5.6-.7,5.5-1,11.1-2,5.6-1,5.5-1.3,11-2.5,5.5-1.3,5.4-1.5-4.7-17.4-4.7-17.4L554.9,834l-4.7-17.4-4.7-17.4-2.9.8-1.4.5-1.5.3Z" fill="#b6e567"/>
            </g>
            <g style="mix-blend-mode: hard-light">
              <path d="M664.2,799.8l9.5,15.3,9.4,15.4-4.8,2.8-4.9,2.8-9.6,5.6L644,851.8,623.7,861c-6.9,2.7-13.8,5.5-20.8,8.1l-14.1,4.8,1.9,5.7,10.7-3.6,5.3-1.9,5.3-2c7-2.8,14.1-5.4,20.9-8.6s13.7-6.1,20.4-9.7l10-5.1,2.5-1.3,2.5-1.4,4.9-2.8,9.8-5.7,4.8-2.9,4.7-3.1-9.6-15.1-9.7-15.2L663.6,786l-5.6,3.6Z" fill="#b6e567"/>
            </g>
            <g style="mix-blend-mode: hard-light">
              <path d="M645.4,769.1c-1.3.9-2.6,1.6-4,2.4l-4,2.3-8.1,4.7L612.7,787l-17,7.7-17.4,6.8,6.2,16.9c2-.7,4-1.6,6-2.4l-4.3-11.2c5.9-2.3,11.9-4.4,17.6-7.2s11.6-5.1,17.1-8.1l8.5-4.3,2.1-1.1,2-1.2,4.1-2.3,8.3-4.8c1.4-.7,2.7-1.6,4-2.4l4-2.6-9.7-15.2-5,3.3Z" fill="#b6e567"/>
            </g>
            <g style="mix-blend-mode: hard-light">
              <path d="M597.1,754.6l-15.4,6.9L566,767.6l6.2,17,5.5-2.2-4.3-11.2c5.3-2.1,10.7-4,15.8-6.5s10.5-4.6,15.5-7.3l-8-16.1-4.9,2.5Z" fill="#b6e567"/>
            </g>
            <g style="mix-blend-mode: hard-light">
              <path d="M812.5,564.5l-17.2-5.3-17.2-5.4c1.2-3.7,2.1-7.4,3.2-11l-5.8-1.6-2.3,8.1-.6,2-.7,2-1.3,4,17.1,5.7,17,5.6,17.1,5.7,2.1-6.2Z" fill="#b6e567"/>
            </g>
            <g style="mix-blend-mode: hard-light">
              <path d="M724.8,647l-3.3,4.6c-1,1.5-2.3,3-3.4,4.4l4.7,3.7,3.5-4.5,3.4-4.7Z" fill="#b6e567"/>
            </g>
            <g style="mix-blend-mode: hard-light">
              <path d="M815.2,636.6l16,8.2,16.1,8.2-5.1,9.9-5.6,9.6c-1.8,3.3-3.7,6.5-5.6,9.7l-6,9.4c-2.6,4.1-5.2,8.3-8.2,12.3l5,3.4,3.2-4.6,3.1-4.7,6-9.5c1-1.6,2.1-3.2,3-4.8l2.9-4.9,5.6-9.8c1.9-3.2,3.5-6.6,5.3-9.9L856,649l-16.1-7.9-16.2-7.9-16.2-8-3,5.9Z" fill="#b6e567"/>
            </g>
            <g style="mix-blend-mode: hard-light">
              <path d="M751.1,603.8l-3.9,7.6-4.2,7.3,15.6,8.9,15.6,9,15.6,9,3.3-5.7-10.5-5.8-15.8-8.7-15.7-8.7c1.5-2.4,2.7-5,4-7.6l3.9-7.6-16.1-7.9-2.5,4.8Z" fill="#b6e567"/>
            </g>
            <g style="mix-blend-mode: hard-light">
              <path d="M785.3,491.6l17.9,2.2,17.8,2.1,17.9,2.2,17.9,2.1,17.8,2.2,17.9,2.1-1.4,11.1-.4,2.7-.4,2.8-1,5.5-2,10.9-.5,2.8-.6,2.7-1.2,5.4-2.5,10.9-.7,2.7-.7,2.7-1.5,5.3-3.1,10.8a19.8,19.8,0,0,1-.8,2.6l-.9,2.7-1.7,5.3-2.4,7-1.2,3.5a36.2,36.2,0,0,1-1.3,3.5l5.6,2.1a47.6,47.6,0,0,0,1.9-5.3l1.9-5.4,3.6-10.7c2.1-7.2,4.1-14.5,6.2-21.7s3.4-14.7,5.1-22,2.7-14.8,4-22.2,2-15,2.9-22.4l-17.9-1.9-17.9-1.8-17.9-1.9-17.9-1.8-17.9-1.9L792,486.7l-17.9-1.9-.7,5.4Z" fill="#b6e567"/>
            </g>
          </g>
          <g>
            <path d="M6.4,473.1l18-.9,18-.9,17.9-.9,18-.9,1.4,18.6-17.9,1.8-17.9,1.8L26,493.5,8.1,495.2c.8,7.4,1.8,14.8,2.7,22.1s2.6,14.7,3.9,22S18,553.8,19.6,561l17.5-4.4,17.4-4.5L72,547.7l17.4-4.5,17.4-4.4c-1.3-5.8-2.7-11.5-3.9-17.3s-2.1-11.7-3.1-17.5-1.5-11.8-2.2-17.6l-1.3-17.8,18-.9,18-.8-.5-16.1H5.8Z" fill="#3d6200" fill-rule="evenodd"/>
            <path d="M32.8,603.6c2.7,6.9,5.4,13.9,8.2,20.7s6,13.6,9.2,20.3l5,10,2.6,4.9,2.6,4.9,5.5,9.7,2.8,4.8,1.4,2.4,1.5,2.4,15.3-9.4,15.4-9.5,15.3-9.4-1.3-2.1-1.2-2.1-2.5-4.2-4.8-8.5a45,45,0,0,1-2.3-4.3l-2.3-4.4-4.4-8.7c-2.8-5.9-5.4-11.9-8.1-17.8l-7.2-18.2,16.9-6.2,6.9,17.4c2.5,5.6,5,11.3,7.7,16.9l4.2,8.4,2.2,4.1c.7,1.4,1.3,2.8,2.1,4.1l4.7,8.1,2.3,4.1,1.2,2,1.2,2,15.4-9.5-1.2-1.8-1.1-2-2.2-3.8-4.5-7.7c-.7-1.3-1.4-2.6-2-3.9l-2.1-4-4-7.9-7.4-16.2-6.5-16.5,16.9-6.2,6.2,15.7c2.3,5.1,4.6,10.3,7,15.4l16.2-7.9L157,575.2l-5.9-14.8L146,545.2l-17.2,5.4-17.1,5.3-17.2,5.3-17.2,5.3-17.2,5.3-17.2,5.4-17.2,5.3C28,589.5,30.4,596.6,32.8,603.6Z" fill="#3d6200" fill-rule="evenodd"/>
            <path d="M96.8,720.4l6.9,8.7,3.4,4.4,3.6,4.2,7.3,8.4,3.7,4.2,3.8,4.1,7.7,8c1.3,1.3,2.5,2.7,3.9,4l4,3.8c5.4,5.1,10.7,10.3,16.4,15.1l11.8-13.5,11.9-13.5,11.9-13.6c-5-4.1-9.7-8.7-14.4-13.2l-3.5-3.4c-1.2-1.1-2.3-2.3-3.4-3.5l-6.8-7.1-3.4-3.5-3.2-3.7-6.4-7.4c-1-1.3-2.1-2.5-3.2-3.7l-3-3.9-6-7.7,14.3-10.9,5.7,7.4,2.9,3.6,3.1,3.6,6.1,7,3,3.5,3.3,3.4,6.4,6.8c1.1,1.1,2.1,2.3,3.3,3.3l3.3,3.2c4.6,4.3,9,8.7,13.8,12.7l11.8-13.5,11.9-13.6,11.9-13.5c-4.1-3.4-7.9-7.2-11.8-10.8l-2.9-2.8c-1-.9-1.8-1.9-2.7-2.8l-5.6-5.8-2.7-2.9-2.6-3-5.3-6.1-2.6-3-2.4-3.1-5-6.3-14.3,10.9,5.2,6.6,2.6,3.4,2.8,3.1,5.5,6.4c.9,1.1,1.8,2.2,2.8,3.2l2.9,3.1-13.2,12.2-3-3.2-3-3.3-5.8-6.7c-.9-1.2-1.9-2.3-2.9-3.4l-2.7-3.5-5.5-7c-1.9-2.3-3.6-4.7-5.3-7.1l-5.1-7.3-14.9,10.2-14.8,10.2L113.4,682,98.6,692.2,83.8,702.3l6.4,9.1C92.4,714.4,94.5,717.5,96.8,720.4Z" fill="#141f00" fill-rule="evenodd"/>
            <path d="M255.1,725.1l-10.4,14.6-10.5,14.7L223.7,769l-10.4,14.7-10.5,14.6L192.3,813l9.1,6.4c3.1,2.1,6.2,4,9.4,6l9.3,6,9.7,5.6,9.7,5.5,9.9,5.1,8.1-16,8.2-16.1,8.2-16-8.7-4.5-8.5-4.8,8.9-15.7,9-15.6,8.9-15.6,7.3,4.2,7.5,3.8,8.2-16-7.1-3.6-6.9-4-7-4-6.7-4.3-6.7-4.3-6.5-4.6-3.2-2.3c-1.1-.8-2.2-1.5-3.3-2.4l-6.2-4.9L241.7,715l6.6,5.2,3.4,2.5Z" fill="#141f00" fill-rule="evenodd"/>
            <path d="M290.1,865.8l6.5-16.8,6.5-16.8,6.5-16.8,6.5-16.8,6.5-16.7,6.5-16.8,6.5-16.8,3.7,1.5,1.9.7,1.8.6,7.6,2.6,3.8,1.3,1.9.6,1.9.5,7.7,2.2c5,1.6,10.2,2.6,15.4,3.9s10.4,2,15.7,3,10.5,1.6,15.8,2.3l-2.2,17.9-2.1,17.8-2.1,17.9L404.3,839l-2.2,17.9L400,874.7l-2.1,17.9c-7.4-1-14.8-1.7-22-3.2s-14.7-2.4-21.9-4.2-14.5-3.3-21.6-5.4l-10.8-3.1L319,876l-2.7-.9-5.3-1.8-10.5-3.6-2.7-.9-2.6-1ZM328,822l4.6,1.6,2.3.8,2.4.6,9.4,2.7,4.8-17.3,4.8-17.4,4.8-17.3-8.1-2.3-2.1-.6-2-.7-4-1.3-5.6,17.1L333.6,805Z" fill="#141f00" fill-rule="evenodd"/>
            <path d="M.9,480.9l18-1.2,18-1.2,17.9-1.2,18-1.2.7,9.5c.1,1.6.2,3.1.4,4.7l.6,4.7-17.9,2.1-17.9,2.1-17.8,2L3,503.3l1.4,11.2c.3,1.9.5,3.7.8,5.6l.9,5.6,2,11.1c.4,1.8.7,3.7,1.1,5.5l1.2,5.5,2.6,11c.4,1.9.8,3.7,1.3,5.5l1.5,5.5L33.2,565l17.3-4.7,17.4-4.7,17.4-4.8,17.3-4.7-1.2-4.4c-.4-1.4-.7-2.9-1-4.4l-2.1-8.8-1-4.4c-.3-1.4-.5-2.9-.8-4.4l-1.6-8.9-.8-4.4-.6-4.5-1.1-9-.6-4.4c-.2-1.5-.2-3.1-.4-4.6l-.7-9,18-1.1,18-1.2-.4-4.1c-.1-1.3,0-2.7-.1-4.1l-.2-8.1-18,.3-18,.3-18,.3-18,.3-18,.3-18,.3-18,.3.3,11.2c.1,1.9.1,3.8.2,5.6Z" fill="#213500" fill-rule="evenodd"/>
            <path d="M29.9,612.7c2.8,7,5.4,14,8.6,20.9l4.7,10.2,1.2,2.6,1.2,2.5,2.6,5.1,5.2,10a46.7,46.7,0,0,0,2.7,4.9l2.8,4.9,5.6,9.8,6,9.6,15.2-9.7,15.2-9.7,15.2-9.7c-1.8-2.8-3.7-5.5-5.3-8.4l-5-8.6-2.5-4.3-2.4-4.4-4.5-8.8-2.3-4.4L93,623l-1-2.3-4.1-9c-2.9-6-5.2-12.2-7.6-18.4l16.8-6.5c2.3,5.9,4.5,11.8,7.2,17.6l3.9,8.6,1,2.2,1.1,2.1,2.2,4.2,4.3,8.4c.7,1.5,1.5,2.8,2.3,4.2l2.3,4.1,4.8,8.2c1.6,2.7,3.4,5.4,5,8l15.2-9.7c-1.6-2.5-3.3-5-4.8-7.6l-4.5-7.8-2.3-3.9c-.7-1.3-1.5-2.6-2.2-4l-4.1-8-2-4-1.1-2.1-.9-2-3.7-8.2c-2.6-5.5-4.7-11.1-6.9-16.7l16.8-6.5c2.1,5.3,4.1,10.7,6.5,15.9l3.6,7.8.8,1.9,1,1.9,2,3.9,16.1-8.2-1.9-3.6-.9-1.8-.9-1.8-3.3-7.4c-2.4-4.9-4.2-10-6.2-15s-3.7-10.2-5.5-15.3l-17.1,5.6-17.1,5.6L90.7,569l-17.1,5.6-17.1,5.6-17.1,5.6-17.1,5.6C24.8,598.5,27,605.7,29.9,612.7Z" fill="#598e00" fill-rule="evenodd"/>
            <path d="M96.7,729.9c2.3,3,4.6,6,7,8.8l7.4,8.6,3.7,4.2a37.9,37.9,0,0,0,3.8,4.2l7.7,8.2,3.9,4.1c.7.6,1.3,1.3,2,2l2,1.9,8.2,7.8c5.3,5.3,11.1,10.1,16.8,15L170.8,781l11.7-13.7,11.6-13.7c-4.9-4.4-10.1-8.6-14.8-13.3l-7.2-6.8-1.8-1.7-1.7-1.8-3.4-3.6-6.9-7.2-3.3-3.7-3.2-3.7-6.5-7.6c-2.2-2.5-4.2-5.1-6.2-7.7l14.1-11.2,5.9,7.5,6.2,7.1,3.1,3.6c1.1,1.2,2.1,2.4,3.2,3.5l6.5,6.9,3.3,3.4c.6.6,1.1,1.2,1.7,1.7l1.7,1.7,6.8,6.5c4.5,4.5,9.4,8.5,14.2,12.7l11.6-13.8,11.7-13.7,11.6-13.7c-4-3.6-8.3-7-12.1-10.9l-5.9-5.6-1.5-1.4a18.5,18.5,0,0,0-1.4-1.4l-2.8-3-5.6-5.9a25.2,25.2,0,0,1-2.7-3l-2.7-3.1-5.3-6.1c-1.8-2.1-3.4-4.3-5.1-6.4L181.5,663c1.8,2.3,3.5,4.6,5.3,6.8l5.6,6.4,2.8,3.3c1,1.1,1.9,2.2,2.9,3.2l5.9,6.2-12.9,12.5-6.2-6.5c-1.1-1.1-2.1-2.3-3.1-3.4l-2.9-3.4-5.9-6.8c-2-2.3-3.8-4.8-5.7-7.1l-5.5-7.1-5.3-7.4-14.7,10.5-14.6,10.4L112.5,691,97.8,701.4,83.2,711.9l6.5,9.1Z" fill="#598e00" fill-rule="evenodd"/>
            <path d="M256.3,733.3l-10.2,14.8-10.2,14.8-10.3,14.8-10.2,14.9-10.2,14.8L195,822.2c1.5,1.1,3,2.2,4.6,3.2l4.7,3.1,9.6,6c3.1,2.1,6.4,3.9,9.6,5.8l9.8,5.6,2.5,1.4,2.5,1.3,5,2.6,10.1,5.2,7.9-16.2,7.8-16.2,7.9-16.2-8.8-4.5-4.4-2.3-2.2-1.1-2.2-1.2,8.7-15.8,8.7-15.8,8.7-15.7,1.8,1.1,2,.9,3.8,2,7.6,3.9,7.9-16.2-7.2-3.7-3.6-1.8-1.9-1-1.7-1-7.1-4c-2.3-1.4-4.7-2.7-6.9-4.2l-6.9-4.4-3.4-2.2c-1.2-.7-2.2-1.5-3.4-2.3l-6.6-4.7-3.3-2.4-3.2-2.5-11,14.3,3.4,2.6,3.5,2.5Z" fill="#598e00" fill-rule="evenodd"/>
            <path d="M294.9,874.1l6.2-16.9,6.2-16.9,6.3-16.9,6.2-16.8,6.2-16.9,6.2-16.9,6.3-16.9,15.3,5.2,15.7,4.5,15.8,3.6,16,2.9,16.1,2.1-1.8,17.9L413.8,810,412,827.9l-1.9,17.9-1.8,17.9-1.8,17.9-1.8,17.9-22.4-2.8-22.3-4-22-5.1-21.7-6.2Zm37.5-44.2,19.1,5.4,4.5-17.4,4.5-17.5L365,783l-16.5-4.7-5.4,17.2-5.4,17.2Z" fill="#497500" fill-rule="evenodd"/>
            <g style="mix-blend-mode: hard-light">
              <path d="M180.7,757.8l-11.9,13.5-11.9,13.5c-5.7-4.7-10.9-10-16.3-15.1l-4-3.8c-1.4-1.3-2.6-2.7-3.9-4l-7.7-8.1-3.8-4-3.7-4.2-7.2-8.4c-1.2-1.5-2.5-2.8-3.6-4.3l-3.5-4.4-6.8-8.7-2.3-2.9-2.2-3.1-4.3-6-4.9,3.5,6.6,9.1,6.9,8.9,7,8.9,7.4,8.5,7.4,8.5,7.8,8.1,3.9,4.1,2,2.1,2,1.9,8.1,7.8c5.4,5.3,11.1,10.1,16.8,15.1l11.7-13.8L182,766.8l11.6-13.7-5-4.3Z" fill="#b6e567"/>
            </g>
            <g style="mix-blend-mode: hard-light">
              <path d="M199.7,684.3l4.4-4-2.9-3.1-2.8-3.2-5.5-6.4-1.8-2.1c-.7-.7-1.2-1.5-1.8-2.2l-3.5-4.4-4.7,3.7,5.3,6.7,5.7,6.5C194.6,678.7,197,681.6,199.7,684.3Z" fill="#b6e567"/>
            </g>
            <g style="mix-blend-mode: hard-light">
              <path d="M228.3,703.8l-11.9,13.5-11.9,13.5c-4.8-4-9.2-8.4-13.7-12.7l-3.4-3.2-3.2-3.4-6.5-6.7c-1-1.2-2.1-2.3-3.2-3.4l-3-3.5-6.1-7.1c-1-1.2-2.1-2.3-3.1-3.6l-2.8-3.6-5.8-7.4-14.3,10.9,4,5.1,9.4-7.4,5.9,7.5,6.2,7.1c2.1,2.4,4.1,4.9,6.3,7.2l6.5,6.8,3.3,3.5,1.6,1.7,1.7,1.6,6.9,6.6c4.5,4.4,9.3,8.5,14.1,12.6L217,725.7,228.6,712l11.7-13.7-4.1-3.5Z" fill="#b6e567"/>
            </g>
            <g style="mix-blend-mode: hard-light">
              <path d="M114.3,467.2l-18,.8c0,2,.3,4,.4,6l12-.8,17.9-1.2c-.1-1.8-.3-3.6-.4-5.4Z" fill="#b6e567"/>
            </g>
            <g style="mix-blend-mode: hard-light">
              <path d="M79.7,487.5c-.5-6.2-1-12.4-1.4-18.6l-18,.9-18,.8-17.9.9-18,.8L6,457.5H0l.3,11.3c0,1.8.1,3.7.2,5.6l.4,5.6L18.8,479l18-1.2,18-1.2,17.9-1.1,1,12.6Z" fill="#b6e567"/>
            </g>
            <g style="mix-blend-mode: hard-light">
              <path d="M89.3,542.6l-17.5,4.5-17.4,4.4-17.5,4.4-17.4,4.4-2.6-10.9L15.7,544c-.4-1.8-.9-3.6-1.2-5.4l-1.9-11-1-5.5c-.3-1.8-.7-3.6-.9-5.5L8.8,501.9l-5.9.7,1.4,11.2.7,5.6,1,5.5L8,536l1,5.6,1.2,5.5,2.6,11,1.3,5.5,1.5,5.4L33,564.3l17.4-4.7,17.3-4.7,17.4-4.7,17.4-4.7-.9-2.9-.4-1.4-.3-1.5Z" fill="#b6e567"/>
            </g>
            <g style="mix-blend-mode: hard-light">
              <path d="M101.9,664.2l-15.3,9.5-15.4,9.4c-1-1.6-1.9-3.2-2.8-4.8l-2.8-4.9L60,663.8,49.8,644c-3-6.8-6.1-13.5-9.1-20.3s-5.5-13.8-8.2-20.8l-4.7-14.1-5.7,1.9,3.6,10.7,1.8,5.3,2.1,5.3c2.8,7,5.4,14.1,8.6,20.9s6.1,13.7,9.7,20.4l5.1,10,1.3,2.5,1.4,2.5,2.8,4.9,5.6,9.8,3,4.8,3,4.7,15.2-9.6,15.2-9.7,15.2-9.6-3.6-5.6Z" fill="#b6e567"/>
            </g>
            <g style="mix-blend-mode: hard-light">
              <path d="M132.6,645.4c-.9-1.3-1.6-2.6-2.4-4l-2.3-4-4.7-8.1c-2.9-5.5-5.6-11.1-8.5-16.6l-7.7-17c-2.2-5.8-4.6-11.6-6.8-17.4l-16.9,6.2c.7,2,1.6,4,2.3,6l11.3-4.3c2.3,5.9,4.4,11.9,7.2,17.6s5.1,11.6,8.1,17.1l4.3,8.5,1.1,2.1,1.2,2,2.3,4.1,4.7,8.3c.8,1.4,1.7,2.7,2.5,4l2.6,4,15.2-9.7-3.3-5Z" fill="#b6e567"/>
            </g>
            <g style="mix-blend-mode: hard-light">
              <path d="M147.1,597.1l-6.9-15.4c-2-5.2-4.2-10.5-6.2-15.7l-16.9,6.2c.7,1.8,1.5,3.6,2.2,5.5l11.2-4.3c2.1,5.3,4,10.7,6.5,15.8s4.6,10.5,7.3,15.5l16.1-8-2.5-4.9Z" fill="#b6e567"/>
            </g>
            <g style="mix-blend-mode: hard-light">
              <path d="M337.1,812.5l5.4-17.2,5.4-17.2c3.7,1.2,7.4,2.1,11,3.2l1.6-5.8-8.1-2.3-2-.6-2-.7-4-1.3-5.7,17.1-5.6,17.1-5.7,17,6.2,2.1Z" fill="#b6e567"/>
            </g>
            <g style="mix-blend-mode: hard-light">
              <path d="M254.7,724.8l-4.6-3.3c-1.5-1-3-2.3-4.5-3.4l-3.6,4.7,4.5,3.5,4.7,3.4Z" fill="#b6e567"/>
            </g>
            <g style="mix-blend-mode: hard-light">
              <path d="M265.1,815.2l-8.2,16-8.2,16.1-9.9-5.1-9.7-5.6-9.6-5.6-9.4-6c-4.1-2.6-8.3-5.2-12.3-8.2l-3.4,5L199,825l4.7,3.1,9.5,6c1.6,1,3.2,2.1,4.8,3l4.9,2.9,9.8,5.6c3.2,1.9,6.6,3.5,9.9,5.3l10.1,5.1,7.9-16.1,7.9-16.2,7.9-16.2-5.8-3Z" fill="#b6e567"/>
            </g>
            <g style="mix-blend-mode: hard-light">
              <path d="M297.8,751.1l-7.5-3.9L283,743l-9,15.6-8.9,15.6-9,15.6,5.6,3.3,5.9-10.5,8.7-15.8,8.7-15.7c2.4,1.5,5,2.7,7.6,4l7.6,3.9,7.9-16.1-4.8-2.5Z" fill="#b6e567"/>
            </g>
            <g style="mix-blend-mode: hard-light">
              <path d="M410.1,785.3l-2.2,17.9L405.8,821l-2.2,17.9-2.1,17.9-2.2,17.8-2.1,17.9-11.1-1.4-2.7-.4-2.8-.4-5.5-1-10.9-2-2.8-.5-2.7-.6-5.4-1.2-10.9-2.5-2.7-.7-2.7-.7-5.4-1.5-10.7-3.1-2.6-.8-2.7-.9-5.3-1.7-7-2.4-3.5-1.2-3.5-1.3-2.1,5.6a47.6,47.6,0,0,0,5.3,1.9l5.4,1.9,10.7,3.6,21.7,6.2c7.3,1.8,14.7,3.4,22,5.1l22.2,4c7.5,1.1,14.9,2,22.4,2.9l1.9-17.9,1.8-17.9,1.9-17.9,1.8-17.9,1.9-17.9L415,792l1.9-17.9-5.4-.7Z" fill="#b6e567"/>
            </g>
          </g>
          <g>
            <path d="M428.6,6.4l.9,18,.9,18,.9,17.9.9,18-18.6,1.4-1.8-17.9L410,43.9,408.2,26,406.4,8.1l-22.1,2.7-21.9,3.9c-7.3,1.5-14.5,3.3-21.7,4.9l4.4,17.5,4.5,17.4L354,72l4.5,17.4,4.4,17.4c5.8-1.3,11.5-2.7,17.3-3.9l17.5-3.1,17.6-2.2,17.8-1.3.8,18,.9,18,16-.5V5.8Z" fill="#3d6200" fill-rule="evenodd"/>
            <path d="M298.1,32.8,277.3,41c-6.7,3-13.5,6-20.2,9.2l-10,5-4.9,2.6-4.9,2.6-9.7,5.5-4.8,2.8-2.4,1.4L218,71.6l9.4,15.3,9.5,15.4,9.4,15.3,2.1-1.3,2.1-1.2,4.2-2.5,8.5-4.8a45,45,0,0,1,4.3-2.3l4.4-2.3,8.7-4.4c5.9-2.8,11.9-5.4,17.8-8.1l18.2-7.2,6.2,16.9-17.4,6.9c-5.6,2.5-11.3,5-17,7.7l-8.3,4.2-4.1,2.2c-1.4.7-2.8,1.3-4.1,2.1l-8.1,4.7-4.1,2.3-2,1.2-2,1.2,9.5,15.4,1.8-1.2,2-1.1,3.8-2.2,7.7-4.5,3.9-2,4-2.1,7.9-4,16.2-7.4,16.5-6.5,6.2,16.9-15.7,6.2-15.4,7,7.9,16.2,14.5-6.6,14.8-5.9,15.1-5.1-5.3-17.2-5.3-17.1-5.3-17.2-5.3-17.2-5.4-17.2-5.3-17.2-5.3-17.2Z" fill="#3d6200" fill-rule="evenodd"/>
            <path d="M181.3,96.8l-8.7,6.9-4.4,3.4-4.2,3.6-8.4,7.3-4.2,3.7-4.1,3.8-8,7.7c-1.3,1.3-2.7,2.5-4,3.9l-3.8,4c-5.1,5.4-10.4,10.7-15.1,16.4l13.5,11.8,13.5,11.9L157,193.1c4.1-5,8.7-9.7,13.2-14.4l3.4-3.5c1.1-1.2,2.3-2.3,3.5-3.4l7.1-6.8,3.5-3.4,3.7-3.2,7.4-6.4,3.7-3.2,3.9-3,7.7-6L225,154.1l-7.4,5.7-3.6,2.9-3.6,3.1-7,6.1-3.6,3-3.3,3.3-6.8,6.4c-1.1,1.1-2.3,2.1-3.3,3.3l-3.3,3.3c-4.2,4.6-8.6,9-12.6,13.8L184,216.8l13.5,11.9,13.6,11.9c3.4-4.1,7.2-7.9,10.8-11.8l2.8-2.9c.9-1,1.9-1.8,2.8-2.7l5.8-5.6,2.9-2.7,3-2.6,6.1-5.3,3-2.6,3.1-2.4,6.3-5-10.9-14.3-6.6,5.2-3.4,2.6-3.2,2.8-6.3,5.5c-1.1.9-2.2,1.8-3.2,2.8l-3.1,2.9-12.3-13.2,3.3-3,3.3-3,6.7-5.8c1.2-.9,2.3-1.9,3.4-2.9l3.5-2.7,7-5.5c2.3-1.9,4.7-3.6,7.1-5.3l7.3-5.1-10.2-14.9-10.2-14.8-10.2-14.9L209.5,98.6,199.4,83.8l-9.1,6.4C187.3,92.4,184.2,94.5,181.3,96.8Z" fill="#141f00" fill-rule="evenodd"/>
            <path d="M176.6,255.1l-14.7-10.4-14.6-10.5-14.6-10.5L118,213.3l-14.6-10.5L88.7,192.3l-6.4,9.1c-2.1,3.1-4,6.2-6.1,9.4l-5.9,9.3-5.6,9.7c-1.8,3.2-3.7,6.4-5.5,9.7l-5.1,9.9,16,8.1,16.1,8.2,16,8.2,4.5-8.7c1.5-2.9,3.2-5.7,4.8-8.5l15.6,8.9,15.7,9,15.6,8.9c-1.4,2.5-2.9,4.9-4.2,7.3l-3.8,7.5,16,8.2,3.6-7.1,4-6.9,4-7,4.3-6.7c1.4-2.2,2.8-4.5,4.3-6.7l4.6-6.5,2.3-3.2c.8-1.1,1.5-2.2,2.4-3.3l4.9-6.2-14.1-11.2-5.2,6.6c-.9,1.1-1.6,2.3-2.5,3.4Z" fill="#141f00" fill-rule="evenodd"/>
            <path d="M35.9,290.1l16.8,6.5,16.8,6.5,16.8,6.5,16.7,6.5,16.8,6.5,16.8,6.5,16.8,6.5-1.5,3.7-.7,1.9-.6,1.8-2.6,7.6-1.3,3.8-.6,1.9-.5,1.9-2.2,7.7c-1.6,5-2.6,10.2-3.9,15.4s-2,10.4-3,15.7-1.6,10.5-2.3,15.8l-17.9-2.2-17.8-2.1-17.9-2.1-17.9-2.1-17.9-2.2L27,400,9.1,397.9c.9-7.4,1.7-14.8,3.2-22s2.4-14.7,4.2-21.9,3.3-14.5,5.4-21.6L25,321.6l.7-2.6.9-2.7,1.8-5.3L32,300.5l.9-2.7,1-2.6ZM79.7,328l-1.6,4.6c-.3.8-.6,1.6-.8,2.3l-.6,2.4L74,346.7l17.3,4.8,17.4,4.8,17.3,4.8,2.3-8.1.6-2.1c.2-.6.4-1.3.7-2l1.3-4-17.1-5.6-17.1-5.7Z" fill="#141f00" fill-rule="evenodd"/>
            <path d="M420.8.9l1.2,18,1.2,18,1.2,17.9,1.2,18-9.5.7-4.7.4-4.7.6-2.1-17.9-2.1-17.9-2-17.8L398.4,3,387.2,4.4l-5.6.8-5.6.9-11.1,2-5.5,1.1-5.5,1.2-11,2.6-5.5,1.3-5.5,1.5,4.8,17.4,4.7,17.3,4.7,17.4,4.8,17.4,4.7,17.3,4.4-1.2,4.3-1,8.8-2.1,4.4-1,4.5-.8,8.9-1.6,4.4-.8,4.5-.6,9-1.1,4.4-.6,4.5-.4,9.1-.7,1.1,18,1.2,18,4.1-.4h4.1l8.1-.2-.3-18-.3-18-.3-18-.3-18-.3-18-.3-18-.3-18L432.1.3l-5.6.2Z" fill="#213500" fill-rule="evenodd"/>
            <path d="M289,29.9c-7,2.8-14.1,5.4-20.9,8.6l-10.3,4.7-2.5,1.2-2.5,1.2-5.1,2.6-10,5.2c-1.7.8-3.3,1.7-5,2.7l-4.9,2.8-9.7,5.6-9.6,6,9.7,15.2,9.7,15.2,9.7,15.2c2.8-1.8,5.5-3.7,8.4-5.3l8.6-5,4.3-2.5,4.3-2.4,8.9-4.5,4.4-2.3,2.2-1.1,2.3-1,9-4.1c6-2.9,12.2-5.2,18.4-7.6l6.5,16.8c-5.9,2.3-11.9,4.5-17.6,7.2l-8.6,3.9-2.2,1-2.1,1.1-4.2,2.2-8.4,4.3c-1.5.7-2.8,1.5-4.2,2.3l-4.1,2.3-8.2,4.8-8,5,9.7,15.2c2.5-1.6,5-3.3,7.6-4.8l7.8-4.5,3.9-2.3,4-2.2,8-4.1,4-2,2-1.1,2.1-.9,8.2-3.7c5.5-2.6,11.1-4.7,16.7-6.9l6.5,16.8c-5.3,2.1-10.7,4.1-15.9,6.5l-7.8,3.6-1.9.8-1.9,1-3.9,2,8.2,16.1,3.6-1.9,1.8-.9,1.8-.9,7.4-3.3c4.9-2.4,10-4.2,15-6.2s10.2-3.7,15.3-5.5l-5.6-17.1-5.6-17.1-5.6-17.1-5.6-17.1-5.6-17.1-5.6-17.1-5.6-17.1C303.2,24.8,296,27,289,29.9Z" fill="#598e00" fill-rule="evenodd"/>
            <path d="M171.8,96.7c-3,2.3-6,4.6-8.8,7l-8.6,7.4-4.2,3.7a37.9,37.9,0,0,0-4.2,3.8l-8.2,7.7-4.1,3.9c-.6.7-1.3,1.3-2,2l-1.9,2-7.8,8.2c-5.3,5.3-10.1,11.1-15.1,16.8l13.8,11.6,13.7,11.7,13.7,11.6c4.4-4.9,8.6-10.1,13.2-14.8l6.9-7.2,1.7-1.8,1.8-1.7,3.6-3.4,7.2-6.9,3.7-3.3,3.7-3.2,7.5-6.5c2.6-2.2,5.2-4.2,7.8-6.2l11.2,14.1-7.5,5.9-7.1,6.2-3.6,3.1-3.5,3.2-6.9,6.5-3.4,3.3-1.7,1.7-1.7,1.7-6.5,6.8c-4.5,4.5-8.5,9.4-12.7,14.2l13.8,11.6,13.7,11.7L203,240.7c3.6-4,7-8.3,10.9-12.1l5.6-5.9,1.4-1.5,1.4-1.4,3-2.8,5.9-5.6a25.2,25.2,0,0,1,3-2.7l3.1-2.7,6.1-5.3c2.1-1.8,4.3-3.4,6.4-5.1l-11.1-14.1-6.8,5.3-6.5,5.6-3.2,2.8-3.2,2.9-6.2,5.9-12.5-12.9,6.5-6.2,3.4-3.1,3.4-2.9,6.8-5.9c2.3-2,4.8-3.8,7.1-5.7l7.1-5.5,7.4-5.3-10.5-14.7-10.4-14.6-10.4-14.7L200.3,97.8,189.8,83.2l-9.2,6.5Z" fill="#598e00" fill-rule="evenodd"/>
            <path d="M168.4,256.3l-14.8-10.2-14.8-10.2-14.9-10.3-14.8-10.2L94.3,205.2,79.5,195c-1.1,1.5-2.2,3-3.2,4.6l-3.1,4.7-6.1,9.6c-2,3.1-3.8,6.4-5.7,9.6l-5.7,9.8-1.4,2.5L53,238.3l-2.5,5-5.2,10.1,16.2,7.9,16.2,7.8L93.9,277l4.5-8.8,2.3-4.4,1.1-2.2,1.2-2.2,15.8,8.7,15.8,8.7,15.7,8.7-1.1,1.8-.9,2-2,3.8-3.9,7.6,16.2,7.9,3.7-7.2,1.8-3.6,1-1.9,1-1.7,4-7.1c1.4-2.3,2.7-4.7,4.2-6.9l4.4-6.9,2.2-3.4c.7-1.2,1.5-2.2,2.3-3.4l4.7-6.6,2.4-3.3,2.5-3.2-14.3-11-2.7,3.4-2.4,3.5Z" fill="#598e00" fill-rule="evenodd"/>
            <path d="M27.6,294.9l16.9,6.2,16.9,6.2,16.8,6.3,16.9,6.2L112,326l16.9,6.2,16.9,6.3-5.2,15.3-4.5,15.7-3.7,15.8-2.8,16-2.1,16.1-17.9-1.8-17.9-1.8L73.8,412l-17.9-1.9L38,408.3l-17.9-1.8L2.2,404.7,5,382.3,9,360l5.1-22c2-7.2,4.1-14.5,6.2-21.7S25.1,302,27.6,294.9Zm44.2,37.5-5.4,19.1L83.8,356l17.4,4.5,17.5,4.5,4.7-16.5-17.2-5.4L89,337.7Z" fill="#497500" fill-rule="evenodd"/>
            <g style="mix-blend-mode: hard-light">
              <path d="M143.9,180.7l-13.5-11.9-13.5-11.9c4.7-5.7,10-10.9,15.1-16.3l3.8-4c1.3-1.4,2.7-2.6,4-3.9l8.1-7.7,4-3.8,4.2-3.7,8.4-7.2c1.5-1.2,2.8-2.5,4.3-3.6l4.4-3.5,8.7-6.8,2.9-2.3,3.1-2.2,6-4.3-3.5-4.9-9.1,6.6-8.9,6.9-8.9,7-8.5,7.4-8.5,7.4-8.2,7.8-4,3.9-2.1,2-1.9,2-7.8,8.1c-5.3,5.4-10.1,11.1-15.1,16.8l13.7,11.7L134.8,182l13.8,11.6,4.3-5Z" fill="#b6e567"/>
            </g>
            <g style="mix-blend-mode: hard-light">
              <path d="M217.4,199.7l4,4.4,3.1-2.9,3.2-2.8,6.4-5.5,2.1-1.8c.7-.7,1.5-1.2,2.2-1.8l4.4-3.5-3.7-4.7-6.7,5.3-6.5,5.7C223,194.6,220,197,217.4,199.7Z" fill="#b6e567"/>
            </g>
            <g style="mix-blend-mode: hard-light">
              <path d="M197.9,228.3l-13.5-11.9-13.5-11.9c4-4.8,8.4-9.2,12.7-13.7l3.2-3.4,3.4-3.2,6.7-6.5,3.4-3.2,3.5-3,7.1-6.1c1.2-1,2.3-2.1,3.6-3.1l3.6-2.8,7.4-5.8-10.9-14.3-5.2,4,7.5,9.4-7.5,5.9-7.2,6.2c-2.3,2.1-4.8,4.1-7.1,6.3l-6.8,6.5-3.5,3.3-1.7,1.6-1.6,1.7-6.6,6.9c-4.4,4.5-8.5,9.3-12.6,14.1L176,217l13.7,11.6,13.7,11.7,3.5-4.1Z" fill="#b6e567"/>
            </g>
            <g style="mix-blend-mode: hard-light">
              <path d="M434.5,114.3l-.8-18c-2,0-4,.3-6,.4l.8,12,1.2,17.9,5.4-.4Z" fill="#b6e567"/>
            </g>
            <g style="mix-blend-mode: hard-light">
              <path d="M414.2,79.7l18.6-1.4-.9-18-.8-18-.9-17.9-.8-18L444.2,6V0L432.8.3l-5.6.2-5.6.4,1.1,17.9,1.2,18,1.1,18,1.2,17.9-12.6,1Z" fill="#b6e567"/>
            </g>
            <g style="mix-blend-mode: hard-light">
              <path d="M359.1,89.3l-4.5-17.5-4.4-17.4-4.4-17.5-4.4-17.4,10.9-2.6,5.4-1.2,5.4-1.2,11-1.9,5.5-1c1.8-.3,3.6-.7,5.5-.9l14.7-1.9-.7-5.9L387.9,4.3l-5.6.7-5.5,1L365.7,8l-5.6,1-5.5,1.2-11,2.6-5.5,1.3-5.4,1.5L337.4,33l4.7,17.4,4.7,17.3,4.7,17.4,4.7,17.4,2.9-.9,1.4-.4,1.5-.3Z" fill="#b6e567"/>
            </g>
            <g style="mix-blend-mode: hard-light">
              <path d="M237.4,101.9,228,86.6l-9.4-15.4,4.8-2.8,4.8-2.8,9.7-5.6,19.8-10.2L278,40.7l20.8-8.2,14.1-4.7L311,22.1l-10.7,3.6L295,27.5l-5.3,2.1c-7,2.8-14.1,5.4-20.9,8.6s-13.8,6.1-20.4,9.7l-10,5.1-2.6,1.3-2.4,1.4-4.9,2.8-9.8,5.6-4.8,3-4.7,3,9.6,15.2,9.7,15.2,9.6,15.2,5.6-3.6Z" fill="#b6e567"/>
            </g>
            <g style="mix-blend-mode: hard-light">
              <path d="M256.3,132.6a38.5,38.5,0,0,1,4-2.4l4-2.3,8.1-4.7,16.6-8.5,17-7.7,17.4-6.8-6.2-16.9-6,2.3,4.2,11.3c-5.8,2.3-11.8,4.4-17.5,7.2s-11.6,5.1-17.1,8.1l-8.5,4.3-2.1,1.1-2,1.2-4.2,2.3-8.2,4.7-4,2.5-4,2.6,9.7,15.2,5-3.3Z" fill="#b6e567"/>
            </g>
            <g style="mix-blend-mode: hard-light">
              <path d="M304.6,147.1l15.4-6.9,15.7-6.2-6.2-16.9-5.5,2.2,4.3,11.2c-5.3,2.1-10.7,4-15.8,6.5s-10.5,4.6-15.6,7.3l8.1,16.1,4.9-2.5Z" fill="#b6e567"/>
            </g>
            <g style="mix-blend-mode: hard-light">
              <path d="M89.2,337.1l17.2,5.4,17.2,5.4c-1.2,3.7-2.1,7.4-3.2,11l5.8,1.6,2.3-8.1a15.2,15.2,0,0,1,.6-2l.6-2,1.4-4L114,338.7l-17.1-5.6-17-5.7-2.1,6.2Z" fill="#b6e567"/>
            </g>
            <g style="mix-blend-mode: hard-light">
              <path d="M176.9,254.7l3.3-4.6c1-1.5,2.3-3,3.4-4.5l-4.7-3.6c-1.2,1.5-2.5,3-3.5,4.5l-3.4,4.7Z" fill="#b6e567"/>
            </g>
            <g style="mix-blend-mode: hard-light">
              <path d="M86.5,265.1l-16-8.2-16.1-8.2,5.1-9.9,5.6-9.7c1.8-3.2,3.6-6.4,5.6-9.6l5.9-9.4c2.7-4.1,5.3-8.3,8.3-12.3l-5-3.4L76.7,199l-3.1,4.7-6,9.5c-1,1.6-2.1,3.2-3,4.8l-2.9,4.9-5.6,9.8c-1.9,3.2-3.6,6.6-5.3,9.9l-5.1,10.1,16.1,7.9L78,268.5l16.2,7.9,3-5.8Z" fill="#b6e567"/>
            </g>
            <g style="mix-blend-mode: hard-light">
              <path d="M150.6,297.8l3.8-7.5,4.3-7.3-15.6-9-15.6-8.9-15.6-9-3.3,5.6,10.5,5.9,15.8,8.7,15.7,8.7c-1.5,2.4-2.7,5-4,7.6l-3.9,7.6,16.1,7.9,2.5-4.8Z" fill="#b6e567"/>
            </g>
            <g style="mix-blend-mode: hard-light">
              <path d="M116.4,410.1l-17.9-2.2-17.8-2.1-17.9-2.2-17.9-2.1L27,399.3,9.2,397.2l1.4-11.1.3-2.7.5-2.8,1-5.5,2-10.9.5-2.8.6-2.7,1.2-5.4,2.5-10.9.7-2.7.7-2.7,1.5-5.4,3.1-10.7a19.8,19.8,0,0,1,.8-2.6l.8-2.7,1.8-5.3,2.4-7,1.2-3.5a36.2,36.2,0,0,1,1.3-3.5l-5.6-2.1a47.6,47.6,0,0,0-1.9,5.3l-1.9,5.4-3.6,10.7c-2.2,7.2-4.1,14.4-6.2,21.7s-3.4,14.7-5.1,22-2.7,14.8-4,22.2-2,14.9-2.9,22.4l17.9,1.9,17.9,1.8L56,409.5l17.9,1.8,17.9,1.9,17.9,1.8,17.9,1.9.7-5.4Z" fill="#b6e567"/>
            </g>
          </g>
          <g>
            <path d="M895.3,428.6l-18,.9-18,.9-17.9.9-18,.9L822,413.6l17.9-1.8,17.9-1.8,17.9-1.8,17.9-1.8c-.8-7.3-1.8-14.7-2.7-22.1s-2.6-14.6-3.9-21.9-3.3-14.5-4.9-21.7l-17.5,4.4-17.4,4.5L829.7,354l-17.4,4.5-17.4,4.4c1.2,5.8,2.7,11.5,3.9,17.3s2.1,11.7,3.1,17.5,1.5,11.7,2.2,17.6l1.3,17.8-18,.8-18,.9.4,16h126Z" fill="#3d6200" fill-rule="evenodd"/>
            <path d="M868.9,298.1c-2.7-6.9-5.4-13.9-8.2-20.8s-6-13.5-9.2-20.2l-5.1-10-2.5-4.9-2.6-4.9-5.6-9.7-2.7-4.8-1.4-2.4-1.5-2.4-15.3,9.4-15.4,9.5-15.3,9.4,1.3,2.1,1.2,2.1,2.5,4.2,4.8,8.5a45,45,0,0,1,2.3,4.3l2.3,4.4,4.4,8.7c2.8,5.9,5.4,11.9,8.1,17.8l7.2,18.2-16.9,6.2-6.9-17.4-7.7-17-4.2-8.3-2.2-4.1a32.3,32.3,0,0,0-2.2-4.1l-4.6-8.1-2.3-4.1-1.2-2-1.2-2-15.4,9.5,1.2,1.8,1.1,2,2.2,3.8,4.5,7.7c.7,1.3,1.4,2.6,2,3.9l2.1,4,4,7.9,7.4,16.2,6.5,16.5-16.9,6.2-6.2-15.7c-2.4-5.1-4.6-10.3-7-15.4L738.1,312l6.6,14.5,5.9,14.8,5,15.1,17.2-5.3,17.2-5.3,17.2-5.3,17.2-5.3,17.2-5.4,17.2-5.3,17.2-5.3C873.7,312.1,871.3,305.1,868.9,298.1Z" fill="#3d6200" fill-rule="evenodd"/>
            <path d="M804.9,181.3l-6.9-8.7-3.4-4.4-3.7-4.2-7.2-8.4-3.7-4.2-3.8-4.1-7.7-8c-1.3-1.3-2.5-2.7-3.9-4l-4-3.8c-5.4-5.1-10.7-10.4-16.4-15.1l-11.8,13.5-11.9,13.5L708.6,157c5,4.1,9.6,8.7,14.4,13.2l3.5,3.4c1.2,1.1,2.3,2.3,3.4,3.5l6.8,7.1,3.4,3.5,3.2,3.7,6.4,7.4,3.2,3.7,3,3.9,6,7.7L747.6,225l-5.7-7.4L739,214l-3.1-3.6-6.1-7-3-3.6-3.3-3.3-6.4-6.8c-1.1-1.1-2.1-2.3-3.3-3.3l-3.3-3.3c-4.6-4.2-9-8.6-13.8-12.6L684.9,184,673,197.5l-11.9,13.6c4.1,3.4,7.9,7.2,11.8,10.8l2.9,2.8,2.7,2.8,5.6,5.8,2.7,2.9,2.6,3,5.3,6.1,2.6,3,2.4,3.1,5,6.3L719,246.8l-5.2-6.6-2.6-3.4-2.8-3.2-5.5-6.3c-.9-1.1-1.8-2.2-2.8-3.2l-2.9-3.1,13.2-12.3,3,3.3,3,3.3,5.8,6.7c.9,1.2,1.9,2.3,2.9,3.4l2.7,3.5,5.5,7c1.9,2.3,3.6,4.7,5.3,7.1l5.1,7.3,14.9-10.2,14.8-10.2,14.9-10.2,14.8-10.2,14.8-10.1-6.4-9.1C809.3,187.3,807.2,184.2,804.9,181.3Z" fill="#141f00" fill-rule="evenodd"/>
            <path d="M646.5,176.6,657,161.9l10.5-14.6L678,132.7,688.4,118l10.5-14.6,10.5-14.7-9.1-6.4-9.4-6.1-9.3-5.9-9.7-5.6-9.7-5.5-9.9-5.1-8.1,16L636,86.2l-8.2,16,8.7,4.5c2.9,1.5,5.7,3.2,8.5,4.8l-8.9,15.6-9,15.7-8.9,15.6-7.3-4.2-7.6-3.8-8.1,16,7.1,3.6,6.9,4,6.9,4,6.8,4.3,6.7,4.3,6.5,4.6,3.2,2.3,3.3,2.4,6.2,4.9L660,186.7l-6.6-5.2L650,179Z" fill="#141f00" fill-rule="evenodd"/>
            <path d="M611.6,35.9l-6.5,16.8-6.5,16.8-6.5,16.8L585.6,103l-6.5,16.8-6.5,16.8-6.5,16.8-3.7-1.5-1.9-.7-1.9-.6-7.5-2.6-3.8-1.3-1.9-.6-1.9-.5-7.7-2.2c-5-1.6-10.3-2.6-15.4-3.9s-10.4-2-15.7-3-10.5-1.6-15.8-2.3l2.2-17.9,2.1-17.8,2.1-17.9,2.1-17.9,2.1-17.9L501.7,27l2.1-17.9c7.4.9,14.7,1.7,22,3.2s14.7,2.4,21.9,4.2,14.5,3.3,21.6,5.4L580.1,25l2.6.7,2.7.9,5.3,1.8L601.2,32l2.7.9,2.6,1ZM573.7,79.7l-4.6-1.6-2.4-.8-2.3-.6L555,74l-4.8,17.3-4.8,17.4L540.6,126l8.1,2.3,2.1.6,2,.7,3.9,1.3,5.7-17.1L568,96.7Z" fill="#141f00" fill-rule="evenodd"/>
            <path d="M900.8,420.8l-18,1.2-18,1.2-17.9,1.2-18,1.2-.7-9.5c-.1-1.6-.2-3.1-.4-4.7l-.6-4.7,17.9-2.1,17.9-2.1,17.8-2,17.9-2.1-1.4-11.2c-.3-1.9-.5-3.7-.8-5.6l-.9-5.6-2-11.1c-.4-1.8-.7-3.7-1.1-5.5l-1.2-5.5-2.6-11c-.4-1.9-.8-3.7-1.3-5.5l-1.5-5.5-17.4,4.8-17.3,4.7-17.4,4.7-17.4,4.8-17.3,4.7,1.2,4.4c.4,1.4.7,2.9,1,4.3l2.1,8.8,1,4.4c.3,1.5.5,3,.8,4.5l1.6,8.9.8,4.4.6,4.5,1.1,9,.6,4.4c.2,1.5.2,3,.4,4.5l.7,9.1-18,1.1-18,1.2.4,4.1c.1,1.3,0,2.7.1,4.1l.2,8.1,18-.3,18-.3,18-.3,18-.3,18-.3,18-.3,18-.3-.3-11.2c-.1-1.9-.1-3.8-.2-5.6Z" fill="#213500" fill-rule="evenodd"/>
            <path d="M871.8,289c-2.8-7-5.4-14.1-8.6-20.9l-4.7-10.3-1.2-2.5-1.2-2.5-2.6-5.1-5.2-10c-.8-1.7-1.8-3.3-2.7-5l-2.8-4.9-5.6-9.7c-2-3.3-4-6.4-6.1-9.6L816,218.2l-15.2,9.7-15.2,9.7c1.8,2.8,3.6,5.5,5.3,8.4l5,8.6,2.5,4.3,2.4,4.3,4.5,8.9,2.3,4.4,1.1,2.2,1,2.3,4.1,9c2.9,6,5.2,12.2,7.6,18.4l-16.8,6.5c-2.3-5.9-4.5-11.9-7.2-17.6l-4-8.6-.9-2.2-1.1-2.1-2.2-4.2-4.3-8.4c-.7-1.5-1.5-2.8-2.3-4.2l-2.3-4.1-4.8-8.2c-1.6-2.7-3.4-5.4-5-8L755.3,257c1.6,2.5,3.3,5,4.8,7.6l4.5,7.8,2.3,3.9c.7,1.3,1.5,2.6,2.2,4l4.1,8,2,4,1.1,2,.9,2.1,3.7,8.2c2.6,5.5,4.7,11.1,6.9,16.7L771,327.8c-2.1-5.3-4.1-10.7-6.6-15.9l-3.5-7.8-.9-1.9-.9-1.9-2-3.9L741,304.6l1.9,3.6.9,1.8.9,1.8,3.3,7.4c2.4,4.9,4.2,10,6.2,15s3.7,10.2,5.5,15.3l17.1-5.6,17.1-5.6,17.1-5.6,17.1-5.6,17.1-5.6,17.1-5.6,17.1-5.6C876.9,303.2,874.7,296,871.8,289Z" fill="#598e00" fill-rule="evenodd"/>
            <path d="M805,171.8c-2.3-3-4.6-6-7-8.8l-7.4-8.6-3.7-4.2a37.9,37.9,0,0,0-3.8-4.2l-7.7-8.2-3.9-4.1c-.7-.6-1.3-1.3-2-2l-2-1.9-8.2-7.8c-5.3-5.3-11.1-10.1-16.8-15.1l-11.6,13.8-11.7,13.7-11.6,13.7c4.9,4.4,10.1,8.6,14.8,13.2l7.2,6.9,1.8,1.7,1.7,1.8,3.4,3.6,6.9,7.2,3.3,3.7,3.2,3.7,6.5,7.5c2.2,2.6,4.2,5.2,6.2,7.8l-14.1,11.2-5.9-7.5-6.2-7.1-3.1-3.6c-1.1-1.2-2.1-2.4-3.2-3.5l-6.5-6.9-3.3-3.4c-.6-.6-1.1-1.2-1.7-1.7l-1.7-1.7-6.8-6.5c-4.5-4.5-9.4-8.5-14.2-12.7l-11.6,13.8-11.7,13.7L661,203c4,3.6,8.3,7,12.1,10.9l5.9,5.6,1.5,1.4,1.4,1.4,2.8,3,5.6,5.9a25.2,25.2,0,0,1,2.7,3l2.7,3.1,5.3,6.1c1.8,2.1,3.4,4.3,5.1,6.4l14.1-11.1c-1.8-2.3-3.5-4.6-5.3-6.8l-5.6-6.5-2.9-3.2c-.9-1.1-1.8-2.2-2.8-3.2l-6-6.2,13-12.5,6.2,6.5c1.1,1.1,2.1,2.2,3.1,3.4l2.9,3.4,5.9,6.8c2,2.3,3.8,4.8,5.7,7.1l5.5,7.1,5.3,7.4,14.7-10.5,14.6-10.4,14.7-10.4,14.7-10.4,14.6-10.5c-2.2-3-4.3-6.1-6.5-9.2Z" fill="#598e00" fill-rule="evenodd"/>
            <path d="M645.4,168.4l10.2-14.8,10.2-14.8L676,123.9l10.3-14.8,10.2-14.8,10.2-14.8c-1.5-1.1-3-2.2-4.6-3.2l-4.8-3.1-9.5-6.1c-3.1-2-6.4-3.8-9.6-5.7l-9.8-5.7-2.5-1.4L663.4,53l-5-2.5-10.1-5.2-7.9,16.2-7.9,16.2-7.8,16.2,8.8,4.5,4.4,2.3,2.2,1.1,2.2,1.2-8.7,15.8-8.7,15.8-8.7,15.7-1.9-1.1-1.9-.9-3.8-2-7.6-3.9-7.9,16.2,7.2,3.7,3.6,1.8,1.9,1,1.7,1,7.1,4c2.3,1.4,4.7,2.7,6.9,4.2l6.9,4.4,3.4,2.2a38.8,38.8,0,0,1,3.3,2.3l6.7,4.7,3.3,2.4,3.2,2.5,11-14.3-3.4-2.7-3.5-2.4Z" fill="#598e00" fill-rule="evenodd"/>
            <path d="M606.8,27.6l-6.2,16.9-6.3,16.9-6.2,16.8-6.2,16.9L575.7,112l-6.3,16.9-6.2,16.9-15.3-5.2-15.7-4.5-15.8-3.7-16-2.8-16.1-2.1,1.8-17.9,1.8-17.9,1.8-17.9,1.9-17.9L493.4,38l1.8-17.9L497,2.2,519.4,5l22.3,4,22,5.1,21.7,6.2ZM569.3,71.8l-19.1-5.4-4.5,17.4-4.5,17.4-4.5,17.5,16.5,4.7,5.4-17.2L563.9,89Z" fill="#497500" fill-rule="evenodd"/>
            <g style="mix-blend-mode: hard-light">
              <path d="M721,143.9l11.9-13.5,11.9-13.5c5.7,4.7,10.9,10,16.3,15.1l4,3.8,3.9,4,7.7,8.1,3.8,4,3.6,4.2,7.3,8.4c1.2,1.5,2.5,2.8,3.6,4.3l3.5,4.4,6.8,8.7c.8,1,1.6,1.9,2.3,2.9l2.2,3.1,4.3,6,4.9-3.5-6.6-9.1-6.9-8.9-7-8.9-7.4-8.5-7.4-8.5-7.8-8.2-3.9-4-2-2.1-2-1.9-8.1-7.8c-5.4-5.3-11.2-10.1-16.8-15.1l-11.7,13.7-11.7,13.7-11.6,13.8,5,4.3Z" fill="#b6e567"/>
            </g>
            <g style="mix-blend-mode: hard-light">
              <path d="M702,217.4l-4.4,4,2.9,3.1,2.8,3.2,5.5,6.4,1.8,2.1,1.8,2.2,3.5,4.4,4.7-3.7-5.3-6.7-5.7-6.5C707.1,223,704.7,220,702,217.4Z" fill="#b6e567"/>
            </g>
            <g style="mix-blend-mode: hard-light">
              <path d="M673.4,197.9l11.9-13.5,11.9-13.5c4.8,4,9.2,8.4,13.7,12.7l3.4,3.2,3.2,3.4,6.5,6.7,3.2,3.4,3,3.5,6.1,7.1c1,1.2,2.1,2.3,3.1,3.6l2.8,3.6,5.8,7.4,14.3-10.9-4-5.2-9.4,7.5-5.9-7.5-6.2-7.2c-2.1-2.3-4.1-4.8-6.3-7.1l-6.5-6.8-3.3-3.5-1.6-1.7-1.7-1.6-6.9-6.6c-4.5-4.4-9.3-8.5-14.1-12.6L684.7,176,673,189.7l-11.6,13.7,4.1,3.5Z" fill="#b6e567"/>
            </g>
            <g style="mix-blend-mode: hard-light">
              <path d="M787.4,434.5l18-.8c0-2-.3-4-.4-6l-12,.8-17.9,1.2c.1,1.8.3,3.6.3,5.4Z" fill="#b6e567"/>
            </g>
            <g style="mix-blend-mode: hard-light">
              <path d="M822,414.2c.5,6.2,1,12.4,1.4,18.6l18-.9,17.9-.8,18-.9,18-.8.4,14.8h6l-.3-11.3c-.1-1.8-.1-3.7-.2-5.6l-.4-5.6-18,1.1-17.9,1.2-18,1.1L829,426.2l-1-12.6Z" fill="#b6e567"/>
            </g>
            <g style="mix-blend-mode: hard-light">
              <path d="M812.4,359.1l17.5-4.5,17.4-4.4,17.5-4.4,17.4-4.4,2.6,10.9,1.2,5.4c.4,1.8.9,3.6,1.2,5.4l1.9,11,1,5.5c.3,1.8.7,3.6.9,5.5l1.9,14.7,5.9-.7-1.4-11.2-.7-5.6-1-5.5-2-11.1-1-5.6-1.3-5.5-2.5-11-1.3-5.5-1.5-5.4-17.4,4.7-17.4,4.7L834,346.8l-17.4,4.7-17.4,4.7.8,2.9.5,1.4.3,1.5Z" fill="#b6e567"/>
            </g>
            <g style="mix-blend-mode: hard-light">
              <path d="M799.8,237.4l15.3-9.4,15.4-9.4c1,1.6,1.9,3.2,2.8,4.8l2.8,4.8,5.6,9.7c3.4,6.6,6.8,13.2,10.1,19.8S858,271.2,861,278s5.5,13.8,8.1,20.8l4.8,14.1,5.7-1.9L876,300.3c-.6-1.8-1.2-3.6-1.9-5.3l-2-5.3c-2.8-7-5.4-14.1-8.6-20.9s-6.1-13.8-9.7-20.4l-5.1-10-1.3-2.6-1.4-2.4-2.8-4.9-5.7-9.8c-.9-1.6-1.9-3.2-2.9-4.8l-3.1-4.7-15.1,9.6-15.2,9.7L786,238.1l3.6,5.6Z" fill="#b6e567"/>
            </g>
            <g style="mix-blend-mode: hard-light">
              <path d="M769.1,256.3a38.5,38.5,0,0,1,2.4,4l2.3,4,4.7,8.1c2.9,5.5,5.6,11.1,8.5,16.6l7.7,17c2.2,5.8,4.6,11.6,6.8,17.4l16.9-6.2c-.7-2-1.6-4-2.4-6l-11.2,4.2c-2.3-5.8-4.4-11.8-7.2-17.5s-5.1-11.6-8.1-17.1l-4.3-8.5-1.1-2.1-1.2-2-2.3-4.2-4.8-8.2c-.7-1.4-1.6-2.7-2.4-4l-2.6-4-15.2,9.7,3.3,5Z" fill="#b6e567"/>
            </g>
            <g style="mix-blend-mode: hard-light">
              <path d="M754.6,304.6l6.9,15.4c2,5.2,4.1,10.4,6.1,15.7l17-6.2c-.7-1.8-1.5-3.6-2.2-5.5l-11.2,4.3c-2.1-5.3-4-10.7-6.5-15.8s-4.6-10.5-7.3-15.6L741.3,305l2.5,4.9Z" fill="#b6e567"/>
            </g>
            <g style="mix-blend-mode: hard-light">
              <path d="M564.5,89.2l-5.3,17.2-5.4,17.2c-3.7-1.2-7.4-2.1-11-3.2l-1.6,5.8,8.1,2.3,2,.6,2,.6,4,1.4L563,114l5.6-17.1,5.7-17-6.2-2.1Z" fill="#b6e567"/>
            </g>
            <g style="mix-blend-mode: hard-light">
              <path d="M647,176.9l4.6,3.3c1.5,1,3,2.3,4.4,3.4l3.7-4.7c-1.5-1.2-3-2.5-4.5-3.5l-4.7-3.4Z" fill="#b6e567"/>
            </g>
            <g style="mix-blend-mode: hard-light">
              <path d="M636.6,86.5l8.2-16L653,54.4l9.9,5.1,9.6,5.6c3.3,1.8,6.5,3.6,9.7,5.6l9.4,5.9c4.1,2.7,8.3,5.3,12.3,8.3l3.4-5-4.6-3.2L698,73.6l-9.5-6-4.8-3-4.9-2.9L669,56.1c-3.2-1.9-6.6-3.6-9.9-5.3L649,45.7l-7.9,16.1L633.2,78l-8,16.2,5.9,3Z" fill="#b6e567"/>
            </g>
            <g style="mix-blend-mode: hard-light">
              <path d="M603.8,150.6l7.6,3.8,7.3,4.3,8.9-15.6,9-15.6,9-15.6-5.7-3.3-5.8,10.5-8.7,15.8-8.7,15.7c-2.4-1.5-5-2.7-7.6-4l-7.6-3.9-7.9,16.1,4.8,2.5Z" fill="#b6e567"/>
            </g>
            <g style="mix-blend-mode: hard-light">
              <path d="M491.6,116.4l2.2-17.9,2.1-17.8,2.2-17.9,2.1-17.9L502.4,27l2.1-17.8,11.1,1.4,2.7.3,2.8.5,5.5,1,10.9,2,2.8.5,2.7.6,5.4,1.2,10.9,2.5,2.7.7,2.7.7,5.3,1.5,10.8,3.1,2.6.8,2.7.8,5.3,1.8,7,2.4,3.5,1.2,3.5,1.3,2.1-5.6a47.6,47.6,0,0,0-5.3-1.9l-5.4-1.9-10.7-3.6c-7.2-2.2-14.5-4.1-21.7-6.2s-14.7-3.4-22-5.1l-22.2-4c-7.5-1.1-15-2-22.4-2.9l-1.9,17.9-1.8,17.9L492.2,56l-1.8,17.9-1.9,17.9-1.8,17.9-1.9,17.9,5.4.7Z" fill="#b6e567"/>
            </g>
          </g>
        </g>
      </g>
      <g id="Layer_2-2" data-name="Layer 2">
        <g id="Layer_6" data-name="Layer 6">
          <g>
            <path d="M651,609.4l-9.2-7.3-9.2-7.3-9.2-7.3-9.2-7.3,3.2-4.1,1.5-2.1,1.5-2.2,3.1-4.2,2.8-4.4,2.8-4.4,2.6-4.5c.8-1.5,1.8-3,2.6-4.5l2.3-4.7,1.2-2.3a25.3,25.3,0,0,0,1.2-2.3l2.1-4.8,10.8,4.8,10.7,4.8,10.7,4.8,10.8,4.8,10.7,4.8,10.7,4.8,10.8,4.8-3,6.6c-.5,1.2-1.1,2.2-1.6,3.3l-1.7,3.2-3.3,6.5-3.6,6.3-3.6,6.3-4,6.2-9.9-6.4-9.8-6.3-9.9-6.4-3.5,5.4-3.7,5.2-1.9,2.6a24.8,24.8,0,0,1-1.9,2.6Zm-1.9-17,3.6-5,3.3-5.1-9.9-6.4-9.9-6.3-3,4.6-3.2,4.5,9.6,6.8Z" fill="#141f00" fill-rule="evenodd"/>
            <path d="M721.9,555.9l-11-4.3L700,547.4l-11-4.3-11-4.2-10.9-4.3-11-4.2-11-4.3,1-2.4.5-1.2.4-1.2,1.7-5,.8-2.4.4-1.3.4-1.2,1.4-5c1-3.3,1.7-6.8,2.5-10.1s1.4-6.8,2-10.3,1-6.8,1.5-10.3l11.7,1.4,11.6,1.4,11.7,1.4,11.7,1.4c-.6,4.2-1,8.4-1.8,12.6s-1.4,8.4-2.5,12.6-1.8,8.3-3.1,12.4l-1.7,6.1-.5,1.6a8.8,8.8,0,0,1-.5,1.5l-1,3,11.2,3.7,1-3.2.6-1.6.4-1.6,1.9-6.4c1.3-4.3,2.2-8.6,3.2-13s1.8-8.7,2.6-13.1l11.5,2,11.6,1.9c-.8,4.8-1.6,9.6-2.8,14.3s-2.1,9.5-3.5,14.1l-2,7-.5,1.8a10.9,10.9,0,0,1-.5,1.7l-1.2,3.5-2.3,6.9-.6,1.7-.7,1.7Zm-39.7-28.5.9-2.9a7.8,7.8,0,0,0,.5-1.4l.4-1.5,1.7-5.9-11.3-3.1L663,509.5l-1.5,5.3-.4,1.3a5,5,0,0,1-.4,1.3l-.9,2.6,11.2,3.7Z" fill="#141f00" fill-rule="evenodd"/>
            <path d="M450.8,741.5V682.7l11.7-.3,11.5-.8-1.1-11.7-11,.8-.6-11.7,10.4-.8,10.4-1.3,10.2-1.8,10.2-2.3,2.9,11.4,2.9,11.4,2.9,11.4,2.9,11.3,2.9,11.4,2.9,11.4,2.9,11.4c-4.7,1.1-9.4,2.3-14.2,3.3l-14.3,2.5-14.4,1.8-14.5,1.1Zm13.4-23.8,13.3-1L476.4,705l-1.2-11.7-12.2.9.6,11.7Z" fill="#141f00" fill-rule="evenodd"/>
            <path d="M536.8,728.6l-3.4-11.3-3.5-11.2-3.5-11.2-3.5-11.3-3.4-11.2L516,661.2l-3.5-11.3,9.9-3.3,9.7-3.8,9.4-4.3,4.7-2.4,2.3-1.2a16.7,16.7,0,0,0,2.3-1.2l4.5-2.6,2.3-1.3,1.1-.6,1.1-.7,6.2,10,6.1,10,6.2,10,6.2,10-1.4.9-1.4.8-2.7,1.6-5.6,3.2-2.8,1.5-2.9,1.4-5.6,2.9-11.7,5.3-11.9,4.7,4.1,11,4,11.1,4,11Zm-2.3-48.8,11.3-4.5-4.6-10.8-4.5-10.9-10.3,4.1,4.1,11Z" fill="#141f00" fill-rule="evenodd"/>
            <path d="M626.9,682.1l5.7-4.5,2.9-2.2,2.7-2.4,5.5-4.8,2.8-2.3,2.6-2.6,5.3-5,2.6-2.5,2.5-2.6c3.3-3.5,6.7-7,9.8-10.7l-8.8-7.8-8.8-7.7-8.9-7.8-8.8-7.7-8.9-7.8-8.8-7.8-8.8-7.7c-2.2,2.7-4.7,5.1-7.1,7.7l-1.8,1.9-1.9,1.8-3.8,3.6-1.8,1.8-2,1.7-4,3.4-1.9,1.7-2.1,1.6-4.1,3.3c-1.3,1.1-2.8,2-4.2,3l-4.2,3.1,6.6,9.7,6.7,9.7,4.7-3.4c1.6-1.1,3.2-2.2,4.7-3.4l-7.2-9.4,4.4-3.4,2.1-1.7,2.1-1.8,7.6,9,7.6,9,7.6,9-2.4,2-2.6,2-5,4-7.1-9.4c-1.6,1.3-3.3,2.4-4.9,3.6l-5,3.6,6.7,9.7,6.6,9.6,6.7,9.7,6.6,9.7,6-4.2Z" fill="#141f00" fill-rule="evenodd"/>
            <path d="M656.7,608.4l-9.3-7.1-9.3-7.2-9.4-7.1-9.3-7.2,1.7-2.1,1.5-2.1,3.1-4.4,1.5-2.1,1.4-2.3,2.9-4.5c1-1.4,1.8-3,2.7-4.5l2.7-4.6.6-1.2.6-1.2,1.2-2.3,2.5-4.7,1.1-2.4,1.1-2.5,2.2-4.8,10.8,4.6,10.8,4.6,10.8,4.7,10.8,4.6,10.8,4.6,10.9,4.6,10.8,4.6-3.1,6.8-1.5,3.3a33.6,33.6,0,0,1-1.6,3.3l-3.3,6.6-1.7,3.3-.9,1.6-.9,1.6-3.6,6.4-3.8,6.4-10-6.2-10-6.2-10-6.2-3.5,5.5-1.8,2.7c-.5.9-1.2,1.8-1.8,2.7l-3.8,5.2-1.9,2.7Zm-2-17.1,1.8-2.6,1.6-2.6,3.4-5.2-10-6.2-10-6.2-3,4.8-1.5,2.3-1.6,2.3,9.6,6.7Z" fill="#497500" fill-rule="evenodd"/>
            <path d="M727.3,552.7l-11-4.1-11-4-11.1-4.1-11-4-11-4.1-11.1-4.1-11-4,3.4-10.1,2.9-10.2,2.4-10.3,1.9-10.5,1.3-10.5,11.7,1.2,11.7,1.2,11.7,1.2,11.7,1.1-1.6,12.9-2.3,12.8L702,515.7l-3.6,12.5,11.2,3.5c1.3-4.3,2.5-8.7,3.8-13l3-13.2,2.4-13.4,11.6,1.8,11.7,1.7-2.6,14.6c-1.1,4.8-2.2,9.6-3.4,14.3s-2.6,9.5-4,14.2S729,548.1,727.3,552.7Zm-40.1-28,3.4-11.9-11.4-2.9-11.4-3-3,10.8,11.2,3.5Z" fill="#497500" fill-rule="evenodd"/>
            <path d="M455.7,745.3V733.6l-.2-11.8-.2-11.7-.2-11.8-.2-11.7,5.9-.2h2.9l3-.2,5.9-.5,2.9-.2,2.9-.4L477,673.3l-2.8.4-2.8.2-5.6.4-.8-11.7,5.3-.4,2.7-.2,2.6-.4,5.3-.6,2.6-.4,2.6-.4,5.3-1,2.6-.4,2.6-.6,5.1-1.2,2.6-.7,2.6-.7L510,667l3.1,11.3,3,11.3,3.1,11.4,3.1,11.3,3.1,11.4,3.1,11.3-3.5,1-3.6.9-7.2,1.6-3.6.9-3.6.6-7.3,1.3-3.6.7-3.7.5-7.3.9-3.6.5-3.7.3-7.4.5-3.6.3h-3.7Zm13.2-24,6.8-.5,3.3-.3,3.4-.5L481,708.4l-1.3-11.7-3.1.4-3.1.2-6.1.5.7,11.7Z" fill="#598e00" fill-rule="evenodd"/>
            <path d="M542.7,730.8,539,719.6l-3.7-11.2-3.6-11.1L528,686.1l-3.7-11.2-3.6-11.2L517,652.6c3.4-1.2,6.8-2.2,10-3.6s6.6-2.5,9.8-4.1l4.9-2.1,1.2-.6,1.1-.6,2.4-1.2,4.7-2.4,2.4-1.3,2.3-1.3,4.6-2.7,4.4-2.8,6.4,9.9,6.3,9.9,6.3,9.9,6.4,9.9-5.5,3.5-5.7,3.2-2.8,1.7-2.8,1.5-5.8,3-2.9,1.5-1.4.7-1.5.7-5.9,2.6c-3.9,1.9-8,3.4-12,5l4.2,11,4.2,11,4.3,10.9C552,727.7,547.3,729.2,542.7,730.8Zm-3-48.9c3.8-1.5,7.7-2.9,11.4-4.7l-4.7-10.8-4.8-10.7c-3.4,1.6-6.9,2.9-10.4,4.3l4.3,11Z" fill="#213500" fill-rule="evenodd"/>
            <path d="M633.1,682.2l5.8-4.6,5.6-4.8,2.8-2.4,2.7-2.5,5.3-5.1,2.7-2.5,1.3-1.3,1.3-1.3,5.1-5.4c3.4-3.5,6.6-7.2,9.8-10.9l-9-7.7-8.9-7.6-9-7.6-9-7.6-8.9-7.6-9-7.6-9-7.6c-2.3,2.7-4.5,5.4-7,7.9l-3.7,3.9-.9.9a9.4,9.4,0,0,1-1,1l-1.9,1.8-3.9,3.7-1.9,1.7-2.1,1.8-4,3.5-4.1,3.3-4.2,3.3-4.3,3,6.8,9.6,6.8,9.6,4.8-3.4,4.6-3.7-7.3-9.2,4.4-3.5,4.3-3.7,7.7,8.9,7.7,8.9,7.8,8.8-4.9,4.3-5.1,4-7.3-9.2-4.9,3.8-5,3.6,6.8,9.6,6.8,9.6,6.8,9.5,6.9,9.6c2-1.4,4-2.8,5.9-4.3Z" fill="#213500" fill-rule="evenodd"/>
            <g style="mix-blend-mode: hard-light">
              <path d="M535.1,671.1l-4.2-11,6.9-2.7-1.5-3.6-10.2,4,4,11,4,11.1,3.8-1.5Z" fill="#b6e567"/>
            </g>
            <g style="mix-blend-mode: hard-light">
              <path d="M616.1,596.2l8.8,7.8,8.8,7.8,8.8,7.7,8.9,7.8,8.8,7.8,8.8,7.8c-3.1,3.7-6.5,7.1-9.9,10.6l-2.5,2.6-2.6,2.6-5.3,5-2.6,2.5-2.7,2.4-5.5,4.7-2.8,2.4-2.9,2.2-5.7,4.5-1.9,1.5-2,1.4-3.9,2.8,2.3,3.2,6-4.3,5.8-4.5,5.7-4.6,5.6-4.8,5.5-4.9,5.4-5,2.6-2.6,1.4-1.3,1.2-1.3,5.1-5.3c3.5-3.5,6.6-7.3,9.9-11l-9-7.6-8.9-7.6-9-7.6-8.9-7.7-9-7.6-8.9-7.6-9-7.6-2.3,2.6Z" fill="#b6e567"/>
            </g>
            <g style="mix-blend-mode: hard-light">
              <path d="M589.2,627l2.9-2.3,1.5-1.1,1.4-1.3-2.6-3a18.1,18.1,0,0,1-2.1,1.8l-2.1,1.7-4.4,3.4,7.2,9.4-1.6,1.2-1.5,1.1-3.2,2.2,2.3,3.2,4.8-3.4,4.6-3.6Z" fill="#b6e567"/>
            </g>
            <g style="mix-blend-mode: hard-light">
              <path d="M467.7,709.6l-.8-11.8,8.3-.6-.4-3.9c-4.1.3-8.1.7-12.2.9l.6,11.7.6,11.8,4.4-.3Z" fill="#b6e567"/>
            </g>
            <g style="mix-blend-mode: hard-light">
              <polygon points="472.5 669.9 465.2 670.5 465.4 674.4 472.9 673.8 472.5 669.9" fill="#b6e567"/>
            </g>
            <g style="mix-blend-mode: hard-light">
              <path d="M505,664.2l2.9,11.4,2.9,11.4,2.9,11.4,2.9,11.4,2.9,11.4,2.8,11.4-7.1,1.7-3.5.8a22.9,22.9,0,0,1-3.6.7l-7.1,1.3-3.6.7-3.6.5-7.2,1-3.6.4-3.6.4-14.5,1.1-9.7.2v3.9h7.3l3.7-.2,3.7-.2,7.3-.6,3.7-.3,3.6-.4,7.3-1,3.7-.4,3.6-.7,7.3-1.3,3.6-.6,3.6-.8,7.2-1.7,3.6-.8,3.6-1L525,723.8l-3.1-11.3-3.1-11.4-3-11.3-3.1-11.4-3.1-11.3-3.1-11.4-1.7.5-.8.2-.9.2Z" fill="#b6e567"/>
            </g>
            <g style="mix-blend-mode: hard-light">
              <path d="M565.7,638.7l6.1,10,6.2,10,6.1,10.1-2.7,1.6-2.8,1.6-5.6,3.2c-3.7,2-7.5,3.9-11.3,5.8L550,686.3l-11.9,4.6,4,11.1,4.1,11,4,11.1-9.2,3.1,1.2,3.7,7-2.3,3.5-1.2,3.4-1.4-4.2-11-4.2-11-4.2-10.9c4-1.7,8.1-3.1,12-5s7.9-3.5,11.7-5.5l5.8-3,1.4-.7,1.5-.8,2.8-1.6,5.6-3.3,2.8-1.7,2.7-1.7-6.3-10-6.3-9.9-6.3-9.9-6.3-9.9-3,1.9Z" fill="#b6e567"/>
            </g>
            <g style="mix-blend-mode: hard-light">
              <path d="M669.3,477.5l11.7,1.4,11.7,1.4,11.6,1.4-.8,6.3-.2,1.6-.2,1.6-.6,3.1-1.1,6.3-.3,1.6-.4,1.6-.7,3.1-1.4,6.2-.4,1.6-.4,1.5-.9,3.1-1.7,6.1c-.2.5-.3,1.1-.5,1.6l-.5,1.5-1,3,11.1,3.7,1.5-4.2-7.5-2.4,3.6-12.4c1-4.2,1.9-8.5,2.9-12.7s1.5-8.5,2.3-12.8,1.1-8.5,1.7-12.8l-11.7-1.2-11.7-1.3-11.7-1.2L662,473l-.5,3.5Z" fill="#b6e567"/>
            </g>
            <g style="mix-blend-mode: hard-light">
              <polygon points="603.7 645.5 600.4 648.1 605.2 654.3 608.5 651.7 603.7 645.5" fill="#b6e567"/>
            </g>
            <g style="mix-blend-mode: hard-light">
              <path d="M675.8,521.6l-11.2-3.5c.8-2.4,1.4-4.8,2.1-7.2l-3.8-1.1-1.5,5.3a7.4,7.4,0,0,1-.4,1.4l-.4,1.3-.9,2.6,11.2,3.7,11.1,3.7,1.3-3.9Z" fill="#b6e567"/>
            </g>
            <g style="mix-blend-mode: hard-light">
              <path d="M644.8,584.9l-9.7-6.7c1.5-2,2.8-4.1,4.2-6.2l-3.3-2.1-1.5,2.3-1.5,2.3-3.2,4.5,9.5,6.8,9.6,6.9,2.3-3.3Z" fill="#b6e567"/>
            </g>
            <g style="mix-blend-mode: hard-light">
              <path d="M668.9,591.1l-3.3-2.1-1.7,2.7a24,24,0,0,1-1.8,2.6l-3.7,5.2L656,603c-.8,1.2-1.8,2.3-2.6,3.4l3.1,2.4,2-2.6,1.9-2.6,3.7-5.3A81.9,81.9,0,0,0,668.9,591.1Z" fill="#b6e567"/>
            </g>
            <g style="mix-blend-mode: hard-light">
              <path d="M736,525c1.2-4.8,2.3-9.6,3.4-14.4s1.7-9.6,2.6-14.5l-11.6-1.8-11.7-1.8-.8,4.5,7.8,1.3,11.6,2-1.3,7.2-.4,1.8-.4,1.7-.8,3.6-1.6,7.1-.4,1.8-.5,1.7-1,3.5-2,7c-.2.6-.3,1.2-.5,1.8l-.6,1.7-1.2,3.4-1.5,4.6-.8,2.3a15.5,15.5,0,0,1-.8,2.3l3.7,1.4,1.2-3.5,1.2-3.5,2.3-7C733.4,534.5,734.7,529.8,736,525Z" fill="#b6e567"/>
            </g>
            <g style="mix-blend-mode: hard-light">
              <path d="M651.7,540.9l10.7,4.8,10.8,4.8,10.7,4.8,10.7,4.8,10.8,4.8,10.7,4.9-3,6.6-3.3,6.5-3.3,6.5-3.7,6.3-2.4,4.2-1.2,2.1-1.3,2,3.3,2.1c.7-1.1,1.4-2.1,2-3.2l1.8-3.1,3.7-6.4,3.5-6.6,3.3-6.5.8-1.7.8-1.6,1.5-3.4,3.1-6.7-10.8-4.7-10.8-4.6L689.3,553l-10.8-4.7-10.9-4.6-10.8-4.6L646,534.4l-1.4,3.3Z" fill="#b6e567"/>
            </g>
          </g>
        </g>
        <g id="Layer_5" data-name="Layer 5">
          <g>
            <path d="M292.3,651l7.3-9.2,7.3-9.2,7.3-9.2,7.3-9.2,4.1,3.2,2.1,1.5,2.1,1.5,4.3,3.1,4.4,2.8,4.4,2.8,4.5,2.6,4.5,2.6,4.7,2.3,2.3,1.2a25.3,25.3,0,0,0,2.3,1.2l4.8,2.1-4.8,10.8-4.8,10.7-4.8,10.7-4.8,10.8L342,694.8l-4.8,10.7-4.8,10.8-6.7-3-3.2-1.6-3.3-1.7-6.4-3.3-6.4-3.6-6.3-3.6-6.1-4,6.4-9.9,6.3-9.8,6.4-9.9-5.4-3.5-5.2-3.7-2.6-1.9a24.8,24.8,0,0,1-2.6-1.9Zm17-1.9,5,3.6,5.1,3.3,6.4-9.9,6.3-9.9-4.6-3L323,630l-6.8,9.6Z" fill="#141f00" fill-rule="evenodd"/>
            <path d="M345.8,721.9l4.3-11,4.2-10.9,4.3-11,4.2-11,4.3-10.9,4.2-11,4.3-11,2.4,1,1.2.5,1.2.4,5,1.7,2.4.8,1.3.4,1.2.4,5,1.4c3.3,1,6.8,1.7,10.1,2.5s6.8,1.4,10.2,2,6.9,1,10.4,1.5l-1.4,11.7L423.2,681l-1.4,11.7-1.4,11.7c-4.2-.6-8.4-1-12.6-1.8s-8.4-1.4-12.6-2.5-8.3-1.8-12.4-3.1l-6.1-1.7-1.6-.5-1.5-.5-3-1-3.7,11.2,3.2,1,1.6.6,1.6.4,6.4,1.9c4.3,1.3,8.6,2.2,13,3.2s8.7,1.8,13.1,2.6l-2,11.5-1.9,11.6c-4.8-.8-9.6-1.6-14.3-2.8s-9.5-2.1-14.1-3.5l-7.1-2-1.7-.5L363,728l-3.5-1.2-6.9-2.3-1.7-.6-1.7-.7Zm28.5-39.7,2.9.9,1.4.5,1.5.4,5.9,1.7,3.1-11.3,3.1-11.4-5.3-1.5-1.3-.4-1.3-.4-2.6-.9L378,671Z" fill="#141f00" fill-rule="evenodd"/>
            <path d="M160.2,450.8H219l.2,11.7.9,11.5,11.7-1.1-.8-11,11.7-.6.8,10.4c.4,3.5.9,6.9,1.3,10.4l1.8,10.2c.7,3.4,1.6,6.8,2.3,10.2l-11.4,2.9-11.4,2.9-11.4,2.9-11.4,2.9L192,517l-11.4,2.9-11.4,2.9c-1.1-4.7-2.3-9.4-3.3-14.2s-1.7-9.5-2.5-14.3-1.3-9.6-1.8-14.4-.8-9.7-1.1-14.5ZM184,464.2c.3,4.4.7,8.9,1,13.3l11.7-1.1,11.7-1.2-.9-12.2-11.7.6Z" fill="#141f00" fill-rule="evenodd"/>
            <path d="M173.1,536.8l11.2-3.4,11.3-3.5,11.2-3.5,11.2-3.5,11.3-3.4,11.2-3.5,11.2-3.5,3.4,9.9,3.8,9.7,4.3,9.4,2.4,4.7,1.2,2.3a16.7,16.7,0,0,0,1.2,2.3l2.6,4.5,1.3,2.3.6,1.1.7,1.1-10,6.2-10,6.1-10,6.2-10,6.2-.9-1.4-.8-1.4-1.6-2.7-3.2-5.6-1.5-2.8-1.4-2.9-2.9-5.6c-1.8-3.9-3.6-7.8-5.3-11.7l-4.7-11.9-11.1,4.1-11,4-11,4C176.2,546,174.6,541.4,173.1,536.8Zm48.8-2.3,4.5,11.3,10.8-4.6,10.9-4.5L244,526.4l-11,4.1Z" fill="#141f00" fill-rule="evenodd"/>
            <path d="M219.6,626.9l4.5,5.7,2.2,2.9,2.4,2.7,4.7,5.5,2.4,2.8,2.5,2.6,5.1,5.3,2.5,2.6,2.6,2.5c3.5,3.3,7,6.7,10.7,9.8l7.8-8.8,7.7-8.8,7.8-8.9,7.7-8.8,7.8-8.9,7.7-8.8,7.8-8.8c-2.7-2.2-5.1-4.7-7.7-7.1l-1.9-1.8-1.8-1.9-3.6-3.8-1.8-1.8c-.6-.7-1.1-1.4-1.7-2l-3.4-4-1.7-1.9-1.6-2.1L285,577c-1.1-1.3-2-2.8-3.1-4.2l-3-4.2-9.7,6.6-9.7,6.7,3.4,4.7c1.1,1.6,2.2,3.2,3.4,4.7l9.4-7.2,3.4,4.4,1.7,2.1,1.8,2.1-9,7.6-9,7.6-9,7.6-2-2.4-2-2.6-4-5,9.4-7.1c-1.3-1.6-2.5-3.3-3.6-4.9l-3.6-5-9.7,6.7-9.7,6.6-9.6,6.7-9.7,6.6,4.2,6C216.7,623,218.1,625,219.6,626.9Z" fill="#141f00" fill-rule="evenodd"/>
            <path d="M293.3,656.7l7.1-9.3,7.2-9.3,7.1-9.4,7.2-9.3,2.1,1.7,2.1,1.5,4.4,3.1,2.1,1.5,2.3,1.4,4.4,2.9c1.5,1,3.1,1.8,4.6,2.7l4.6,2.7,1.2.6,1.1.6,2.4,1.2,4.7,2.5,2.4,1.1,2.4,1.1,4.9,2.2L363,657l-4.7,10.8-4.6,10.8-4.6,10.8-4.6,10.8-4.6,10.9-4.6,10.8-6.8-3.1-3.3-1.5-3.4-1.6-6.5-3.3-3.3-1.7-1.6-.9-1.6-.9-6.4-3.6-6.4-3.8,6.2-10,6.2-10,6.2-10-5.5-3.5-2.7-1.8c-.9-.5-1.8-1.2-2.7-1.8l-5.2-3.8-2.7-1.9Zm17.1-2,2.6,1.8,2.6,1.6,5.2,3.4,6.2-10,6.2-10-4.8-3-2.3-1.5-2.3-1.6-6.7,9.6Z" fill="#497500" fill-rule="evenodd"/>
            <path d="M349,727.3l4-11,4.1-11,4.1-11.1,4-11,4.1-11,4.1-11.1,4-11,10.1,3.4,10.2,2.9,10.3,2.4,10.5,1.9L429,662l-1.2,11.7-1.2,11.7-1.2,11.7-1.2,11.7-12.8-1.6-12.8-2.3L385.9,702l-12.4-3.6L370,709.6l13,3.8,13.2,3,13.4,2.4-1.8,11.6L406,742.1l-14.5-2.6-14.4-3.4-14.2-4C358.3,730.5,353.6,729,349,727.3Zm28-40.1,11.9,3.4,2.9-11.4,2.9-11.4-10.7-3L380.5,676Z" fill="#497500" fill-rule="evenodd"/>
            <path d="M156.4,455.7h11.7l11.8-.2,11.7-.2,11.8-.2,11.7-.2.2,5.9a27.1,27.1,0,0,0,.1,2.9l.2,3,.5,5.9c.1.9.1,1.9.2,2.9l.4,2.9,11.7-1.3-.4-2.8c-.1-.9-.1-1.9-.2-2.8l-.4-5.6,11.7-.8.4,5.3c.1.9.1,1.8.2,2.7l.3,2.6.7,5.3a20.2,20.2,0,0,0,.4,2.6l.4,2.6,1,5.3c.1.8.2,1.7.4,2.6l.6,2.6,1.2,5.1.6,2.6.8,2.6L234.7,510l-11.3,3.1-11.4,3-11.3,3.1-11.3,3.1L178,525.4l-11.3,3.1-1-3.5c-.4-1.2-.6-2.4-.9-3.6l-1.7-7.2-.8-3.6c-.2-1.2-.4-2.4-.7-3.6l-1.2-7.3-.7-3.6c-.2-1.2-.3-2.5-.5-3.7l-.9-7.3-.5-3.6-.3-3.7-.5-7.4-.3-3.6c-.1-1.2-.1-2.5-.2-3.7Zm24,13.2.5,6.8.3,3.3.4,3.4,11.7-1.4,11.7-1.3-.4-3.1a30.3,30.3,0,0,1-.2-3.1l-.5-6.1-11.7.7Z" fill="#598e00" fill-rule="evenodd"/>
            <path d="M170.9,542.7l11.2-3.7,11.2-3.7,11.1-3.6,11.2-3.7,11.2-3.7,11.2-3.6,11.1-3.7c1.2,3.4,2.2,6.8,3.6,10s2.5,6.6,4,9.8l2.2,4.9.6,1.2.6,1.1,1.2,2.4,2.4,4.7c.4.8.8,1.6,1.3,2.4l1.3,2.3,2.7,4.6,2.8,4.4-9.9,6.4-9.9,6.3-9.9,6.3-9.9,6.4-3.5-5.5-3.2-5.7-1.7-2.8a24.9,24.9,0,0,1-1.5-2.8l-3-5.8-1.5-2.9-.7-1.4-.7-1.5-2.6-5.9c-1.9-3.9-3.4-8-5-12l-11,4.2-11,4.2-10.9,4.3C174,552,172.5,547.3,170.9,542.7Zm48.9-3c1.5,3.8,2.9,7.7,4.7,11.4l10.7-4.7,10.8-4.8c-1.6-3.4-2.9-6.9-4.3-10.4l-11,4.3Z" fill="#213500" fill-rule="evenodd"/>
            <path d="M219.5,633.1c1.5,2,3,3.9,4.6,5.8l4.8,5.6,2.4,2.8,2.5,2.7,5.1,5.3,2.5,2.7,1.3,1.3,1.3,1.3,5.3,5.1c3.5,3.4,7.3,6.6,11,9.8l7.6-9,7.7-8.9,7.6-9,7.6-9,7.6-8.9,7.6-9,7.6-9c-2.7-2.3-5.4-4.5-7.9-7l-3.9-3.7-1-.9-.9-1-1.8-1.9-3.7-3.9-1.8-1.9-1.7-2.1-3.5-4-3.3-4.1-3.3-4.2-3.1-4.3-9.5,6.8-9.6,6.8,3.4,4.8,3.7,4.6,9.2-7.3c1.2,1.5,2.3,3,3.5,4.4l3.6,4.3-8.8,7.7-8.9,7.7-8.8,7.8-4.3-4.9-4-5.1,9.2-7.3-3.8-4.9-3.6-5-9.6,6.8-9.6,6.8-9.6,6.8-9.5,6.9c1.4,2,2.8,4,4.3,5.9Z" fill="#213500" fill-rule="evenodd"/>
            <g style="mix-blend-mode: hard-light">
              <path d="M230.6,535.1l11-4.2,2.7,6.9,3.6-1.5-4-10.2-11,4-11.1,4,1.5,3.8Z" fill="#b6e567"/>
            </g>
            <g style="mix-blend-mode: hard-light">
              <path d="M305.5,616.1l-7.8,8.8-7.8,8.8-7.7,8.8-7.8,8.9-7.8,8.8-7.8,8.8c-3.7-3.1-7.1-6.5-10.6-9.9l-2.7-2.5L243,654l-5-5.3-2.5-2.6-2.4-2.7-4.7-5.5-2.4-2.8-2.2-2.9-4.5-5.7-1.5-1.9-1.4-2-2.8-3.9-3.2,2.3,4.3,6,4.5,5.8,4.6,5.7,4.8,5.6,4.8,5.5,5.1,5.4,2.6,2.6,1.2,1.4,1.4,1.2,5.3,5.1c3.5,3.5,7.3,6.6,11,9.9l7.6-9,7.6-8.9,7.6-9,7.7-8.9,7.6-9,7.6-8.9,7.6-9-2.7-2.3Z" fill="#b6e567"/>
            </g>
            <g style="mix-blend-mode: hard-light">
              <path d="M274.7,589.2l2.3,2.9,1.1,1.5,1.3,1.4,3-2.6a18.1,18.1,0,0,1-1.8-2.1l-1.7-2.1-3.4-4.4-9.4,7.2-1.2-1.6-1.1-1.5-2.2-3.2-3.2,2.3,3.4,4.8,3.6,4.6Z" fill="#b6e567"/>
            </g>
            <g style="mix-blend-mode: hard-light">
              <path d="M192.1,467.7l11.8-.8.6,8.3,3.9-.4c-.3-4.1-.7-8.1-.9-12.2l-11.7.6-11.8.6c0,1.4.2,2.9.3,4.4Z" fill="#b6e567"/>
            </g>
            <g style="mix-blend-mode: hard-light">
              <polygon points="231.8 472.5 231.2 465.2 227.3 465.4 227.9 472.9 231.8 472.5" fill="#b6e567"/>
            </g>
            <g style="mix-blend-mode: hard-light">
              <path d="M237.4,505,226,507.9l-11.3,2.9-11.4,2.9-11.4,2.9-11.4,2.9-11.4,2.8-1.7-7.1-.8-3.5c-.3-1.2-.6-2.4-.8-3.6l-1.2-7.1-.7-3.6-.6-3.6-.9-7.2L162,483a22,22,0,0,1-.4-3.6c-.4-4.9-.8-9.7-1.1-14.5l-.2-9.7h-4l.2,7.3c.1,1.2.1,2.5.2,3.7l.2,3.7.6,7.3.3,3.7.4,3.6,1,7.3.4,3.7.7,3.6,1.3,7.3.6,3.6.8,3.6,1.7,7.2.8,3.6,1,3.6,11.4-3.1,11.3-3.1,11.4-3.1,11.3-3,11.4-3.1,11.3-3.1,11.4-3.1-.5-1.7-.3-.8-.2-.9Z" fill="#b6e567"/>
            </g>
            <g style="mix-blend-mode: hard-light">
              <path d="M263,565.7l-10,6.1L243,578l-10.1,6.1c-.6-.9-1.1-1.8-1.6-2.7l-1.6-2.8-3.2-5.6c-2-3.7-3.9-7.5-5.8-11.3L215.4,550c-1.5-3.9-3.1-7.9-4.6-11.9l-11.1,4-11,4.1-11.1,4-3.1-9.2-3.7,1.2,2.3,7,1.2,3.5,1.4,3.4,11-4.2,10.9-4.2,11-4.2c1.6,4,3.1,8.1,5,12s3.5,7.9,5.5,11.7l3,5.8.7,1.4.8,1.5,1.6,2.8,3.3,5.6,1.7,2.8,1.7,2.7,10-6.3,9.9-6.3,9.9-6.3,9.9-6.3-1.9-3Z" fill="#b6e567"/>
            </g>
            <g style="mix-blend-mode: hard-light">
              <path d="M424.2,669.3,422.8,681l-1.4,11.7L420,704.3l-6.3-.8-1.6-.2-1.6-.2-3.1-.6-6.3-1.1-1.6-.3-1.6-.4-3.1-.7-6.2-1.4-1.6-.4-1.5-.4-3.1-.9-6.1-1.7-1.6-.5-1.5-.5-3-1-3.7,11.1,4.2,1.5,2.4-7.5,12.4,3.6,12.7,2.9,12.7,2.3,12.9,1.7,1.2-11.7,1.2-11.7,1.3-11.7,1.2-11.7-3.5-.5Z" fill="#b6e567"/>
            </g>
            <g style="mix-blend-mode: hard-light">
              <polygon points="256.2 603.7 253.6 600.4 247.4 605.2 250 608.5 256.2 603.7" fill="#b6e567"/>
            </g>
            <g style="mix-blend-mode: hard-light">
              <path d="M380.1,675.8l3.5-11.2,7.2,2.1,1-3.8-5.2-1.5-1.4-.4-1.3-.4-2.6-.9-3.7,11.2L373.9,682l3.9,1.3Z" fill="#b6e567"/>
            </g>
            <g style="mix-blend-mode: hard-light">
              <path d="M316.8,644.8l6.7-9.7c2,1.5,4.1,2.8,6.2,4.2l2.1-3.3-2.3-1.5-2.3-1.5-4.5-3.2-6.8,9.5-6.9,9.6,3.3,2.3Z" fill="#b6e567"/>
            </g>
            <g style="mix-blend-mode: hard-light">
              <path d="M310.6,668.9l2.1-3.3-2.7-1.7a24,24,0,0,1-2.6-1.8l-5.3-3.7-3.4-2.4c-1.2-.8-2.3-1.8-3.4-2.6l-2.4,3.1,2.6,2,2.6,1.9,5.3,3.7A81.9,81.9,0,0,0,310.6,668.9Z" fill="#b6e567"/>
            </g>
            <g style="mix-blend-mode: hard-light">
              <path d="M376.7,736l14.3,3.4,14.6,2.6,1.8-11.6,1.8-11.7-4.5-.8-1.3,7.8-2,11.6-7.2-1.3-1.8-.4-1.7-.4-3.6-.8-7.1-1.6-1.8-.4-1.7-.5-3.5-1-7-2-1.8-.5-1.7-.6-3.4-1.2-4.6-1.5-2.3-.8-2.3-.8-1.4,3.7,3.5,1.2,3.5,1.2,7,2.3C367.2,733.4,371.9,734.7,376.7,736Z" fill="#b6e567"/>
            </g>
            <g style="mix-blend-mode: hard-light">
              <path d="M360.8,651.7,356,662.4l-4.8,10.8-4.8,10.7-4.8,10.7-4.8,10.8-4.9,10.7-6.6-3-6.5-3.3-6.5-3.3-6.3-3.7-4.2-2.4-2.1-1.2-2-1.3-2.1,3.3,3.1,2,3.2,1.8,6.4,3.7,6.5,3.5,6.6,3.3,1.7.8,1.6.8,3.4,1.5,6.7,3.1,4.7-10.8,4.6-10.8,4.6-10.8,4.7-10.8,4.6-10.9,4.6-10.8,4.7-10.8-3.3-1.4Z" fill="#b6e567"/>
            </g>
          </g>
        </g>
        <g id="Layer_4" data-name="Layer 4">
          <g>
            <path d="M250.7,292.3l9.2,7.3,9.2,7.3,9.2,7.3,9.2,7.3-3.2,4.1c-.6.7-1,1.4-1.5,2.1l-1.5,2.1-3.1,4.3-2.8,4.4-2.8,4.4-2.6,4.5c-.9,1.5-1.8,3-2.6,4.5l-2.4,4.7-1.1,2.3a25.3,25.3,0,0,0-1.2,2.3l-2.1,4.8-10.8-4.8-10.7-4.8-10.7-4.8-10.8-4.8L206.9,342l-10.8-4.8-10.7-4.8,3-6.7c.5-1.1,1.1-2.1,1.6-3.2l1.7-3.3,3.3-6.4,3.6-6.4,3.6-6.3,4-6.1,9.8,6.4,9.9,6.3,9.9,6.4,3.5-5.4,3.7-5.2,1.9-2.6,1.8-2.6Zm1.9,17-3.6,5-3.3,5.1,9.9,6.4,9.9,6.3,3-4.6,3.2-4.5-9.6-6.8Z" fill="#141f00" fill-rule="evenodd"/>
            <path d="M179.8,345.8l11,4.3,10.9,4.2,11,4.3,11,4.2,10.9,4.3,11,4.2,10.9,4.3-.9,2.4-.5,1.2-.4,1.2-1.7,5-.8,2.4c-.1.4-.3.8-.4,1.3l-.4,1.2-1.4,5c-1,3.3-1.7,6.8-2.5,10.1s-1.4,6.8-2,10.2-1,6.9-1.5,10.4l-11.7-1.4-11.6-1.4L209,421.8l-11.7-1.4c.6-4.2,1-8.4,1.8-12.6s1.4-8.4,2.5-12.6,1.8-8.3,3.1-12.4l1.7-6.1.5-1.6a8.8,8.8,0,0,1,.5-1.5l1-3-11.2-3.7-1.1,3.2a14.2,14.2,0,0,1-.5,1.6l-.4,1.6-1.9,6.4c-1.3,4.3-2.2,8.6-3.2,13s-1.8,8.7-2.6,13.1l-11.6-2-11.5-1.9c.8-4.8,1.6-9.6,2.7-14.3s2.2-9.5,3.6-14.1l2-7.1.5-1.7a8.4,8.4,0,0,1,.5-1.7l1.2-3.5,2.3-6.9.6-1.7.7-1.7Zm39.7,28.5-.9,2.9a7.8,7.8,0,0,0-.5,1.4l-.4,1.5L216,386l11.3,3.1,11.4,3.1,1.5-5.3.3-1.3c.2-.5.3-.9.5-1.3l.9-2.6L230.7,378Z" fill="#141f00" fill-rule="evenodd"/>
            <path d="M450.8,160.2V219l-11.6.2-11.6.9,1.2,11.7,11-.8.6,11.7-10.4.8-10.4,1.3-10.2,1.8-10.2,2.3-2.9-11.4-2.9-11.4-2.9-11.4-2.9-11.4L384.7,192l-2.9-11.4-2.9-11.4c4.7-1.1,9.4-2.3,14.2-3.3l14.3-2.5,14.4-1.8,14.5-1.1ZM437.5,184l-13.3,1,1.1,11.7,1.2,11.7,12.1-.9-.5-11.7Z" fill="#141f00" fill-rule="evenodd"/>
            <path d="M364.9,173.1l3.4,11.2,3.5,11.3,3.5,11.2,3.5,11.2,3.4,11.3,3.5,11.2,3.5,11.2-9.9,3.4-9.7,3.8-9.5,4.3-4.6,2.4-2.3,1.2a16.7,16.7,0,0,0-2.3,1.2l-4.5,2.6-2.3,1.3-1.1.6-1.1.7-6.2-10-6.1-10-6.2-10-6.2-10,1.4-.9,1.4-.8,2.7-1.6,5.6-3.2,2.8-1.5,2.8-1.4,5.7-2.9,11.7-5.3,11.9-4.7-4.1-11.1-4-11-4-11C355.7,176.2,360.2,174.6,364.9,173.1Zm2.3,48.8-11.3,4.5,4.5,10.8,4.6,10.9,10.3-4.1-4.1-11Z" fill="#141f00" fill-rule="evenodd"/>
            <path d="M274.8,219.6l-5.7,4.5-2.9,2.2-2.7,2.4-5.5,4.7-2.8,2.4-2.6,2.5-5.3,5.1-2.6,2.5-2.5,2.6c-3.3,3.5-6.7,7-9.8,10.7l8.8,7.8,8.8,7.7,8.9,7.8,8.8,7.7,8.9,7.8,8.8,7.7,8.8,7.8c2.2-2.7,4.7-5.1,7.1-7.7l1.8-1.9,1.9-1.8,3.7-3.6,1.9-1.8,2-1.7,4-3.4,1.9-1.7,2.1-1.6,4.1-3.3c1.3-1.1,2.8-2,4.2-3.1l4.2-3-6.6-9.7-6.7-9.7-4.7,3.4c-1.6,1.1-3.2,2.2-4.7,3.4l7.2,9.4-4.4,3.4-2.1,1.7-2.1,1.8-7.6-9-7.6-9-7.6-9,2.4-2,2.5-2,5.1-4,7.1,9.4c1.6-1.3,3.3-2.5,4.9-3.6l5-3.6-6.7-9.7-6.6-9.7-6.7-9.6-6.6-9.7-6,4.2Z" fill="#141f00" fill-rule="evenodd"/>
            <path d="M244.9,293.3l9.4,7.1,9.3,7.2,9.3,7.1,9.4,7.2-1.7,2.1-1.5,2.1-3.1,4.4-1.5,2.1-1.4,2.3-2.9,4.4c-1,1.5-1.8,3.1-2.7,4.6l-2.7,4.6-.6,1.2-.6,1.1-1.2,2.4-2.5,4.7-1.1,2.4-1.1,2.4-2.2,4.9L244.7,363l-10.8-4.7-10.8-4.6-10.8-4.6-10.9-4.6-10.8-4.6-10.8-4.6,3-6.8,1.6-3.3c.5-1.1,1-2.3,1.6-3.4l3.3-6.5L191,312l.8-1.6,1-1.6,3.6-6.4c1.3-2.2,2.4-4.3,3.8-6.4l10,6.2,10,6.2,10,6.2,3.5-5.5,1.8-2.7c.5-.9,1.2-1.8,1.8-2.7l3.8-5.2,1.9-2.7Zm2.1,17.1-1.8,2.6-1.7,2.6-3.3,5.2,10,6.2,10,6.2,3-4.8,1.5-2.3,1.6-2.3-9.6-6.7Z" fill="#497500" fill-rule="evenodd"/>
            <path d="M174.4,349l11,4,11,4.1,11.1,4.1,11,4,11,4.1,11.1,4.1,11,4-3.4,10.1-2.9,10.2L242.9,408,241,418.5,239.7,429,228,427.8l-11.7-1.2-11.7-1.2-11.7-1.2,1.6-12.8,2.3-12.8,2.9-12.7,3.6-12.4L192,370c-1.2,4.3-2.4,8.7-3.7,13l-3,13.2-2.4,13.4-11.6-1.8L159.6,406l2.6-14.5c1.1-4.8,2.2-9.6,3.4-14.4s2.6-9.4,4-14.2S172.7,353.6,174.4,349Zm40.1,28-3.4,11.9,11.4,2.9,11.4,2.9,3-10.7-11.2-3.5Z" fill="#497500" fill-rule="evenodd"/>
            <path d="M445.9,156.4l.2,11.7.2,11.8.2,11.7.2,11.8.2,11.7-5.9.2h-2.9l-3,.2-5.9.5-2.9.2-2.9.4,1.3,11.7,2.8-.4,2.8-.2,5.6-.4.8,11.7-5.3.4-2.7.2-2.6.3-5.3.7-2.6.4-2.6.4-5.3,1-2.6.4-2.6.6-5.1,1.2-2.6.6-2.6.8-3.1-11.4-3.1-11.3L385.5,212l-3.1-11.3-3-11.3L376.3,178l-3.1-11.3,3.5-1,3.6-.9,7.2-1.7,3.6-.8,3.6-.7,7.3-1.2,3.6-.7,3.7-.5,7.3-.9,3.6-.5,3.7-.3,7.3-.5,3.7-.3,3.7-.2Zm-13.1,24-6.8.5-3.3.3-3.4.4,1.3,11.7L422,205l3.1-.4,3.1-.2,6.1-.5-.7-11.7Z" fill="#598e00" fill-rule="evenodd"/>
            <path d="M359,170.9l3.7,11.2,3.7,11.2,3.6,11.1,3.7,11.2,3.6,11.2L381,238l3.7,11.1c-3.4,1.2-6.8,2.2-10,3.6s-6.6,2.5-9.8,4l-4.9,2.2-1.2.6-1.2.6-2.3,1.2-4.7,2.4-2.4,1.3-2.3,1.3-4.6,2.7-4.5,2.8-6.3-9.9-6.3-9.9-6.3-9.9-6.4-9.9,5.5-3.5,5.6-3.2,2.9-1.7a24.9,24.9,0,0,1,2.8-1.5l5.8-3,2.9-1.5,1.4-.7,1.5-.7,5.9-2.6c3.9-1.9,8-3.4,12-5l-4.2-11-4.2-11-4.3-10.9C349.7,174,354.4,172.5,359,170.9Zm3,48.9c-3.8,1.5-7.7,2.9-11.4,4.7l4.7,10.7,4.8,10.8c3.4-1.6,6.9-2.9,10.4-4.3l-4.3-11Z" fill="#213500" fill-rule="evenodd"/>
            <path d="M268.5,219.5l-5.7,4.6-5.6,4.8-2.8,2.4-2.7,2.5-5.3,5.1-2.7,2.5-1.3,1.3-1.3,1.3-5.1,5.3c-3.4,3.5-6.6,7.3-9.8,11l9,7.6,8.9,7.7,9,7.6,9,7.6,8.9,7.6,9,7.6,9,7.6c2.3-2.7,4.5-5.4,7-7.9l3.7-3.9.9-1,1-.9,1.9-1.8,3.9-3.7,1.9-1.8,2-1.7,4.1-3.5,4.1-3.3,4.2-3.3,4.3-3.1-6.8-9.5-6.8-9.6-4.8,3.4-4.6,3.7,7.2,9.2-4.4,3.5-4.2,3.7-7.7-8.9-7.8-8.9-7.7-8.8,4.9-4.3,5.1-4,7.3,9.2,4.8-3.8,5.1-3.6-6.8-9.6-6.8-9.6-6.8-9.6-6.9-9.5-6,4.3Z" fill="#213500" fill-rule="evenodd"/>
            <g style="mix-blend-mode: hard-light">
              <path d="M366.6,230.6l4.2,11-6.9,2.7,1.5,3.6,10.2-4-4-11-4-11.1-3.8,1.5Z" fill="#b6e567"/>
            </g>
            <g style="mix-blend-mode: hard-light">
              <path d="M285.6,305.5l-8.8-7.8-8.8-7.8-8.8-7.7-8.9-7.8-8.8-7.8-8.8-7.8c3.1-3.7,6.5-7.1,9.9-10.6l2.5-2.7,2.6-2.5,5.2-5,2.7-2.5,2.7-2.4,5.5-4.7,2.8-2.4,2.9-2.2,5.7-4.5,1.9-1.5,2-1.4,3.9-2.8-2.3-3.2-6,4.3-5.8,4.5-5.7,4.6-5.6,4.8-5.5,4.8-5.4,5.1-2.6,2.6-1.4,1.2-1.3,1.4-5,5.3c-3.5,3.5-6.7,7.3-9.9,11l9,7.6,8.9,7.6,9,7.6,8.9,7.7,9,7.6,8.9,7.6,9,7.6,2.3-2.7Z" fill="#b6e567"/>
            </g>
            <g style="mix-blend-mode: hard-light">
              <path d="M312.5,274.7l-2.9,2.3-1.5,1.1-1.4,1.3,2.5,3,2.1-1.8,2.2-1.7,4.3-3.4-7.1-9.4,1.6-1.2,1.5-1.1,3.2-2.2-2.3-3.2-4.8,3.4-4.6,3.6Z" fill="#b6e567"/>
            </g>
            <g style="mix-blend-mode: hard-light">
              <path d="M434,192.1l.7,11.8-8.2.6.4,3.9c4-.3,8.1-.7,12.2-.9l-.6-11.7-.6-11.8-4.4.3Z" fill="#b6e567"/>
            </g>
            <g style="mix-blend-mode: hard-light">
              <polygon points="429.2 231.8 436.5 231.2 436.3 227.3 428.8 227.9 429.2 231.8" fill="#b6e567"/>
            </g>
            <g style="mix-blend-mode: hard-light">
              <path d="M396.7,237.4,393.8,226l-2.9-11.3L388,203.3l-2.9-11.4-2.9-11.4-2.8-11.4,7-1.7,3.6-.8,3.6-.8,7.1-1.2,3.6-.7,3.6-.6,7.2-.9,3.6-.4a22,22,0,0,1,3.6-.4l14.5-1.1,9.7-.2v-4l-7.3.2-3.7.2-3.7.2-7.3.6-3.7.3-3.6.4-7.3,1-3.7.4-3.6.7-7.3,1.3-3.6.6-3.6.8-7.2,1.7-3.6.8-3.6,1,3.1,11.4,3.1,11.3,3.1,11.4,3,11.3,3.1,11.4,3.1,11.3,3.1,11.4,1.7-.5.8-.3.9-.2Z" fill="#b6e567"/>
            </g>
            <g style="mix-blend-mode: hard-light">
              <path d="M336,263l-6.1-10-6.2-10-6.1-10.1,2.7-1.6,2.8-1.6,5.6-3.2c3.7-2,7.5-3.9,11.3-5.8l11.7-5.3,11.9-4.6-4-11.1-4.1-11-4-11.1,9.2-3.1-1.2-3.7-7,2.3-3.5,1.2-3.4,1.4,4.2,11,4.2,10.9,4.2,11c-4,1.6-8.1,3.1-12,5s-7.9,3.5-11.7,5.5l-5.8,3-1.5.7-1.4.8-2.8,1.6-5.6,3.3a26.1,26.1,0,0,0-2.8,1.7l-2.7,1.7,6.3,10,6.3,9.9,6.3,9.9,6.3,9.9,3-1.9Z" fill="#b6e567"/>
            </g>
            <g style="mix-blend-mode: hard-light">
              <path d="M232.4,424.2l-11.7-1.4L209,421.4,197.4,420l.8-6.3.2-1.6.2-1.6.6-3.1,1.1-6.3.3-1.6.4-1.6.7-3.1,1.4-6.2.4-1.6.4-1.5.9-3.1,1.7-6.1c.2-.5.3-1.1.5-1.6l.5-1.5,1-3-11.1-3.7-1.5,4.2,7.5,2.4-3.6,12.4c-1,4.2-1.9,8.5-2.9,12.7s-1.6,8.5-2.3,12.7-1.1,8.6-1.7,12.9l11.7,1.2,11.7,1.2,11.7,1.3,11.7,1.2.5-3.5Z" fill="#b6e567"/>
            </g>
            <g style="mix-blend-mode: hard-light">
              <polygon points="298 256.2 301.3 253.6 296.5 247.4 293.2 250 298 256.2" fill="#b6e567"/>
            </g>
            <g style="mix-blend-mode: hard-light">
              <path d="M225.8,380.1l11.3,3.5c-.8,2.4-1.4,4.8-2.1,7.2l3.8,1,1.5-5.2a7.4,7.4,0,0,1,.4-1.4l.4-1.3.9-2.6-11.2-3.7-11.1-3.7-1.3,3.9Z" fill="#b6e567"/>
            </g>
            <g style="mix-blend-mode: hard-light">
              <path d="M256.9,316.8l9.7,6.7c-1.5,2-2.8,4.1-4.2,6.2l3.3,2.1,1.5-2.3,1.5-2.3,3.2-4.5-9.5-6.8-9.6-6.9-2.4,3.3Z" fill="#b6e567"/>
            </g>
            <g style="mix-blend-mode: hard-light">
              <path d="M232.8,310.6l3.3,2.1,1.7-2.7c.6-.9,1.1-1.8,1.7-2.6l3.8-5.3,2.4-3.4c.8-1.2,1.8-2.3,2.6-3.4l-3.1-2.4-2,2.6-1.9,2.6-3.7,5.3A81.9,81.9,0,0,0,232.8,310.6Z" fill="#b6e567"/>
            </g>
            <g style="mix-blend-mode: hard-light">
              <path d="M165.7,376.7c-1.2,4.7-2.3,9.6-3.4,14.3s-1.7,9.7-2.6,14.6l11.6,1.8,11.7,1.8.8-4.5-7.8-1.3-11.6-2,1.3-7.2.3-1.8.4-1.7.9-3.6,1.6-7.1.4-1.8.5-1.7,1-3.5,2-7c.2-.6.3-1.2.5-1.8l.6-1.7,1.1-3.4,1.6-4.6.8-2.3a15.5,15.5,0,0,1,.8-2.3l-3.7-1.4-1.2,3.5-1.2,3.5-2.3,7C168.3,367.2,167,371.9,165.7,376.7Z" fill="#b6e567"/>
            </g>
            <g style="mix-blend-mode: hard-light">
              <path d="M250,360.8,239.2,356l-10.7-4.8-10.7-4.8-10.7-4.8-10.8-4.8-10.7-4.9,3-6.6,3.3-6.5,3.3-6.5,3.6-6.3,2.5-4.2,1.2-2.1,1.3-2-3.3-2.1-2,3.1-1.8,3.2-3.7,6.4c-1.3,2.1-2.3,4.4-3.5,6.5l-3.3,6.6-.9,1.7-.7,1.6-1.5,3.4-3.1,6.7,10.8,4.7,10.8,4.6,10.8,4.6,10.8,4.7L234,358l10.9,4.6,10.8,4.7,1.4-3.3Z" fill="#b6e567"/>
            </g>
          </g>
        </g>
        <g id="Layer_3" data-name="Layer 3">
          <g>
            <path d="M609.4,250.7l-7.3,9.2-7.3,9.2-7.3,9.2-7.3,9.2-4.1-3.2c-.7-.6-1.4-1-2.1-1.5l-2.2-1.5-4.2-3.1-4.4-2.8-4.4-2.8-4.5-2.6-4.5-2.6-4.7-2.4-2.3-1.1a25.3,25.3,0,0,0-2.3-1.2l-4.8-2.1,4.8-10.8,4.8-10.7,4.8-10.7,4.8-10.8,4.8-10.7,4.8-10.8,4.8-10.7,6.6,3,3.3,1.6,3.2,1.7,6.5,3.3,6.3,3.6,6.3,3.6,6.2,4-6.4,9.8-6.3,9.9-6.4,9.9,5.4,3.5,5.2,3.7,2.6,1.9,2.6,1.8Zm-17,1.9-5-3.6-5.1-3.3-6.4,9.9-6.3,9.9,4.6,3,4.5,3.2,6.8-9.6Z" fill="#141f00" fill-rule="evenodd"/>
            <path d="M555.9,179.8l-4.3,11-4.2,10.9-4.3,11-4.2,11-4.3,10.9-4.2,11-4.3,10.9-2.4-.9-1.2-.5-1.2-.4-5-1.7-2.4-.8-1.3-.4-1.2-.4-5-1.4c-3.3-1-6.8-1.7-10.1-2.5s-6.8-1.4-10.3-2-6.8-1-10.3-1.5l1.4-11.7,1.4-11.6,1.4-11.7,1.4-11.7c4.2.6,8.4,1,12.6,1.8s8.4,1.4,12.6,2.5,8.3,1.8,12.4,3.1l6.1,1.7,1.6.5,1.5.5,3,1,3.7-11.2-3.2-1.1-1.6-.5-1.6-.4-6.4-1.9c-4.3-1.3-8.6-2.2-13-3.2s-8.7-1.8-13.1-2.6l2-11.6,1.9-11.5c4.8.8,9.6,1.6,14.3,2.7s9.5,2.2,14.1,3.6l7,2,1.8.5,1.7.5,3.5,1.2,6.9,2.3,1.7.6,1.7.7Zm-28.5,39.7-2.9-.9-1.4-.5-1.5-.4-5.9-1.7-3.1,11.3-3.1,11.4,5.3,1.5,1.3.3,1.3.5,2.6.9,3.7-11.2Z" fill="#141f00" fill-rule="evenodd"/>
            <path d="M741.5,450.8H682.7l-.3-11.6-.8-11.6-11.7,1.2.8,11-11.7.6-.8-10.4c-.4-3.5-.9-6.9-1.3-10.4l-1.8-10.2c-.8-3.4-1.6-6.8-2.3-10.2l11.4-2.9,11.4-2.9,11.4-2.9,11.3-2.9,11.4-2.9,11.4-2.9,11.4-2.9c1.1,4.7,2.3,9.4,3.3,14.2s1.7,9.5,2.5,14.3l1.8,14.4c.4,4.9.7,9.7,1.1,14.5Zm-23.8-13.3c-.3-4.5-.7-8.9-1-13.3L705,425.3l-11.7,1.2.9,12.1,11.7-.5Z" fill="#141f00" fill-rule="evenodd"/>
            <path d="M728.6,364.9l-11.3,3.4-11.2,3.5-11.2,3.5-11.3,3.5-11.2,3.4-11.2,3.5-11.3,3.5-3.3-9.9-3.8-9.7-4.3-9.5-2.4-4.6-1.2-2.3a16.7,16.7,0,0,0-1.2-2.3l-2.6-4.5-1.3-2.3-.6-1.1-.7-1.1,10-6.2,10-6.1,10-6.2,10-6.2.9,1.4.8,1.4,1.6,2.7,3.2,5.6,1.5,2.8,1.4,2.8,2.9,5.7,5.3,11.7,4.7,11.9,11-4.1,11.1-4,11-4C725.5,355.7,727.1,360.2,728.6,364.9Zm-48.8,2.3-4.5-11.3-10.8,4.5L653.6,365l4.1,10.3,11-4.1Z" fill="#141f00" fill-rule="evenodd"/>
            <path d="M682.1,274.8l-4.5-5.7-2.2-2.9-2.4-2.7-4.8-5.5-2.3-2.8-2.6-2.6-5-5.3-2.5-2.6-2.6-2.5c-3.5-3.3-7-6.7-10.7-9.8l-7.8,8.8L627,250l-7.8,8.9-7.7,8.8-7.8,8.9-7.8,8.8-7.7,8.8c2.7,2.2,5.1,4.7,7.7,7.1l1.9,1.8,1.8,1.9,3.6,3.7,1.8,1.9,1.7,2,3.4,4,1.7,1.9,1.6,2.1,3.3,4.1c1.1,1.3,2,2.8,3,4.2l3.1,4.2,9.7-6.6,9.7-6.7-3.4-4.7c-1.1-1.6-2.2-3.2-3.4-4.7l-9.4,7.2-3.4-4.4-1.7-2.1-1.8-2.1,9-7.6,9-7.6,9-7.6,2,2.4,2,2.5,4,5.1-9.4,7.1c1.3,1.6,2.4,3.3,3.6,4.9l3.6,5,9.7-6.7,9.6-6.6,9.7-6.7,9.7-6.6-4.2-6C685,278.7,683.6,276.7,682.1,274.8Z" fill="#141f00" fill-rule="evenodd"/>
            <path d="M608.4,244.9l-7.1,9.4-7.2,9.3-7.1,9.3-7.2,9.4-2.1-1.7-2.1-1.5-4.4-3.1-2.1-1.5-2.3-1.4-4.5-2.9c-1.4-1-3-1.8-4.5-2.7l-4.6-2.7-1.2-.6-1.2-.6-2.3-1.2-4.7-2.5-2.4-1.1-2.5-1.1-4.8-2.2,4.6-10.8,4.6-10.8,4.7-10.8,4.6-10.8,4.6-10.9,4.6-10.8,4.6-10.8,6.8,3,3.3,1.6a33.6,33.6,0,0,1,3.3,1.6l6.6,3.3,3.3,1.7,1.6.8,1.6,1,6.4,3.6c2.1,1.3,4.3,2.4,6.4,3.8l-6.2,10-6.2,10-6.2,10,5.5,3.5,2.7,1.8c.9.5,1.8,1.2,2.7,1.8l5.2,3.8,2.7,1.9ZM591.3,247l-2.6-1.8-2.6-1.7-5.2-3.3-6.2,10-6.2,10,4.8,3,2.3,1.5,2.3,1.6,6.7-9.6Z" fill="#497500" fill-rule="evenodd"/>
            <path d="M552.7,174.4l-4.1,11-4,11-4.1,11.1-4,11-4.1,11-4.1,11.1-4,11-10.1-3.4L504,245.3l-10.3-2.4L483.2,241l-10.5-1.3,1.2-11.7,1.2-11.7,1.2-11.7,1.1-11.7,12.9,1.6,12.8,2.3,12.6,2.9,12.5,3.6,3.5-11.3-13-3.7-13.2-3-13.4-2.4,1.8-11.6,1.7-11.7,14.6,2.6,14.3,3.4,14.2,4C543.4,171.2,548.1,172.7,552.7,174.4Zm-28,40.1-11.9-3.4-2.9,11.4-3,11.4,10.8,3,3.5-11.2Z" fill="#497500" fill-rule="evenodd"/>
            <path d="M745.3,445.9l-11.7.2-11.8.2-11.7.2-11.8.2-11.7.2-.2-5.9a27.1,27.1,0,0,0-.1-2.9l-.2-3-.5-5.9c-.1-1-.1-1.9-.2-2.9l-.4-2.9-11.7,1.3.4,2.8c.1.9.1,1.9.2,2.8l.4,5.6-11.7.8-.4-5.3c-.1-.9-.1-1.8-.2-2.7l-.4-2.6-.6-5.3a20.2,20.2,0,0,0-.4-2.6l-.4-2.6-1-5.3c-.1-.8-.3-1.7-.4-2.6l-.6-2.6L657,400a19.7,19.7,0,0,0-.7-2.6l-.7-2.6,11.4-3.1,11.3-3.1,11.3-3.1,11.4-3.1,11.3-3,11.4-3.1,11.3-3.1,1,3.5.9,3.6,1.6,7.2.9,3.6.6,3.6,1.3,7.3.7,3.6c.2,1.2.3,2.4.5,3.7l.9,7.3.5,3.6.3,3.7.5,7.3.3,3.7c.1,1.2.1,2.5.1,3.7Zm-24-13.1-.5-6.8-.3-3.3-.5-3.4-11.6,1.3L696.7,422l.4,3.1c.1,1,.1,2,.2,3.1l.5,6.1,11.7-.7Z" fill="#598e00" fill-rule="evenodd"/>
            <path d="M730.8,359l-11.2,3.7-11.2,3.7L697.3,370l-11.2,3.7-11.2,3.6L663.7,381l-11.1,3.7c-1.2-3.4-2.2-6.8-3.6-10s-2.5-6.6-4.1-9.8l-2.1-4.9-.6-1.2-.6-1.2-1.2-2.3-2.4-4.7-1.3-2.4-1.3-2.3-2.7-4.6-2.8-4.5,9.9-6.3,9.9-6.3,9.9-6.3,9.9-6.4L673,317l3.2,5.6,1.7,2.9,1.5,2.8,3,5.8,1.5,2.9.7,1.4.7,1.5,2.6,5.9c1.9,3.9,3.4,8,5,12l11-4.2,11-4.2,10.9-4.3C727.7,349.7,729.2,354.4,730.8,359Zm-48.9,3c-1.5-3.8-2.9-7.7-4.7-11.4l-10.8,4.7-10.7,4.8c1.6,3.4,2.9,6.9,4.3,10.4l11-4.3Z" fill="#213500" fill-rule="evenodd"/>
            <path d="M682.2,268.5l-4.6-5.7-4.8-5.6-2.4-2.8-2.5-2.7-5.1-5.3-2.5-2.7-1.3-1.3-1.3-1.3-5.4-5.1c-3.5-3.4-7.2-6.6-10.9-9.8l-7.7,9-7.6,8.9-7.6,9-7.6,9-7.6,8.9-7.6,9-7.6,9c2.7,2.3,5.4,4.5,7.9,7l3.9,3.7.9.9a9.4,9.4,0,0,1,1,1l1.8,1.9,3.7,3.9,1.7,1.9,1.8,2,3.5,4.1,3.3,4.1,3.3,4.2,3,4.3,9.6-6.8,9.6-6.8-3.4-4.8L636,305l-9.2,7.2c-1.2-1.4-2.3-2.9-3.5-4.4l-3.7-4.2,8.9-7.7,8.9-7.8,8.8-7.7,4.3,4.9,4,5.1-9.2,7.3,3.8,4.8,3.6,5.1,9.6-6.8,9.6-6.8,9.5-6.8,9.6-6.9-4.3-6Z" fill="#213500" fill-rule="evenodd"/>
            <g style="mix-blend-mode: hard-light">
              <path d="M671.1,366.6l-11,4.2-2.7-6.9-3.6,1.5,4,10.2,11-4,11.1-4-1.5-3.8Z" fill="#b6e567"/>
            </g>
            <g style="mix-blend-mode: hard-light">
              <path d="M596.2,285.6l7.8-8.8,7.8-8.8,7.7-8.8,7.8-8.9,7.8-8.8,7.8-8.8c3.7,3.1,7.1,6.5,10.6,9.9l2.6,2.5,2.6,2.6,5,5.2,2.5,2.7,2.4,2.7,4.7,5.5,2.4,2.8,2.2,2.9,4.5,5.7,1.5,1.9,1.4,2,2.8,3.9,3.2-2.3-4.3-6-4.5-5.8-4.6-5.7-4.8-5.6c-1.6-1.9-3.2-3.7-4.9-5.5l-5-5.4-2.6-2.6-1.3-1.4-1.3-1.3-5.3-5c-3.5-3.5-7.3-6.7-11-9.9l-7.6,9-7.6,8.9-7.6,9-7.7,8.9-7.6,9-7.6,8.9-7.6,9,2.6,2.3Z" fill="#b6e567"/>
            </g>
            <g style="mix-blend-mode: hard-light">
              <path d="M627,312.5l-2.3-2.9-1.1-1.5-1.3-1.4-3,2.5c.6.7,1.3,1.4,1.8,2.1l1.7,2.2,3.4,4.3,9.4-7.1,1.2,1.6,1.1,1.5,2.2,3.2,3.2-2.3-3.4-4.8-3.6-4.6Z" fill="#b6e567"/>
            </g>
            <g style="mix-blend-mode: hard-light">
              <path d="M709.6,434l-11.8.7-.6-8.2-3.9.4c.3,4,.7,8.1.9,12.2l11.7-.6,11.8-.6c0-1.4-.2-2.9-.3-4.4Z" fill="#b6e567"/>
            </g>
            <g style="mix-blend-mode: hard-light">
              <polygon points="669.9 429.2 670.5 436.5 674.4 436.3 673.8 428.8 669.9 429.2" fill="#b6e567"/>
            </g>
            <g style="mix-blend-mode: hard-light">
              <path d="M664.2,396.7l11.4-2.9,11.4-2.9,11.4-2.9,11.4-2.9,11.4-2.9,11.4-2.8,1.7,7,.8,3.6a22.9,22.9,0,0,1,.7,3.6l1.3,7.1.7,3.6c.2,1.2.4,2.4.5,3.6l1,7.2.4,3.6c.2,1.2.3,2.4.4,3.6.4,4.9.8,9.7,1.1,14.5l.2,9.7h3.9v-7.3c-.1-1.2-.1-2.5-.2-3.7l-.2-3.7-.6-7.3-.3-3.7-.4-3.6-1-7.3-.4-3.7-.7-3.6-1.3-7.3-.6-3.6-.8-3.6-1.7-7.2-.8-3.6-1-3.6-11.4,3.1-11.3,3.1-11.4,3.1-11.3,3L678.4,389l-11.3,3.1-11.4,3.1.5,1.7.2.8.2.9Z" fill="#b6e567"/>
            </g>
            <g style="mix-blend-mode: hard-light">
              <path d="M638.7,336l10-6.1,10-6.2,10.1-6.1c.5.9,1,1.8,1.6,2.7l1.6,2.8,3.2,5.6c2,3.7,3.9,7.5,5.8,11.3l5.3,11.7c1.5,3.9,3.1,7.9,4.6,11.9l11.1-4,11-4.1,11.1-4,3.1,9.2,3.7-1.2-2.3-7-1.2-3.5-1.4-3.4-11,4.2L704,354l-10.9,4.2c-1.7-4-3.1-8.1-5-12s-3.5-7.9-5.5-11.7l-3-5.8-.7-1.5-.8-1.4-1.6-2.8-3.3-5.6a26.1,26.1,0,0,0-1.7-2.8l-1.7-2.7-10,6.3-9.9,6.3-9.9,6.3-9.9,6.3,1.9,3Z" fill="#b6e567"/>
            </g>
            <g style="mix-blend-mode: hard-light">
              <path d="M477.5,232.4l1.4-11.7,1.4-11.7,1.4-11.6,6.3.8,1.6.2,1.6.2,3.1.6,6.3,1.1,1.6.3,1.6.4,3.1.7,6.2,1.4,1.6.4,1.5.4,3.1.9,6.1,1.7,1.6.5,1.5.5,3,1,3.7-11.1-4.2-1.5-2.4,7.5-12.4-3.6-12.7-2.9-12.8-2.3-12.8-1.7-1.2,11.7-1.3,11.7L474.2,228,473,239.7l3.5.5Z" fill="#b6e567"/>
            </g>
            <g style="mix-blend-mode: hard-light">
              <polygon points="645.5 298 648.1 301.3 654.3 296.5 651.7 293.2 645.5 298" fill="#b6e567"/>
            </g>
            <g style="mix-blend-mode: hard-light">
              <path d="M521.6,225.8l-3.5,11.3-7.2-2.1-1.1,3.8,5.3,1.5,1.4.4,1.3.4,2.6.9,3.7-11.2,3.7-11.1-3.9-1.3Z" fill="#b6e567"/>
            </g>
            <g style="mix-blend-mode: hard-light">
              <path d="M584.9,256.9l-6.7,9.7c-2-1.5-4.1-2.8-6.2-4.2l-2.1,3.3,2.3,1.5,2.3,1.5,4.5,3.2,6.8-9.5,6.9-9.6-3.3-2.4Z" fill="#b6e567"/>
            </g>
            <g style="mix-blend-mode: hard-light">
              <path d="M591.1,232.8l-2.1,3.3,2.7,1.7,2.6,1.7,5.2,3.8,3.5,2.4c1.2.8,2.3,1.8,3.4,2.6l2.4-3.1-2.6-2-2.6-1.9-5.3-3.7A81.9,81.9,0,0,0,591.1,232.8Z" fill="#b6e567"/>
            </g>
            <g style="mix-blend-mode: hard-light">
              <path d="M525,165.7l-14.4-3.4-14.5-2.6-1.8,11.6L492.5,183l4.5.8,1.3-7.8,2-11.6,7.2,1.3,1.8.3,1.7.4,3.6.9,7.1,1.6,1.8.4,1.7.5,3.5,1,7,2,1.8.5,1.7.6,3.4,1.1,4.6,1.6,2.3.8,2.3.8,1.4-3.7-3.5-1.2-3.5-1.2-7-2.3C534.5,168.3,529.8,167,525,165.7Z" fill="#b6e567"/>
            </g>
            <g style="mix-blend-mode: hard-light">
              <path d="M540.9,250l4.8-10.8,4.8-10.7,4.8-10.7,4.8-10.7,4.8-10.8,4.9-10.7,6.6,3,6.5,3.3,6.5,3.3,6.3,3.6,4.2,2.5,2.1,1.2,2,1.3,2.1-3.3-3.2-2-3.1-1.8-6.4-3.7c-2.2-1.3-4.4-2.3-6.6-3.5l-6.5-3.3-1.7-.9-1.6-.7-3.4-1.5-6.7-3.1-4.7,10.8-4.6,10.8L553,212.4l-4.7,10.8L543.7,234l-4.6,10.9-4.7,10.8,3.3,1.4Z" fill="#b6e567"/>
            </g>
          </g>
        </g>
      </g>
    </g>
  </g>
</svg>
