<svg xmlns="http://www.w3.org/2000/svg" viewBox="0 0 361.6 291.8">
  <title>shellab</title>
  <g id="Layer_2" data-name="Layer 2">
    <g id="Layer_5" data-name="Layer 5">
      <g>
        <path d="M35.1,226.6h.2c0,.1,0,.2.3.1h1.2l1.5-.3,1.8-.3,7.4-1.7c5.2-1.2,10.4-2.3,15.5-3.1a120,120,0,0,1,28.3-1.3A93,93,0,0,1,134.2,234,104.9,104.9,0,0,1,162,259.9c7.4,9.6,13.4,20,19.2,30.8a.7.7,0,0,1-.1.9.4.4,0,0,1-.7-.1h0a207.9,207.9,0,0,0-19.1-31c-7.5-9.5-16.4-18.4-27.9-25.5a92.6,92.6,0,0,0-43.3-13.1,119.1,119.1,0,0,0-28.5,2,132.5,132.5,0,0,0-16,3.9l-8.5,2.8-2.2.8-2.3.7-2.4.8-1.3.3-1.4.2c-1.8.3-1.9-1.1,0-3.1s4.8-3.7,6.6-3.8h1Z"/>
        <path d="M17.1,217.8c9.6-1.3,21.8-4.9,33.1-6.5a137.1,137.1,0,0,1,32.2-1.5c19.9,1.5,36.2,7.7,49,16s22.4,18.7,30.2,29.7,13.8,22.9,19.7,35.3a1,1,0,0,1-.2.9.5.5,0,0,1-.7-.3h0c-2.9-6.2-5.8-12.3-9-18.1a167.6,167.6,0,0,0-10.6-17.1c-7.8-11-17.5-21.3-30.5-29.4s-29.4-13.9-49.6-14.9a138.9,138.9,0,0,0-32.6,2.6,158.6,158.6,0,0,0-36.9,12.1c-2.4,1.1-3.3.1-2-2.3a16.2,16.2,0,0,1,6.8-6.2l1.1-.3Z"/>
        <path d="M8.8,199.9c11-1.1,23.5-3.4,35.6-4.3a154.5,154.5,0,0,1,34.3,1.1c21.3,3.2,38.7,11,52.2,20.8a118.9,118.9,0,0,1,31.2,34.1c7.8,12.4,13.5,25.4,19.2,39.2a.8.8,0,0,1-.3.9.4.4,0,0,1-.6-.3h-.1c-5.5-13.9-11.2-26.9-19-39.3s-17.9-24-31.6-33.6-31.4-16.9-53.1-19.3a147.1,147.1,0,0,0-35,.4,124.7,124.7,0,0,0-39,11c-2.4,1.2-3.3-.1-1.9-3.1s4.5-6.3,7-7.3l1-.3Z"/>
        <path d="M9.6,171.2c11.5,1.2,24.2,1.4,36.5,2.6a176.3,176.3,0,0,1,34.7,6.9c21.6,6.6,39,16.8,52.3,28.6A136.2,136.2,0,0,1,163.5,248c7.3,13.7,12.7,27.8,17.8,42.8.1.4,0,.8-.3.9s-.5,0-.7-.3h0c-5.1-15-10.3-29.1-17.8-42.8a130,130,0,0,0-30.8-38.2c-13.6-11.5-31.5-21.2-53.5-26.9a170.6,170.6,0,0,0-35.5-5.1c-12.5-.5-25.8.2-40.2,5.1-2.4.8-3.1-1.2-1.4-4.7s5-6.8,7.5-7.4a1.5,1.5,0,0,1,.9-.1Z"/>
        <path d="M19.9,133.3c11.3,5.5,23.7,9.3,35.7,13.8a249.1,249.1,0,0,1,33.3,15.4,186.9,186.9,0,0,1,49,38.9,169,169,0,0,1,27.7,43.5c6.6,14.9,11.2,29.9,15.7,46a.6.6,0,0,1-.3.8.6.6,0,0,1-.7-.4h0c-4.4-16.1-9-31.1-15.7-46a163.7,163.7,0,0,0-28.3-43c-12.8-13.7-29.5-26.5-50.5-37a220.7,220.7,0,0,0-34.3-13.5c-12.2-3.7-25.3-6.7-40.1-5.8-2.4.2-2.7-2.6-.7-6.3s5.8-6.7,8.2-6.6l.9.2Z"/>
        <path d="M40.5,91.1c10.2,10.7,21.7,19,32.4,27.5s20.7,16.9,29.7,25.4c17.9,16.9,31.8,33.8,42.4,50.2,21.3,33.1,28.9,63.1,36.3,96.7a.6.6,0,0,1-.4.8c-.2.1-.5-.1-.6-.4h0c-3.6-17-7.3-32.8-12.9-48.6A212.4,212.4,0,0,0,143.2,195c-11-16-25.5-32.4-44.2-48.4a341.2,341.2,0,0,0-30.8-23.7c-11.2-7.7-23.4-15.2-37.9-19.8-2.4-.7-2.2-4.2.4-7.8s6.7-5.7,9-4.7Z"/>
        <path d="M72.1,51.4C80,66.9,89.4,79.8,98,92.1s16.5,24.1,23.5,35.2c14,22.4,24.6,42.5,32.6,61a324.2,324.2,0,0,1,17.6,52.2c4.1,16.6,6.9,32.9,9.6,50.5.1.3-.1.7-.4.7s-.5-.1-.6-.5h0c-2.7-17.6-5.5-33.9-9.7-50.5a297.4,297.4,0,0,0-18.4-51.8c-8.5-18.3-19.8-37.9-34.7-59.5-7.4-10.8-15.7-22-24.9-33.7S73.1,71.8,59.9,61.3c-2.1-1.7-1.3-5.5,2-8.6s7.5-4.1,9.5-2.2a2.7,2.7,0,0,1,.7.8Z"/>
        <path d="M113.9,21c4,19.2,10,35.7,15.5,51.1s10.5,29.7,14.9,42.9c8.8,26.5,15.3,49,20.2,69.1a528.3,528.3,0,0,1,10.9,55.1c2.6,17.2,4.2,33.8,5.9,51.8.1.4-.1.7-.4.7a.5.5,0,0,1-.6-.5h0c-1.7-18.1-3.4-34.7-6-51.9a503.4,503.4,0,0,0-11.7-54.8c-5.5-20-12.8-42.2-22.6-68.1-4.9-13-10.4-26.9-16.6-41.9s-13.2-31.1-23.6-47c-1.5-2.5.2-6.3,4-8.5s8.2-1.8,9.7.8A5.6,5.6,0,0,1,113.9,21Z"/>
        <path d="M162.8,5.4c-.9,20.7.8,39.2,2.5,56.2s3.2,32.6,4.5,47c2.7,28.6,4.7,52.4,6.2,73.3s2.6,39.1,3.4,56.6,1.3,34.3,1.9,52.6a.6.6,0,0,1-.5.6c-.3.1-.5-.2-.5-.6h0c-.5-18.2-1.1-35.1-2-52.5s-2.4-35.6-4.4-56.5-4.8-44.6-8.6-73.1c-1.9-14.2-4-29.6-6.4-46.5s-5.2-35.3-11.2-54.8c-.9-3,1.7-6.4,5.9-7.4s8.3.8,9.1,3.9A4.9,4.9,0,0,1,162.8,5.4Z"/>
        <path d="M213.9,7.7c-6,19.5-8.8,37.9-11.2,54.8s-4.5,32.3-6.4,46.5c-3.8,28.5-6.5,52.2-8.6,73.1s-3.4,39-4.3,56.5-1.5,34.3-2.1,52.5c0,.4-.2.7-.5.6a.6.6,0,0,1-.5-.6h0c.6-18.3,1.1-35.1,2-52.6s1.8-35.6,3.4-56.6,3.4-44.7,6.1-73.3c1.3-14.4,2.8-29.9,4.5-47s3.5-35.5,2.5-56.2c-.1-3.1,3.2-5.7,7.5-5.4s7.8,3.3,7.8,6.4A5.1,5.1,0,0,1,213.9,7.7Z"/>
        <path d="M261.8,27.5c-10.3,15.9-17.4,32-23.5,47s-11.7,28.9-16.6,41.9c-9.8,25.9-17.2,48.1-22.6,68.1a482.4,482.4,0,0,0-11.8,54.8c-2.6,17.2-4.3,33.8-6,51.9,0,.3-.3.6-.5.5s-.5-.3-.5-.7h0c1.7-18,3.4-34.6,5.9-51.8a555.8,555.8,0,0,1,10.9-55.1c4.9-20.1,11.4-42.6,20.2-69.1,4.4-13.2,9.3-27.5,14.9-42.9S243.7,40.2,247.7,21c.6-3,4.4-4.3,8.5-2.8s6.8,5.3,6,8.2A2.5,2.5,0,0,1,261.8,27.5Z"/>
        <path d="M301.8,61.3C288.5,71.8,278.2,84,269.1,95.7s-17.5,22.9-25,33.7c-14.8,21.6-26.1,41.2-34.7,59.5A305.9,305.9,0,0,0,191,240.7c-4.2,16.6-7,32.9-9.7,50.5a.5.5,0,0,1-.6.5c-.3,0-.5-.4-.4-.7h0c2.7-17.6,5.5-33.9,9.6-50.5a315.6,315.6,0,0,1,17.7-52.2c7.9-18.5,18.5-38.6,32.5-61,7-11.1,14.8-22.8,23.5-35.2s18-25.2,25.9-40.7h0c1.2-2.5,5.2-2.5,8.8.1s5.5,6.7,4.2,8.9A7.1,7.1,0,0,1,301.8,61.3Z"/>
        <path d="M331.4,103.1c-14.6,4.6-26.8,12.1-38,19.8a325.9,325.9,0,0,0-30.7,23.7A249.6,249.6,0,0,0,218.4,195a211.8,211.8,0,0,0-24.1,47.7c-5.7,15.8-9.4,31.6-13,48.6-.1.3-.3.5-.6.4a.6.6,0,0,1-.4-.8h0c7.4-33.6,15-63.6,36.4-96.7,10.5-16.4,24.4-33.3,42.4-50.2a386.1,386.1,0,0,1,29.6-25.4c10.8-8.5,22.2-16.8,32.4-27.5,1.6-1.7,5.5-.5,8.6,2.8s4.2,7.3,2.5,8.8A2,2,0,0,1,331.4,103.1Z"/>
        <path d="M350.2,146c-14.8-.9-27.9,2.1-40.1,5.8a219.4,219.4,0,0,0-34.2,13.5c-21,10.5-37.8,23.3-50.6,37a163.7,163.7,0,0,0-28.3,43c-6.7,14.9-11.3,29.9-15.7,46a.6.6,0,0,1-.7.4.8.8,0,0,1-.3-.8h0c4.5-16.1,9.1-31.1,15.7-46a169.5,169.5,0,0,1,27.8-43.5,183.6,183.6,0,0,1,49-38.9A242.1,242.1,0,0,1,306,147.1c12-4.5,24.4-8.3,35.8-13.8h0c1.8-.9,5.5,1.2,8.1,4.8s3.1,7.1,1.2,7.8Z"/>
        <path d="M359.1,183.4c-14.4-4.9-27.7-5.6-40.2-5.1a171.6,171.6,0,0,0-35.5,5.1c-22,5.7-39.8,15.4-53.5,26.9a130,130,0,0,0-30.8,38.2c-7.5,13.6-12.7,27.8-17.8,42.8a.5.5,0,0,1-.7.4c-.3-.1-.4-.5-.3-.9h0c5.2-15,10.5-29.1,17.9-42.8a134,134,0,0,1,30.3-38.7c13.4-11.8,30.8-22,52.3-28.6a176.3,176.3,0,0,1,34.7-6.9c12.3-1.2,25-1.4,36.5-2.6h.1c1.9-.3,5.4,2.4,7.6,5.9s2.4,6.5.4,6.4Z"/>
        <path d="M359,210.6a124.7,124.7,0,0,0-39-11,146.3,146.3,0,0,0-34.9-.4c-21.8,2.4-39.5,9.8-53.2,19.3a116,116,0,0,0-31.5,33.6c-7.8,12.4-13.6,25.4-19.1,39.3a.6.6,0,0,1-.7.3.8.8,0,0,1-.3-.9h0c5.7-13.8,11.4-26.8,19.2-39.2s17.6-24.2,31.2-34.1,30.9-17.6,52.2-20.8a154.7,154.7,0,0,1,34.3-1.1c12.1.9,24.6,3.2,35.6,4.3h.1c2,.2,5.3,3,7.3,6.1s1.9,5.4-.1,5A3,3,0,0,1,359,210.6Z"/>
        <path d="M350.4,226.6a159.4,159.4,0,0,0-36.8-12.1,139.7,139.7,0,0,0-32.7-2.6c-20.2,1-36.6,6.8-49.6,14.9s-22.6,18.4-30.5,29.4a150.8,150.8,0,0,0-10.5,17.1c-3.3,5.8-6.1,11.9-9,18.1h0a.7.7,0,0,1-.8.3.7.7,0,0,1-.1-.9h0c5.8-12.4,11.8-24.2,19.6-35.3s17.4-21.4,30.3-29.7,29-14.5,49-16a136.3,136.3,0,0,1,32.1,1.5c11.3,1.6,23.5,5.2,33.1,6.5h0c2,.2,5.1,2.6,7.1,5.2s1.8,4.4-.1,4Z"/>
        <path d="M334.1,233.4l-1.3-.2-1.4-.3-2.4-.8-2.3-.7-2.2-.8c-2.9-1-5.7-2-8.5-2.8a128.1,128.1,0,0,0-16-3.9,119.1,119.1,0,0,0-28.5-2A91.8,91.8,0,0,0,228.3,235a104.2,104.2,0,0,0-27.9,25.5c-7.5,9.7-13.5,20-19.2,31-.1.3-.4.3-.7.1a.7.7,0,0,1-.1-.9h0c5.8-10.8,11.8-21.2,19.2-30.8A104.9,104.9,0,0,1,227.4,234a93,93,0,0,1,42.9-13.9,120,120,0,0,1,28.3,1.3c5.1.8,10.3,1.9,15.5,3.1l7.5,1.7,1.7.3,1.5.3H326c.3.1.3,0,.4-.1h.4c1.4-.4,4.2.9,6.5,2.9s2.9,3.8,1.5,3.9Z"/>
      </g>
      <g>
        <path d="M37.7,270c-9.6-5.4-18.3-16.7-23.7-36.1a138.3,138.3,0,0,1-4.4-34.7,183.9,183.9,0,0,1,5.1-44.6c7.2-31.9,25.4-69.1,54.8-97.4S138.6,9,180.5,9.8a149.2,149.2,0,0,1,60.2,12.7A172.8,172.8,0,0,1,291.6,57a193.5,193.5,0,0,1,35.6,47.6,201.4,201.4,0,0,1,19.1,50.1c14.4,66.5-4.9,106.1-23.3,115.2-2.2,1.2-6.1,1.2-8.4.4s-2.4-2-.3-3.2l.6-.3c19.9-8.3,39.8-45.5,26.8-110.6a199.1,199.1,0,0,0-18-49.2,190.6,190.6,0,0,0-34.4-46.8,166.6,166.6,0,0,0-49.7-34.3,147,147,0,0,0-59.1-12.7c-41.1-.9-80.7,18.5-109,46.7s-46.3,64.7-52.7,96a172.1,172.1,0,0,0-4.2,43.5A125.5,125.5,0,0,0,20,232.9c6,18.6,15.2,29.1,25.8,34,2.4,1.1,2.9,2.4.9,3.3a13.3,13.3,0,0,1-8.4.1Z"/>
        <path d="M42.7,262.5c-7.9-7.1-14.6-19.6-17.7-38.6a133,133,0,0,1-1.2-32.8,178.8,178.8,0,0,1,7.7-40c8.4-28,26.2-59.1,52.6-82.3S144.8,30,180.5,30.5a137.3,137.3,0,0,1,51.7,10.2,153,153,0,0,1,44.8,28,175,175,0,0,1,32.9,39.4,188.4,188.4,0,0,1,19.6,43c17.3,58.3,3.9,98.5-11.5,111.4a9.5,9.5,0,0,1-7.8,1.7c-2.4-.5-2.6-1.9-.8-3.5l.4-.4c16.9-12.1,31.2-50.2,15.4-107.3a183.5,183.5,0,0,0-18.4-42.2,174.9,174.9,0,0,0-31.8-39,149.4,149.4,0,0,0-43.7-27.9,134.7,134.7,0,0,0-50.8-10.2c-35.2-.6-69.2,14.7-94.7,37.8a174.5,174.5,0,0,0-50.5,81.3,168.4,168.4,0,0,0-6.8,39.1,129.7,129.7,0,0,0,2.3,31.7c3.8,18.3,11.1,30,20,36.7,2.2,1.6,2.4,3.1.4,3.8a10.3,10.3,0,0,1-7.9-1.1C43.1,262.8,42.8,262.7,42.7,262.5Z"/>
        <path d="M48.5,255c-6.2-8.5-11-21.6-12.1-39.8A147.1,147.1,0,0,1,38,184.9a165.3,165.3,0,0,1,9.6-35.3c9.2-24.3,26.1-49.9,49.5-68.7S150,49.8,180.5,50.2a124.8,124.8,0,0,1,44.3,8,142.2,142.2,0,0,1,39.1,22.5,158.1,158.1,0,0,1,30,32.4,170.2,170.2,0,0,1,19.5,36.5c19,50.2,11,89.6-1.2,105.4a8.3,8.3,0,0,1-7.2,3c-2.3-.3-2.8-1.8-1.3-3.8a1,1,0,0,1,.4-.5c13.8-15.1,22.8-52.5,5.4-101.8a163.5,163.5,0,0,0-18.4-36,156.5,156.5,0,0,0-29-32.1A135.4,135.4,0,0,0,224,61.3a122.6,122.6,0,0,0-43.6-8.1c-29.8-.5-59.1,11.6-81.7,30.3S59.5,127.6,51,151.6a160.5,160.5,0,0,0-8.5,34.5,134.2,134.2,0,0,0-.5,29.5c2,17.6,7.4,30,14.6,38,1.8,2.1,1.8,3.8-.2,4.3a8.8,8.8,0,0,1-7.4-2.3Z"/>
        <path d="M55.1,247.7c-4.5-9.4-7.5-22.7-6.9-39.6a136.7,136.7,0,0,1,3.9-27.5A151.2,151.2,0,0,1,62.8,150C81.2,108,128,67.7,180.4,68.7a116.5,116.5,0,0,1,37.9,6.4A128.1,128.1,0,0,1,252.2,93a144.4,144.4,0,0,1,27.1,26.4,156.6,156.6,0,0,1,18.9,30.5c19.6,42.6,16.5,79.9,7.4,97.8a8,8,0,0,1-6.5,4.2c-2.3,0-3-1.6-1.9-3.9l.4-.7c10.8-17.1,15.2-52.8-3-94.8a146.6,146.6,0,0,0-17.8-30.2,138.3,138.3,0,0,0-26.2-26.2,120.8,120.8,0,0,0-33.1-18,111.9,111.9,0,0,0-37.1-6.5c-51.5-1.2-97.6,39.1-114.5,80.6a154.2,154.2,0,0,0-9.7,30.1,131.9,131.9,0,0,0-2.6,26.9c.3,16.4,3.9,29.1,9.5,38.1,1.5,2.4,1.2,4.3-.8,4.6s-5.1-1-6.8-3.4Z"/>
        <path d="M62.4,240.8c-2.9-9.8-4.2-22.7-2.2-38.1A142.1,142.1,0,0,1,77.1,152c18.6-35.2,59.2-66.4,103.3-65.7s84.9,30.3,103.5,65.6,20.4,70,14.4,88.9a8,8,0,0,1-5.8,5.3c-2.2.3-3.1-1.3-2.3-3.8a1.9,1.9,0,0,1,.2-.8c7.9-18.3,8.4-51.4-9.7-86.8S223.9,88.4,180.4,89.1c-43.4-1-83.3,30.3-100.5,65.4a128.9,128.9,0,0,0-14.6,49.9c-1.1,15.1.9,27.5,5,37.1,1.1,2.6.6,4.6-1.4,4.7s-4.8-1.7-6.1-4.4Z"/>
        <path d="M70.5,234.7a97.3,97.3,0,0,1,1.7-35.8,129.3,129.3,0,0,1,18.2-43.3c18.2-29.2,52.9-53.1,90-52.6s72,23.2,90.2,52.5,22.9,60,19.7,79.2c-.5,3-2.9,5.6-5,6.2s-3.2-.9-2.8-3.6c.1-.3.1-.6.2-.9,5.1-18.8,2.6-48.6-14.9-77.9s-50.9-53.4-87.4-52.9S109.7,129,92.8,158.2a122.7,122.7,0,0,0-16,43.1c-2.1,13.5-1.4,25.4,1.2,35.1.8,2.8,0,4.8-1.9,4.7s-4.5-2.4-5.4-5.3A5.2,5.2,0,0,1,70.5,234.7Z"/>
        <path d="M79,229.5a101.6,101.6,0,0,1,4.9-32.6,122.6,122.6,0,0,1,18.6-36.5c17.3-23.7,46.9-41.9,77.9-41.5s60.7,17.6,78,41.4,24,50.6,23.3,69.3c-.1,3-2,5.9-4,6.8s-3.3-.4-3.3-3.2a3.1,3.1,0,0,0,.1-1c2.7-18.4-2-44.7-18.6-68.7s-45-42.5-75.5-42.2-59.6,17.9-75.7,41.9a109.9,109.9,0,0,0-16.5,36.6c-2.9,12-3.4,22.9-2,32.4.4,3-.5,4.9-2.4,4.5s-4.1-2.9-4.7-6C79.1,230.3,79,229.9,79,229.5Z"/>
        <path d="M88,225.5a100.1,100.1,0,0,1,7.2-28.9,113.4,113.4,0,0,1,18.4-30.2c16-19,41-32.7,66.8-32.4s50.9,13.2,66.9,32.3,24.1,41.8,25.5,59.2c.2,3.1-1.3,6.3-3.2,7.5s-3.3,0-3.5-2.8a3.4,3.4,0,0,1-.1-1c.6-17.6-5.6-40.2-20.8-59.6s-39.4-33.5-64.8-33.3-50,13.6-64.9,33a98.2,98.2,0,0,0-16.4,30.6,82.9,82.9,0,0,0-4.4,29.3c.1,3-1.1,4.8-2.9,4.2s-3.6-3.4-3.9-6.6A5.3,5.3,0,0,1,88,225.5Z"/>
        <path d="M97.1,222.8a100.4,100.4,0,0,1,26.5-49.4c14.5-15,35.4-25.2,56.8-25.1s42.4,9.9,56.9,24.9a100.1,100.1,0,0,1,26.3,49.6c.6,3-.6,6.4-2.3,7.8s-3.2.6-3.8-2.1c0-.4-.1-.7-.1-1.1-1.1-16.2-8.2-35.3-21.9-50.8s-34.1-26.2-55.1-26.1-41.6,10.3-55.2,25.8a88.8,88.8,0,0,0-15.7,25.2,85.6,85.6,0,0,0-6.2,25.8c-.2,3.1-1.5,4.7-3.2,3.9s-3.2-3.9-3.1-7C97,223.7,97.1,223.2,97.1,222.8Z"/>
        <path d="M106.4,221.5a94.3,94.3,0,0,1,9.8-21,89.9,89.9,0,0,1,16.3-19.4c12.9-11.6,30.3-19.1,47.9-19.1s35,7.3,48,19,21.7,26.8,26,40.5c.8,2.8.1,6.3-1.5,8s-3.1,1.1-3.9-1.5l-.3-1.1a78.7,78.7,0,0,0-21.9-42.5c-12.1-12.3-29.1-20.3-46.4-20.2s-34.4,7.6-46.5,19.9a78.2,78.2,0,0,0-14.7,20.5,76.4,76.4,0,0,0-7.2,22.3c-.5,2.9-1.9,4.3-3.5,3.3s-2.8-4.2-2.4-7.3A3.2,3.2,0,0,1,106.4,221.5Z"/>
        <path d="M115.5,221.6a89.1,89.1,0,0,1,10.1-17.1,80.8,80.8,0,0,1,14.8-15c11.3-8.8,25.6-14.3,40-14.3s28.7,5.3,40.1,14.1a83.1,83.1,0,0,1,24.7,32.3,8.8,8.8,0,0,1-.6,8.1c-1.3,1.9-3,1.5-4-.8l-.3-1.2a71.8,71.8,0,0,0-21.2-35c-10.5-9.5-24.5-15.4-38.7-15.4s-28.2,5.6-38.8,15.2a67.4,67.4,0,0,0-13.4,16.4,71,71,0,0,0-7.7,18.8c-.7,2.8-2.2,4-3.7,2.8s-2.4-4.5-1.8-7.4A5.3,5.3,0,0,1,115.5,221.6Z"/>
        <path d="M124.4,223.1a91.5,91.5,0,0,1,9.8-13.4,74.4,74.4,0,0,1,13.1-11.3,59.6,59.6,0,0,1,33.1-10.5,58.6,58.6,0,0,1,33.1,10.3,74.6,74.6,0,0,1,22.9,25,9.1,9.1,0,0,1,.1,7.9c-1.1,2.1-2.8,2.1-3.9,0a6.1,6.1,0,0,1-.5-1.2,63.4,63.4,0,0,0-19.7-28.3,51.9,51.9,0,0,0-32-11.8,50.8,50.8,0,0,0-32.1,11.6,56.2,56.2,0,0,0-11.9,12.9,61.3,61.3,0,0,0-7.7,15.6c-.9,2.6-2.5,3.6-3.8,2.2s-2-4.7-1.2-7.5A10.1,10.1,0,0,1,124.4,223.1Z"/>
        <path d="M132.8,226.1A79.2,79.2,0,0,1,142,216a67,67,0,0,1,11.4-8.4,54.9,54.9,0,0,1,27-7.5,53.6,53.6,0,0,1,27,7.3A68.6,68.6,0,0,1,228,226.1a8.7,8.7,0,0,1,.7,7.7c-.9,2.2-2.5,2.5-3.8.7a3.9,3.9,0,0,1-.6-1.1,55.5,55.5,0,0,0-17.7-22.5,45,45,0,0,0-26.2-8.9,44,44,0,0,0-26.2,8.6,47,47,0,0,0-10.3,10.1,52.8,52.8,0,0,0-7.4,12.6c-1,2.5-2.6,3.2-3.9,1.7s-1.6-4.9-.6-7.5A6.4,6.4,0,0,1,132.8,226.1Z"/>
        <path d="M140.7,230.3a82.4,82.4,0,0,1,8.3-7.2,52.7,52.7,0,0,1,9.6-5.9,50.3,50.3,0,0,1,21.8-5.2,48.7,48.7,0,0,1,21.8,5,64.1,64.1,0,0,1,17.9,13.4c1.5,1.6,2,4.9,1.3,7.3s-2.3,2.9-3.7,1.4L217,238a48.2,48.2,0,0,0-15.5-17.6,39.5,39.5,0,0,0-21.1-6.6,38.2,38.2,0,0,0-21.1,6.4,42.7,42.7,0,0,0-8.8,7.7,44.4,44.4,0,0,0-6.7,10.1c-1.1,2.2-2.7,2.8-3.9,1.1s-1.3-4.9-.2-7.3A5.6,5.6,0,0,1,140.7,230.3Z"/>
        <path d="M148,235.8c2.3-1.7,4.7-3.4,7.2-4.9a57.9,57.9,0,0,1,7.9-3.9,49,49,0,0,1,17.3-3.5,46.7,46.7,0,0,1,17.3,3.3,60.4,60.4,0,0,1,15.1,9c1.6,1.3,2.3,4.4,1.8,6.9s-2,3.4-3.4,2.2a3.1,3.1,0,0,1-.9-1.1,39.2,39.2,0,0,0-13.2-13.6,32.3,32.3,0,0,0-16.7-4.8,31.8,31.8,0,0,0-16.8,4.6,35.9,35.9,0,0,0-7.2,5.8,39.7,39.7,0,0,0-5.9,7.9c-1.2,2.1-2.8,2.4-3.8.7a8.3,8.3,0,0,1,.1-7.2A5.8,5.8,0,0,1,148,235.8Z"/>
        <path d="M154.6,242.3l6.1-2.9A58.7,58.7,0,0,1,167,237a46.9,46.9,0,0,1,13.4-2.1,40.7,40.7,0,0,1,13.4,2,59.7,59.7,0,0,1,12.4,5.4c1.5.9,2.5,3.8,2.1,6.3s-1.7,3.9-3,3a2.9,2.9,0,0,1-1.1-1.1,30.7,30.7,0,0,0-10.8-10.2,25.8,25.8,0,0,0-13-3.6,25.2,25.2,0,0,0-13,3.3,30.1,30.1,0,0,0-5.8,4.3,34.7,34.7,0,0,0-5,6.2c-1.2,1.9-2.8,2-3.7.2a8.2,8.2,0,0,1,.3-7A3.1,3.1,0,0,1,154.6,242.3Z"/>
        <path d="M160.5,249.8l4.9-1.4,4.9-1.1a48.9,48.9,0,0,1,10.1-1.2,42.8,42.8,0,0,1,10.1,1,77.1,77.1,0,0,1,9.7,2.7c1.6.5,2.7,3.1,2.5,5.7s-1.3,4.2-2.7,3.7a2.2,2.2,0,0,1-1.3-1.1,25.1,25.1,0,0,0-8.5-7.6,20.5,20.5,0,0,0-9.8-2.6,20.2,20.2,0,0,0-9.8,2.3,23.1,23.1,0,0,0-4.5,3.2,20.7,20.7,0,0,0-4,4.7c-1.2,1.8-2.7,1.8-3.6,0a8.2,8.2,0,0,1,.4-7A2.6,2.6,0,0,1,160.5,249.8Z"/>
        <path d="M165.8,258.1a23.2,23.2,0,0,0,3.7-.1l3.6-.3c2.4-.2,4.8-.5,7.3-.5a59.4,59.4,0,0,1,7.3.3c2.4.1,4.8.5,7.3.6s2.7,2.4,2.7,5.1-1,4.6-2.3,4.5a2.6,2.6,0,0,1-1.5-1.1,20.2,20.2,0,0,0-6.4-5.8,15.3,15.3,0,0,0-7.1-1.8,13.9,13.9,0,0,0-7.1,1.6A12.7,12.7,0,0,0,170,263a21.5,21.5,0,0,0-3.1,3.5c-1.1,1.8-2.6,1.8-3.5-.1a9,9,0,0,1,.4-7C164.4,258.5,165.1,258,165.8,258.1Z"/>
        <path d="M170.4,267.2a8.4,8.4,0,0,0,2.6.7,9.9,9.9,0,0,0,2.4.3,41.7,41.7,0,0,0,5,.1c1.6-.1,3.3-.1,4.9-.3a22.6,22.6,0,0,0,5.1-.8c1.4-.5,2.8,1.4,3,4.2s-.5,5.1-1.8,5.5-1.4-.3-2-1.1a13.1,13.1,0,0,0-4.4-4.4,11,11,0,0,0-4.8-1.4,9.3,9.3,0,0,0-4.8,1.2,9.6,9.6,0,0,0-2.3,1.8,9.7,9.7,0,0,0-2.1,2.7c-1.1,1.9-2.6,2-3.5.1a9.3,9.3,0,0,1,.2-7.3C168.6,267.2,169.6,266.8,170.4,267.2Z"/>
        <path d="M174.4,276.9a4.8,4.8,0,0,0,1.5,1.4,5.1,5.1,0,0,0,1.5.7,6.3,6.3,0,0,0,3,.4,7.5,7.5,0,0,0,2.9-.6,8.1,8.1,0,0,0,3.1-1.9c1.3-1.3,3,.1,3.5,2.9s0,6-1.2,7.1-2,.3-2.8-1.3a8.4,8.4,0,0,0-2.6-3.3,5,5,0,0,0-2.9-1.1,4.2,4.2,0,0,0-2.9.9,5.5,5.5,0,0,0-1.4,1.3,14.2,14.2,0,0,0-1.3,2.2c-1,2.4-2.6,2.9-3.7,1a11.1,11.1,0,0,1-.3-8.1C171.7,276.2,173.2,275.6,174.4,276.9Z"/>
      </g>
    </g>
  </g>
</svg>
