<svg xmlns="http://www.w3.org/2000/svg" viewBox="0 0 341.8 278">
  <title>shellb</title>
  <g id="Layer_2" data-name="Layer 2">
    <g id="Layer_5" data-name="Layer 5">
      <g>
        <path d="M28.1,260.2c-9.5-5.3-18.3-16.6-23.6-36.1A132.7,132.7,0,0,1,0,189.5a179,179,0,0,1,5.2-44.6C12.3,113,30.6,75.8,60,47.4S129.1-.7,170.9,0a150.2,150.2,0,0,1,60.2,12.7,171.7,171.7,0,0,1,51,34.6,198.1,198.1,0,0,1,35.6,47.5,208.5,208.5,0,0,1,19.1,50.1c14.4,66.6-5,106.2-23.4,115.3-2.2,1.2-6,1.1-8.3.4s-2.4-2-.3-3.2l.5-.3c19.9-8.3,39.8-45.6,26.8-110.7a198,198,0,0,0-17.9-49.1,193.2,193.2,0,0,0-34.4-46.8,165.1,165.1,0,0,0-49.7-34.4A147.5,147.5,0,0,0,170.9,3.4C129.8,2.5,90.3,22,61.9,50.1S15.6,114.9,9.2,146.2A181.3,181.3,0,0,0,5,189.7a129.6,129.6,0,0,0,5.4,33.5c6,18.5,15.2,29,25.9,33.9,2.4,1.2,2.8,2.4.8,3.3a12.4,12.4,0,0,1-8.3.1Z"/>
        <path d="M33.1,252.8c-7.8-7.2-14.6-19.7-17.7-38.7a143.3,143.3,0,0,1-1.2-32.8A174.1,174.1,0,0,1,22,141.4c8.4-28.1,26.2-59.1,52.5-82.3s60.7-38.9,96.4-38.3a139.3,139.3,0,0,1,51.8,10.1,160.1,160.1,0,0,1,44.8,28,180.5,180.5,0,0,1,32.9,39.5,188.9,188.9,0,0,1,19.6,43c17.2,58.3,3.8,98.4-11.5,111.4-2,1.7-5.6,2.2-7.9,1.7s-2.6-2-.8-3.6l.5-.4c16.9-12.1,31.1-50.1,15.4-107.2A184.6,184.6,0,0,0,297.2,101a171.2,171.2,0,0,0-31.8-38.9,148.9,148.9,0,0,0-43.6-27.9A132.9,132.9,0,0,0,170.9,24c-35.1-.7-69.2,14.7-94.6,37.8S33.4,115.4,25.7,143A174.2,174.2,0,0,0,19,182.1a134.8,134.8,0,0,0,2.2,31.7c3.9,18.3,11.2,30,20.1,36.7,2.1,1.6,2.3,3.1.3,3.9a9.9,9.9,0,0,1-7.9-1.2Z"/>
        <path d="M38.9,245.2c-6.1-8.4-10.9-21.6-12-39.7a134.9,134.9,0,0,1,1.6-30.4A164,164,0,0,1,38,139.9C47.3,115.5,64.2,90,87.6,71.1S140.5,40,170.9,40.4a126.4,126.4,0,0,1,44.3,8.1A138.3,138.3,0,0,1,254.3,71a158.8,158.8,0,0,1,30.1,32.4,174.1,174.1,0,0,1,19.5,36.4c18.9,50.3,11,89.6-1.2,105.5a9.1,9.1,0,0,1-7.3,3c-2.3-.3-2.8-1.8-1.3-3.9l.4-.5c13.9-15,22.9-52.5,5.5-101.8a165.1,165.1,0,0,0-18.4-35.9,154.2,154.2,0,0,0-29-32.1,137.3,137.3,0,0,0-38.2-22.5,122.1,122.1,0,0,0-43.5-8.2C141,42.9,111.8,55,89.1,73.8s-39.1,44.1-47.6,68A162.8,162.8,0,0,0,33,176.4a128.2,128.2,0,0,0-.5,29.5c1.9,17.5,7.3,29.9,14.6,38,1.8,2.1,1.7,3.8-.3,4.3a8.6,8.6,0,0,1-7.3-2.3Z"/>
        <path d="M45.5,237.9c-4.4-9.3-7.4-22.6-6.8-39.5a136.1,136.1,0,0,1,3.8-27.6,149.9,149.9,0,0,1,10.8-30.6C71.6,98.3,118.5,58,170.9,59a118.5,118.5,0,0,1,37.8,6.3,129.7,129.7,0,0,1,33.9,18,138.1,138.1,0,0,1,27.1,26.3,152.6,152.6,0,0,1,18.9,30.6c19.7,42.6,16.6,79.9,7.5,97.7a8.2,8.2,0,0,1-6.6,4.2c-2.2,0-3-1.5-1.8-3.9l.3-.6c10.8-17.1,15.2-52.9-2.9-94.9a159.2,159.2,0,0,0-17.8-30.2,140.8,140.8,0,0,0-26.2-26.1A119.9,119.9,0,0,0,208,68.3a111.8,111.8,0,0,0-37.1-6.4c-51.6-1.3-97.6,39-114.5,80.6a150,150,0,0,0-9.7,30.1A139.2,139.2,0,0,0,44,199.5c.3,16.4,4,29,9.6,38,1.4,2.5,1.2,4.3-.8,4.6a7.9,7.9,0,0,1-6.8-3.4A5.6,5.6,0,0,1,45.5,237.9Z"/>
        <path d="M52.9,231.1c-2.9-9.8-4.2-22.8-2.2-38.2a139.7,139.7,0,0,1,16.9-50.6C86.2,107,126.7,75.9,170.9,76.6c44.1-.9,84.8,30.2,103.4,65.6s20.5,69.9,14.4,88.9a7.6,7.6,0,0,1-5.7,5.2c-2.3.3-3.2-1.2-2.4-3.8l.3-.8c7.8-18.3,8.4-51.4-9.8-86.7S214.3,78.6,170.9,79.3c-43.5-.9-83.3,30.4-100.6,65.4a131.6,131.6,0,0,0-14.6,50c-1.1,15,1,27.5,5,37,1.1,2.7.6,4.6-1.3,4.7s-4.9-1.7-6.1-4.4A3.6,3.6,0,0,1,52.9,231.1Z"/>
        <path d="M60.9,224.9a101.2,101.2,0,0,1,1.7-35.7,132.7,132.7,0,0,1,18.2-43.4c18.2-29.1,53-53,90.1-52.5s72,23.2,90.1,52.4,22.9,60.1,19.7,79.3c-.5,2.9-2.8,5.5-4.9,6.1s-3.3-.8-2.8-3.6a2.9,2.9,0,0,1,.2-.9c5.1-18.7,2.6-48.6-15-77.9s-50.9-53.3-87.3-52.8-70.7,23.4-87.6,52.6a118.4,118.4,0,0,0-16,43c-2.1,13.6-1.5,25.4,1.2,35.1.7,2.9,0,4.8-2,4.7s-4.4-2.3-5.3-5.3A3.5,3.5,0,0,1,60.9,224.9Z"/>
        <path d="M69.5,219.8a103.4,103.4,0,0,1,4.8-32.6A120.6,120.6,0,0,1,93,150.7c17.3-23.7,46.9-41.9,77.9-41.6s60.7,17.7,78,41.5,24,50.6,23.3,69.2c-.1,3-2.1,6-4.1,6.9s-3.3-.4-3.2-3.3a2.8,2.8,0,0,1,.1-.9c2.6-18.5-2.1-44.8-18.6-68.8s-45-42.4-75.5-42.1-59.7,17.9-75.7,41.9A108.9,108.9,0,0,0,78.6,190c-2.9,12-3.4,23-2,32.4.5,3.1-.5,4.9-2.4,4.6s-4.1-2.9-4.6-6A5.3,5.3,0,0,1,69.5,219.8Z"/>
        <path d="M78.4,215.7a104.8,104.8,0,0,1,7.3-28.9,106.6,106.6,0,0,1,18.4-30.1c16-19,40.9-32.7,66.8-32.5s50.8,13.3,66.9,32.4,24,41.7,25.4,59.2c.3,3-1.3,6.3-3.1,7.4s-3.4.1-3.6-2.7v-1c.6-17.6-5.7-40.3-20.9-59.7s-39.3-33.5-64.7-33.3-50,13.6-64.9,33.1a97.4,97.4,0,0,0-16.5,30.6,86.8,86.8,0,0,0-4.4,29.2c.1,3.1-1,4.8-2.8,4.3s-3.7-3.5-3.9-6.7Z"/>
        <path d="M87.6,213a101.3,101.3,0,0,1,8.9-24.9A98.6,98.6,0,0,1,114,163.6c14.6-14.9,35.5-25.2,56.9-25s42.3,9.8,56.9,24.9A98.3,98.3,0,0,1,254,213.1c.6,2.9-.5,6.3-2.2,7.8s-3.3.5-3.8-2.2c-.1-.3-.1-.7-.2-1.1-1.1-16.2-8.1-35.2-21.9-50.8s-34-26.1-55-26-41.6,10.2-55.2,25.8a87.8,87.8,0,0,0-15.8,25.2,81.2,81.2,0,0,0-6.1,25.8c-.2,3-1.5,4.7-3.2,3.8s-3.3-3.8-3.2-7C87.5,213.9,87.5,213.4,87.6,213Z"/>
        <path d="M96.8,211.7a100.7,100.7,0,0,1,9.8-20.9A88.5,88.5,0,0,1,123,171.4c12.9-11.6,30.2-19.2,47.9-19.1s35,7.3,47.9,18.9a90.7,90.7,0,0,1,26,40.6,9.1,9.1,0,0,1-1.4,8c-1.5,1.7-3.2,1-3.9-1.5l-.3-1.1a80,80,0,0,0-21.9-42.6c-12.1-12.3-29.1-20.2-46.4-20.2s-34.4,7.7-46.6,20a78.3,78.3,0,0,0-14.7,20.4,77,77,0,0,0-7.1,22.3c-.5,2.9-1.9,4.4-3.6,3.4s-2.8-4.2-2.4-7.4Z"/>
        <path d="M106,211.8a88.4,88.4,0,0,1,10.1-17,78.3,78.3,0,0,1,14.8-15.1c11.3-8.8,25.5-14.3,40-14.2s28.7,5.2,40,14.1a82,82,0,0,1,24.8,32.3,9.2,9.2,0,0,1-.6,8c-1.4,1.9-3,1.6-4-.8a3.6,3.6,0,0,1-.4-1.1,71.6,71.6,0,0,0-21.1-35c-10.6-9.6-24.6-15.5-38.7-15.5A57.8,57.8,0,0,0,132,182.8a68.3,68.3,0,0,0-21,35.1c-.7,2.9-2.3,4.1-3.8,2.9s-2.4-4.5-1.7-7.5A8.8,8.8,0,0,1,106,211.8Z"/>
        <path d="M114.8,213.4a82.6,82.6,0,0,1,9.9-13.4,68.4,68.4,0,0,1,13.1-11.4,57.9,57.9,0,0,1,66.2-.2,76.6,76.6,0,0,1,22.9,25,9.1,9.1,0,0,1,.1,7.9c-1.2,2.1-2.8,2.1-4,0a3.7,3.7,0,0,1-.5-1.1,62.1,62.1,0,0,0-19.6-28.3,51.4,51.4,0,0,0-32.1-11.8,50.4,50.4,0,0,0-32,11.5,60.7,60.7,0,0,0-11.9,12.9,62.9,62.9,0,0,0-7.7,15.6c-.9,2.7-2.5,3.6-3.9,2.3s-2-4.8-1.1-7.6A5.9,5.9,0,0,1,114.8,213.4Z"/>
        <path d="M123.2,216.3a80.1,80.1,0,0,1,9.3-10.1,65.7,65.7,0,0,1,11.3-8.3,55,55,0,0,1,27-7.6,53.8,53.8,0,0,1,27.1,7.4,66.9,66.9,0,0,1,20.5,18.7c1.5,1.9,1.7,5.4.8,7.6s-2.6,2.6-3.9.8l-.6-1.2A54.6,54.6,0,0,0,197,201.1a44.9,44.9,0,0,0-26.2-8.8,43.5,43.5,0,0,0-26.2,8.6,54.1,54.1,0,0,0-10.3,10,50,50,0,0,0-7.3,12.7c-1.1,2.4-2.7,3.2-3.9,1.6s-1.7-4.8-.7-7.4A10.2,10.2,0,0,1,123.2,216.3Z"/>
        <path d="M131.1,220.6a84.5,84.5,0,0,1,8.4-7.3,66.7,66.7,0,0,1,9.6-5.9,52.8,52.8,0,0,1,21.7-5.2,48.2,48.2,0,0,1,21.8,5.1,60.6,60.6,0,0,1,17.9,13.3c1.6,1.6,2.1,4.9,1.3,7.3s-2.3,3-3.6,1.5a10.5,10.5,0,0,1-.8-1.1,45,45,0,0,0-15.5-17.6,37.7,37.7,0,0,0-42.2-.3,42.2,42.2,0,0,0-8.7,7.7,51,51,0,0,0-6.8,10.1c-1.1,2.3-2.7,2.8-3.8,1.2s-1.4-5-.2-7.4A3.8,3.8,0,0,1,131.1,220.6Z"/>
        <path d="M138.4,226a76.7,76.7,0,0,1,7.3-4.8,52.7,52.7,0,0,1,7.9-3.9,46.4,46.4,0,0,1,17.2-3.5,44.7,44.7,0,0,1,17.3,3.3,57.5,57.5,0,0,1,15.1,9c1.6,1.2,2.3,4.3,1.8,6.8s-2,3.4-3.4,2.2l-.9-1.1a38.6,38.6,0,0,0-13.1-13.5,33.1,33.1,0,0,0-16.8-4.9,30.7,30.7,0,0,0-16.7,4.7,35.4,35.4,0,0,0-7.2,5.7,34.9,34.9,0,0,0-6,8c-1.1,2-2.7,2.4-3.7.6s-1.1-5,.1-7.2A4,4,0,0,1,138.4,226Z"/>
        <path d="M145.1,232.5l6-2.8c2.1-.9,4.2-1.7,6.4-2.4a50,50,0,0,1,13.3-2.2,46.3,46.3,0,0,1,13.4,2,60,60,0,0,1,12.4,5.5c1.6.8,2.5,3.7,2.2,6.3s-1.7,3.8-3.1,3a4.3,4.3,0,0,1-1.1-1.2,31.6,31.6,0,0,0-10.8-10.2,27.7,27.7,0,0,0-13-3.6,26.6,26.6,0,0,0-13,3.4,29,29,0,0,0-5.8,4.3,30.8,30.8,0,0,0-5,6.1c-1.1,1.9-2.7,2.1-3.6.3a8.1,8.1,0,0,1,.3-7.1A3.7,3.7,0,0,1,145.1,232.5Z"/>
        <path d="M151,240l4.8-1.3,4.9-1.2a58,58,0,0,1,10.1-1.2,50.4,50.4,0,0,1,10.2,1c3.3.7,6.5,1.7,9.7,2.7,1.5.5,2.6,3.2,2.5,5.8s-1.4,4.2-2.8,3.7a3.1,3.1,0,0,1-1.2-1.1,23.9,23.9,0,0,0-8.6-7.7,21.4,21.4,0,0,0-9.8-2.6,19.5,19.5,0,0,0-9.8,2.4,21.9,21.9,0,0,0-4.5,3.2,23.5,23.5,0,0,0-4,4.7c-1.2,1.7-2.7,1.8-3.6-.1a8,8,0,0,1,.5-6.9A2.4,2.4,0,0,1,151,240Z"/>
        <path d="M156.3,248.3a21.7,21.7,0,0,0,3.6-.1l3.6-.3,7.3-.5c2.5,0,4.9.1,7.4.3s4.8.6,7.2.6,2.7,2.4,2.8,5.1-1,4.6-2.3,4.5a2.1,2.1,0,0,1-1.6-1.1,18.9,18.9,0,0,0-6.4-5.7,16.7,16.7,0,0,0-7.1-1.9,15.1,15.1,0,0,0-7.1,1.7,21.9,21.9,0,0,0-3.3,2.3,15.5,15.5,0,0,0-3,3.6c-1.2,1.8-2.7,1.7-3.5-.1a8.2,8.2,0,0,1,.4-7A2.4,2.4,0,0,1,156.3,248.3Z"/>
        <path d="M160.9,257.4a12.1,12.1,0,0,0,2.5.8l2.5.3a40.1,40.1,0,0,0,4.9,0l5-.2a22.9,22.9,0,0,0,5-.9c1.4-.5,2.8,1.5,3.1,4.2s-.6,5.2-1.9,5.5-1.4-.2-1.9-1.1a12.9,12.9,0,0,0-4.5-4.3,10.3,10.3,0,0,0-4.8-1.4,8.6,8.6,0,0,0-4.8,1.2,11.3,11.3,0,0,0-2.3,1.7,17,17,0,0,0-2.1,2.8c-1.1,1.9-2.6,1.9-3.5,0a9,9,0,0,1,.2-7.2C159,257.5,160,257,160.9,257.4Z"/>
        <path d="M164.8,267.2a8.3,8.3,0,0,0,1.6,1.3,5.5,5.5,0,0,0,1.5.8,10.1,10.1,0,0,0,2.9.4,15.9,15.9,0,0,0,3-.6,9.6,9.6,0,0,0,3.1-1.9c1.3-1.3,2.9,0,3.5,2.9s0,6-1.2,7-2,.3-2.8-1.2a9,9,0,0,0-2.7-3.4,5.5,5.5,0,0,0-2.9-1.1,4.4,4.4,0,0,0-2.8.9,4.7,4.7,0,0,0-1.4,1.4,6.4,6.4,0,0,0-1.3,2.2c-1,2.4-2.6,2.8-3.7,1s-1.3-5.5-.3-8.2S163.7,265.8,164.8,267.2Z"/>
      </g>
    </g>
  </g>
</svg>
