<svg xmlns="http://www.w3.org/2000/svg" viewBox="0 0 1115.5 1115.5">
  <title>vowelextensionsraked</title>
  <g id="Layer_2" data-name="Layer 2">
    <g id="Layer_6" data-name="Layer 6">
      <g id="Layer_2-2" data-name="Layer 2">
        <circle cx="588.8" cy="536.8" r="370" fill="#161616"/>
        <rect x="0.5" y="0.5" width="1114.5" height="1114.5" fill="#161616" stroke="#fff" stroke-miterlimit="10"/>
        <circle cx="557.8" cy="557.8" r="370" fill="#c84b31"/>
        <g>
          <g>
            <polygon points="61.6 830.7 81.4 827.2 81.4 807.3 61.6 810.8 61.6 830.7" fill="#161616"/>
            <path d="M81.4,708.1l-19.8,3.5-19.8,3.5V735l19.8-3.5L81.4,728v13.2l-19.8,3.5-19.8,3.5v52.9l19.8-3.5,19.8-3.5,19.9-3.5v-86Zm0,66.2-19.8,3.5V764.5L81.4,761Z" fill="#161616"/>
          </g>
          <g>
            <polygon points="140.9 816.7 160.8 813.2 160.8 793.3 140.9 796.8 140.9 816.7" fill="#161616"/>
            <path d="M160.8,694.2l-19.9,3.4-19.8,3.5v86l19.8-3.5,19.9-3.5,19.8-3.5V756.8l-19.8,3.5-19.9,3.5V750.6l19.9-3.5,19.8-3.5V690.7Zm0,33-19.9,3.5V717.5l19.9-3.5Z" fill="#161616"/>
          </g>
          <g>
            <polygon points="220.3 802.7 240.1 799.2 240.1 779.4 220.3 782.8 220.3 802.7" fill="#161616"/>
            <polygon points="240.1 713.2 240.1 700 260 696.5 260 676.7 240.1 680.2 220.3 683.7 200.5 687.2 200.5 707 220.3 703.5 220.3 716.7 220.3 736.6 220.3 749.8 200.5 753.3 200.5 773.1 220.3 769.6 240.1 766.1 260 762.6 260 742.8 240.1 746.3 240.1 733.1 240.1 713.2" fill="#161616"/>
          </g>
          <g>
            <polygon points="299.6 788.7 319.5 785.2 319.5 765.4 299.6 768.9 299.6 788.7" fill="#161616"/>
            <path d="M319.5,666.2l-19.9,3.5-19.8,3.5v85.9l19.8-3.5,19.9-3.5,19.8-3.5V662.7Zm0,33v33.1l-19.9,3.5V689.5l19.9-3.5Z" fill="#161616"/>
          </g>
          <g>
            <polygon points="379 774.7 398.8 771.2 398.8 751.4 379 754.9 379 774.7" fill="#161616"/>
            <polygon points="398.8 652.2 398.8 672 398.8 685.2 398.8 705.1 398.8 718.3 379 721.8 379 708.6 379 688.7 379 675.5 379 655.7 359.2 659.2 359.2 679 359.2 692.2 359.2 712.1 359.2 725.3 359.2 745.1 379 741.6 398.8 738.1 418.7 734.6 418.7 714.8 418.7 701.6 418.7 681.7 418.7 668.5 418.7 648.7 398.8 652.2" fill="#161616"/>
          </g>
          <g>
            <path d="M478.2,638.2l-19.8,3.5-19.9,3.5V665l19.9-3.5,19.8-3.5v13.2l-19.8,3.5-19.9,3.5v52.9l19.9-3.5,19.8-3.5,19.8-3.4v-86Zm0,66.1-19.8,3.5V694.6l19.8-3.5Z" fill="#161616"/>
            <polygon points="458.4 740.9 438.5 744.4 438.5 764.2 458.4 760.7 478.2 757.2 498 753.7 498 733.9 478.2 737.4 458.4 740.9" fill="#161616"/>
          </g>
          <g>
            <path d="M557.5,624.2l-19.8,3.5-19.8,3.5v86l19.8-3.5,19.8-3.5,19.9-3.5V686.8l-19.9,3.5-19.8,3.5V680.6l19.8-3.5,19.9-3.5V620.7Zm0,33.1-19.8,3.5V647.5l19.8-3.5Z" fill="#161616"/>
            <polygon points="537.7 726.9 517.9 730.4 517.9 750.2 537.7 746.7 557.5 743.2 577.4 739.7 577.4 719.9 557.5 723.4 537.7 726.9" fill="#161616"/>
          </g>
          <g>
            <polygon points="636.9 643.3 636.9 630 656.7 626.5 656.7 606.7 636.9 610.2 617.1 613.7 597.2 617.2 597.2 637 617.1 633.5 617.1 646.8 617.1 666.6 617.1 679.8 597.2 683.3 597.2 703.2 617.1 699.7 636.9 696.2 656.7 692.7 656.7 672.8 636.9 676.3 636.9 663.1 636.9 643.3" fill="#161616"/>
            <polygon points="617.1 712.9 597.2 716.4 597.2 736.2 617.1 732.7 636.9 729.2 656.7 725.7 656.7 705.9 636.9 709.4 617.1 712.9" fill="#161616"/>
          </g>
          <g>
            <path d="M716.3,596.2l-19.9,3.5-19.8,3.5v86l19.8-3.5,19.9-3.5,19.8-3.5v-86Zm0,33.1v33l-19.9,3.5V619.5l19.9-3.5Z" fill="#161616"/>
            <polygon points="696.4 698.9 676.6 702.4 676.6 722.2 696.4 718.7 716.3 715.2 736.1 711.7 736.1 691.9 716.3 695.4 696.4 698.9" fill="#161616"/>
          </g>
          <g>
            <polygon points="795.6 582.2 795.6 602.1 795.6 615.3 795.6 635.1 795.6 648.3 775.8 651.8 775.8 638.6 775.8 618.8 775.8 605.6 775.8 585.7 755.9 589.2 755.9 609 755.9 622.3 755.9 642.1 755.9 655.3 755.9 675.2 775.8 671.7 795.6 668.2 815.4 664.7 815.4 644.8 815.4 631.6 815.4 611.8 815.4 598.6 815.4 578.7 795.6 582.2" fill="#161616"/>
            <polygon points="775.8 684.9 755.9 688.4 755.9 708.2 775.8 704.7 795.6 701.2 815.4 697.7 815.4 677.9 795.6 681.4 775.8 684.9" fill="#161616"/>
          </g>
          <polygon points="875 568.2 875 588.1 875 601.3 875 621.1 875 634.4 855.1 637.8 855.1 624.6 855.1 604.8 855.1 591.6 855.1 571.7 835.3 575.2 835.3 595.1 835.3 608.3 835.3 628.1 835.3 641.3 835.3 661.2 855.1 657.7 875 654.2 875 667.4 855.1 670.9 835.3 674.4 835.3 694.2 855.1 690.8 875 687.3 894.8 683.8 894.8 663.9 894.8 650.7 894.8 630.9 894.8 617.6 894.8 597.8 894.8 584.6 894.8 564.7 875 568.2" fill="#161616"/>
          <g>
            <polygon points="934.5 656.9 914.6 660.4 914.6 680.3 934.5 676.8 954.3 673.3 974.1 669.8 974.1 649.9 954.3 653.4 934.5 656.9" fill="#161616"/>
            <polygon points="954.3 554.2 954.3 574.1 934.5 577.6 934.5 557.7 914.6 561.2 914.6 581.1 914.6 594.3 934.5 590.8 934.5 610.6 914.6 614.1 914.6 627.4 914.6 647.2 934.5 643.7 934.5 623.9 954.3 620.4 954.3 640.2 974.1 636.7 974.1 616.9 974.1 603.6 954.3 607.1 954.3 587.3 974.1 583.8 974.1 570.6 974.1 550.7 954.3 554.2" fill="#161616"/>
          </g>
        </g>
        <g>
          <g>
            <path d="M110.8,473.1l-34.5,6.1-34.5,6.1v34.6l34.5-6.1,34.5-6.1v23l-34.5,6.1-34.5,6.1V635l34.5-6.1,34.5-6.1,34.6-6.1V467.1Zm0,115.2-34.5,6v-23l34.5-6.1Z" fill="#161616"/>
            <polygon points="76.3 651.9 41.8 658 41.8 692.5 76.3 686.4 110.8 680.3 145.3 674.3 145.3 639.7 110.8 645.8 76.3 651.9" fill="#161616"/>
          </g>
          <g>
            <path d="M249,448.8l-34.6,6.1L179.9,461V610.6l34.5-6.1,34.6-6.1,34.5-6.1V557.8L249,563.9,214.4,570V547l34.6-6.1,34.5-6.1V442.7Zm0,57.5-34.6,6.1v-23l34.6-6.1Z" fill="#161616"/>
            <polygon points="214.4 627.5 179.9 633.6 179.9 668.2 214.4 662.1 248.9 656 283.5 649.9 283.5 615.4 248.9 621.5 214.4 627.5" fill="#161616"/>
          </g>
          <g>
            <polygon points="387.1 482 387.1 459 421.6 452.9 421.6 418.3 387.1 424.4 352.6 430.5 318 436.6 318 471.1 352.6 465.1 352.6 488.1 352.6 522.6 352.6 545.6 318 551.7 318 586.3 352.6 580.2 387.1 574.1 421.6 568 421.6 533.5 387.1 539.5 387.1 516.5 387.1 482" fill="#161616"/>
            <polygon points="352.6 603.2 318 609.3 318 643.8 352.6 637.7 387.1 631.6 421.6 625.5 421.6 591 387.1 597.1 352.6 603.2" fill="#161616"/>
          </g>
          <g>
            <path d="M525.2,400.1l-34.5,6.1-34.5,6.1V561.9l34.5-6.1,34.5-6.1,34.6-6.1V394Zm0,57.5v57.6l-34.5,6.1V440.7l34.5-6.1Z" fill="#161616"/>
            <polygon points="490.7 578.8 456.1 584.9 456.1 619.5 490.7 613.4 525.2 607.3 559.8 601.2 559.8 566.7 525.2 572.7 490.7 578.8" fill="#161616"/>
          </g>
          <g>
            <polygon points="663.4 375.7 663.4 410.3 663.4 433.3 663.4 467.8 663.4 490.8 628.8 496.9 628.8 473.9 628.8 439.4 628.8 416.3 628.8 381.8 594.3 387.9 594.3 422.4 594.3 445.4 594.3 480 594.3 503 594.3 537.5 628.8 531.5 663.4 525.4 697.9 519.3 697.9 484.7 697.9 461.7 697.9 427.2 697.9 404.2 697.9 369.6 663.4 375.7" fill="#161616"/>
            <polygon points="628.8 554.5 594.3 560.6 594.3 595.1 628.8 589 663.4 582.9 697.9 576.8 697.9 542.3 663.4 548.4 628.8 554.5" fill="#161616"/>
          </g>
          <polygon points="801.5 351.4 801.5 385.9 801.5 408.9 801.5 443.4 801.5 466.5 767 472.6 767 449.5 767 415 767 392 767 357.4 732.4 363.5 732.4 398.1 732.4 421.1 732.4 455.6 732.4 478.6 732.4 513.2 767 507.1 801.5 501 801.5 524 767 530.1 732.4 536.2 732.4 570.7 767 564.6 801.5 558.6 836 552.5 836 517.9 836 494.9 836 460.4 836 437.4 836 402.8 836 379.8 836 345.3 801.5 351.4" fill="#161616"/>
          <g>
            <polygon points="905.1 505.8 870.5 511.8 870.5 546.4 905.1 540.3 939.6 534.2 974.1 528.1 974.1 493.6 939.6 499.7 905.1 505.8" fill="#161616"/>
            <polygon points="939.6 327 939.6 361.5 905.1 367.6 905.1 333.1 870.5 339.2 870.5 373.7 870.5 396.7 905.1 390.6 905.1 425.2 870.5 431.3 870.5 454.3 870.5 488.8 905.1 482.7 905.1 448.2 939.6 442.1 939.6 476.6 974.1 470.6 974.1 436 974.1 413 939.6 419.1 939.6 384.6 974.1 378.5 974.1 355.4 974.1 320.9 939.6 327" fill="#161616"/>
          </g>
        </g>
        <g>
          <polygon points="133.9 807.7 153.8 804.2 153.8 784.3 133.9 787.8 133.9 807.7" fill="#346751"/>
          <path d="M153.8,685.2l-19.9,3.4-19.8,3.5v86l19.8-3.5,19.9-3.5,19.8-3.5V747.8l-19.8,3.5-19.9,3.5V741.6l19.9-3.5,19.8-3.5V681.7Zm0,33-19.9,3.5V708.5l19.9-3.5Z" fill="#346751"/>
        </g>
        <g>
          <polygon points="213.3 793.7 233.1 790.2 233.1 770.4 213.3 773.8 213.3 793.7" fill="#346751"/>
          <polygon points="233.1 704.2 233.1 691 253 687.5 253 667.7 233.1 671.2 213.3 674.7 193.5 678.2 193.5 698 213.3 694.5 213.3 707.7 213.3 727.6 213.3 740.8 193.5 744.3 193.5 764.1 213.3 760.6 233.1 757.1 253 753.6 253 733.8 233.1 737.3 233.1 724.1 233.1 704.2" fill="#346751"/>
        </g>
        <g>
          <polygon points="292.6 779.7 312.5 776.2 312.5 756.4 292.6 759.9 292.6 779.7" fill="#346751"/>
          <path d="M312.5,657.2l-19.9,3.5-19.8,3.5v85.9l19.8-3.5,19.9-3.5,19.8-3.5V653.7Zm0,33v33.1l-19.9,3.5V680.5l19.9-3.5Z" fill="#346751"/>
        </g>
        <g>
          <polygon points="372 765.7 391.8 762.2 391.8 742.4 372 745.9 372 765.7" fill="#346751"/>
          <polygon points="391.8 643.2 391.8 663 391.8 676.2 391.8 696.1 391.8 709.3 372 712.8 372 699.6 372 679.7 372 666.5 372 646.7 352.2 650.2 352.2 670 352.2 683.2 352.2 703.1 352.2 716.3 352.2 736.1 372 732.6 391.8 729.1 411.7 725.6 411.7 705.8 411.7 692.6 411.7 672.7 411.7 659.5 411.7 639.7 391.8 643.2" fill="#346751"/>
        </g>
        <g>
          <path d="M471.2,629.2l-19.8,3.5-19.9,3.5V656l19.9-3.5,19.8-3.5v13.2l-19.8,3.5-19.9,3.5v52.9l19.9-3.5,19.8-3.5,19.8-3.4v-86Zm0,66.1-19.8,3.5V685.6l19.8-3.5Z" fill="#346751"/>
          <polygon points="451.4 731.9 431.5 735.4 431.5 755.2 451.4 751.7 471.2 748.2 491 744.7 491 724.9 471.2 728.4 451.4 731.9" fill="#346751"/>
        </g>
        <g>
          <path d="M550.5,615.2l-19.8,3.5-19.8,3.5v86l19.8-3.5,19.8-3.5,19.9-3.5V677.8l-19.9,3.5-19.8,3.5V671.6l19.8-3.5,19.9-3.5V611.7Zm0,33.1-19.8,3.5V638.5l19.8-3.5Z" fill="#346751"/>
          <polygon points="530.7 717.9 510.9 721.4 510.9 741.2 530.7 737.7 550.5 734.2 570.4 730.7 570.4 710.9 550.5 714.4 530.7 717.9" fill="#346751"/>
        </g>
        <g>
          <polygon points="629.9 634.3 629.9 621 649.7 617.5 649.7 597.7 629.9 601.2 610.1 604.7 590.2 608.2 590.2 628 610.1 624.5 610.1 637.8 610.1 657.6 610.1 670.8 590.2 674.3 590.2 694.2 610.1 690.7 629.9 687.2 649.7 683.7 649.7 663.8 629.9 667.3 629.9 654.1 629.9 634.3" fill="#346751"/>
          <polygon points="610.1 703.9 590.2 707.4 590.2 727.2 610.1 723.7 629.9 720.2 649.7 716.7 649.7 696.9 629.9 700.4 610.1 703.9" fill="#346751"/>
        </g>
        <g>
          <path d="M709.3,587.2l-19.9,3.5-19.8,3.5v86l19.8-3.5,19.9-3.5,19.8-3.5v-86Zm0,33.1v33l-19.9,3.5V610.5l19.9-3.5Z" fill="#346751"/>
          <polygon points="689.4 689.9 669.6 693.4 669.6 713.2 689.4 709.7 709.3 706.2 729.1 702.7 729.1 682.9 709.3 686.4 689.4 689.9" fill="#346751"/>
        </g>
        <g>
          <polygon points="788.6 573.2 788.6 593.1 788.6 606.3 788.6 626.1 788.6 639.3 768.8 642.8 768.8 629.6 768.8 609.8 768.8 596.6 768.8 576.7 748.9 580.2 748.9 600 748.9 613.3 748.9 633.1 748.9 646.3 748.9 666.2 768.8 662.7 788.6 659.2 808.4 655.7 808.4 635.8 808.4 622.6 808.4 602.8 808.4 589.6 808.4 569.7 788.6 573.2" fill="#346751"/>
          <polygon points="768.8 675.9 748.9 679.4 748.9 699.2 768.8 695.7 788.6 692.2 808.4 688.7 808.4 668.9 788.6 672.4 768.8 675.9" fill="#346751"/>
        </g>
        <polygon points="868 559.2 868 579.1 868 592.3 868 612.1 868 625.4 848.1 628.8 848.1 615.6 848.1 595.8 848.1 582.6 848.1 562.7 828.3 566.2 828.3 586.1 828.3 599.3 828.3 619.1 828.3 632.3 828.3 652.2 848.1 648.7 868 645.2 868 658.4 848.1 661.9 828.3 665.4 828.3 685.2 848.1 681.8 868 678.3 887.8 674.8 887.8 654.9 887.8 641.7 887.8 621.9 887.8 608.6 887.8 588.8 887.8 575.6 887.8 555.7 868 559.2" fill="#346751"/>
        <g>
          <polygon points="927.5 647.9 907.6 651.4 907.6 671.3 927.5 667.8 947.3 664.3 967.1 660.8 967.1 640.9 947.3 644.4 927.5 647.9" fill="#346751"/>
          <polygon points="947.3 545.2 947.3 565.1 927.5 568.6 927.5 548.7 907.6 552.2 907.6 572.1 907.6 585.3 927.5 581.8 927.5 601.6 907.6 605.1 907.6 618.4 907.6 638.2 927.5 634.7 927.5 614.9 947.3 611.4 947.3 631.2 967.1 627.7 967.1 607.9 967.1 594.6 947.3 598.1 947.3 578.3 967.1 574.8 967.1 561.6 967.1 541.7 947.3 545.2" fill="#346751"/>
        </g>
        <g>
          <path d="M103.8,464.1l-34.5,6.1-34.5,6.1v34.6l34.5-6.1,34.5-6.1v23l-34.5,6.1-34.5,6.1V626l34.5-6.1,34.5-6.1,34.6-6.1V458.1Zm0,115.2-34.5,6v-23l34.5-6.1Z" fill="#c84b31"/>
          <polygon points="69.3 642.9 34.8 649 34.8 683.5 69.3 677.4 103.8 671.3 138.3 665.3 138.3 630.7 103.8 636.8 69.3 642.9" fill="#c84b31"/>
        </g>
        <g>
          <path d="M242,439.8l-34.6,6.1L172.9,452V601.6l34.5-6.1,34.6-6.1,34.5-6.1V548.8L242,554.9,207.4,561V538l34.6-6.1,34.5-6.1V433.7Zm0,57.5-34.6,6.1v-23l34.6-6.1Z" fill="#ecdbba"/>
          <polygon points="207.4 618.5 172.9 624.6 172.9 659.2 207.4 653.1 241.9 647 276.5 640.9 276.5 606.4 241.9 612.5 207.4 618.5" fill="#ecdbba"/>
        </g>
        <g>
          <polygon points="380.1 473 380.1 450 414.6 443.9 414.6 409.3 380.1 415.4 345.6 421.5 311 427.6 311 462.1 345.6 456.1 345.6 479.1 345.6 513.6 345.6 536.6 311 542.7 311 577.3 345.6 571.2 380.1 565.1 414.6 559 414.6 524.5 380.1 530.5 380.1 507.5 380.1 473" fill="#ecdbba"/>
          <polygon points="345.6 594.2 311 600.3 311 634.8 345.6 628.7 380.1 622.6 414.6 616.5 414.6 582 380.1 588.1 345.6 594.2" fill="#ecdbba"/>
        </g>
        <g>
          <path d="M518.2,391.1l-34.5,6.1-34.5,6.1V552.9l34.5-6.1,34.5-6.1,34.6-6.1V385Zm0,57.5v57.6l-34.5,6.1V431.7l34.5-6.1Z" fill="#ecdbba"/>
          <polygon points="483.7 569.8 449.1 575.9 449.1 610.5 483.7 604.4 518.2 598.3 552.8 592.2 552.8 557.7 518.2 563.7 483.7 569.8" fill="#ecdbba"/>
        </g>
        <g>
          <polygon points="656.4 366.7 656.4 401.3 656.4 424.3 656.4 458.8 656.4 481.8 621.8 487.9 621.8 464.9 621.8 430.4 621.8 407.3 621.8 372.8 587.3 378.9 587.3 413.4 587.3 436.4 587.3 471 587.3 494 587.3 528.5 621.8 522.5 656.4 516.4 690.9 510.3 690.9 475.7 690.9 452.7 690.9 418.2 690.9 395.2 690.9 360.6 656.4 366.7" fill="#ecdbba"/>
          <polygon points="621.8 545.5 587.3 551.6 587.3 586.1 621.8 580 656.4 573.9 690.9 567.8 690.9 533.3 656.4 539.4 621.8 545.5" fill="#ecdbba"/>
        </g>
        <polygon points="794.5 342.4 794.5 376.9 794.5 399.9 794.5 434.4 794.5 457.5 760 463.6 760 440.5 760 406 760 383 760 348.4 725.4 354.5 725.4 389.1 725.4 412.1 725.4 446.6 725.4 469.6 725.4 504.2 760 498.1 794.5 492 794.5 515 760 521.1 725.4 527.2 725.4 561.7 760 555.6 794.5 549.6 829 543.5 829 508.9 829 485.9 829 451.4 829 428.4 829 393.8 829 370.8 829 336.3 794.5 342.4" fill="#ecdbba"/>
        <g>
          <polygon points="898.1 496.8 863.5 502.8 863.5 537.4 898.1 531.3 932.6 525.2 967.1 519.1 967.1 484.6 932.6 490.7 898.1 496.8" fill="#ecdbba"/>
          <polygon points="932.6 318 932.6 352.5 898.1 358.6 898.1 324.1 863.5 330.2 863.5 364.7 863.5 387.7 898.1 381.6 898.1 416.2 863.5 422.3 863.5 445.3 863.5 479.8 898.1 473.7 898.1 439.2 932.6 433.1 932.6 467.6 967.1 461.6 967.1 427 967.1 404 932.6 410.1 932.6 375.6 967.1 369.5 967.1 346.4 967.1 311.9 932.6 318" fill="#ecdbba"/>
        </g>
        <polygon points="1070.8 538.2 1001.7 550.4 1001.7 303 1070.8 290.8 1070.8 538.2" fill="#c84b31"/>
        <polygon points="1070.8 639 1001.7 651.2 1001.7 582.1 1070.8 569.9 1070.8 639" fill="#c84b31"/>
      </g>
    </g>
  </g>
</svg>
