<svg xmlns="http://www.w3.org/2000/svg" viewBox="0 0 1080 1080">
  <title>vowelextensionsround</title>
  <g id="Layer_2" data-name="Layer 2">
    <g id="Layer_6" data-name="Layer 6">
      <g id="Layer_2-2" data-name="Layer 2">
        <rect width="1080" height="1080" fill="#c84b31"/>
        <circle cx="544" cy="536" r="336.1" fill="#161616"/>
        <g>
          <path d="M853.5,872.5l11.3,12.3-6.5,5.9-6.7,5.7-6.7,5.8-6.9,5.4,15.5,19.7,7.3-5.8c2.4-1.9,4.7-4,7.1-6l7-6.1c2.3-2,4.7-4,6.9-6.2l13.4-12.8,1.7-1.6,1.6-1.7,3.2-3.3,6.4-6.7,3.2-3.4,3.2-3.4,6.1-7,6-7.1c1-1.1,2.1-2.3,3-3.5l2.9-3.6L913,833.3l-2.7,3.5-2.9,3.4-5.7,6.6-5.8,6.7-3,3.2-3,3.2-12.2-11.4-18.3-17.1L847.2,820l2.6-2.8,2.7-2.9,5-5.8,5.1-5.9,2.5-2.9,2.4-3.1L848,780.9l-2.3,2.9-2.3,2.7-4.8,5.5-4.7,5.5-2.5,2.7-2.5,2.6-5,5.3-2.5,2.6-1.3,1.3-1.3,1.3-10.5,10c-1.7,1.7-3.6,3.3-5.4,4.9l-5.5,4.7-5.6,4.8-5.7,4.5,15.6,19.6,6.1-4.8c2-1.6,3.9-3.3,5.8-5l5.9-5.1c1.9-1.7,3.9-3.3,5.7-5.1L836.6,854Z" fill="#161616"/>
          <path d="M816.7,791.4l2.4-2.5,2.4-2.6,4.5-5.2,4.6-5.3c.7-.9,1.5-1.7,2.2-2.7l2.2-2.7-19.5-15.7-2,2.5-2.1,2.5-4.3,4.9-4.2,4.9c-.7.9-1.5,1.6-2.2,2.4l-2.3,2.4-4.5,4.7-2.2,2.3-1.1,1.2-1.2,1.1-9.4,9c-1.5,1.5-3.2,2.9-4.8,4.3l-4.9,4.3-5,4.2-5.1,4,15.6,19.7,5.4-4.3,5.3-4.6,5.3-4.5c1.7-1.6,3.5-3,5.2-4.7l10-9.6,1.3-1.2,1.2-1.2,2.4-2.6Z" fill="#161616"/>
        </g>
        <g>
          <path d="M724.9,1001l-9.1-23.3-6-15.6-9.1-23.3-6.1-15.6-9.1-23.3,6.8-2.7,3.4-1.4,3.3-1.4,13.3-6,13-6.6,3.2-1.7,1.6-.8,1.6-.9,6.3-3.6c8.5-4.7,16.6-10.1,24.7-15.4l14.1,20.8,9.4,13.8,14,20.7,9.4,13.9,14,20.7c-10.3,6.8-20.7,13.6-31.6,19.6l-8,4.6-2.1,1.2-2,1.1-4.2,2.1c-5.5,2.8-11,5.7-16.6,8.4L742.2,994l-4.3,1.9-4.3,1.7Zm23.4-37.3,15.8-8,3.9-2,2-1,1.9-1.1,7.7-4.4-8.3-14.5L758.8,911l-8.3-14.5-6.7,3.8-1.7,1-1.7.9-3.5,1.8-13.8,7,7.2,15,10.8,22.6Z" fill="#ecdbba"/>
          <path d="M729.7,860.3c8.1-4.5,15.9-9.7,23.7-14.7l-14.1-20.8c-7.3,4.7-14.5,9.6-22.1,13.7l-5.6,3.3-1.4.8-1.5.7-2.9,1.5c-3.8,2-7.6,4-11.5,5.9L682.4,856l-3,1.4-3,1.2-6,2.3,9.1,23.4,6.4-2.6,3.3-1.3,3.2-1.4,12.7-5.7,12.4-6.3,3.1-1.6,1.5-.8,1.6-.9Z" fill="#ecdbba"/>
        </g>
        <g>
          <path d="M617,1029.6l-3.6-24.8L611,988.3l-3.7-24.8L604.9,947l7.6-1.2,7.7-1.4,7.6-1.4,7.5-1.7,3.7,16.3,5.5,24.4,3.7,16.3,5.4,24.5,9.1-2.1c3-.7,6.1-1.4,9.1-2.3l17.9-5.1-7.3-24-4.9-15.9-7.3-24-4.9-16-7.3-24-14,4c-2.3.7-4.7,1.2-7.1,1.8l-7.1,1.6-7.1,1.7-7.1,1.3-7.2,1.2-7.2,1.2L586.8,924l-3.6.5-3.6.2-7.3.6,1.8,25,1.2,16.7,1.8,24.9,1.2,16.7,1.8,25,9.3-.7,4.6-.4,4.6-.5Z" fill="#ecdbba"/>
          <path d="M626.2,900.5,633,899c2.2-.6,4.5-1,6.7-1.7l13.4-3.8-7.3-24-12.5,3.6c-2,.6-4.2,1-6.3,1.5l-6.3,1.5-6.3,1.4-6.4,1.2-6.4,1.1c-2.2.4-4.3.9-6.4,1.1l-12.9,1.6-3.3.4-3.2.3-6.5.4,1.8,25,7-.5,3.4-.3a20.9,20.9,0,0,0,3.5-.4l13.8-1.7,6.9-1.1,6.8-1.3,6.9-1.2Z" fill="#ecdbba"/>
        </g>
        <path d="M469.2,1029.4l3.7-24.8,2.5-16.5,3.7-24.8,2.5-16.5,15.4,2,3.8.4,3.9.4,7.7.6-1.3,16.6-1.8,25-1.3,16.7-1.9,25c12.4,1.1,24.7,1.2,37,1.5V926.4c-9.7-.3-19.4-.3-29-1.2l-7.3-.6c-1.2-.1-2.4-.1-3.6-.3l-3.6-.4L485.4,922l2.5-16.5,13.8,1.8,3.4.4,3.5.3,6.9.5c9.3.9,18.6.9,27.8,1.2V884.6c-8.7-.2-17.3-.2-26-1.1l-6.5-.4-3.2-.3-3.2-.4-12.9-1.7-12.8-2.2-3.2-.6-3.2-.6-6.3-1.5-5.6,24.4-3.7,16.3-5.6,24.4-3.7,16.3-5.6,24.5-3.7,16.2-5.6,24.5,9.1,2,4.6,1,4.5.8Z" fill="#ecdbba"/>
        <g>
          <path d="M407.3,883.8l6.5,2.5,1.6.7,1.6.5,3.3,1.2,13.3,4.4,7.4-23.9L428.6,865l-3-1-1.6-.5-1.5-.6-6-2.4c-8.2-3-16-6.8-23.9-10.3l-11.6-6-2.9-1.5-2.8-1.6-5.6-3.2-12.6,21.7,6.1,3.5,3,1.7,3.1,1.6,12.4,6.3C390.2,876.6,398.6,880.6,407.3,883.8Z" fill="#161616"/>
          <path d="M327.2,985.5,338.1,963c10.8,4.9,21.4,9.9,32.5,14.1l-9.2,23.3,8.7,3.4,2.2.8,2.2.8,4.4,1.5,17.7,5.9,7.4-23.9,4.9-16c-5.4-1.7-10.8-3.6-16.2-5.4l-4-1.4-2-.7-2-.8-8-3.1,9.2-23.3,7.5,2.9,1.9.8,1.9.6,3.8,1.3,15.3,5.2,4.9-16,7.4-23.9-13.8-4.7-3.4-1.1-1.8-.6-1.7-.7-6.7-2.7L392,922.7c-9.7-3.7-19-8.1-28.4-12.4l10.9-22.5-13-6.7-3.2-1.6-3.2-1.8-6.3-3.6-12.6,21.6-8.3,14.5,7,4,3.5,2,3.5,1.8,14.4,7.4-10.9,22.5-15.2-7.7-3.8-2-3.7-2.1-7.4-4.2-8.4,14.5L294.4,968l8.1,4.7,4,2.2,4.2,2.2Z" fill="#161616"/>
        </g>
        <g>
          <polygon points="888.4 590.3 886.1 603.1 885.6 606.3 884.8 609.4 883.4 615.8 907.8 621.5 909.3 614.7 910.1 611.3 910.7 607.9 913.2 594.1 888.4 590.3" fill="#161616"/>
          <path d="M1020,686l-23.9-7.5-15.9-5-23.9-7.6-16-5-23.9-7.5,1.1-3.5,1-3.5,2-7,1-3.5.9-3.5,1.6-7.1,1.7-7.1.8-3.6.6-3.6,2.6-14.3c.2-1.2.4-2.4.5-3.6l.5-3.6.9-7.2.9-7.2.5-7.3,25,2,16.7,1.4,24.9,2-.6,8.5c-.3,2.8-.7,5.6-1,8.4l-1.1,8.5-.6,4.2c-.2,1.4-.3,2.8-.6,4.2l-3,16.8L992,628l-1,4.2-1.9,8.3,16.3,3.8,1.9-8.6,1-4.3.8-4.4c1.1-5.8,2.1-11.6,3.1-17.4.3-1.4.5-2.9.7-4.4l.5-4.3,1.1-8.8c.4-2.9.8-5.8,1.1-8.8l.7-8.7,25,2-.8,9.2c-.3,3.1-.7,6.2-1.1,9.3l-1.1,9.2-.7,4.6c-.2,1.5-.3,3.1-.6,4.6l-3.3,18.3-.8,4.6-1.1,4.5-2,9.1-2.2,9.1a37.4,37.4,0,0,1-1.2,4.5l-1.2,4.5-2.6,9-1.2,4.4C1020.9,683,1020.5,684.5,1020,686Zm-55.3-51.2,1.8-7.9.9-3.9.7-4,2.9-15.8-16.6-2.6-2.7,15.2-.7,3.9-.8,3.7-1.8,7.6Z" fill="#161616"/>
        </g>
        <g>
          <polygon points="857.3 689.1 851.4 700.6 850.6 702.1 849.8 703.5 848.2 706.3 845 711.9 866.6 724.6 870.1 718.6 871.8 715.5 872.7 714 873.4 712.5 879.8 700.1 857.3 689.1" fill="#161616"/>
          <path d="M954.7,819.3l-20.6-14.2-13.7-9.5-20.6-14.3,2.3-3.3c.7-1.1,1.4-2.2,2.2-3.3l4.3-6.8,4.4-6.8c1.4-2.3,2.7-4.6,4-6.9l4.1-7,1.9-3.5,1-1.8,1-1.8,7.3-14.3-15-7.4-7.1,13.8-.8,1.8-1,1.6-1.9,3.4-3.9,6.7c-1.3,2.2-2.5,4.5-3.9,6.7l-4.2,6.5-4.1,6.5c-.7,1.1-1.4,2.2-2.2,3.3l-2.2,3.1-20.6-14.2,2.1-3,2-3,3.9-6.1,3.9-6.2c1.3-2,2.5-4.2,3.7-6.2l3.6-6.4,1.8-3.1.9-1.6.9-1.6,6.6-13c1.1-2.1,2.1-4.3,3.1-6.6l3-6.6,3-6.6,2.7-6.8,23.2,9.3,15.5,6.2,23.3,9.3,15.5,6.2,23.3,9.3-3.5,8.6c-1.2,2.9-2.5,5.7-3.7,8.6l-3.9,8.4c-1.3,2.9-2.5,5.7-4,8.5-2.8,5.5-5.6,11-8.5,16.5l-1,2.1-1.2,2-2.3,4.1-4.6,8L970,796l-5,7.8-5,7.8-2.6,3.9Zm-1.6-44,4.4-7.7,2.2-3.8,1-2,1.1-1.9c2.7-5.2,5.4-10.5,8-15.8l-15-7.3c-2.5,5.1-5.1,10.1-7.8,15.2l-.9,1.9-1.1,1.8-2.1,3.7-4.2,7.4Z" fill="#161616"/>
        </g>
        <g>
          <path d="M97.8,635.7l-16.3,3.6c-.7-2.9-1.4-5.7-1.9-8.6L78,622l-1.6-8.7-.7-4.4c-.3-1.4-.4-2.9-.6-4.4l-24.8,3.6c.2,1.6.3,3.1.6,4.6l.8,4.6,1.6,9.2,1.7,9.2c.6,3,1.3,6,2,9.1l2.1,9,1.1,4.6.5,2.2.7,2.3c1.6,6,3.3,12,5,17.9.5,1.5.9,3,1.4,4.5l1.4,4.4,3,8.9,3.1,8.8,3.3,8.7L102,707l-3.2-8.2-2.9-8.4L93.1,682l-1.4-4.2c-.5-1.4-.9-2.8-1.3-4.2l16-4.9,24-7.2,16-4.9c.3,1.2.7,2.5,1.1,3.7l1.2,3.7,2.5,7.3,2.5,7.4,2.8,7.2,23.4-9-2.7-6.8-2.3-6.9-2.3-6.9-1.2-3.5a35.7,35.7,0,0,1-1-3.5l-4-14-.5-1.7-.4-1.8-.9-3.5-1.6-7.1c-.5-2.4-1.1-4.8-1.6-7.1l-1.3-7.2-1.3-7.2-.6-3.6c-.2-1.2-.3-2.4-.5-3.6l-24.8,3.6c.2,1.3.3,2.6.5,3.9l.7,3.8,1.4,7.6,1.4,7.6c.5,2.6,1.1,5.1,1.6,7.6l-16.3,3.6Z" fill="#161616"/>
          <path d="M186.3,644.5c.4,1.1.7,2.2,1,3.3l1.1,3.3,2.3,6.6,2.2,6.6,2.6,6.5,23.3-9-2.3-6.1-2.1-6.1-2.1-6.2-1.1-3.1-.9-3.1-3.5-12.5-.5-1.5-.3-1.6-.8-3.2-1.4-6.3-1.5-6.4-1.1-6.4-1.2-6.4-.5-3.1c-.2-1.1-.3-2.2-.5-3.3l-24.8,3.6c.2,1.2.3,2.3.5,3.5l.6,3.4,1.2,6.9,1.3,6.8c.4,2.3,1,4.6,1.5,6.8l1.6,6.8.8,3.4.4,1.7.4,1.7Z" fill="#161616"/>
        </g>
        <g>
          <path d="M50.7,460.3l24.8,3.8L92,466.6l24.8,3.8,16.5,2.5,24.8,3.8c-1.2,9.6-2.7,19.2-3.2,28.9l-.6,7.2c-.1,1.2-.2,2.4-.2,3.7v3.6l-.4,14.5v7.3l.2,7.2c.1,2.4.1,4.8.2,7.3l.5,7.2-24.9,1.8L113,566.5l-25,1.8-16.7,1.2-25,1.7-.6-9.2c-.2-3.1-.2-6.2-.3-9.3l-.3-9.2v-4.7c-.1-1.5-.1-3-.1-4.6.1-6.2.3-12.3.5-18.5v-4.6l.3-4.6.7-9.3C47.4,484.9,49.1,472.6,50.7,460.3Zm20.9,38.8-.7,8.8c-.1,1.5-.2,3-.2,4.4l-.2,4.4c-.2,5.9-.3,11.7-.4,17.6h58.5l.3-15.4v-3.9l.3-3.8.6-7.8-16.7-1.2-25-2Z" fill="#161616"/>
          <path d="M170.3,534.7v6.9l.2,7c.1,2.3.1,4.6.2,6.9l.5,6.9,25-1.7-.5-6.5c-.1-2.1-.1-4.3-.2-6.5V538c0-1.1-.1-2.2,0-3.3l.3-12.9v-3.3c0-1.1.1-2.1.2-3.2l.5-6.5c.5-8.7,1.8-17.2,2.9-25.8l-24.8-3.8c-1.2,9.2-2.6,18.4-3.1,27.7l-.5,6.9c-.1,1.2-.2,2.3-.2,3.5v3.5Z" fill="#161616"/>
        </g>
        <g>
          <path d="M79.9,352.6l23.3,9.2,15.6,6.1,23.3,9.3,15.5,6.1c-3.9,9.6-7.1,19.4-10.4,29.2l-15.9-5-24-7.4-15.9-5-23.9-7.4c-3.5,11.9-7.1,23.9-9.7,36l24.4,5.6,16.3,3.8,24.4,5.6,16.3,3.8,24.4,5.6c2-9.5,4.9-18.8,7.5-28.2s6.1-18.4,9.8-27.4l2.7-6.8.7-1.6.7-1.7,1.5-3.3c2-4.4,4-8.9,6.1-13.3L170,354.9l-15-7.3-22.6-10.9-15-7.3-22.5-11c-2.7,5.6-5.2,11.3-7.8,17l-1.9,4.2-.9,2.2-.9,2.1Z" fill="#ecdbba"/>
          <path d="M187.1,424.9c-2.5,9-5.3,17.8-7.2,26.9l24.4,5.7c1.8-8.5,4.4-16.8,6.7-25.2s5.4-16.4,8.8-24.4l2.3-6.1.6-1.5.7-1.5,1.3-2.9,5.4-11.9-22.5-10.9c-2,4.2-3.9,8.5-5.8,12.7l-1.4,3.2-.7,1.6-.7,1.6-2.6,6.5C192.9,407.2,190.1,416.1,187.1,424.9Z" fill="#ecdbba"/>
        </g>
        <path d="M154.4,224.3,173.9,240,187,250.4l19.5,15.7,13.1,10.4-4.8,6.1-2.4,3.1-1.2,1.5-1.1,1.6-9,12.6-13.8-9.5-20.6-14.1-13.8-9.5-20.7-14.1c-1.8,2.5-3.4,5.1-5.1,7.7l-5.1,7.8c-1.6,2.6-3.3,5.2-4.9,7.9l-4.7,8,21.7,12.6,14.4,8.4,21.7,12.6,14.4,8.4,21.7,12.6,3.6-6.3,3.9-6.2,4-6.1c1.3-2,2.6-4.1,4-6.1l8.4-11.8,1.1-1.5,1.1-1.4,2.3-2.9,4.4-5.7,13.1,10.4-4.3,5.5-2.2,2.8-1,1.3a17.1,17.1,0,0,1-1.1,1.4l-8,11.4c-1.4,1.9-2.6,3.8-3.9,5.8l-3.7,5.8c-1.3,2-2.6,3.9-3.8,5.9l-3.5,6.1,21.7,12.5,3.2-5.6c1.2-1.8,2.4-3.6,3.5-5.5l3.5-5.4q1.8-2.9,3.6-5.4l7.6-10.6.9-1.4,1-1.2,2-2.6,4-5.1,2.1-2.5a25.6,25.6,0,0,1,2-2.6l4.3-4.9c2.8-3.2,5.6-6.6,8.6-9.7l-18.3-17-12.3-11.4-18.3-17.1-12.2-11.4-18.4-17L197,213.3l-18.4-17.1c-4.3,4.5-8.3,9.2-12.3,13.9l-6.1,7-2.9,3.6Z" fill="#ecdbba"/>
        <g>
          <path d="M311.2,243.8l-5.5,4.3-5.2,4.6-5.3,4.5-2.6,2.3-2.5,2.4,17,18.4,2.3-2.3,2.5-2.1,4.9-4.3,4.9-4.2,5.1-4,5.1-4.1c1.7-1.3,3.4-2.7,5.2-3.9l10.6-7.5,1.3-1,1.4-.8,2.7-1.8,5.5-3.5c1.8-1.2,3.6-2.4,5.5-3.5l5.6-3.2-12.6-21.7-6,3.5-5.9,3.7-5.8,3.7-3,1.9-1.4,1-1.5,1-11.3,8.1c-1.9,1.3-3.7,2.7-5.5,4.2Z" fill="#161616"/>
          <path d="M262.9,123.7,277,144.4l-14.4,10.2c-2.4,1.7-4.7,3.6-7,5.4l-6.9,5.4-15.6-19.6-7.3,5.8-7,6.1-7,6.1-3.5,3-3.4,3.2,17,18.4,11.4,12.2,3.1-2.9,3.2-2.8,6.4-5.6,6.4-5.5,6.7-5.3,15.6,19.6-6.3,5-6.1,5.2-6,5.3-3.1,2.7-2.9,2.7,11.4,12.3,17,18.3,2.6-2.5,2.8-2.3,5.5-4.8,5.5-4.8,5.7-4.5-15.7-19.6,6.1-4.8c2.1-1.5,4.1-3.2,6.2-4.6l12.6-9,14.1,20.7,1.5-1.1,1.5-1,3.1-1.9,6.1-3.9c2.1-1.3,4.1-2.7,6.2-3.9l6.3-3.7-12.6-21.6-8.3-14.5-7,4-6.8,4.3-6.8,4.4-3.4,2.1-1.7,1.1-1.6,1.2-14.2-20.7,1.8-1.2,1.8-1.2,3.5-2.3,7.2-4.6,7.2-4.5,7.4-4.3-8.4-14.5L294.4,104l-8,4.6c-2.7,1.6-5.3,3.3-7.9,5l-7.9,5-3.9,2.5-1.9,1.3Z" fill="#161616"/>
        </g>
        <g>
          <path d="M324.8,807.1l-2.5-2-2.5-2.1-4.9-4.3-4.9-4.3-4.7-4.4-17.2,18.2c1.7,1.6,3.4,3.3,5.1,4.8l5.2,4.6,5.3,4.5,2.6,2.3,2.8,2.2Z" fill="#161616"/>
          <path d="M176.2,873.1l18.4-16.9,12.3-11.3L225.4,828l12.3-11.3,18.5-16.9,10,10.5c1.7,1.8,3.5,3.4,5.2,5.1l5.3,5,5.3,5,5.4,4.8,5.5,4.7,2.8,2.4,2.9,2.2,11.4,9,11.8,8.5-14.3,20.6L298,891.3l-14.2,20.6L269.9,902l-13.4-10.5-3.3-2.7-3.3-2.7-6.4-5.6-6.4-5.6-6.2-5.8-11.4,12.2,6.4,6,6.6,5.8,6.7,5.8,3.3,2.8,3.5,2.8,13.9,10.9,14.3,10.2L260,946.2c-5.1-3.6-10.2-7.1-15.1-10.8l-14.7-11.5-3.6-2.8-3.5-3.1-7.1-6-6.9-6.1-6.8-6.4-6.7-6.4c-2.2-2.1-4.5-4.3-6.6-6.5C184.7,882.1,180.4,877.7,176.2,873.1Zm71.9-22.3,5.8,5.5,6.1,5.3,6.1,5.3,3,2.6,3.2,2.5,10.5-13-3-2.4-3-2.5L271,849l-5.9-5-5.6-5.3Z" fill="#161616"/>
        </g>
        <g>
          <path d="M254.8,730.8l-7-10.9-1.8-2.8-1.6-2.8-3.2-5.6-21.8,12.4,3.5,6,1.7,3.1,1.9,2.9,7.5,11.7Z" fill="#ecdbba"/>
          <path d="M93.3,750.3l22.6-10.8,15.1-7.1,22.6-10.8.9,1.8.9,1.8,1.8,3.6,3.7,7.2c1.2,2.4,2.4,4.8,3.7,7.1l4,7,4.1,7,2,3.5,2.2,3.4,8.7,13.5,13.8-9.3L191,755.1l-2-3.2-2-3.4-3.9-6.7-3.8-6.7c-1.3-2.2-2.4-4.6-3.6-6.9l-3.5-6.9-1.8-3.4-.9-1.7-.8-1.8,22.7-10.8.7,1.7.8,1.6,1.7,3.3,3.3,6.4c1.1,2.2,2.2,4.4,3.4,6.5l3.6,6.3,3.6,6.3c.6,1,1.2,2.1,1.9,3.1l1.9,3.1,7.9,12.3c5.6,7.9,11.1,15.9,17.2,23.4l-19.7,15.5-13.1,10.3L184.9,819l-13.1,10.3-19.6,15.5c-7.8-9.6-14.9-19.8-22-29.9-3.4-5.2-6.8-10.4-10.1-15.6l-2.5-4-2.3-4-4.7-8-4.6-8.1c-1.5-2.7-2.9-5.5-4.3-8.3l-4.3-8.2-2.1-4.2-1-2.1Zm39.1,20.5,4.4,7.7,2.2,3.8,2.4,3.7,9.5,14.9,13.9-9.4c-3.1-4.7-6.2-9.5-9.2-14.3l-2.3-3.6-2.2-3.7-4.2-7.4Z" fill="#ecdbba"/>
        </g>
        <g>
          <path d="M680.7,99.6l5-16,16.7,5.7,4.2,1.4,4.2,1.6,8.2,3.3,9.3-23.3-8.7-3.4-4.4-1.7-4.4-1.5-17.7-6c-5.9-1.8-11.9-3.4-17.9-5.1l-4.5-1.3-2.2-.6-2.3-.5-9-2.2-9.1-2a42.4,42.4,0,0,0-4.6-1l-4.6-.9-18.3-3.2-3.8,24.7,17.4,3.1,4.3.8,4.4,1,8.6,1.9-3.8,16.3L642,115.1l-3.7,16.3-7.6-1.7-3.8-.9-3.8-.7-15.3-2.7L604,150.2l14.4,2.5,3.5.7,3.6.8,7.1,1.6,7.1,1.6,1.8.5,1.7.4,3.5,1,14,4.1,13.8,4.6,3.5,1.2,3.4,1.3,6.7,2.7,9.3-23.3-7.2-2.8-3.6-1.4-3.7-1.3-14.7-5,5-15.9Z" fill="#ecdbba"/>
          <path d="M628.8,172.1l-6.8-1.6-3.4-.7-3.4-.7-13.7-2.4-3.9,24.8,12.8,2.2,3.2.6,3.2.7,6.3,1.5,6.4,1.4,1.6.4,1.5.4,3.2.9,12.4,3.6,12.4,4.2,3,1,3.1,1.2,6,2.4,9.3-23.3-6.5-2.6-3.3-1.2-3.3-1.1-13.2-4.5-13.4-3.8-3.3-1-1.7-.5-1.7-.4Z" fill="#ecdbba"/>
        </g>
        <g>
          <path d="M856.4,146.9l-15.7,19.6-10.5,13L814.5,199,804,212l-15.7,19.6-11.4-9L765,214.2l-2.9-2.1-3.1-2-6.1-3.9-6.2-3.9-6.3-3.7-6.3-3.6-6.3-3.5-13-6.6,11-22.6,7.3-15,11-22.5,7.3-15,11-22.5,16.5,8.4c2.8,1.4,5.5,3,8.2,4.5l8.1,4.7,8,4.6,7.8,5,7.9,5.1,3.9,2.5,3.8,2.6,15.1,10.8Zm-44-1.5-3.6-2.5-3.8-2.4-7.4-4.8-7.4-4.7-7.7-4.5-8.4,14.4-12.6,21.7L753.1,177l6.7,3.9,6.5,4.2,6.5,4.1,3.3,2.1,3.1,2.3,9.5-13.8,14.2-20.6Z" fill="#ecdbba"/>
          <path d="M732,213.1l-6-3.5-6.1-3.4-12.4-6.3-11,22.5,11.6,5.9,5.7,3.2,5.6,3.2L725,238l5.5,3.5L736,245l2.7,1.7,2.7,1.9,10.5,7.5c3.5,2.6,6.9,5.4,10.3,8l15.7-19.5-11-8.6-11.3-8-2.9-2-2.9-1.9-5.9-3.8-5.8-3.7Z" fill="#ecdbba"/>
        </g>
        <g>
          <path d="M934.7,225.8l-19.6,15.5L902,251.7l-19.6,15.6-13.1,10.4-4.8-6-5-5.9-5.1-5.9-2.5-2.9-2.7-2.8,12.3-11.3,18.4-17,12.3-11.4,18.4-17c-4.2-4.5-8.5-8.9-12.8-13.4l-13.4-12.9-17.1,18.4-11.4,12.2-17.1,18.3-11.4,12.2-17.1,18.3c3.5,3.4,7.1,6.7,10.5,10.1l10,10.5,2.5,2.7,2.4,2.7,4.8,5.5,4.7,5.5,4.5,5.7,4.5,5.7,2.3,2.9,2.1,2.9,8.4,11.9,20.7-14.1,13.9-9.4,20.7-14.1,13.8-9.4,20.7-14.1c-3.6-5-7.1-10.1-10.8-15.1-.9-1.3-1.7-2.5-2.7-3.8l-2.8-3.6Z" fill="#161616"/>
          <path d="M818.6,282.5l-9.6-10c-3.3-3.3-6.7-6.5-10.1-9.7l-17.1,18.3,9.4,9,9,9.4,2.2,2.4,2.1,2.5,4.3,4.9,4.2,4.9,4,5.1,4,5.1,2.1,2.6,1.9,2.6,7.5,10.6,20.7-14.1-8.1-11.4-2-2.8-2.2-2.7-4.3-5.5-4.3-5.5-4.5-5.2-4.6-5.3-2.3-2.6C820.2,284.2,819.4,283.4,818.6,282.5Z" fill="#161616"/>
        </g>
        <path d="M1008.7,354.3l-23.3,9.1-15.6,6.1-23.3,9.1-15.6,6.1-2.8-7.2-1.5-3.6-1.6-3.5-6.3-14.2,15-7.2,22.6-10.9,15-7.2,22.6-10.8c-5.5-11.1-11.1-22.3-17.4-32.9l-21.7,12.5L940.3,308l-21.7,12.5-14.5,8.4-21.7,12.5c5,8.3,9.3,17,13.7,25.7l6,13.3,1.5,3.3c.4,1.1.9,2.2,1.3,3.4l2.7,6.7L892,399.9l-2.5-6.5c-.4-1-.9-2.1-1.3-3.2l-1.4-3.2L881,374.3c-4.2-8.3-8.3-16.6-13.1-24.6l-21.7,12.5c4.5,7.5,8.3,15.3,12.2,23l5.4,11.8,1.3,3,1.2,3,2.4,6,2.4,6.1,1.1,3,1,3.1,2.1,6.2,1.1,3.1a28,28,0,0,1,.9,3.1l24-7.4,16-4.9,23.9-7.4,16-4.9,23.9-7.3,16-4.9,24-7.4c-.5-1.5-1-2.9-1.4-4.4l-1.5-4.4-3-8.9-1.5-4.4c-.5-1.4-1-2.9-1.6-4.4Z" fill="#ecdbba"/>
        <g>
          <path d="M913.6,480.5c-.1-1.1-.3-2.3-.5-3.4l-.7-3.4-1.2-6.9c-.4-2.3-.8-4.6-1.3-6.9l-1.5-6.7L884,458.7l1.4,6.3c.5,2.1.8,4.3,1.2,6.4l1.1,6.4.6,3.2c.2,1.1.4,2.1.5,3.2l1.6,12.9.5,3.2.2,3.3.5,6.4.5,6.5V523l.4,13h25l-.3-13.9v-7l-.5-6.9-.5-6.9-.3-3.5-.4-3.5Z" fill="#ecdbba"/>
          <path d="M1041.5,499l-25,1.8-.6-8.7-.4-4.4-.5-4.4c-.7-5.9-1.5-11.7-2.3-17.5l24.8-3.7c-.2-1.6-.4-3.1-.7-4.6l-.8-4.6-1.6-9.2c-.6-3-1.1-6.1-1.8-9.1l-2-9.1-24.5,5.5-16.3,3.7,1.9,8.3c.6,2.8,1.1,5.6,1.6,8.4l1.5,8.4.7,4.2c.3,1.4.5,2.8.7,4.2l-24.8,3.7c-.1-1.3-.4-2.6-.6-4l-.7-3.9-1.4-8c-.5-2.6-.9-5.3-1.5-7.9l-1.8-7.9-16.3,3.7-24.4,5.6,1.6,7.1c.5,2.3.9,4.7,1.3,7.1l1.3,7.2.6,3.6a22.5,22.5,0,0,1,.6,3.6l24.8-3.7,2,15.3.4,3.9.3,3.8.6,7.7-25,1.9.6,7.2v7.3l.3,14.5h41.8l-.4-16v-8.1l-.6-8,25-1.8.6,8.5V519c.2,5.7.3,11.3.4,17H1043c-.1-6.2-.2-12.3-.4-18.5l-.2-4.6v-2.3l-.2-2.3Z" fill="#ecdbba"/>
        </g>
        <g>
          <path d="M418.8,210.6l6.1-2.3,6.1-2.1,6.2-2.1,3-1.1,3.2-.8-7.3-24-3.3.9-3.3,1.1-6.6,2.3-6.6,2.2-6.5,2.5Z" fill="#ecdbba"/>
          <path d="M436.1,48.8l5.4,24.5,3.6,16.3,5.4,24.5,3.6,16.3,5.4,24.4-14.1,3.4-14.1,4-3.5,1-3.4,1.1-6.9,2.4-6.9,2.3-6.8,2.6-6.8,2.7-3.4,1.3-1.7.7-1.6.8-13.3,6-10.7-22.7-7.2-15.1-10.7-22.6,15.6-7.1,1.9-.8,2-.8,3.9-1.6,8-3.1,8-3.1,8-2.8,8.1-2.7,4.1-1.3,4.1-1.2-4.8-16L403,83.4l-4.2,1.4-8.4,2.8L382,90.5l-8.2,3.2-8.3,3.2-4.1,1.7-2,.8-2,.9-16.2,7.3L330.5,84.9l17-7.6,2.1-1,2.2-.9,4.3-1.7,8.7-3.4,8.7-3.3,8.8-3.1,8.8-2.9,4.5-1.5,4.4-1.3,18-5.1Zm-16.8,73.4-3.9,1.1-3.8,1.3-7.6,2.5-7.7,2.7-7.5,2.9,6,15.5,7.2-2.7,7.4-2.5,7.3-2.5,3.7-1.3,3.7-1Z" fill="#ecdbba"/>
        </g>
        <g>
          <path d="M519.9,188.3l6.5-.5,6.5-.2h6.5c2.2-.1,4.3-.2,6.5-.1V162.3c-2.3-.1-4.6.1-6.9.1l-7,.2-6.9.2-7,.5Z" fill="#ecdbba"/>
          <path d="M583.7,38.7l-2,24.9-1.3,16.7-2,25-8-.6-4-.3h-4l-16.1-.4c-2.6-.1-5.3,0-8,0l-8,.2-8,.3-8.1.5,1.2,16.7,7.7-.6,7.7-.2,7.7-.2h7.7l15.5.4h3.8l3.9.3,7.7.5-2,25-7.2-.5-3.7-.3h-3.6l-14.5-.4c-2.4-.1-4.8.1-7.3.1l-7.2.2-7.3.2-7.2.5-7.3.5-3.6.3-3.6.4-14.4,1.8-3.6-24.8-2.4-16.5-3.5-24.8-2.4-16.6-3.6-24.8,18.5-2.3,4.6-.5,4.6-.3,9.3-.7,9.2-.7,9.3-.2,9.2-.3c3.1,0,6.2-.2,9.3-.1l18.5.5,4.6.2,4.6.3ZM546.5,62.1c-2.9-.1-5.8,0-8.7.1l-8.8.2-8.8.3-8.8.6,1.1,16.6,8.5-.6,8.5-.2,8.5-.2c2.8-.1,5.6-.2,8.5-.1Z" fill="#ecdbba"/>
        </g>
        <g>
          <g>
            <path d="M665.4,790.4l-9.5,4.3-2.4,1.1-2.5,1-4.9,1.9-9-23.4L631,759.8l-9.1-23.4-6.1-15.6-9-23.3,3-1.2,1.5-.5,1.4-.7,5.9-2.6,5.7-3,1.4-.7.8-.4.7-.4,2.7-1.6c3.8-2,7.4-4.5,11-6.8L655,700.4l9.4,13.8,14,20.8c-5,3.1-10,6.5-15.2,9.4l-3.9,2.2-.9.6-1,.5-2,1-8,4,7.2,15.1,8.5-4.3,2.2-1.1,1-.6,1.1-.6,4.1-2.4c5.6-3,10.9-6.6,16.3-10l14,20.7c-5.9,3.8-11.7,7.7-17.8,11.1l-4.6,2.6-1.1.7-1.2.6-2.3,1.1C671.7,787.2,668.6,788.9,665.4,790.4Zm-28.8-60.3c2.4-1.1,4.7-2.4,7.1-3.6l1.8-.9.9-.5.9-.5,3.4-2-8.3-14.5-3.2,1.9-.8.5-.8.4-1.7.8-6.5,3.4Z" fill="#c84b31"/>
            <path d="M683.4,828.1l10.8-5.5,2.7-1.4,1.3-.6,1.3-.8,5.3-3c7-3.9,13.7-8.4,20.5-12.7l-14.1-20.7c-6.3,3.9-12.4,8.1-18.9,11.7l-4.8,2.7-1.2.7-1.3.7-2.5,1.2c-3.3,1.7-6.5,3.5-9.9,5.1l-10.1,4.6-2.5,1.1-2.6,1-5.2,2,9.1,23.4,5.6-2.2,2.8-1.1,2.8-1.3Z" fill="#c84b31"/>
          </g>
          <g>
            <path d="M585.4,814.8,575,816.1a23,23,0,0,1-2.6.3l-2.6.2-5.3.4-1.8-25-1.2-16.7-1.8-24.9,4.1-.3,2-.2,2-.2,7.9-1c1.3-.1,2.6-.5,4-.7l3.9-.7,3.9-.7,3.9-.9-3.6-16.3-3.6.9-3.7.6-3.6.6a22.5,22.5,0,0,1-3.6.6l-7.4,1-1.8.2h-1.9l-3.7.3-1.8-25,3.3-.2h1.6l1.6-.2,6.4-.8c1.1-.1,2.1-.4,3.2-.6l3.2-.6,3.1-.5,3.2-.7,3.1-.8,3.1-.7,6.2-1.8,7.3,24,4.9,16,7.3,23.9,4.8,16,7.3,24-10,2.9c-1.7.5-3.4.8-5.1,1.2l-5.1,1.2-5.2,1.2-5.1.9-5.2.9C588.9,814.2,587.2,814.6,585.4,814.8ZM581.8,790l4.7-.8,4.7-.8,4.7-.9,4.7-1.1-3.7-16.3-4.3,1.1-4.4.7-4.4.8-4.4.8Z" fill="#c84b31"/>
            <path d="M591.5,856.1c2-.2,4-.6,6-1l5.9-1,5.9-1.1,5.9-1.4,5.9-1.3c1.9-.5,3.9-.9,5.8-1.5l11.6-3.3-7.3-23.9-10.7,3a47.2,47.2,0,0,1-5.4,1.3l-5.4,1.3-5.4,1.3-5.5.9-5.4,1-5.5.9-11.1,1.4a24.8,24.8,0,0,1-2.7.3l-2.8.2-5.6.5,1.8,25,6-.5,3.1-.2,2.9-.4Z" fill="#c84b31"/>
          </g>
          <g>
            <path d="M522.5,816.9c6.9.7,14,.7,21,.9v-25c-6.4-.3-12.8-.2-19.2-.9l1.3-16.6,1.9-25,1.2-16.7c5,.6,10,.4,14.9.7V709.2c-4.4-.2-8.8,0-13.1-.6l-3.2-.2h-1.6l-1.6-.2-6.4-.8-6.4-1.2-1.6-.2-1.5-.3-3.2-.8-5.5,24.4,3.5.9,1.8.4,1.9.3,7.2,1.3-2.5,16.5-3.7,24.8-2.5,16.5-9.4-1.7-2.4-.4-2.3-.5-4.7-1.1L481,810.7l5.1,1.2,2.5.5,2.6.4,10.4,1.9L512,816l2.6.3,2.6.2Z" fill="#c84b31"/>
            <path d="M495.3,856l12,1.5,3,.4,3,.2,6,.5c8,.8,16.1.7,24.1,1V834.5c-7.5-.2-14.9-.2-22.3-.9l-5.6-.4a24.8,24.8,0,0,1-2.7-.3l-2.8-.3-11-1.4-11-2-2.7-.4-2.7-.6-5.5-1.2-5.5,24.4,5.8,1.3a15.9,15.9,0,0,0,3,.6l3,.6Z" fill="#c84b31"/>
          </g>
          <g>
            <path d="M421.7,790l-9.4-4.8L410,784l-2.3-1.3-4.6-2.6,12.6-21.7,8.4-14.5,12.5-21.7,8.4-14.4,12.5-21.7,2.8,1.6,1.4.8,1.4.7,5.8,3c3.9,1.7,7.7,3.6,11.8,5.1l2.9,1.2.8.3.7.2,1.6.5,6,2.1-7.4,23.9-4.9,16L473,765.4l-4.9,16-7.4,23.9-10-3.3-2.4-.9-1.3-.4-1.2-.5-4.9-1.9C434.3,795.9,428.1,792.8,421.7,790Zm10.9-22.6c5.8,2.6,11.5,5.4,17.5,7.6l6.1-15.6,9.2-23.3,6.1-15.5c-4.6-1.7-9-3.9-13.5-5.8l-7.3,15-10.9,22.6Z" fill="#c84b31"/>
            <path d="M403.5,827.6c7.3,3.3,14.6,6.8,22.1,9.6l5.6,2.2,1.4.5,1.5.5,2.8,1,11.5,3.8,7.3-23.9-10.5-3.6-2.6-.9-1.3-.4-1.3-.5-5.2-2.1c-7-2.5-13.6-5.8-20.4-8.8l-9.9-5.1-2.5-1.2-2.4-1.4-4.8-2.8-12.6,21.7,5.3,3,2.6,1.5,2.7,1.4Z" fill="#c84b31"/>
          </g>
          <path d="M818.3,600.5l-1.1,5.1c-.2.9-.5,1.7-.7,2.6l-.7,2.5-1.5,5-.7,2.6c-.2.8-.4,1.6-.7,2.5l15.9,5c.3-.9.5-1.8.8-2.7l.8-2.6,1.5-5.4.7-2.7a21.3,21.3,0,0,0,.8-2.7l1.2-5.4L859,610l1.3-5.8.7-3,.6-2.9,2.1-11.9-24.8-3.9a25.1,25.1,0,0,0,.4-2.7l.4-2.8.7-5.5c.2-1.9.5-3.7.6-5.5l.5-5.6-16.7-1.3-25-2.1-16.6-1.3-.3,4.5-.6,4.4-.6,4.5-.2,2.2-.3,2.2c-.6,2.9-1.1,5.8-1.6,8.8l-.4,2.2-.5,2.2-1,4.3-24.4-5.7.9-3.9.5-1.9.3-2c.4-2.6.9-5.3,1.4-7.9l.3-2,.2-2,.5-3.9c.2-1.4.4-2.7.5-4l.3-4-16.6-1.4-.3,3.7c-.1,1.3-.3,2.5-.5,3.7l-.4,3.7-.2,1.8-.3,1.8-24.8-3.8c-.4,2.1-.8,4.2-1.1,6.3l-.3,1.6-.4,1.5-.7,3.2,24.4,5.7-.8,3.6a8.4,8.4,0,0,1-.5,1.7l-.5,1.8-1,3.5-.5,1.8a12.1,12.1,0,0,1-.5,1.8l15.9,5,23.9,7.5,16,5,.6-2.2.7-2.3,1.3-4.6.7-2.3.6-2.3,1-4.7,1.1-4.6.6-2.4.4-2.3,1.7-9.4,24.7,3.8-1.8,10.4-.5,2.6-.6,2.5Z" fill="#346751"/>
          <path d="M801.7,686.6l21.6,12.7,3.1-5.2,1.5-2.7.7-1.3.7-1.3,5.5-10.7L812.3,667c.9-1.6,1.6-3.3,2.4-5l2.2-5.1c.8-1.6,1.6-3.3,2.3-5l2.1-5.2-15.6-6.2-23.2-9.3L767,625l-23.3-9.3-15.5-6.2-1.3,3.4c-.5,1.2-1.1,2.3-1.6,3.4l-1.5,3.3a34.9,34.9,0,0,1-1.5,3.4l-22.5-11c-1.1,1.9-2,3.8-3,5.7l-.3.7-.4.7-.9,1.4-1.6,2.8L715.2,636c-.6,1-1.1,2.1-1.8,3.2l-2,3.1-2,3.1a13,13,0,0,1-1,1.5l-1.1,1.5,13.8,9.5,20.6,14.3,1.3-1.9,1.2-1.8,2.4-3.8,2.4-3.8c.8-1.2,1.5-2.6,2.3-3.8l-21.6-12.7,2-3.5,1-1.7a4.1,4.1,0,0,1,.5-.9l.4-.9,3.7-7.1,22.5,11,15,7.4,22.5,11-4.8,9.3-.6,1.2-.7,1.1-1.3,2.3-2.6,4.6-21.6-12.7c-.8,1.4-1.5,2.8-2.4,4.1l-2.6,4.1-2.6,4a13.7,13.7,0,0,1-1.3,2l-1.4,2L776,695.9l13.8,9.5,1.6-2.3,1.5-2.3,3-4.7,3-4.7C799.9,689.9,800.8,688.2,801.7,686.6Z" fill="#346751"/>
          <path d="M763,774.1l8.8-8.3,1.1-1,1-1.1,2.1-2.2,4.1-4.4,2.1-2.1,2.1-2.3,3.9-4.5,4-4.6,1.9-2.3L796,739l-19.5-15.8-13-10.5L744,697l-13-10.5-19.5-15.7-13-10.5-19.6-15.7-.9,1.3-1.1,1.2-2.1,2.4-2.1,2.5-1.1,1.2-1.2,1.2-2.2,2.3-1.1,1.2-.6.6-.6.5-4.7,4.5a25,25,0,0,1-2.4,2.2l-2.5,2.1-2.4,2.1-2.6,2,15.6,19.7,10.4,13,15.5,19.7,10.4,13.1L718.7,757l10.4,13.1,15.6,19.7,4.7-3.8c1.6-1.2,3.1-2.6,4.6-3.9l4.5-3.9A59.2,59.2,0,0,0,763,774.1Z" fill="#346751"/>
          <g>
            <path d="M263.1,513.9c.4-7,1.5-13.9,2.3-20.8l24.8,3.7,16.5,2.6,24.8,3.7,16.5,2.6,24.7,3.7c-.3,4.3-1.2,8.6-1.3,12.9l-.3,3.3c0,.5-.1,1-.1,1.6v1.6c-.1,2.2-.1,4.4-.2,6.6a8.6,8.6,0,0,0,0,1.6v8.2l.3,3.2-25,1.8-16.7,1.2-25,1.7-.3-4.5v-4.5l-.2-4.5v-2.2a8.9,8.9,0,0,1,0-2.3c.1-3,.1-6,.2-9v-2.2c.1-.8.1-1.5.2-2.3l.4-4.4-16.7-1.3-.4,4.8a17.9,17.9,0,0,1-.2,2.3v2.5l-.3,9.6a19.3,19.3,0,0,0,.1,2.4v2.4l.2,4.8v4.8l.4,4.8L263,556l-.5-5.2V537.6a22.6,22.6,0,0,1,0-2.6l.3-10.6v-2.6c0-.9.2-1.7.2-2.6Zm66.6,5.2-.3,4c0,.7-.1,1.3-.1,2v2c0,2.7-.1,5.4-.2,8.1h16.7c.1-2.5.2-5,.2-7.5v-1.9c.1-.6.1-1.2.2-1.8l.3-3.7Z" fill="#c84b31"/>
            <path d="M221.5,510.7l-.5,6c0,1-.2,2-.2,3.1v3l-.3,12v6.1l.2,6c0,2,.1,4,.1,6l.5,6,25-1.7-.4-5.6c-.1-1.8-.1-3.7-.2-5.5v-8.4a26.1,26.1,0,0,1,0-2.8l.3-11.1V521a26.4,26.4,0,0,0,.2-2.8l.5-5.5c.3-7.5,1.5-14.8,2.4-22.2l-24.8-3.7C223.2,494.7,221.9,502.7,221.5,510.7Z" fill="#c84b31"/>
          </g>
          <g>
            <path d="M281.9,432.4l1.9-4.8.5-1.3.5-1.2,1.1-2.3,4.4-9.6,22.5,10.9,15,7.3,22.6,11c-1.2,2.4-2.2,4.8-3.3,7.2l-.9,1.9-.4.9-.3.9L344,457c-2.1,4.9-3.6,10-5.4,15l16,5c1.7-4.6,3-9.3,5-13.8l1.3-3.5.3-.8.4-.9.8-1.6,3-6.7L388,460.6c-1,1.9-1.8,3.9-2.7,5.8l-.7,1.5-.3.7-.3.8-1.1,3c-1.8,3.9-2.9,8-4.4,12s-2.5,8.2-3.2,12.4l-24.5-5.6-16.2-3.7-24.5-5.7-16.2-3.7-24.5-5.6c1.4-6.9,3.6-13.6,5.4-20.3S279.2,438.9,281.9,432.4Zm23.3,9.3c-2.5,5.8-4.3,11.9-6.5,17.9l16,5c2-5.6,3.7-11.3,6-16.8Z" fill="#c84b31"/>
            <path d="M243.1,417.1c-3.2,7.4-5.5,15.1-8.2,22.7s-4.5,15.4-6.1,23.3l24.4,5.6c1.5-7.3,3.7-14.3,5.7-21.5s4.6-14.1,7.5-20.9l2-5.2.5-1.3.6-1.2,1.1-2.6c1.6-3.3,3-6.7,4.6-10.1L252.7,395c-1.7,3.6-3.3,7.3-5,11l-1.3,2.7-.6,1.4-.5,1.4Z" fill="#c84b31"/>
          </g>
          <g>
            <path d="M311.4,376.9a41.7,41.7,0,0,0-2.9,4.4l-2.9,4.4-2.8,4.4-2.6,4.6,21.6,12.6,2.4-4.2,2.6-4,2.6-4c.8-1.4,1.7-2.7,2.6-4l13.8,9.4,20.7,14.2,13.8,9.4c-.8,1-1.4,2.1-2.1,3.1l-2,3.1a32.8,32.8,0,0,1-2,3.1l-1.8,3.3,21.7,12.6,1.5-2.9,1.8-2.7,1.7-2.7,1.8-2.7c1.3-1.7,2.6-3.5,3.8-5.3l.4-.6.5-.7,1.1-1.2,2-2.6,1-1.3,1-1.2,2.1-2.5c1.5-1.6,2.8-3.3,4.3-4.8L398.8,401a65.5,65.5,0,0,0-4.9,5.6l-2.5,2.8-1.2,1.4-1.1,1.5-13-10.5-19.6-15.6-13-10.5,1.4-1.9,1.6-1.8,3.1-3.6c2.1-2.4,4.1-4.9,6.4-7.2l-18.4-17.1c-2.5,2.5-4.6,5.3-7,7.9l-3.4,4c-.6.6-1.1,1.3-1.7,2l-1.6,2.1-3.2,4.1-1.7,2.1-.8,1a4.1,4.1,0,0,0-.7,1.1Z" fill="#c84b31"/>
            <path d="M291.3,334l-3.7,4.7-1.9,2.4-.9,1.2-.9,1.2-7,9.8c-1.2,1.6-2.2,3.3-3.3,5l-3.3,5.1c-1.1,1.7-2.2,3.4-3.2,5.1l-3,5.2,21.6,12.6,2.8-4.8,3-4.7,3-4.7c1-1.5,2-3.1,3.1-4.6l6.4-9.1.8-1.1.9-1.1,1.7-2.2,3.5-4.4,1.7-2.2,1.7-2.1,3.7-4.2c2.4-2.8,4.8-5.7,7.4-8.3l-18.3-17.1c-2.9,2.8-5.4,6-8.1,9l-3.9,4.6a21.1,21.1,0,0,0-1.9,2.3Z" fill="#c84b31"/>
          </g>
          <g>
            <path d="M385.3,303.1l1.1-.8,1.1-.7,2.2-1.4,4.5-2.9,4.4-2.8,4.5-2.6,12.6,21.7,8.4,14.5,12.5,21.7,8.4,14.4,12.5,21.7-2.8,1.6-2.7,1.7-2.7,1.8-1.4.8-.7.5-.6.4-5.3,3.8-2.6,2-2.5,2-2.6,2-2.4,2.1-2.5,2.1-1.2,1.1-1.2,1.1-17-18.4-11.4-12.2-17-18.4-11.4-12.2-17-18.4,1.9-1.8,2-1.8,4-3.4,3.9-3.4c1.4-1.2,2.8-2.2,4.2-3.3l4.1-3.3c1.4-1,2.7-2.2,4.2-3.1Zm14.2,20.7-7.8,5.5a38,38,0,0,0-3.8,2.9l-3.8,3,10.4,13,15.6,19.6,10.4,13.1,3-2.3,2.9-2.3,6-4.3L423,358.2l-14.1-20.6Z" fill="#c84b31"/>
            <path d="M361.8,268.6l-9.8,7c-1.7,1.1-3.2,2.4-4.8,3.6l-4.8,3.7-4.7,3.8-4.6,3.9-4.5,4-2.3,2-2.2,2.1L341.2,317l2-1.9,2.1-1.8,4.2-3.7,4.2-3.6,4.4-3.5,4.3-3.4c1.5-1.1,2.9-2.3,4.5-3.4l9-6.4,1.2-.8,1.1-.8,2.4-1.5,4.7-3,4.7-3,4.8-2.7-12.6-21.7-5.2,3-5.1,3.2-5.1,3.3-2.5,1.6-1.3.8Z" fill="#c84b31"/>
          </g>
          <path d="M351,741.3l-3.8-3.6-3.7-3.7-7.3-7.6-12.3,11.3,7.7,8a36.8,36.8,0,0,0,4,3.9l4,3.9-17.2,18.2,4.4,4.2,4.6,3.9,4.5,4,2.3,2,2.4,1.8,15.8-19.5,8.7,6.9,9.1,6.5,9.5-13.7L398,747.2l9.5-13.8-7.3-5.2-7.1-5.5-1.7-1.4-1.7-1.5-3.4-2.9-3.4-2.9-3.2-3.1,17.1-18.3,2.9,2.8,3.1,2.6,3,2.7,1.5,1.3,1.6,1.2,6.3,5,6.6,4.6,9.5-13.7-6.1-4.3-5.8-4.6,15.8-19.4-1.3-1-1.2-1.1-2.5-2.1-2.4-2.1-2.4-2.3-17.1,18.3-2.7-2.6c-.9-.9-1.9-1.7-2.7-2.6l-5.1-5.4-12.3,11.3-18.5,17-12.3,11.3,6.6,6.9c1.1,1.2,2.3,2.2,3.4,3.3l3.5,3.4,3.5,3.3,3.6,3.1,3.6,3.1,1.8,1.6,1.9,1.5-15.7,19.5-2.1-1.7-2-1.7-4-3.4-3.9-3.5Z" fill="#346751"/>
          <path d="M284.7,683.8l-21.8,12.4,3,5.3,1.5,2.6,1.7,2.5,6.5,10.2,20.7-14c4.4,6,8.5,12.1,13.2,17.9l13.2-10.4,19.6-15.5,13.1-10.3,19.7-15.6,13.1-10.3c-3.2-3.8-5.8-7.9-8.8-11.9l20.8-14c-1.1-1.9-2.3-3.7-3.5-5.5l-.9-1.3c-.3-.5-.5-1-.8-1.4l-1.6-2.8-21.7,12.4-1.9-3.2-1.7-3.3-1.6-3.3-.9-1.6-.4-.8-.4-.8-15.1,7.1L327.1,639l.4,1,.6,1,1,2,2,4c.7,1.3,1.3,2.7,2.1,3.9l2.2,3.9,21.8-12.4,2,3.5,1,1.7,1.1,1.7,4.3,6.7-20.8,14.1L331,679.4l-20.8,14-5.7-8.8-1.4-2.2-1.3-2.3-2.6-4.6,21.7-12.4-2.4-4.1c-.8-1.4-1.4-2.9-2.2-4.3l-2.2-4.2-1.1-2.2-.5-1-.5-1.1L289.4,657l-15.1,7.1.6,1.3.6,1.2,1.3,2.5,2.5,5,2.6,4.9Z" fill="#346751"/>
          <path d="M228.2,606.6l1.4,5.9.7,2.9.3,1.5.4,1.5,3.3,11.6c.3.9.5,1.9.9,2.9l.9,2.8,2,5.7,1.9,5.7,2.2,5.6,23.4-9,15.5-6,23.4-9.1,15.6-6,23.4-9.1,15.5-6,23.4-9-1.2-3-1-3-1-3.1-.6-1.5a8.3,8.3,0,0,1-.4-1.5c-.6-2.1-1.1-4.1-1.8-6.2l-.2-.8-.2-.7-.3-1.6L375,574c-.3-1.1-.6-2.1-.8-3.2l-.5-3.1-.6-3.2-.3-1.6c-.1-.5-.1-1.1-.2-1.6l-24.8,3.6-16.5,2.4-24.8,3.6L290,573.3l-24.8,3.6-16.6,2.4-24.8,3.6c.2,1,.2,2,.4,3l.6,3,1,5.9,1.1,6C227.3,602.7,227.8,604.7,228.2,606.6Z" fill="#346751"/>
          <g>
            <path d="M703.5,303.7l8.6,6,8.2,6.5-15.7,19.6-10.4,13-15.7,19.5-10.5,13-15.7,19.6-5.1-4.1-5.3-3.7-1.3-.9-1.3-.9-2.8-1.7-2.7-1.8-2.8-1.6-2.8-1.6-2.8-1.6-5.7-2.9,11-22.5,7.3-15L649,320c2.6,1.4,5.2,2.8,7.9,4.1a30,30,0,0,1,3.9,2.2l3.9,2.2,3.9,2.2,3.7,2.5,3.8,2.4,1.9,1.2,1.8,1.3,9.5-13.8-2-1.4-2-1.3-4-2.5-4-2.6-4.2-2.4-4.1-2.4-4.2-2.3-8.5-4.4,10.9-22.5,9.4,4.8a40.9,40.9,0,0,1,4.6,2.5l4.5,2.6,4.6,2.6,4.4,2.9,4.4,2.8,2.2,1.4Zm-37.9,55-1.6-1.2-1.7-1-3.4-2.2-3.4-2.2-3.4-2-8.5,14.5,3.3,1.8,3.1,2,3.1,2,1.5,1a8.3,8.3,0,0,1,1.5,1.1Z" fill="#c84b31"/>
            <path d="M727.2,269.2a22,22,0,0,1-2.5-1.7l-2.5-1.6-5.1-3.3-5.1-3.2-5.2-3-5.3-3c-1.7-1-3.4-2.1-5.2-3l-10.8-5.5-10.9,22.6,9.9,5c1.6.8,3.2,1.8,4.8,2.7l4.8,2.8,4.9,2.8,4.7,3,4.6,3,2.4,1.5,2.3,1.6,9,6.4,8.8,6.9,15.7-19.5-9.5-7.5Z" fill="#c84b31"/>
          </g>
          <g>
            <path d="M764.7,360.9,768,365l1.6,2.1c.5.6,1,1.4,1.5,2.1l6.1,8.6-20.7,14-13.8,9.4L722,415.3c-1.6-2.1-3.1-4.3-4.7-6.5l-1.1-1.6-1.3-1.6-2.5-3.2-2.4-3.1-2.7-3.1-2.6-3-1.3-1.5-1.4-1.5-12.3,11.3,1.3,1.4,1.2,1.4,2.4,2.8,2.5,2.8,2.2,2.9,2.3,2.9,1.2,1.5,1.1,1.5,4.3,6-20.8,14.1-3.7-5.3-.9-1.3-1.1-1.2-2-2.6-2-2.6-2.1-2.4-2.1-2.4-1.1-1.3-1.1-1.2-4.5-4.7-4.7-4.4L679.2,391l11.4-12.2,17.1-18.3,11.4-12.2L736.2,330l7.6,7.3,7.3,7.6,1.8,1.9,1.7,2,3.4,4,3.5,3.9Zm-19.6,15.6-2.9-3.8-3.2-3.6-3.1-3.7-1.6-1.8-1.6-1.7-12.3,11.3,1.5,1.6,1.5,1.7,2.9,3.4,3,3.4,2.7,3.5Z" fill="#c84b31"/>
            <path d="M797.4,334.9l-3.7-4.8-4-4.5-3.9-4.6-2-2.3-2.1-2.2-8.3-8.7c-2.8-2.8-5.8-5.6-8.7-8.3l-17.1,18.3,8.1,7.7,7.6,8,2,2.1,1.8,2.1,3.6,4.2,3.7,4.2,3.4,4.4,3.4,4.3L783,357l1.6,2.3,6.4,9.1,20.8-14.1-7-9.9L803,342l-1.9-2.4Z" fill="#c84b31"/>
          </g>
          <g>
            <path d="M798.2,414.1c-3.2-6.2-6.2-12.5-9.9-18.5l-21.7,12.5c3.3,5.4,6.1,11.2,9,16.9l-15,7.2L738,443.1l-15.1,7.2c-2.3-4.3-4.3-8.8-6.9-13l-21.8,12.5c2.3,3.6,4.1,7.6,6.1,11.3.9,2,1.7,4,2.7,5.9l.6,1.5a9.4,9.4,0,0,1,.6,1.5l1.2,3,1.2,2.9c.2.5.3,1,.5,1.5l.5,1.6,1,3,.6,1.5c.2.5.3,1,.5,1.5l23.9-7.3a12.1,12.1,0,0,0-.5-1.8l-.7-1.7-1.1-3.5-.6-1.7-.6-1.8-1.4-3.4,15.6-6.1,23.3-9.1,15.6-6.1,1.7,4.5a14.3,14.3,0,0,1,.8,2.2l.8,2.3L788,456l.8,2.2c.2.8.5,1.5.7,2.3l24-7.3c-.3-.9-.6-1.7-.8-2.5l-.9-2.5-1.7-5-.8-2.5a23.4,23.4,0,0,0-.9-2.4l-1.9-4.9-1.9-4.9a24.4,24.4,0,0,1-1-2.4l-1.1-2.4Z" fill="#c84b31"/>
            <path d="M845.4,418.2l-2.2-5.6-1.2-2.8-1.2-2.8-5-11c-3.6-7.1-7.1-14.4-11.3-21.3l-21.7,12.5c3.8,6.4,7,13.1,10.5,19.7l4.5,10.1,1.2,2.5c.3.9.7,1.8,1,2.6l2,5.2,2.1,5.2a19.9,19.9,0,0,1,.9,2.6l.9,2.6,1.8,5.3.9,2.6a27.6,27.6,0,0,1,.8,2.7l24-7.4-.9-2.9-1-2.8-1.9-5.7-1-2.9c-.3-.9-.6-1.9-1-2.8Z" fill="#c84b31"/>
          </g>
          <g>
            <path d="M825,515l.4,5.2v5.3l.2,10.5H717.3c-.1-2.2-.2-4.4-.2-6.6v-3.2l-.3-3.3-.3-3.2v-1.6l-.3-1.6c-.3-2.2-.5-4.3-.8-6.4a7.8,7.8,0,0,0-.2-1.6l-.3-1.6-.6-3.2c-.2-1-.3-2.1-.6-3.1l-.7-3.2,24.4-5.5,16.3-3.7,24.5-5.5,16.2-3.7,24.5-5.5,1.2,5.1.9,5.1.9,5.2.5,2.6a20.2,20.2,0,0,1,.4,2.6l1.3,10.4.4,2.6.2,2.6Zm-25,1.8-.4-4.8v-2.4l-.4-2.3-1.2-9.5-16.5,2.4-24.8,3.7-16.5,2.5.9,7.3.3,1.8v1.9l.3,3.7,16.6-1.2,25-1.9Z" fill="#c84b31"/>
            <path d="M866.6,511.9l-.4-6-.3-3-.4-3-1.5-12c-.1-1-.3-2-.4-3L863,482l-1-6c-.4-1.9-.7-3.9-1.1-5.9l-1.4-5.9-24.4,5.6,1.2,5.4c.4,1.8.7,3.6,1,5.4l1,5.5.5,2.8a25.1,25.1,0,0,1,.4,2.7l1.4,11,.4,2.8.2,2.8.4,5.5.5,5.6v5.6l.2,11.1h25.1l-.3-12.1v-6Z" fill="#c84b31"/>
          </g>
          <path d="M462.6,266.1l10.1-2.8c3.4-.9,6.8-1.6,10.2-2.4l-3.6-16.3-10.8,2.5-10.7,3-7.2-24-2.9.9-2.9.9-5.7,2-5.7,1.9-5.6,2.2,9,23.4-5.2,2-2.6,1-1.3.5-1.2.6-10.1,4.6,7.1,15.1,10.7,22.6,7.2,15.1,8.1-3.7,1-.4,1.1-.4,2.1-.8,4.1-1.7,4.2-1.6,4.2-1.4,4.2-1.5,2.1-.7,2.2-.6,7.2,24-1.9.5-1.9.7-3.8,1.3-3.8,1.2-3.7,1.5-3.7,1.5-1.9.7-.9.3-.9.5-7.3,3.3,7.2,15.1,6.7-3.1.8-.4.9-.3,1.7-.7,3.4-1.3,9,23.4c1-.4,2-.9,3-1.2l3-1,3.1-1,1.5-.6,1.5-.4-7.2-24,7.1-2,7.1-1.7-3.6-16.3-5.4-24.4-3.6-16.4-9.3,2.2-9.1,2.6-2.3.7-2.3.7-4.5,1.6-4.5,1.5-4.5,1.7-9-23.3,4.9-2,5-1.6,4.9-1.7,2.5-.9Z" fill="#346751"/>
          <path d="M545.6,237.5l.2-25.1c-2.1-.1-4.1.1-6.1.1l-6,.2h-6l-6.1.5,1.7,25-5.5.4-2.8.2-2.8.3-11,1.4,2.4,16.5,3.5,24.8,2.4,16.5,3.6,24.8,2.3,16.6,7.4-1,1.8-.2h1.9l3.7-.2,1.7,24.9,3.2-.2h6.6c1.1,0,2.2-.1,3.3,0V337.7l7.5.2h3.7l3.7.3,1.3-16.6,2-25-4.5-.4-2.2-.2h-2.3l-9-.2v25c-1.4-.1-2.7.1-4.1.1H533l-4,.3-1.7-25-1.1-16.7-1.7-25,5.2-.4h10.6a45.1,45.1,0,0,1,5.2-.1v25.1l9.6.2h2.4l2.4.2,4.8.3,2-24.9,1.3-16.7-5.6-.4-2.8-.2h-2.7Z" fill="#346751"/>
          <path d="M640.8,227.1l-11.6-3.3-2.9-.8-1.5-.4-1.4-.4-5.9-1.3-5.9-1.4c-1-.2-1.9-.5-2.9-.6l-3-.6-11.9-2.1L590,241l-2.6,16.5-3.8,24.8-2.5,16.5-3.9,24.7L574.7,340l-3.8,24.8,6.3,1.2,1.6.2,1.5.4,3.2.7,3.1.7.8.2.8.2,1.5.5,6.2,1.7,6,2.1,1.6.5,1.4.6,3,1.2,9.3-23.3,6.1-15.5,9.3-23.3,6.2-15.5,9.2-23.3,6.2-15.6,9.3-23.2-5.7-2.2L655,232l-2.8-1Z" fill="#346751"/>
        </g>
      </g>
    </g>
  </g>
</svg>
