<svg xmlns="http://www.w3.org/2000/svg" viewBox="0 0 1080 1080">
  <title>vowelextensions</title>
  <g id="Layer_2" data-name="Layer 2">
    <g id="Layer_6" data-name="Layer 6">
      <rect width="1080" height="1080" fill="#161616"/>
      <g id="Layer_2-2" data-name="Layer 2">
        <g>
          <rect x="774" y="37" width="37" height="37" fill="#346751"/>
          <polygon points="848 135.7 848 160.3 811 160.3 811 135.7 811 98.7 774 98.7 774 135.7 774 160.3 774 197.3 811 197.3 811 222 811 259 848 259 848 222 848 197.3 885 197.3 885 160.3 885 135.7 885 98.7 848 98.7 848 135.7" fill="#346751"/>
          <rect x="848" y="37" width="37" height="37" fill="#346751"/>
        </g>
        <g>
          <rect x="922" y="37" width="37" height="37" fill="#346751"/>
          <polygon points="996 135.7 959 135.7 959 98.7 922 98.7 922 135.7 922 160.3 959 160.3 959 197.3 922 197.3 922 222 922 259 959 259 959 222 996 222 996 259 1033 259 1033 222 1033 197.3 996 197.3 996 160.3 1033 160.3 1033 135.7 1033 98.7 996 98.7 996 135.7" fill="#346751"/>
          <rect x="996" y="37" width="37" height="37" fill="#346751"/>
        </g>
        <g>
          <polygon points="404 616.7 404 592 441 592 441 555 404 555 367 555 330 555 330 592 367 592 367 616.7 367 653.7 367 678.3 330 678.3 330 715.3 367 715.3 404 715.3 441 715.3 441 678.3 404 678.3 404 653.7 404 616.7" fill="#c84b31"/>
          <polygon points="367 740 330 740 330 777 367 777 404 777 441 777 441 740 404 740 367 740" fill="#c84b31"/>
        </g>
        <g>
          <path d="M552,555H478V715.3H589V555Zm0,61.7v61.6H515V592h37Z" fill="#ecdbba"/>
          <polygon points="515 740 478 740 478 777 515 777 552 777 589 777 589 740 552 740 515 740" fill="#ecdbba"/>
        </g>
        <g>
          <polygon points="700 555 700 592 700 616.7 700 653.7 700 678.3 663 678.3 663 653.7 663 616.7 663 592 663 555 626 555 626 592 626 616.7 626 653.7 626 678.3 626 715.3 663 715.3 700 715.3 737 715.3 737 678.3 737 653.7 737 616.7 737 592 737 555 700 555" fill="#ecdbba"/>
          <polygon points="663 740 626 740 626 777 663 777 700 777 737 777 737 740 700 740 663 740" fill="#ecdbba"/>
        </g>
        <polygon points="848 555 848 592 848 616.7 848 653.7 848 678.3 811 678.3 811 653.7 811 616.7 811 592 811 555 774 555 774 592 774 616.7 774 653.7 774 678.3 774 715.3 811 715.3 848 715.3 848 740 811 740 774 740 774 777 811 777 848 777 885 777 885 740 885 715.3 885 678.3 885 653.7 885 616.7 885 592 885 555 848 555" fill="#c84b31"/>
        <g>
          <polygon points="959 740 922 740 922 777 959 777 996 777 1033 777 1033 740 996 740 959 740" fill="#c84b31"/>
          <polygon points="996 555 996 592 959 592 959 555 922 555 922 592 922 616.7 959 616.7 959 653.7 922 653.7 922 678.3 922 715.3 959 715.3 959 678.3 996 678.3 996 715.3 1033 715.3 1033 678.3 1033 653.7 996 653.7 996 616.7 1033 616.7 1033 592 1033 555 996 555" fill="#c84b31"/>
        </g>
        <g>
          <rect x="959" y="296" width="37" height="37" fill="#346751"/>
          <polygon points="996 357.7 996 394.7 959 394.7 959 357.7 922 357.7 922 394.7 922 419.3 959 419.3 959 456.3 922 456.3 922 481 922 518 959 518 959 481 996 481 996 518 1033 518 1033 481 1033 456.3 996 456.3 996 419.3 1033 419.3 1033 394.7 1033 357.7 996 357.7" fill="#346751"/>
        </g>
        <g>
          <rect x="811" y="296" width="37" height="37" fill="#346751"/>
          <polygon points="848 357.7 848 394.7 848 419.3 811 419.3 811 394.7 811 357.7 774 357.7 774 394.7 774 419.3 774 456.3 811 456.3 848 456.3 848 481 811 481 774 481 774 518 811 518 848 518 885 518 885 481 885 456.3 885 419.3 885 394.7 885 357.7 848 357.7" fill="#346751"/>
        </g>
        <g>
          <path d="M515,875.7H478v37h74v24.6H478V1036H589V875.7H515ZM552,999H515V974.3h37Z" fill="#c84b31"/>
          <polygon points="552 814 515 814 478 814 478 851 515 851 552 851 589 851 589 814 552 814" fill="#c84b31"/>
        </g>
        <g>
          <path d="M663,875.7H626V1036H737V999H663V974.3h74V875.7H663Zm37,61.6H663V912.7h37Z" fill="#ecdbba"/>
          <polygon points="700 814 663 814 626 814 626 851 663 851 700 851 737 851 737 814 700 814" fill="#ecdbba"/>
        </g>
        <g>
          <polygon points="811 875.7 774 875.7 774 912.7 811 912.7 811 937.3 811 974.3 811 999 774 999 774 1036 811 1036 848 1036 885 1036 885 999 848 999 848 974.3 848 937.3 848 912.7 885 912.7 885 875.7 848 875.7 811 875.7" fill="#c84b31"/>
          <polygon points="848 814 811 814 774 814 774 851 811 851 848 851 885 851 885 814 848 814" fill="#c84b31"/>
        </g>
        <g>
          <path d="M959,875.7H922V1036h111V875.7H959Zm37,61.6V999H959V912.7h37Z" fill="#c84b31"/>
          <polygon points="996 814 959 814 922 814 922 851 959 851 996 851 1033 851 1033 814 996 814" fill="#c84b31"/>
        </g>
        <g>
          <rect x="478" y="37" width="37" height="37" fill="#346751"/>
          <path d="M515,98.7H478V259H589V98.7H515Zm37,61.6V222H515V135.7h37Z" fill="#346751"/>
          <rect x="552" y="37" width="37" height="37" fill="#346751"/>
        </g>
        <g>
          <rect x="34" y="37" width="37" height="37" fill="#346751"/>
          <path d="M71,98.7H34v37h74v24.6H34V259H145V98.7H71ZM108,222H71V197.3h37Z" fill="#346751"/>
          <rect x="108" y="37" width="37" height="37" fill="#346751"/>
        </g>
        <g>
          <rect x="182" y="37" width="37" height="37" fill="#346751"/>
          <path d="M219,98.7H182V259H293V222H219V197.3h74V98.7H219Zm37,61.6H219V135.7h37Z" fill="#346751"/>
          <rect x="256" y="37" width="37" height="37" fill="#346751"/>
        </g>
        <g>
          <rect x="330" y="37" width="37" height="37" fill="#346751"/>
          <polygon points="367 98.7 330 98.7 330 135.7 367 135.7 367 160.3 367 197.3 367 222 330 222 330 259 367 259 404 259 441 259 441 222 404 222 404 197.3 404 160.3 404 135.7 441 135.7 441 98.7 404 98.7 367 98.7" fill="#346751"/>
          <rect x="404" y="37" width="37" height="37" fill="#346751"/>
        </g>
        <g>
          <rect x="626" y="37" width="37" height="37" fill="#346751"/>
          <polygon points="700 135.7 700 160.3 700 197.3 700 222 663 222 663 197.3 663 160.3 663 135.7 663 98.7 626 98.7 626 135.7 626 160.3 626 197.3 626 222 626 259 663 259 700 259 737 259 737 222 737 197.3 737 160.3 737 135.7 737 98.7 700 98.7 700 135.7" fill="#346751"/>
          <rect x="700" y="37" width="37" height="37" fill="#346751"/>
        </g>
        <polygon points="108 333 145 333 145 296 108 296 71 296 34 296 34 333 34 357.7 34 394.7 71 394.7 108 394.7 108 419.3 71 419.3 34 419.3 34 456.3 71 456.3 71 481 34 481 34 518 71 518 108 518 145 518 145 481 108 481 108 456.3 145 456.3 145 419.3 145 394.7 145 357.7 108 357.7 71 357.7 71 333 108 333" fill="#c84b31"/>
        <polygon points="256 296 219 296 182 296 182 333 182 357.7 182 394.7 182 419.3 182 456.3 219 456.3 219 481 182 481 182 518 219 518 256 518 293 518 293 481 256 481 256 456.3 293 456.3 293 419.3 293 394.7 256 394.7 256 419.3 219 419.3 219 394.7 219 357.7 219 333 256 333 256 357.7 293 357.7 293 333 293 296 256 296" fill="#c84b31"/>
        <g>
          <rect x="71" y="740" width="37" height="37" fill="#c84b31"/>
          <path d="M108,555H34v37h74v24.7H34v98.6H145V555Zm0,123.3H71V653.7h37Z" fill="#c84b31"/>
        </g>
        <g>
          <rect x="219" y="740" width="37" height="37" fill="#c84b31"/>
          <path d="M256,555H182V715.3H293v-37H219V653.7h74V555Zm0,61.7H219V592h37Z" fill="#c84b31"/>
        </g>
        <polygon points="108 875.7 145 875.7 145 851 108 851 108 814 71 814 71 851 34 851 34 875.7 34 912.7 34 937.3 71 937.3 108 937.3 108 974.3 71 974.3 34 974.3 34 999 71 999 71 1036 108 1036 108 999 145 999 145 974.3 145 937.3 145 912.7 108 912.7 71 912.7 71 875.7 108 875.7" fill="#346751"/>
        <polygon points="256 851 256 814 219 814 219 851 182 851 182 875.7 182 912.7 182 937.3 182 974.3 182 999 219 999 219 1036 256 1036 256 999 293 999 293 974.3 293 937.3 256 937.3 256 974.3 219 974.3 219 937.3 219 912.7 219 875.7 256 875.7 256 912.7 293 912.7 293 875.7 293 851 256 851" fill="#346751"/>
        <polygon points="404 814 367 814 330 814 330 851 330 875.7 330 912.7 330 937.3 330 974.3 330 999 330 1036 367 1036 404 1036 441 1036 441 999 441 974.3 441 937.3 441 912.7 441 875.7 441 851 441 814 404 814" fill="#346751"/>
        <polygon points="700 296 663 296 626 296 626 333 626 357.7 626 394.7 626 419.3 626 456.3 626 481 626 518 663 518 700 518 737 518 737 481 737 456.3 737 419.3 737 394.7 737 357.7 737 333 737 296 700 296" fill="#ecdbba"/>
        <polygon points="552 296 515 296 478 296 478 333 478 357.7 478 394.7 478 419.3 478 456.3 478 481 478 518 515 518 552 518 589 518 589 481 589 456.3 589 419.3 589 394.7 589 357.7 589 333 589 296 552 296" fill="#ecdbba"/>
        <polygon points="404 296 367 296 330 296 330 333 330 357.7 330 394.7 330 419.3 330 456.3 330 481 330 518 367 518 404 518 441 518 441 481 441 456.3 441 419.3 441 394.7 441 357.7 441 333 441 296 404 296" fill="#c84b31"/>
      </g>
    </g>
  </g>
</svg>
